<svg id="ea3hwcfO5Mr1" xmlns="http://www.w3.org/2000/svg" xmlns:xlink="http://www.w3.org/1999/xlink" viewBox="0 0 1728 1117" shape-rendering="geometricPrecision" text-rendering="geometricPrecision"><rect width="1728" height="1117" rx="0" ry="0" fill="#fff"/><g id="ea3hwcfO5Mr3"><path d="M1184.5,585c0,218.429-177.07,395.5-395.5,395.5-218.429,0-395.5-177.071-395.5-395.5s177.071-395.5,395.5-395.5c218.43,0,395.5,177.071,395.5,395.5Z" fill="#601554" stroke="#1c092b" stroke-width="9"/><g><path d="M916.277,268.138c0,13.331-10.807,24.138-24.138,24.138s-24.138-10.807-24.138-24.138s10.807-24.138,24.138-24.138s24.138,10.807,24.138,24.138Z" fill="#ff3f00"/><path d="M952.483,256.069c0,4.76-3.86,8.621-8.621,8.621-4.76,0-8.62-3.861-8.62-8.621s3.86-8.621,8.62-8.621c4.761,0,8.621,3.861,8.621,8.621Z" fill="#ff3f00"/><path d="M955.932,339.124L951.057,344l-41.38-41.38l4.876-4.876l41.379,41.38Z" fill="#ff3f00"/><path d="M915.13,308.075l-21.365-2.671c-1.711-.214-3.318.864-3.773,2.526l-8.009,29.371c-.827,3.029,1.147,6.111,4.244,6.626c2.612.436,5.145-1.121,5.934-3.648l6.35-20.323c.514-1.64,2.15-2.657,3.849-2.39l26.438,4.176-13.668-13.667Z" fill="#ff3f00"/><path d="M934.576,317.767l10.56-34.226c1.728-5.598-1.515-11.517-7.165-13.072-5.376-1.479-10.961,1.552-12.651,6.865l-7.522,23.656l16.778,16.777Z" fill="#ff3f00"/><path d="M945.137,283.541l-.404,1.307l23.266-22.495-.002-9.733-23.47,23.292c1.124,2.289,1.424,4.993.61,7.629Z" fill="#ff3f00"/></g><g clip-path="url(#ea3hwcfO5Mr20)"><g><path d="M636.5,320h30c1.382,0,2.5-1.118,2.5-2.5s-1.118-2.5-2.5-2.5h-30c-1.382,0-2.5,1.118-2.5,2.5s1.118,2.5,2.5,2.5Z" fill="#f00"/><path d="M636.5,287.5h30c1.382,0,2.5-1.118,2.5-2.5s-1.118-2.5-2.5-2.5h-30c-1.382,0-2.5,1.118-2.5,2.5s1.118,2.5,2.5,2.5Z" fill="#f00"/><path d="M636.5,255h30c1.382,0,2.5-1.118,2.5-2.5s-1.118-2.5-2.5-2.5h-30c-1.382,0-2.5,1.118-2.5,2.5s1.118,2.5,2.5,2.5Z" fill="#f00"/><path d="M636.5,271.25h30c1.382,0,2.5-1.118,2.5-2.5s-1.118-2.5-2.5-2.5h-30c-1.382,0-2.5,1.118-2.5,2.5s1.118,2.5,2.5,2.5Z" fill="#f00"/><path d="M636.5,303.75h30c1.382,0,2.5-1.118,2.5-2.5s-1.118-2.5-2.5-2.5h-30c-1.382,0-2.5,1.118-2.5,2.5s1.118,2.5,2.5,2.5Z" fill="#f00"/><path d="M690.672,324.177h-.001c-.545.218-1.11.323-1.669.323-1.471,0-2.891-.722-3.746-2.004-5.447-8.171-8.212-22.787-8.212-37.496s2.764-29.325,8.212-37.496c.855-1.282,2.275-2.004,3.746-2.004.559,0,1.124.103,1.67.322l.001.001l3.402,1.356v.001c11.558,4.601,21.414,8.53,28.395,14.089c6.936,5.523,11.03,12.656,11.03,23.731s-4.094,18.208-11.03,23.731c-6.981,5.559-16.837,9.488-28.396,14.089l-.001.001-3.401,1.356Zm-1.486-74.641l-.377-.151-.225.338c-2.55,3.825-4.443,9.208-5.699,15.333C681.627,271.188,681,278.097,681,285s.627,13.812,1.885,19.944c1.256,6.125,3.149,11.508,5.699,15.333l.225.338.377-.151c1.162-.465,2.304-.919,3.424-1.365c10.894-4.337,19.767-7.869,26.059-12.445c3.484-2.533,6.199-5.401,8.04-8.922c1.841-3.523,2.791-7.668,2.791-12.732s-.95-9.209-2.791-12.732c-1.841-3.521-4.556-6.389-8.04-8.922-6.292-4.576-15.165-8.108-26.059-12.445-1.12-.446-2.262-.9-3.424-1.365Z" fill="#f00" stroke="#f00"/></g><clipPath id="ea3hwcfO5Mr20"><rect width="100" height="100" rx="0" ry="0" transform="matrix(-1 0 0-1 734 335)" fill="#fff"/></clipPath></g><g transform="translate(0 0.000001)"><path d="M434.173,548.801c-2.231-.734-4.116-3.376-4.884-6.845l-.254-1.148-.026-41.298c-.023-36.783-.01-41.416.119-42.398.476-3.638,2.216-6.565,4.606-7.749l.624-.309l44.313-.039c40.32-.036,44.38-.019,45.059.19c2.295.705,4.194,3.322,4.977,6.86l.254,1.148.026,41.297c.028,45.511.067,42.376-.545,44.465-.799,2.729-2.279,4.743-4.18,5.684l-.624.31-44.407.024c-39.154.022-44.483-.001-45.059-.19l.001-.002Zm63.604-12.478l1.206-1.263.252-1.006c.237-.944.257-1.202.318-4.181l.066-3.176.454-.582c.544-.698.685-.677,1.313.194l.442.614.108,3.006c.072,1.991.147,3.071.224,3.199.097.161.733.167,3.797.041l3.68-.153.697-.463c.695-.463,1.634-1.341,1.84-1.722.06-.111.724-2.517,1.475-5.347l1.366-5.146.441-7.085.441-7.086-.336-6.012-.337-6.012-1.481-5.511c-.856-3.183-1.614-5.791-1.794-6.174l-.311-.662-1.612.067c-.886.037-2.829.11-4.319.162l-2.708.094-.047,3.15c-.042,2.858-.065,3.195-.241,3.65l-.194.501-.693-.048c-.381-.026-.728-.099-.771-.161-.126-.187-.238-1.145-.387-3.322-.237-3.447-.197-3.215-.638-3.675-.375-.39-.483-.42-2.564-.708l-2.173-.301-.907-.838-.906-.839-.501-1.782c-.465-1.652-1.536-5.753-1.849-7.078-.25-1.062-.356-1.258-.862-1.602-.496-.336-.532-.34-4.763-.411-4.263-.073-5.48-.193-5.875-.579-.187-.183-.21-.323-.21-1.268v-1.063l.522-.652.523-.652h4.196h4.196l.098-.393c.054-.217.184-.942.29-1.611l.193-1.216-.32-1.575-.319-1.575h-14.726c-12.968,0-14.74.026-14.856.215-.073.118-.239.71-.369,1.315l-.236,1.099.264,1.602c.146.881.299,1.652.342,1.714.042.061,1.905.174,4.14.251l4.062.139.794.488.793.488.028,1.046c.017.648-.014,1.122-.081,1.247-.091.168-.807.202-4.266.202h-4.156l-.712.594c-.391.326-1.246,1.176-1.899,1.887l-1.188,1.294-.717,2.066c-.717,2.064-.718,2.067-1.222,2.408-.278.188-1.492.662-2.699,1.052-1.206.39-2.244.755-2.306.811-.575.518-1.173,1.424-1.596,2.413l-.49,1.145-.295,6.055c-.162,3.33-.32,6.116-.35,6.191-.064.159-1.271.163-1.987.007-.372-.081-.567-.218-.782-.547l-.286-.439-.124-8.353c-.068-4.594-.126-8.37-.129-8.389-.027-.218-3.221,1.143-3.447,1.469-.098.142-.189,2.09-.397,8.562l-.27,8.377.581,2.265.581,2.266.05,9.59.05,9.59.607.458c.333.252.685.461.78.465.143.007.487-.359,1.213-1.292.043-.055.174-3.685.291-8.066.211-7.912.213-7.969.428-8.318.211-.345.245-.352,1.688-.352.809,0,1.492.049,1.516.109s.092,3.232.151,7.05c.089,5.709.141,7.245.294,8.658.182,1.675.203,1.759.835,3.364.799,2.027,1.412,2.927,2.213,3.249.295.119,2.471.455,4.834.746c5.095.629,4.862.531,5.472,2.299.27.78,1.023,2.243,2.729,5.301l2.357,4.222.604.334c.332.184,1.045.517,1.584.741l.98.407l13.55.011l13.55.01l1.205-1.264Zm-43.19-24.155c-1.343-.554-2.689-2.276-3.302-4.224-.51-1.623-.724-2.958-.788-4.934-.13-3.996.616-7.229,2.109-9.141c1.035-1.325,2.06-1.84,3.698-1.855c1.236-.011,1.814.187,2.802.96c1.331,1.042,2.23,2.743,2.486,4.704.168,1.291.184,1.275-1.23,1.229l-1.223-.04-.163-.74c-.381-1.729-1.119-2.495-2.496-2.595-.778-.056-.902-.027-1.43.336-.993.683-1.575,2.045-1.825,4.27-.193,1.721-.18,3.253.038,4.563.239,1.432.469,2.09,1.028,2.948.607.931,1.164,1.226,2.142,1.135c1.309-.121,2.27-1.118,2.524-2.619.066-.392.136-.794.155-.892.026-.132.36-.179,1.255-.179c1.41,0,1.401-.01,1.215,1.265-.256,1.759-1.097,3.695-1.973,4.543-.513.496-1.447,1.05-2.167,1.285-.801.261-2.198.252-2.855-.019Zm36.87.076c-1.525-.555-2.819-2.198-3.542-4.502-.603-1.922-.695-2.656-.697-5.583-.001-2.874.111-3.723.751-5.67c1.089-3.316,3.271-4.961,5.875-4.43c1.898.387,3.4,1.885,4.071,4.058.291.945.508,2.284.424,2.62-.043.173-.271.203-1.284.17l-1.231-.04-.154-.706c-.188-.862-.727-1.841-1.248-2.267-.33-.27-.536-.318-1.369-.319-.859,0-1.037.044-1.432.353-1.274.998-1.913,3.471-1.812,7.019.082,2.891.753,4.758,2.021,5.621.336.229.559.269,1.214.218c1.519-.117,2.344-1.037,2.668-2.977l.108-.644l1.2-.04c.66-.022,1.239.018,1.285.089.151.231-.101,1.771-.484,2.966-.65,2.023-1.895,3.395-3.619,3.984-.713.244-2.176.286-2.745.08Zm-27.944-.514c-.035-.055-.064-4.469-.064-9.809v-9.71h1.249c.926,0,1.276.049,1.352.19.068.125.112,1.401.128,3.686l.026,3.495h2.381h2.381l.025-3.495c.017-2.285.061-3.561.129-3.686.148-.275,2.348-.271,2.497.005.077.141.099,2.815.082,9.769l-.024,9.575h-1.308-1.307l-.047-4.294-.047-4.295h-2.381-2.382l-.046,4.295-.047,4.294-1.266.039c-.696.022-1.295-.004-1.331-.059Zm12.699-.003c-.034-.053-.063-4.388-.063-9.634c0-7.228.027-9.58.112-9.71.178-.272,8.885-.245,9.032.027.071.132.099.731.082,1.754l-.027,1.554-3.222.071-3.222.072v2.076v2.075l2.989.072l2.988.071v1.646v1.647l-2.988.071-2.989.072v2.362v2.362l3.409.071l3.409.072v1.646v1.646l-4.723.037c-2.598.02-4.752-.006-4.787-.06Zm24.096.003c-.036-.055-.065-4.469-.065-9.809v-9.71h1.242c.842,0,1.278.055,1.354.172.082.125.112,1.215.112,4.008c0,3.065.025,3.836.123,3.836.067,0,1.17-1.803,2.451-4.007l2.329-4.006l1.427-.001c1.162-.002,1.437.037,1.479.206.034.133-.789,1.615-2.314,4.166-1.301,2.177-2.379,4.045-2.396,4.152-.016.106,1.173,2.581,2.642,5.5c1.47,2.919,2.647,5.37,2.616,5.446-.032.08-.679.139-1.528.139-1.41,0-1.481-.014-1.66-.322-.103-.177-1.017-2.045-2.032-4.151-1.016-2.106-1.877-3.829-1.915-3.829-.037,0-.317.432-.621.96l-.554.96-.047,3.155-.046,3.155-1.266.04c-.697.022-1.296-.005-1.331-.06Z" fill="#f00"/><path d="M1156.08,494.365l-9.39-6.055-36.26,12.891-6.78-4.015h-17.15v-2.238h7.36v-6.094h-20.82v6.094h7.36v2.238h-19.15l-12.63-7.274-9.62,10.042l20.46,26.488.19-.149v3.398h44.24l42.61-34.247l6.28,4.05l3.3-5.129Zm-109.05,6.012l2.69-2.804l9.92,5.721v13.417l-12.61-16.334Zm54.71,23.219h-35.99v-20.317h36.23l7.81,4.623l20.57-7.313-28.62,23.007ZM1159,512.145c0,2.52-2.04,4.567-4.57,4.567s-4.57-2.042-4.57-4.567c0-2.53,4.57-10.538,4.57-10.538s4.57,8.011,4.57,10.538Z" fill="#f00"/><path d="M508.282,638.493c-.367-2.269-2.489-3.808-4.742-3.438-2.251.37-3.778,2.51-3.411,4.779l19.882,122.839h-64.022l19.883-122.839c.367-2.269-1.161-4.409-3.412-4.779-2.252-.37-4.374,1.169-4.741,3.438L447.054,766.166c-.195,1.206.145,2.437.929,3.367.785.931,1.936,1.467,3.147,1.467h73.74c1.212,0,2.362-.536,3.147-1.467.784-.93,1.124-2.161.929-3.367L508.282,638.493Z" fill="#f00"/><path d="M487.339,752.278c-2.281,0-4.13-1.864-4.13-4.163v-8.882c0-2.3,1.849-4.164,4.13-4.164s4.131,1.864,4.131,4.164v8.882c0,2.299-1.849,4.163-4.131,4.163Z" fill="#f00"/><path d="M487.339,723.55c-2.281,0-4.13-1.864-4.13-4.163v-8.882c0-2.3,1.849-4.164,4.13-4.164s4.131,1.864,4.131,4.164v8.882c0,2.299-1.849,4.163-4.131,4.163Z" fill="#f00"/><path d="M487.339,694.822c-2.281,0-4.13-1.864-4.13-4.163v-8.882c0-2.299,1.849-4.163,4.13-4.163s4.131,1.864,4.131,4.163v8.882c0,2.299-1.849,4.163-4.131,4.163Z" fill="#f00"/><path d="M487.339,666.095c-2.281,0-4.13-1.864-4.13-4.164v-8.882c0-2.299,1.849-4.163,4.13-4.163s4.131,1.864,4.131,4.163v8.882c0,2.3-1.849,4.164-4.131,4.164Z" fill="#f00"/><path d="M667.363,823.026c-.075.13-.13,14.083-.13,31.023c0,29.043-.019,30.795-.317,30.957-1.116.583-2.827,2.337-3.683,3.732-3.535,5.841-3.591,15.706-.112,21.709c3.517,6.036,8.818,6.069,12.298,0s3.442-15.868-.093-21.709c-.837-1.395-2.567-3.149-3.665-3.732-.298-.162-.335-.681-.335-4.901v-4.705h6.698h6.697v-3.408-3.407h-6.698-6.698v-5.191-5.192h6.698h6.698v-3.408-3.408h-6.698-6.698v-5.191-5.192l6.661-.064l6.642-.098.056-3.504.056-3.472h-6.698-6.717l-.037-5.451-.055-5.42-1.88-.097c-1.023-.035-1.916-.002-1.99.129Z" fill="#f00"/><path d="M626.953,896.558c-.056.259-.074,1.849-.056,3.537l.056,3.05l1.544.227c2.772.389,4.336,1.623,8,6.295c4.112,5.258,6.456,6.88,10.549,7.172c2.81.195,4.54-.162,6.753-1.492c1.47-.909,3.796-3.116,4.931-4.706l.539-.747-.372-1.266c-.205-.714-.521-2.142-.688-3.213-.186-1.071-.354-1.98-.373-2.045-.019-.064-.707.747-1.506,1.752-3.033,3.765-4.763,4.77-8.261,4.803-1.358.033-2.753-.162-3.349-.421-1.711-.714-3.87-2.759-6.419-6.036-1.321-1.719-3.07-3.699-3.907-4.381-2.38-2.01-7.199-3.665-7.441-2.529Z" fill="#f00"/><path d="M708.554,896.525c-3.013.681-5.414,2.596-9.079,7.236-3.014,3.829-4.651,5.257-6.81,5.938-3.925,1.233-7.665-.324-10.884-4.51-.558-.714-1.042-1.2-1.097-1.104-.056.097-.298,1.135-.521,2.304-.242,1.168-.577,2.499-.744,2.953-.168.422-.242.909-.186,1.071.168.519,2.196,2.726,3.442,3.797c1.972,1.687,3.721,2.434,6.344,2.628c2.679.226,4.726-.195,6.679-1.364c1.898-1.135,3.237-2.466,5.916-5.905c3.534-4.544,5.842-6.231,8.465-6.263h1.061v-3.57-3.57l-.688.033c-.391.035-1.247.164-1.898.326Z" fill="#f00"/><path d="M626.86,923.882v3.342l1.302.226c3.051.552,4.707,1.785,8.13,6.231c2.698,3.473,5.061,5.646,7.219,6.686c1.228.552,2.009.681,4.465.681c2.457,0,3.237-.129,4.466-.681c2.158-1.007,4.502-3.18,7.255-6.717c4-5.16,5.582-6.165,9.489-6.134c2.084.033,2.623.162,3.907.876c1.86,1.071,2.753,1.98,5.674,5.744c2.586,3.31,4.614,5.16,6.81,6.198c2.12,1.038,6.753,1.038,8.912.033c2.176-1.038,4.521-3.18,7.256-6.686c3.479-4.446,5.06-5.679,8.148-6.198l1.247-.226v-3.44-3.406l-1.637.195c-2.047.259-4.521,1.492-6.364,3.18-.762.681-2.474,2.661-3.795,4.348-3.795,4.901-5.618,6.069-9.32,6.069-3.591,0-5.507-1.266-9.489-6.36-2.754-3.537-4.744-5.386-6.883-6.393-2.047-.973-6.959-1.071-8.93-.162-2.494,1.136-4.614,3.147-8.187,7.757-3.014,3.894-5.135,5.16-8.558,5.16-3.59,0-5.562-1.266-9.005-5.744-2.493-3.213-4.056-4.867-5.693-6.036-1.451-1.006-4.075-1.914-5.507-1.914h-.912v3.371Z" fill="#f00"/></g><g clip-path="url(#ea3hwcfO5Mr39)"><g><rect width="100" height="140" rx="0" ry="0" transform="translate(1044 635)" fill="#fff"/><path d="M1156.5,635h-145.83v140h145.83v-140Z" fill="#601554"/><path d="M1057.57,736.28v10.712v0c.01.183.28.309.76.408.7.145,1.71.187,2.94.216v0c1.22-.029,2.24-.071,2.93-.216.48-.099.76-.225.77-.408h-.01v-10.712c0-.046-.03-.084-.08-.088-.52-.037-1.02-.063-1.46-.082-1.1-.047-1.94-.053-2.15-.051v0c-.21-.002-1.05.004-2.15.051-.44.019-.94.046-1.46.082-.05.004-.09.042-.09.088v0Zm45.97-2.008h1.41c.04,0,.08-.026.09-.065l.54-1.93c.01-.034,0-.068-.03-.091-.5-.387-.81-.924-.81-1.621v-.03c0-.005,0-.009,0-.015l.79-4.372c0-.005,0-.009,0-.015v-28.827c0-4.492-.38-9.215-1.43-13.581-2.41-10.042-8.06-17.203-19.47-17.359h-.01c-11.41.155-17.06,7.317-19.47,17.359-1.04,4.31-1.42,8.968-1.43,13.408c0,.038.02.07.06.083c1.04.374,1.76,1.02,1.76,1.947v3.032c0,.037.03.069.06.083.37.136.71.3,1.04.498.54.32.92.698,1.06,1.19.14.498.01,1.056-.5,1.709-.19.238-.28.408-.29.54-.01.105.05.225.17.379.33.441.54.84.58,1.263.03.451-.12.879-.53,1.34-.26.299-.37.538-.38.745-.01.201.08.411.25.646.25.355.31.736.26,1.098-.04.294-.15.572-.3.806-.02.031-.02.067,0,.096.08.116.13.239.15.373v.029c0,.003,0,.006,0,.009v4.669.002c0,.252.01.425.05.563.03.118.09.224.19.356l.24.314c0,.002,0,.003,0,.005.02.018.03.035.05.054.02.026.04.054.05.082.01.004.01.008.01.011l.5.667c.18.233.27.444.32.663.05.197.05.39.05.613v1.945c0,.039.02.071.06.084l.23.077c.47.16.78.399.97.713.19.303.25.647.25,1.04v2.756c0,.355-.11.681-.37.981-.19.226-.46.427-.84.601-.03.015-.05.044-.05.079v7.091c0,.005,0,.009,0,.014c0,.011.01.023.01.035.03.293-.14.528-.47.696-.17.088-.42.168-.72.232-.42.088-.96.152-1.58.169-.05.001-.09.041-.09.088v9.394.003c-.01.746-.57,1.142-1.55,1.346-.77.16-1.84.205-3.14.235v0h-.02v0c-1.29-.03-2.37-.075-3.14-.235-.98-.203-1.54-.599-1.55-1.346v-.003-9.394c0-.048-.04-.087-.09-.088-.61-.017-1.16-.08-1.58-.169-.3-.064-.54-.144-.72-.232-.33-.168-.5-.403-.46-.696c0-.012,0-.024,0-.035c0-.005,0-.01,0-.014v-7.091c0-.035-.02-.064-.05-.079-.37-.174-.65-.375-.84-.601-.26-.299-.37-.626-.37-.981v-2.756c0-.393.06-.737.25-1.04.19-.314.5-.553.97-.713l.23-.077c.04-.013.07-.045.07-.084l-.01-1.945c0-.223.01-.415.05-.613.05-.219.14-.43.32-.663l.53-.702c0-.002,0-.004,0-.005.01-.019.02-.036.04-.053v-.004c0-.002.01-.003.01-.004l.27-.365c.1-.131.16-.238.19-.355.04-.138.05-.311.05-.563v-.002-4.669c0-.004,0-.007,0-.01v-.029c.01-.062.02-.122.05-.18.01-.029,0-.06-.02-.084-.17-.211-.31-.47-.39-.752-.1-.333-.1-.701.06-1.065.15-.363.24-.635.24-.86-.01-.195-.09-.389-.28-.632-.32-.411-.49-.793-.51-1.199-.03-.403.09-.798.36-1.235.19-.323.26-.573.24-.802-.02-.243-.15-.504-.35-.824-.34-.576-.38-1.073-.2-1.519.17-.417.53-.748,1-1.033.41-.245.85-.439,1.3-.591.04-.012.07-.045.07-.083v-2.938c0-.848.61-1.46,1.5-1.845.04-.014.06-.045.06-.08c0-4.887.44-10.054,1.64-14.895c3.03-12.269,10.6-20.74,24.4-20.911v-.002h.05l.01.002c13.8.173,21.36,8.644,24.4,20.911c1.2,4.864,1.64,10.056,1.64,14.963v28.503c0,.005,0,.011,0,.016l.95,4.69c0,.006,0,.011,0,.017v.033c0,.69-.34,1.234-.88,1.626-.03.022-.04.058-.03.094l.53,1.922c.01.04.05.066.09.066h1.37c1.09,0,1.97.852,1.97,1.896v10.671c0,1.044-.88,1.896-1.97,1.896h-9.19c-1.09,0-1.98-.852-1.98-1.896v-10.671c0-1.044.89-1.896,1.98-1.896v-.002Zm2.64,0h1.34c.05,0,.09-.039.09-.088v-1.186c0-.045-.03-.083-.08-.087-.25-.026-.49-.07-.72-.131-.08-.019-.15-.039-.22-.062-.02-.008-.05-.005-.07.006-.02.012-.04.031-.04.055l-.39,1.383c-.01.028,0,.054.02.076.01.023.04.034.07.034v0Zm2.53,0h1.42c.03,0,.06-.012.08-.034.01-.022.02-.049.01-.076l-.39-1.393c0-.024-.02-.043-.04-.055s-.05-.014-.07-.007c-.08.024-.16.047-.24.067-.25.065-.51.112-.78.139-.05.005-.08.042-.08.088v1.184c0,.049.04.088.09.088v-.001Zm4.02.965h-9.19c-.54,0-.97.42-.97.931v10.672c0,.511.43.931.97.931h9.19c.53,0,.97-.42.97-.931v-10.672c0-.511-.44-.931-.97-.931Zm-3.51-3.394c.78-.2,1.39-.619,1.42-1.229c0-.008,0-.014,0-.021l-.95-4.684c0-.005,0-.011,0-.016v-28.587c0-4.841-.43-9.958-1.61-14.742-2.93-11.826-10.11-20.004-23.43-20.173v.002h-.05v-.002c-13.32.169-20.5,8.346-23.43,20.173-1.15,4.644-1.58,9.603-1.61,14.32c0,.027.01.05.04.068.02.017.04.024.07.018.95-.182,1.98-.196,2.94-.046.02.005.05-.002.07-.019.02-.018.03-.04.03-.067.03-4.412.43-9.03,1.46-13.328c2.53-10.497,8.55-17.946,20.45-18.105h.01c11.91.159,17.92,7.608,20.45,18.105c1.07,4.45,1.46,9.244,1.46,13.795v28.901c0,.006,0,.011,0,.016l-.79,4.367c0,.007,0,.012,0,.019.02.64.59,1.053,1.32,1.244.68.177,1.48.166,2.16-.01l-.01.001Zm-46.44,13.003c.39,0,.71.308.71.688s-.32.687-.71.687c-.4,0-.72-.308-.72-.687c0-.381.32-.688.72-.688Zm0-2.611c.39,0,.71.309.71.688c0,.381-.32.688-.71.688-.4,0-.72-.308-.72-.688s.32-.688.72-.688Zm0-2.61c.39,0,.71.309.71.688c0,.381-.32.688-.71.688-.4,0-.72-.308-.72-.688s.32-.688.72-.688Zm0-2.61c.39,0,.71.309.71.688c0,.381-.32.688-.71.688-.4,0-.72-.308-.72-.688s.32-.688.72-.688Zm-3.02,7.831c.4,0,.72.308.72.688s-.32.688-.72.688c-.39,0-.71-.308-.71-.688s.32-.688.71-.688v0Zm0-2.61c.4,0,.72.308.72.688s-.32.688-.72.688c-.39,0-.71-.309-.71-.688c0-.381.32-.688.71-.688v0Zm0-2.61c.4,0,.72.308.72.688s-.32.688-.72.688c-.39,0-.71-.309-.71-.688c0-.381.32-.688.71-.688v0Zm0-2.61c.4,0,.72.308.72.688s-.32.688-.72.688c-.39,0-.71-.309-.71-.688c0-.381.32-.688.71-.688v0Zm7.06-17.489c-.32-.362-.62-.58-.96-.704-.38-.139-.84-.179-1.44-.179l-3.15-.001-3.14.001c-.61,0-1.07.04-1.45.179-.35.13-.67.361-1,.75c0,.002,0,.002,0,.004s0,.003,0,.006l-.53.701c-.09.112-.13.208-.15.305-.03.119-.03.252-.03.41v1.547c0,.03.01.055.04.072.02.017.05.021.08.011l1.16-.391c.23-.077.47-.129.73-.162.26-.032.52-.046.79-.046h7c.27,0,.53.014.78.046.26.033.5.085.73.162l1.16.391c.03.009.06.006.09-.011.02-.017.03-.042.03-.072l.01-1.547c0-.158-.01-.291-.03-.41-.03-.097-.07-.193-.15-.305l-.57-.752c0-.002,0-.003,0-.005v0Zm-10.27-1.674c.45-.129.96-.17,1.58-.17l3.14-.001l3.15.001c.62,0,1.12.04,1.57.168.03.008.06.003.08-.014.03-.017.04-.042.04-.071v-.097v0-4.604c0-.015-.01-.027-.01-.04-.13-.248-1.14-.456-2.44-.596-.74-.079-1.56-.119-2.39-.119s-1.65.04-2.39.119c-1.3.14-2.31.348-2.44.596-.01.013-.01.026-.01.04v4.604v0v.098c0,.03.01.054.03.072.03.017.06.022.09.014v0Zm7.99-15.999v-2.69c0-.616-.8-1.036-1.83-1.24-.91-.182-1.97-.182-2.88,0-1.03.205-1.83.624-1.83,1.24v2.638c0,.027.01.051.03.068.03.017.05.024.08.018.08-.014.16-.028.24-.041c1.31-.207,4.26-.207,5.57,0c.17.027.34.058.51.093.03.006.05,0,.07-.017.03-.018.04-.042.04-.069v0Zm1.6,10.069c.06-.11.11-.232.13-.356.02-.148-.01-.302-.11-.441-.28-.4-.43-.789-.42-1.22.02-.425.21-.852.62-1.324.22-.251.31-.456.29-.648-.01-.219-.16-.471-.39-.774-.25-.337-.38-.645-.35-1.004.02-.331.18-.661.48-1.056.31-.389.4-.674.34-.888-.06-.22-.29-.422-.62-.618-.7-.42-1.51-.664-2.35-.798-1.18-.186-4.07-.186-5.25,0-.84.133-1.65.378-2.35.798-.3.179-.52.366-.6.566-.07.172-.04.393.14.685.26.431.44.806.47,1.221.05.429-.06.857-.37,1.366-.16.271-.24.495-.22.701.01.204.11.421.31.679.33.413.47.781.48,1.193c0,.382-.11.763-.32,1.241-.06.144-.06.302-.01.451.03.117.08.228.15.324.02.038.07.051.12.031.6-.281,1.47-.473,2.46-.579.79-.084,1.65-.126,2.5-.126s1.72.042,2.5.126c.88.095,1.67.257,2.26.49.04.018.09,0,.11-.04v0Zm-.56,11.237v4.294c0,.046.04.084.08.088.8.069,1.45.171,1.92.286.43.102.75.237.95.39.03.022.07.024.11.005.13-.078.23-.157.3-.239.09-.11.13-.233.13-.37v-2.756c0-.233-.02-.42-.1-.551-.08-.12-.21-.217-.44-.295l-2.58-.866c-.08-.029-.17-.053-.26-.072-.02-.006-.05,0-.07.017-.03.017-.04.041-.04.069v0Zm-.66,4.23v-4.307c0-.048-.04-.088-.09-.088h-.06-7-.02c-.05,0-.1.04-.1.088v4.305c0,.025.01.047.03.065.02.017.05.025.07.023.46-.03.91-.053,1.33-.071c1.1-.048,1.96-.054,2.19-.051v0c.23-.003,1.09.004,2.19.051.43.018.89.042,1.36.072.03.002.05-.006.07-.023s.03-.039.03-.065v.001Zm-7.93.061v-4.298c0-.027-.01-.051-.04-.068-.02-.018-.04-.023-.07-.018-.1.021-.2.047-.3.079l-2.57.866c-.23.077-.37.175-.44.295-.08.131-.11.319-.11.551v2.756c0,.136.04.26.14.37.07.082.17.161.3.239.03.019.07.017.1-.005.21-.152.53-.287.96-.39.48-.117,1.13-.219,1.94-.288.05-.005.09-.042.09-.088v-.001Zm10.82,2.258v-.777c0-.043-.03-.079-.07-.087-.09-.014-.22-.039-.4-.083-.44-.105-1.04-.199-1.81-.264-.77-.064-1.49-.106-2.11-.132-1.1-.047-1.94-.053-2.15-.051h-.01c-.21-.002-1.04.004-2.14.051-.62.027-1.35.068-2.11.132-.77.065-1.38.159-1.81.264-.18.044-.32.069-.4.083-.05.008-.08.044-.08.087v.777c0,.029.02.053.04.071.02.017.05.022.08.014.04-.01.08-.02.12-.03.48-.117,1.14-.22,1.96-.289.73-.062,1.48-.104,2.16-.132c1.1-.048,1.96-.053,2.19-.051v0c.23-.002,1.09.004,2.19.051.67.029,1.42.071,2.15.132.82.069,1.48.172,1.97.289.04.01.08.02.11.03.03.008.06.002.09-.014.02-.018.03-.042.03-.071v0Zm-.07,1.073c-.09-.015-.22-.039-.4-.084-.44-.105-1.04-.198-1.81-.263s-1.49-.106-2.11-.132c-1.1-.048-1.94-.053-2.15-.051h-.01c-.21-.002-1.04.003-2.14.051-.62.026-1.35.068-2.11.132-.77.065-1.38.158-1.81.263-.18.045-.32.069-.4.084-.05.008-.08.043-.08.086v4.65c0,.028.02.053.04.07.02.018.05.023.08.015.04-.01.08-.021.12-.03.48-.117,1.14-.22,1.96-.29.73-.061,1.48-.104,2.16-.132c1.1-.047,1.96-.053,2.19-.051v0c.23-.002,1.09.005,2.19.051.67.029,1.42.071,2.15.132.82.07,1.48.173,1.97.29.04.009.08.02.11.03.03.008.06.002.09-.015.02-.017.03-.041.03-.07v-4.65c0-.043-.03-.079-.07-.086v0Zm-1.77,5.602v.078c0,.025.01.046.03.064.01.017.04.025.06.024.15-.004.3-.012.44-.022.05-.004.08-.04.08-.085.01-.045-.03-.084-.07-.091-.14-.019-.29-.038-.44-.056-.03-.002-.05.005-.07.022-.02.018-.03.04-.03.066v0Zm-9.4.078v-.078c0-.026-.01-.048-.03-.066-.02-.017-.05-.024-.07-.022-.16.018-.3.037-.44.056-.05.007-.08.046-.08.091s.04.081.09.085c.14.01.28.018.43.022.03.001.05-.007.07-.024.02-.018.03-.039.03-.064v0Z" fill="#ff001b" stroke="#f00"/></g><clipPath id="ea3hwcfO5Mr39"><rect width="100" height="140" rx="0" ry="0" transform="translate(1044 635)" fill="#fff"/></clipPath></g><g><path d="M910,828.163c-4.285,0-8.387.694-12.245,2v-6.081c0-1.122.919-2.041,2.041-2.041h20.408c1.122,0,2.041.919,2.041,2.041v6.081c-3.857-1.306-7.96-2-12.245-2Z" fill="#f00"/><g><path d="M899.796,911.837v-7.143l.102-.327c3.224.877,6.612,1.347,10.102,1.347s6.878-.47,10.102-1.347l.102.327v13.265h-20.408v-6.122Z" fill="#fc0000"/><path d="M910,852.653L915.102,870L910,877.143L904.898,870L910,852.653Z" fill="#fc0000"/><path d="M922.245,830.163c-3.857-1.306-7.96-2-12.245-2s-8.387.694-12.245,2c-15.408,5.102-26.531,19.653-26.531,36.776c0,17.919,12.164,33,28.674,37.428c3.224.877,6.612,1.347,10.102,1.347s6.878-.47,10.102-1.347c16.51-4.428,28.674-19.509,28.674-37.428c0-17.123-11.123-31.674-26.531-36.776Z" fill="#f00"/><path d="M939.592,866.939c0,16.344-13.248,29.592-29.592,29.592-16.342,0-29.592-13.248-29.592-29.592s13.25-29.592,29.592-29.592c16.344,0,29.592,13.248,29.592,29.592Z" fill="#f1f2f2"/><path d="M904.898,870L910,877.143L915.102,870L910,852.653L904.898,870Z" fill="#fc0000"/><path d="M950.816,866.939c0-8.739-2.725-17.073-7.882-24.103-4.761-6.49-11.19-11.349-18.648-14.118v-4.636c0-2.251-1.831-4.082-4.082-4.082h-20.408c-2.251,0-4.082,1.831-4.082,4.082v4.636c-7.464,2.774-13.889,7.631-18.648,14.118-5.157,7.03-7.882,15.364-7.882,24.103c0,17.87,11.668,33.643,28.571,38.93v12.09c0,1.127.914,2.041,2.041,2.041h20.408c1.127,0,2.041-.914,2.041-2.041v-12.09c16.906-5.29,28.571-21.063,28.571-38.93Zm-30.612-42.857v3.343c-3.307-.864-6.727-1.303-10.204-1.303-3.478,0-6.9.44-10.204,1.303v-3.343h20.408Zm-18.367,91.836v-2.04h7.143v-4.082h-7.143v-2.872c2.681.551,5.417.831,8.163.831c2.747,0,5.484-.281,8.163-.831v8.994h-16.326Zm17.73-13.52c-2.457.668-4.981,1.072-7.526,1.214v-19.326h-4.082v19.326c-2.545-.142-5.07-.546-7.533-1.216-15.992-4.29-27.161-18.87-27.161-35.457c0-7.865,2.453-15.364,7.092-21.689c4.55-6.201,10.787-10.748,18.053-13.154c3.708-1.255,7.607-1.892,11.59-1.892c3.984,0,7.884.637,11.603,1.897c7.252,2.401,13.49,6.948,18.04,13.149c4.639,6.325,7.092,13.824,7.092,21.689c0,16.587-11.169,31.167-27.168,35.459Z" fill="#231f20"/><path d="M910,835.306c-10.639,0-20.506,5.3-26.393,14.177-3.428,5.163-5.24,11.199-5.24,17.456c0,.362,0,.737.022,1.116.239,6.793,2.593,13.196,6.807,18.518.362.457.902.737,1.484.77.038.003.077.004.116.004.541,0,1.062-.215,1.446-.601l4.96-4.98-2.892-2.881-3.272,3.286c-2.433-3.656-3.934-7.798-4.416-12.171h4.929v-4.082h-5.084c.177-4.866,1.616-9.543,4.189-13.627l3.698,2.973l2.557-3.181-3.833-3.082c4.769-5.561,11.543-8.995,18.881-9.535v6.044h4.082v-6.047c7.505.553,14.184,4.124,18.823,9.503l-3.877,3.117l2.557,3.181l3.753-3.016c2.522,3.985,4.05,8.659,4.233,13.67h-5.081v4.082h4.929c-.482,4.377-1.985,8.522-4.421,12.18l-3.293-3.279-2.88,2.893l4.98,4.958c.413.411.983.627,1.56.591.581-.034,1.119-.314,1.48-.77c4.214-5.322,6.568-11.725,6.807-18.517.022-.38.022-.755.022-1.117c0-17.442-14.191-31.633-31.633-31.633Z" fill="#231f20"/><path d="M919.184,884.286h-4.082v4.081h4.082v-4.081Z" fill="#231f20"/><path d="M925.306,884.286h-4.082v4.081h4.082v-4.081Z" fill="#231f20"/><path d="M921.224,890.408h-6.122v4.082h6.122v-4.082Z" fill="#231f20"/><path d="M898.776,884.286h-4.082v4.081h4.082v-4.081Z" fill="#231f20"/><path d="M904.898,884.286h-4.082v4.081h4.082v-4.081Z" fill="#231f20"/><path d="M904.898,890.408h-6.122v4.082h6.122v-4.082Z" fill="#231f20"/><path d="M917.06,869.424l-5.102-17.347c-.256-.868-1.053-1.465-1.958-1.465s-1.702.597-1.958,1.465l-5.102,17.347c-.177.602-.067,1.252.297,1.762l5.102,7.143c.383.536,1.002.855,1.661.855s1.278-.319,1.661-.855l5.102-7.143c.364-.51.474-1.16.297-1.762ZM910,873.632l-2.864-4.01L910,859.886l2.864,9.736-2.864,4.01Z" transform="translate(0 40)" fill="#231f20"/></g></g></g><circle r="246" transform="translate(789 585)" fill="#fff" stroke="#ff1c1c" stroke-width="8"/><rect width="371" height="235" rx="0" ry="0" transform="translate(604 468)" fill="none"/><path d="M662.83,747h-2.216l6.409-17.455h2.182L675.614,747h-2.216l-5.216-14.693h-.137L662.83,747Zm.818-6.818h8.932v1.875h-8.932v-1.875Zm26.139-10.637h2.114v11.557c0,1.193-.282,2.259-.844,3.196-.557.932-1.344,1.668-2.361,2.208-1.017.534-2.21.801-3.58.801-1.369,0-2.562-.267-3.579-.801-1.017-.54-1.807-1.276-2.369-2.208-.557-.937-.836-2.003-.836-3.196v-11.557h2.114v11.387c0,.852.188,1.611.563,2.275.375.659.909,1.179,1.602,1.56.699.375,1.534.563,2.505.563.972,0,1.807-.188,2.506-.563.699-.381,1.233-.901,1.602-1.56.375-.664.563-1.423.563-2.275v-11.387Zm5.38,1.875v-1.875h13.091v1.875h-5.489v15.58h-2.113v-15.58h-5.489Zm30.354,6.853c0,1.841-.333,3.432-.998,4.772-.664,1.341-1.576,2.375-2.735,3.103-1.159.727-2.483,1.091-3.972,1.091s-2.812-.364-3.972-1.091c-1.159-.728-2.071-1.762-2.735-3.103-.665-1.34-.997-2.931-.997-4.772s.332-3.432.997-4.773c.664-1.341,1.576-2.375,2.735-3.102c1.16-.728,2.483-1.091,3.972-1.091s2.813.363,3.972,1.091c1.159.727,2.071,1.761,2.735,3.102.665,1.341.998,2.932.998,4.773Zm-2.046,0c0-1.512-.253-2.787-.758-3.827-.5-1.04-1.179-1.827-2.037-2.361-.853-.534-1.807-.801-2.864-.801s-2.014.267-2.872.801c-.852.534-1.531,1.321-2.037,2.361-.5,1.04-.75,2.315-.75,3.827c0,1.511.25,2.787.75,3.826.506,1.04,1.185,1.827,2.037,2.361.858.534,1.815.801,2.872.801s2.011-.267,2.864-.801c.858-.534,1.537-1.321,2.037-2.361.505-1.039.758-2.315.758-3.826Zm5.6-8.728h2.522l5.932,14.489h.205l5.931-14.489h2.523v17.455h-1.977v-13.261h-.171L738.586,747h-1.909l-5.455-13.261h-.17v13.261h-1.977v-17.455Zm36.078,8.728c0,1.841-.332,3.432-.997,4.772-.665,1.341-1.576,2.375-2.736,3.103-1.159.727-2.482,1.091-3.971,1.091s-2.813-.364-3.972-1.091c-1.159-.728-2.071-1.762-2.736-3.103-.664-1.34-.997-2.931-.997-4.772s.333-3.432.997-4.773c.665-1.341,1.577-2.375,2.736-3.102c1.159-.728,2.483-1.091,3.972-1.091s2.812.363,3.971,1.091c1.16.727,2.071,1.761,2.736,3.102s.997,2.932.997,4.773Zm-2.045,0c0-1.512-.253-2.787-.759-3.827-.5-1.04-1.179-1.827-2.037-2.361-.852-.534-1.806-.801-2.863-.801s-2.014.267-2.872.801c-.853.534-1.532,1.321-2.037,2.361-.5,1.04-.75,2.315-.75,3.827c0,1.511.25,2.787.75,3.826.505,1.04,1.184,1.827,2.037,2.361.858.534,1.815.801,2.872.801s2.011-.267,2.863-.801c.858-.534,1.537-1.321,2.037-2.361.506-1.039.759-2.315.759-3.826Zm3.918-6.853v-1.875h13.091v1.875h-5.488v15.58h-2.114v-15.58h-5.489Zm18.467-1.875v17.455h-2.114v-17.455h2.114Zm4.954,0l5.182,14.694h.204l5.182-14.694h2.216L796.822,747h-2.182l-6.409-17.455h2.216ZM805.95,747v-17.455h10.534v1.875h-8.421v5.898h7.875v1.875h-7.875v5.932h8.557v1.875h-10.67Zm30.639-13.091c-.102-.864-.517-1.534-1.245-2.011-.727-.478-1.619-.716-2.676-.716-.772,0-1.449.125-2.028.375-.574.25-1.023.594-1.347,1.031-.318.438-.477.935-.477,1.492c0,.465.111.866.332,1.201.228.33.517.605.87.827.352.216.721.395,1.108.537.386.136.741.247,1.065.332l1.773.478c.454.119.96.284,1.517.494.562.21,1.099.497,1.611.861.517.358.943.818,1.278,1.38.335.563.503,1.253.503,2.071c0,.944-.247,1.796-.742,2.557-.488.762-1.204,1.367-2.147,1.816-.938.448-2.077.673-3.418.673-1.25,0-2.332-.202-3.247-.605-.909-.404-1.625-.966-2.148-1.688-.517-.721-.809-1.559-.878-2.514h2.182c.057.659.279,1.205.665,1.636.392.426.886.745,1.483.955.602.204,1.25.307,1.943.307.807,0,1.531-.131,2.173-.392.642-.267,1.151-.637,1.526-1.108.375-.478.562-1.034.562-1.671c0-.579-.162-1.051-.485-1.415-.324-.363-.75-.659-1.279-.886-.528-.227-1.099-.426-1.713-.596l-2.148-.614c-1.363-.392-2.443-.952-3.238-1.679-.796-.727-1.193-1.679-1.193-2.855c0-.977.264-1.83.792-2.557.534-.733,1.25-1.301,2.148-1.705.903-.409,1.912-.613,3.026-.613c1.125,0,2.125.202,3,.605.875.398,1.568.943,2.079,1.636.517.693.79,1.48.818,2.361h-2.045ZM842.348,747v-17.455h10.534v1.875h-8.42v5.898h7.875v1.875h-7.875v5.932h8.556v1.875h-10.67Zm28.185-17.455v17.455h-2.046l-9.511-13.705h-.171v13.705h-2.113v-17.455h2.045l9.546,13.739h.17v-13.739h2.08Zm13.775,4.364c-.103-.864-.518-1.534-1.245-2.011-.727-.478-1.619-.716-2.676-.716-.773,0-1.449.125-2.028.375-.574.25-1.023.594-1.347,1.031-.318.438-.477.935-.477,1.492c0,.465.111.866.332,1.201.227.33.517.605.87.827.352.216.721.395,1.107.537.387.136.742.247,1.066.332l1.773.478c.454.119.96.284,1.517.494.562.21,1.099.497,1.61.861.517.358.944.818,1.279,1.38.335.563.503,1.253.503,2.071c0,.944-.248,1.796-.742,2.557-.488.762-1.204,1.367-2.148,1.816-.937.448-2.076.673-3.417.673-1.25,0-2.333-.202-3.247-.605-.909-.404-1.625-.966-2.148-1.688-.517-.721-.81-1.559-.878-2.514h2.182c.057.659.278,1.205.665,1.636.392.426.886.745,1.483.955.602.204,1.25.307,1.943.307.807,0,1.531-.131,2.173-.392.642-.267,1.151-.637,1.526-1.108.375-.478.562-1.034.562-1.671c0-.579-.162-1.051-.486-1.415-.323-.363-.75-.659-1.278-.886s-1.099-.426-1.713-.596l-2.148-.614c-1.363-.392-2.443-.952-3.238-1.679-.796-.727-1.194-1.679-1.194-2.855c0-.977.265-1.83.793-2.557.534-.733,1.25-1.301,2.148-1.705.903-.409,1.912-.613,3.025-.613c1.125,0,2.125.202,3,.605.875.398,1.568.943,2.08,1.636.517.693.79,1.48.818,2.361h-2.045Zm20.486,4.364c0,1.841-.332,3.432-.997,4.772-.665,1.341-1.577,2.375-2.736,3.103-1.159.727-2.483,1.091-3.972,1.091-1.488,0-2.812-.364-3.971-1.091-1.159-.728-2.071-1.762-2.736-3.103-.665-1.34-.997-2.931-.997-4.772s.332-3.432.997-4.773s1.577-2.375,2.736-3.102c1.159-.728,2.483-1.091,3.971-1.091c1.489,0,2.813.363,3.972,1.091c1.159.727,2.071,1.761,2.736,3.102s.997,2.932.997,4.773Zm-2.045,0c0-1.512-.253-2.787-.759-3.827-.5-1.04-1.179-1.827-2.037-2.361-.852-.534-1.807-.801-2.864-.801-1.056,0-2.014.267-2.872.801-.852.534-1.531,1.321-2.037,2.361-.5,1.04-.75,2.315-.75,3.827c0,1.511.25,2.787.75,3.826.506,1.04,1.185,1.827,2.037,2.361.858.534,1.816.801,2.872.801c1.057,0,2.012-.267,2.864-.801.858-.534,1.537-1.321,2.037-2.361.506-1.039.759-2.315.759-3.826ZM908.348,747v-17.455h5.898c1.363,0,2.483.233,3.358.699.875.461,1.522,1.094,1.943,1.901.42.807.631,1.724.631,2.753c0,1.028-.211,1.94-.631,2.736-.421.795-1.065,1.42-1.935,1.875-.869.448-1.98.673-3.332.673h-4.773v-1.909h4.705c.931,0,1.681-.137,2.25-.409.574-.273.988-.659,1.244-1.159.261-.506.392-1.108.392-1.807s-.131-1.31-.392-1.833c-.261-.522-.679-.926-1.253-1.21-.574-.29-1.332-.435-2.275-.435h-3.716v15.58h-2.114Zm8.216-7.841L920.859,747h-2.454l-4.227-7.841h2.386Zm16.681-5.25c-.102-.864-.517-1.534-1.244-2.011-.728-.478-1.62-.716-2.676-.716-.773,0-1.449.125-2.029.375-.574.25-1.023.594-1.346,1.031-.319.438-.478.935-.478,1.492c0,.465.111.866.333,1.201.227.33.517.605.869.827.352.216.722.395,1.108.537.386.136.741.247,1.065.332l1.773.478c.455.119.96.284,1.517.494.563.21,1.1.497,1.611.861.517.358.943.818,1.278,1.38.336.563.503,1.253.503,2.071c0,.944-.247,1.796-.741,2.557-.489.762-1.205,1.367-2.148,1.816-.938.448-2.077.673-3.418.673-1.25,0-2.332-.202-3.247-.605-.909-.404-1.625-.966-2.148-1.688-.517-.721-.809-1.559-.877-2.514h2.181c.057.659.279,1.205.665,1.636.392.426.887.745,1.483.955.602.204,1.25.307,1.943.307.807,0,1.532-.131,2.174-.392.642-.267,1.15-.637,1.525-1.108.375-.478.563-1.034.563-1.671c0-.579-.162-1.051-.486-1.415-.324-.363-.75-.659-1.279-.886-.528-.227-1.099-.426-1.713-.596l-2.147-.614c-1.364-.392-2.444-.952-3.239-1.679s-1.193-1.679-1.193-2.855c0-.977.264-1.83.792-2.557.535-.733,1.25-1.301,2.148-1.705.904-.409,1.912-.613,3.026-.613c1.125,0,2.125.202,3,.605.875.398,1.568.943,2.079,1.636.517.693.79,1.48.818,2.361h-2.045Z"/><line x1="789.5" y1="187" x2="789.5" y2="985" fill="none" stroke="#fff"/><line x1="389" y1="584.5" x2="1189" y2="584.5" fill="none" stroke="#fff"/><path d="M506,869.685L1071.69,304" fill="none" stroke="#fff"/><line x1="506.354" y1="303.646" x2="1072.04" y2="869.332" fill="none" stroke="#fff"/><script><![CDATA[!function(t,n){"object"==typeof exports&&"undefined"!=typeof module?module.exports=n():"function"==typeof define&&define.amd?define(n):((t="undefined"!=typeof globalThis?globalThis:t||self).__SVGATOR_PLAYER__=t.__SVGATOR_PLAYER__||{},t.__SVGATOR_PLAYER__["5c7f360c"]=n())}(this,(function(){"use strict";function t(t,n){var e=Object.keys(t);if(Object.getOwnPropertySymbols){var r=Object.getOwnPropertySymbols(t);n&&(r=r.filter((function(n){return Object.getOwnPropertyDescriptor(t,n).enumerable}))),e.push.apply(e,r)}return e}function n(n){for(var e=1;e<arguments.length;e++){var r=null!=arguments[e]?arguments[e]:{};e%2?t(Object(r),!0).forEach((function(t){o(n,t,r[t])})):Object.getOwnPropertyDescriptors?Object.defineProperties(n,Object.getOwnPropertyDescriptors(r)):t(Object(r)).forEach((function(t){Object.defineProperty(n,t,Object.getOwnPropertyDescriptor(r,t))}))}return n}function e(t){return(e="function"==typeof Symbol&&"symbol"==typeof Symbol.iterator?function(t){return typeof t}:function(t){return t&&"function"==typeof Symbol&&t.constructor===Symbol&&t!==Symbol.prototype?"symbol":typeof t})(t)}function r(t,n){if(!(t instanceof n))throw new TypeError("Cannot call a class as a function")}function i(t,n){for(var e=0;e<n.length;e++){var r=n[e];r.enumerable=r.enumerable||!1,r.configurable=!0,"value"in r&&(r.writable=!0),Object.defineProperty(t,r.key,r)}}function u(t,n,e){return n&&i(t.prototype,n),e&&i(t,e),t}function o(t,n,e){return n in t?Object.defineProperty(t,n,{value:e,enumerable:!0,configurable:!0,writable:!0}):t[n]=e,t}function a(t){return(a=Object.setPrototypeOf?Object.getPrototypeOf:function(t){return t.__proto__||Object.getPrototypeOf(t)})(t)}function l(t,n){return(l=Object.setPrototypeOf||function(t,n){return t.__proto__=n,t})(t,n)}function s(){if("undefined"==typeof Reflect||!Reflect.construct)return!1;if(Reflect.construct.sham)return!1;if("function"==typeof Proxy)return!0;try{return Boolean.prototype.valueOf.call(Reflect.construct(Boolean,[],(function(){}))),!0}catch(t){return!1}}function f(t,n,e){return(f=s()?Reflect.construct:function(t,n,e){var r=[null];r.push.apply(r,n);var i=new(Function.bind.apply(t,r));return e&&l(i,e.prototype),i}).apply(null,arguments)}function c(t,n){if(n&&("object"==typeof n||"function"==typeof n))return n;if(void 0!==n)throw new TypeError("Derived constructors may only return object or undefined");return function(t){if(void 0===t)throw new ReferenceError("this hasn't been initialised - super() hasn't been called");return t}(t)}function h(t,n,e){return(h="undefined"!=typeof Reflect&&Reflect.get?Reflect.get:function(t,n,e){var r=function(t,n){for(;!Object.prototype.hasOwnProperty.call(t,n)&&null!==(t=a(t)););return t}(t,n);if(r){var i=Object.getOwnPropertyDescriptor(r,n);return i.get?i.get.call(e):i.value}})(t,n,e||t)}function v(t){return function(t){if(Array.isArray(t))return y(t)}(t)||function(t){if("undefined"!=typeof Symbol&&null!=t[Symbol.iterator]||null!=t["@@iterator"])return Array.from(t)}(t)||function(t,n){if(!t)return;if("string"==typeof t)return y(t,n);var e=Object.prototype.toString.call(t).slice(8,-1);"Object"===e&&t.constructor&&(e=t.constructor.name);if("Map"===e||"Set"===e)return Array.from(t);if("Arguments"===e||/^(?:Ui|I)nt(?:8|16|32)(?:Clamped)?Array$/.test(e))return y(t,n)}(t)||function(){throw new TypeError("Invalid attempt to spread non-iterable instance.\nIn order to be iterable, non-array objects must have a [Symbol.iterator]() method.")}()}function y(t,n){(null==n||n>t.length)&&(n=t.length);for(var e=0,r=new Array(n);e<n;e++)r[e]=t[e];return r}Number.isInteger||(Number.isInteger=function(t){return"number"==typeof t&&isFinite(t)&&Math.floor(t)===t}),Number.EPSILON||(Number.EPSILON=2220446049250313e-31);var g=d(Math.pow(10,-6));function d(t){var n=arguments.length>1&&void 0!==arguments[1]?arguments[1]:6;if(Number.isInteger(t))return t;var e=Math.pow(10,n);return Math.round((+t+Number.EPSILON)*e)/e}function p(t,n){var e=arguments.length>2&&void 0!==arguments[2]?arguments[2]:g;return Math.abs(t-n)<e}var m=Math.PI/180;function b(t){return t}function w(t,n,e){var r=1-e;return 3*e*r*(t*r+n*e)+e*e*e}function x(){var t=arguments.length>0&&void 0!==arguments[0]?arguments[0]:0,n=arguments.length>1&&void 0!==arguments[1]?arguments[1]:0,e=arguments.length>2&&void 0!==arguments[2]?arguments[2]:1,r=arguments.length>3&&void 0!==arguments[3]?arguments[3]:1;return t<0||t>1||e<0||e>1?null:p(t,n)&&p(e,r)?b:function(i){if(i<=0)return t>0?i*n/t:0===n&&e>0?i*r/e:0;if(i>=1)return e<1?1+(i-1)*(r-1)/(e-1):1===e&&t<1?1+(i-1)*(n-1)/(t-1):1;for(var u,o=0,a=1;o<a;){var l=w(t,e,u=(o+a)/2);if(p(i,l))break;l<i?o=u:a=u}return w(n,r,u)}}function A(){return 1}function k(t){return 1===t?1:0}function _(){var t=arguments.length>0&&void 0!==arguments[0]?arguments[0]:1,n=arguments.length>1&&void 0!==arguments[1]?arguments[1]:0;if(1===t){if(0===n)return k;if(1===n)return A}var e=1/t;return function(t){return t>=1?1:(t+=n*e)-t%e}}var S=Math.sin,O=Math.cos,j=Math.acos,M=Math.asin,P=Math.tan,E=Math.atan2,I=Math.PI/180,R=180/Math.PI,F=Math.sqrt,N=function(){function t(){var n=arguments.length>0&&void 0!==arguments[0]?arguments[0]:1,e=arguments.length>1&&void 0!==arguments[1]?arguments[1]:0,i=arguments.length>2&&void 0!==arguments[2]?arguments[2]:0,u=arguments.length>3&&void 0!==arguments[3]?arguments[3]:1,o=arguments.length>4&&void 0!==arguments[4]?arguments[4]:0,a=arguments.length>5&&void 0!==arguments[5]?arguments[5]:0;r(this,t),this.m=[n,e,i,u,o,a],this.i=null,this.w=null,this.s=null}return u(t,[{key:"determinant",get:function(){var t=this.m;return t[0]*t[3]-t[1]*t[2]}},{key:"isIdentity",get:function(){if(null===this.i){var t=this.m;this.i=1===t[0]&&0===t[1]&&0===t[2]&&1===t[3]&&0===t[4]&&0===t[5]}return this.i}},{key:"point",value:function(t,n){var e=this.m;return{x:e[0]*t+e[2]*n+e[4],y:e[1]*t+e[3]*n+e[5]}}},{key:"translateSelf",value:function(){var t=arguments.length>0&&void 0!==arguments[0]?arguments[0]:0,n=arguments.length>1&&void 0!==arguments[1]?arguments[1]:0;if(!t&&!n)return this;var e=this.m;return e[4]+=e[0]*t+e[2]*n,e[5]+=e[1]*t+e[3]*n,this.w=this.s=this.i=null,this}},{key:"rotateSelf",value:function(){var t=arguments.length>0&&void 0!==arguments[0]?arguments[0]:0;if(t%=360){var n=S(t*=I),e=O(t),r=this.m,i=r[0],u=r[1];r[0]=i*e+r[2]*n,r[1]=u*e+r[3]*n,r[2]=r[2]*e-i*n,r[3]=r[3]*e-u*n,this.w=this.s=this.i=null}return this}},{key:"scaleSelf",value:function(){var t=arguments.length>0&&void 0!==arguments[0]?arguments[0]:1,n=arguments.length>1&&void 0!==arguments[1]?arguments[1]:1;if(1!==t||1!==n){var e=this.m;e[0]*=t,e[1]*=t,e[2]*=n,e[3]*=n,this.w=this.s=this.i=null}return this}},{key:"skewSelf",value:function(t,n){if(n%=360,(t%=360)||n){var e=this.m,r=e[0],i=e[1],u=e[2],o=e[3];t&&(t=P(t*I),e[2]+=r*t,e[3]+=i*t),n&&(n=P(n*I),e[0]+=u*n,e[1]+=o*n),this.w=this.s=this.i=null}return this}},{key:"resetSelf",value:function(){var t=arguments.length>0&&void 0!==arguments[0]?arguments[0]:1,n=arguments.length>1&&void 0!==arguments[1]?arguments[1]:0,e=arguments.length>2&&void 0!==arguments[2]?arguments[2]:0,r=arguments.length>3&&void 0!==arguments[3]?arguments[3]:1,i=arguments.length>4&&void 0!==arguments[4]?arguments[4]:0,u=arguments.length>5&&void 0!==arguments[5]?arguments[5]:0,o=this.m;return o[0]=t,o[1]=n,o[2]=e,o[3]=r,o[4]=i,o[5]=u,this.w=this.s=this.i=null,this}},{key:"recomposeSelf",value:function(){var t=arguments.length>0&&void 0!==arguments[0]?arguments[0]:null,n=arguments.length>1&&void 0!==arguments[1]?arguments[1]:null,e=arguments.length>2&&void 0!==arguments[2]?arguments[2]:null,r=arguments.length>3&&void 0!==arguments[3]?arguments[3]:null,i=arguments.length>4&&void 0!==arguments[4]?arguments[4]:null;return this.isIdentity||this.resetSelf(),t&&(t.x||t.y)&&this.translateSelf(t.x,t.y),n&&this.rotateSelf(n),e&&(e.x&&this.skewSelf(e.x,0),e.y&&this.skewSelf(0,e.y)),!r||1===r.x&&1===r.y||this.scaleSelf(r.x,r.y),i&&(i.x||i.y)&&this.translateSelf(i.x,i.y),this}},{key:"decompose",value:function(){var t=arguments.length>0&&void 0!==arguments[0]?arguments[0]:0,n=arguments.length>1&&void 0!==arguments[1]?arguments[1]:0,e=this.m,r=e[0]*e[0]+e[1]*e[1],i=[[e[0],e[1]],[e[2],e[3]]],u=F(r);if(0===u)return{origin:{x:d(e[4]),y:d(e[5])},translate:{x:d(t),y:d(n)},scale:{x:0,y:0},skew:{x:0,y:0},rotate:0};i[0][0]/=u,i[0][1]/=u;var o=e[0]*e[3]-e[1]*e[2]<0;o&&(u=-u);var a=i[0][0]*i[1][0]+i[0][1]*i[1][1];i[1][0]-=i[0][0]*a,i[1][1]-=i[0][1]*a;var l=F(i[1][0]*i[1][0]+i[1][1]*i[1][1]);if(0===l)return{origin:{x:d(e[4]),y:d(e[5])},translate:{x:d(t),y:d(n)},scale:{x:d(u),y:0},skew:{x:0,y:0},rotate:0};i[1][0]/=l,i[1][1]/=l,a/=l;var s=0;return i[1][1]<0?(s=j(i[1][1])*R,i[0][1]<0&&(s=360-s)):s=M(i[0][1])*R,o&&(s=-s),a=E(a,F(i[0][0]*i[0][0]+i[0][1]*i[0][1]))*R,o&&(a=-a),{origin:{x:d(e[4]),y:d(e[5])},translate:{x:d(t),y:d(n)},scale:{x:d(u),y:d(l)},skew:{x:d(a),y:0},rotate:d(s)}}},{key:"clone",value:function(){var t=this.m;return new this.constructor(t[0],t[1],t[2],t[3],t[4],t[5])}},{key:"toString",value:function(){var t=arguments.length>0&&void 0!==arguments[0]?arguments[0]:" ";if(null===this.s){var n=this.m.map((function(t){return d(t)}));1===n[0]&&0===n[1]&&0===n[2]&&1===n[3]?this.s="translate("+n[4]+t+n[5]+")":this.s="matrix("+n.join(t)+")"}return this.s}}],[{key:"create",value:function(t){return t?Array.isArray(t)?f(this,v(t)):t instanceof this?t.clone():(new this).recomposeSelf(t.origin,t.rotate,t.skew,t.scale,t.translate):new this}}]),t}();function T(t,n,e){return t>=.5?e:n}function q(t,n,e){return 0===t||n===e?n:t*(e-n)+n}function B(t,n,e){var r=q(t,n,e);return r<=0?0:r}function L(t,n,e){var r=q(t,n,e);return r<=0?0:r>=1?1:r}function C(t,n,e){return 0===t?n:1===t?e:{x:q(t,n.x,e.x),y:q(t,n.y,e.y)}}function D(t,n,e){var r=function(t,n,e){return Math.round(q(t,n,e))}(t,n,e);return r<=0?0:r>=255?255:r}function z(t,n,e){return 0===t?n:1===t?e:{r:D(t,n.r,e.r),g:D(t,n.g,e.g),b:D(t,n.b,e.b),a:q(t,null==n.a?1:n.a,null==e.a?1:e.a)}}function V(t,n){for(var e=[],r=0;r<t;r++)e.push(n);return e}function G(t,n){if(--n<=0)return t;var e=(t=Object.assign([],t)).length;do{for(var r=0;r<e;r++)t.push(t[r])}while(--n>0);return t}var Y,$=function(){function t(n){r(this,t),this.list=n,this.length=n.length}return u(t,[{key:"setAttribute",value:function(t,n){for(var e=this.list,r=0;r<this.length;r++)e[r].setAttribute(t,n)}},{key:"removeAttribute",value:function(t){for(var n=this.list,e=0;e<this.length;e++)n[e].removeAttribute(t)}},{key:"style",value:function(t,n){for(var e=this.list,r=0;r<this.length;r++)e[r].style[t]=n}}]),t}(),U=/-./g,Q=function(t,n){return n.toUpperCase()};function H(t){return"function"==typeof t?t:T}function J(t){return t?"function"==typeof t?t:Array.isArray(t)?function(t){var n=arguments.length>1&&void 0!==arguments[1]?arguments[1]:b;if(!Array.isArray(t))return n;switch(t.length){case 1:return _(t[0])||n;case 2:return _(t[0],t[1])||n;case 4:return x(t[0],t[1],t[2],t[3])||n}return n}(t,null):function(t,n){var e=arguments.length>2&&void 0!==arguments[2]?arguments[2]:b;switch(t){case"linear":return b;case"steps":return _(n.steps||1,n.jump||0)||e;case"bezier":case"cubic-bezier":return x(n.x1||0,n.y1||0,n.x2||0,n.y2||0)||e}return e}(t.type,t.value,null):null}function Z(t,n,e){var r=arguments.length>3&&void 0!==arguments[3]&&arguments[3],i=n.length-1;if(t<=n[0].t)return r?[0,0,n[0].v]:n[0].v;if(t>=n[i].t)return r?[i,1,n[i].v]:n[i].v;var u,o=n[0],a=null;for(u=1;u<=i;u++){if(!(t>n[u].t)){a=n[u];break}o=n[u]}return null==a?r?[i,1,n[i].v]:n[i].v:o.t===a.t?r?[u,1,a.v]:a.v:(t=(t-o.t)/(a.t-o.t),o.e&&(t=o.e(t)),r?[u,t,e(t,o.v,a.v)]:e(t,o.v,a.v))}function K(t,n){var e=arguments.length>2&&void 0!==arguments[2]?arguments[2]:null;return t&&t.length?"function"!=typeof n?null:("function"!=typeof e&&(e=null),function(r){var i=Z(r,t,n);return null!=i&&e&&(i=e(i)),i}):null}function W(t,n){return t.t-n.t}function X(t,n,r,i,u){var o,a="@"===r[0],l="#"===r[0],s=Y[r],f=T;switch(a?(o=r.substr(1),r=o.replace(U,Q)):l&&(r=r.substr(1)),e(s)){case"function":if(f=s(i,u,Z,J,r,a,n,t),l)return f;break;case"string":f=K(i,H(s));break;case"object":if((f=K(i,H(s.i),s.f))&&"function"==typeof s.u)return s.u(n,f,r,a,t)}return f?function(t,n,e){if(arguments.length>3&&void 0!==arguments[3]&&arguments[3])return t instanceof $?function(r){return t.style(n,e(r))}:function(r){return t.style[n]=e(r)};if(Array.isArray(n)){var r=n.length;return function(i){var u=e(i);if(null==u)for(var o=0;o<r;o++)t[o].removeAttribute(n);else for(var a=0;a<r;a++)t[a].setAttribute(n,u)}}return function(r){var i=e(r);null==i?t.removeAttribute(n):t.setAttribute(n,i)}}(n,r,f,a):null}function tt(t,n,r,i){if(!i||"object"!==e(i))return null;var u=null,o=null;return Array.isArray(i)?o=function(t){if(!t||!t.length)return null;for(var n=0;n<t.length;n++)t[n].e&&(t[n].e=J(t[n].e));return t.sort(W)}(i):(o=i.keys,u=i.data||null),o?X(t,n,r,o,u):null}function nt(t,n,e){if(!e)return null;var r=[];for(var i in e)if(e.hasOwnProperty(i)){var u=tt(t,n,i,e[i]);u&&r.push(u)}return r.length?r:null}function et(t,n){if(!n.settings.duration||n.settings.duration<0)return null;var e,r,i,u,o,a=function(t,n){if(!n)return null;var e=[];if(Array.isArray(n))for(var r=n.length,i=0;i<r;i++){var u=n[i];if(2===u.length){var o=null;if("string"==typeof u[0])o=t.getElementById(u[0]);else if(Array.isArray(u[0])){o=[];for(var a=0;a<u[0].length;a++)if("string"==typeof u[0][a]){var l=t.getElementById(u[0][a]);l&&o.push(l)}o=o.length?1===o.length?o[0]:new $(o):null}if(o){var s=nt(t,o,u[1]);s&&(e=e.concat(s))}}}else for(var f in n)if(n.hasOwnProperty(f)){var c=t.getElementById(f);if(c){var h=nt(t,c,n[f]);h&&(e=e.concat(h))}}return e.length?e:null}(t,n.elements);return a?(e=a,r=n.settings,i=r.duration,u=e.length,o=null,function(t,n){var a=r.iterations||1/0,l=(r.alternate&&a%2==0)^r.direction>0?i:0,s=t%i,f=1+(t-s)/i;n*=r.direction,r.alternate&&f%2==0&&(n=-n);var c=!1;if(f>a)s=l,c=!0,-1===r.fill&&(s=r.direction>0?0:i);else if(n<0&&(s=i-s),s===o)return!1;o=s;for(var h=0;h<u;h++)e[h](s);return c}):null}function rt(t,n){if(Y=n,!t||!t.root||!Array.isArray(t.animations))return null;var e=function(t){for(var n=document.getElementsByTagName("svg"),e=0;e<n.length;e++)if(n[e].id===t.root&&!n[e].svgatorAnimation)return n[e].svgatorAnimation=!0,n[e];return null}(t);if(!e)return null;var r=t.animations.map((function(t){return et(e,t)})).filter((function(t){return!!t}));return r.length?{svg:e,animations:r,animationSettings:t.animationSettings,options:t.options||void 0}:null}function it(t){return+("0x"+(t.replace(/[^0-9a-fA-F]+/g,"")||27))}function ut(t,n,e){return!t||!e||n>t.length?t:t.substring(0,n)+ut(t.substring(n+1),e,e)}function ot(t){var n=arguments.length>1&&void 0!==arguments[1]?arguments[1]:27;return!t||t%n?t%n:ot(t/n,n)}function at(t,n,e){if(t&&t.length){var r=it(e),i=it(n),u=ot(r)+5,o=ut(t,ot(r,5),u);return o=o.replace(/\x7c$/g,"==").replace(/\x2f$/g,"="),o=function(t,n,e){var r=+("0x"+t.substring(0,4));t=t.substring(4);for(var i=n%r+e%27,u=[],o=0;o<t.length;o+=2)if("|"!==t[o]){var a=+("0x"+t[o]+t[o+1])-i;u.push(a)}else{var l=+("0x"+t.substring(o+1,o+1+4))-i;o+=3,u.push(l)}return String.fromCharCode.apply(String,u)}(o=(o=atob(o)).replace(/[\x41-\x5A]/g,""),i,r),o=JSON.parse(o)}}var lt=[{key:"alternate",def:!1},{key:"fill",def:1},{key:"iterations",def:0},{key:"direction",def:1},{key:"speed",def:1},{key:"fps",def:100}],st=function(){function t(n,e){var i=this,u=arguments.length>2&&void 0!==arguments[2]?arguments[2]:null;r(this,t),this._id=0,this._running=!1,this._rollingBack=!1,this._animations=n,this._settings=e,(!u||u<"2022-05-02")&&delete this._settings.speed,lt.forEach((function(t){i._settings[t.key]=i._settings[t.key]||t.def})),this.duration=e.duration,this.offset=e.offset||0,this.rollbackStartOffset=0}return u(t,[{key:"alternate",get:function(){return this._settings.alternate}},{key:"fill",get:function(){return this._settings.fill}},{key:"iterations",get:function(){return this._settings.iterations}},{key:"direction",get:function(){return this._settings.direction}},{key:"speed",get:function(){return this._settings.speed}},{key:"fps",get:function(){return this._settings.fps}},{key:"maxFiniteDuration",get:function(){return this.iterations>0?this.iterations*this.duration:this.duration}},{key:"_apply",value:function(t){for(var n=arguments.length>1&&void 0!==arguments[1]?arguments[1]:{},e=this._animations,r=e.length,i=0,u=0;u<r;u++)n[u]?i++:(n[u]=e[u](t,1),n[u]&&i++);return i}},{key:"_rollback",value:function(t){var n=this,e=1/0,r=null;this.rollbackStartOffset=t,this._rollingBack=!0,this._running=!0;this._id=window.requestAnimationFrame((function i(u){if(n._rollingBack){null==r&&(r=u);var o=Math.round(t-(u-r)*n.speed);if(o>n.duration&&e!==1/0){var a=!!n.alternate&&o/n.duration%2>1,l=o%n.duration;o=(l+=a?n.duration:0)||n.duration}var s=(n.fps?1e3/n.fps:0)*n.speed,f=Math.max(0,o);f<e-s&&(n.offset=f,e=f,n._apply(f));var c=n.iterations>0&&-1===n.fill&&o>=n.maxFiniteDuration;(o<=0||n.offset<o||c)&&n.stop(),n._id=window.requestAnimationFrame(i)}}))}},{key:"_start",value:function(){var t=this,n=arguments.length>0&&void 0!==arguments[0]?arguments[0]:0,e=-1/0,r=null,i={};this._running=!0;var u=function u(o){null==r&&(r=o);var a=Math.round((o-r)*t.speed+n),l=(t.fps?1e3/t.fps:0)*t.speed;if(a>e+l&&!t._rollingBack&&(t.offset=a,e=a,t._apply(a,i)===t._animations.length))return void t.pause(!0);t._id=window.requestAnimationFrame(u)};this._id=window.requestAnimationFrame(u)}},{key:"_pause",value:function(){this._id&&window.cancelAnimationFrame(this._id),this._running=!1}},{key:"play",value:function(){if(!this._running)return this._rollingBack?this._rollback(this.offset):this._start(this.offset)}},{key:"stop",value:function(){this._pause(),this.offset=0,this.rollbackStartOffset=0,this._rollingBack=!1,this._apply(0)}},{key:"reachedToEnd",value:function(){return this.iterations>0&&this.offset>=this.iterations*this.duration}},{key:"restart",value:function(){var t=arguments.length>0&&void 0!==arguments[0]&&arguments[0];this.stop(t),this.play(t)}},{key:"pause",value:function(){this._pause()}},{key:"reverse",value:function(){this.direction=-this.direction}}],[{key:"build",value:function(t,n){delete t.animationSettings,t.options=at(t.options,t.root,"5c7f360c"),t.animations.map((function(n){n.settings=at(n.s,t.root,"5c7f360c"),delete n.s,t.animationSettings||(t.animationSettings=n.settings)}));var e=t.version;if(!(t=rt(t,n)))return null;var r=t.options||{},i=new this(t.animations,t.animationSettings,e);return{el:t.svg,options:r,player:i}}},{key:"push",value:function(t){return this.build(t)}},{key:"init",value:function(){var t=this,n=window.__SVGATOR_PLAYER__&&window.__SVGATOR_PLAYER__["5c7f360c"];Array.isArray(n)&&n.splice(0).forEach((function(n){return t.build(n)}))}}]),t}();function ft(t){return d(t)+""}function ct(t){var n=arguments.length>1&&void 0!==arguments[1]?arguments[1]:" ";return t&&t.length?t.map(ft).join(n):""}function ht(t){if(!t)return"transparent";if(null==t.a||t.a>=1){var n=function(t){return 1===(t=parseInt(t).toString(16)).length?"0"+t:t},e=function(t){return t.charAt(0)===t.charAt(1)},r=n(t.r),i=n(t.g),u=n(t.b);return e(r)&&e(i)&&e(u)&&(r=r.charAt(0),i=i.charAt(0),u=u.charAt(0)),"#"+r+i+u}return"rgba("+t.r+","+t.g+","+t.b+","+t.a+")"}function vt(t){return t?"url(#"+t+")":"none"}!function(){for(var t=0,n=["ms","moz","webkit","o"],e=0;e<n.length&&!window.requestAnimationFrame;++e)window.requestAnimationFrame=window[n[e]+"RequestAnimationFrame"],window.cancelAnimationFrame=window[n[e]+"CancelAnimationFrame"]||window[n[e]+"CancelRequestAnimationFrame"];window.requestAnimationFrame||(window.requestAnimationFrame=function(n){var e=Date.now(),r=Math.max(0,16-(e-t)),i=window.setTimeout((function(){n(e+r)}),r);return t=e+r,i},window.cancelAnimationFrame=window.clearTimeout)}();var yt={f:null,i:function(t,n,e){return 0===t?n:1===t?e:{x:B(t,n.x,e.x),y:B(t,n.y,e.y)}},u:function(t,n){return function(e){var r=n(e);t.setAttribute("rx",ft(r.x)),t.setAttribute("ry",ft(r.y))}}},gt={f:null,i:function(t,n,e){return 0===t?n:1===t?e:{width:B(t,n.width,e.width),height:B(t,n.height,e.height)}},u:function(t,n){return function(e){var r=n(e);t.setAttribute("width",ft(r.width)),t.setAttribute("height",ft(r.height))}}};Object.freeze({M:2,L:2,Z:0,H:1,V:1,C:6,Q:4,T:2,S:4,A:7});var dt={},pt=null;function mt(t){var n=function(){if(pt)return pt;if("object"!==("undefined"==typeof document?"undefined":e(document))||!document.createElementNS)return{};var t=document.createElementNS("http://www.w3.org/2000/svg","svg");return t&&t.style?(t.style.position="absolute",t.style.opacity="0.01",t.style.zIndex="-9999",t.style.left="-9999px",t.style.width="1px",t.style.height="1px",pt={svg:t}):{}}().svg;if(!n)return function(t){return null};var r=document.createElementNS(n.namespaceURI,"path");r.setAttributeNS(null,"d",t),r.setAttributeNS(null,"fill","none"),r.setAttributeNS(null,"stroke","none"),n.appendChild(r);var i=r.getTotalLength();return function(t){var n=r.getPointAtLength(i*t);return{x:n.x,y:n.y}}}function bt(t){return dt[t]?dt[t]:dt[t]=mt(t)}function wt(t,n,e,r){if(!t||!r)return!1;var i=["M",t.x,t.y];if(n&&e&&(i.push("C"),i.push(n.x),i.push(n.y),i.push(e.x),i.push(e.y)),n?!e:e){var u=n||e;i.push("Q"),i.push(u.x),i.push(u.y)}return n||e||i.push("L"),i.push(r.x),i.push(r.y),i.join(" ")}function xt(t,n,e,r){var i=arguments.length>4&&void 0!==arguments[4]?arguments[4]:1,u=wt(t,n,e,r),o=bt(u);try{return o(i)}catch(t){return null}}function At(t,n,e){return t+(n-t)*e}function kt(t,n,e){var r=arguments.length>3&&void 0!==arguments[3]&&arguments[3],i={x:At(t.x,n.x,e),y:At(t.y,n.y,e)};return r&&(i.a=_t(t,n)),i}function _t(t,n){return Math.atan2(n.y-t.y,n.x-t.x)}function St(t,n,e,r){var i=1-r;return i*i*t+2*i*r*n+r*r*e}function Ot(t,n,e,r){return 2*(1-r)*(n-t)+2*r*(e-n)}function jt(t,n,e,r){var i=arguments.length>4&&void 0!==arguments[4]&&arguments[4],u=xt(t,n,null,e,r);return u||(u={x:St(t.x,n.x,e.x,r),y:St(t.y,n.y,e.y,r)}),i&&(u.a=Mt(t,n,e,r)),u}function Mt(t,n,e,r){return Math.atan2(Ot(t.y,n.y,e.y,r),Ot(t.x,n.x,e.x,r))}function Pt(t,n,e,r,i){var u=i*i;return i*u*(r-t+3*(n-e))+3*u*(t+e-2*n)+3*i*(n-t)+t}function Et(t,n,e,r,i){var u=1-i;return 3*(u*u*(n-t)+2*u*i*(e-n)+i*i*(r-e))}function It(t,n,e,r,i){var u=arguments.length>5&&void 0!==arguments[5]&&arguments[5],o=xt(t,n,e,r,i);return o||(o={x:Pt(t.x,n.x,e.x,r.x,i),y:Pt(t.y,n.y,e.y,r.y,i)}),u&&(o.a=Rt(t,n,e,r,i)),o}function Rt(t,n,e,r,i){return Math.atan2(Et(t.y,n.y,e.y,r.y,i),Et(t.x,n.x,e.x,r.x,i))}function Ft(t,n,e){var r=arguments.length>3&&void 0!==arguments[3]&&arguments[3];if(Tt(n)){if(qt(e))return jt(n,e.start,e,t,r)}else if(Tt(e)){if(Bt(n))return jt(n,n.end,e,t,r)}else{if(Bt(n))return qt(e)?It(n,n.end,e.start,e,t,r):jt(n,n.end,e,t,r);if(qt(e))return jt(n,e.start,e,t,r)}return kt(n,e,t,r)}function Nt(t,n,e){var r=Ft(t,n,e,!0);return r.a=function(t){return arguments.length>1&&void 0!==arguments[1]&&arguments[1]?t+Math.PI:t}(r.a)/m,r}function Tt(t){return!t.type||"corner"===t.type}function qt(t){return null!=t.start&&!Tt(t)}function Bt(t){return null!=t.end&&!Tt(t)}var Lt=new N;var Ct={f:ft,i:q},Dt={f:ft,i:L};function zt(t,n,e){return t.map((function(t){return function(t,n,e){var r=t.v;if(!r||"g"!==r.t||r.s||!r.v||!r.r)return t;var i=e.getElementById(r.r),u=i&&i.querySelectorAll("stop")||[];return r.s=r.v.map((function(t,n){var e=u[n]&&u[n].getAttribute("offset");return{c:t,o:e=d(parseInt(e)/100)}})),delete r.v,t}(t,0,e)}))}var Vt={gt:"gradientTransform",c:{x:"cx",y:"cy"},rd:"r",f:{x:"x1",y:"y1"},to:{x:"x2",y:"y2"}};function Gt(t,n,r,i,u,o,a,l){return zt(t,0,l),n=function(t,n,e){for(var r,i,u,o=t.length-1,a={},l=0;l<=o;l++)(r=t[l]).e&&(r.e=n(r.e)),r.v&&"g"===(i=r.v).t&&i.r&&(u=e.getElementById(i.r))&&(a[i.r]={e:u,s:u.querySelectorAll("stop")});return a}(t,i,l),function(i){var u=r(i,t,Yt);if(!u)return"none";if("c"===u.t)return ht(u.v);if("g"===u.t){if(!n[u.r])return vt(u.r);var o=n[u.r];return function(t,n){for(var e=t.s,r=e.length;r<n.length;r++){var i=e[e.length-1].cloneNode();i.id=Qt(i.id),t.e.appendChild(i),e=t.s=t.e.querySelectorAll("stop")}for(var u=0,o=e.length,a=n.length-1;u<o;u++)e[u].setAttribute("stop-color",ht(n[Math.min(u,a)].c)),e[u].setAttribute("offset",n[Math.min(u,a)].o)}(o,u.s),Object.keys(Vt).forEach((function(t){if(void 0!==u[t])if("object"!==e(Vt[t])){var n,r="gt"===t?(n=u[t],Array.isArray(n)?"matrix("+n.join(" ")+")":""):u[t],i=Vt[t];o.e.setAttribute(i,r)}else Object.keys(Vt[t]).forEach((function(n){if(void 0!==u[t][n]){var e=u[t][n],r=Vt[t][n];o.e.setAttribute(r,e)}}))})),vt(u.r)}return"none"}}function Yt(t,e,r){if(0===t)return e;if(1===t)return r;if(e&&r){var i=e.t;if(i===r.t)switch(e.t){case"c":return{t:i,v:z(t,e.v,r.v)};case"g":if(e.r===r.r){var u={t:i,s:$t(t,e.s,r.s),r:e.r};return e.gt&&r.gt&&(u.gt=function(t,n,e){var r=n.length;if(r!==e.length)return T(t,n,e);for(var i=new Array(r),u=0;u<r;u++)i[u]=q(t,n[u],e[u]);return i}(t,e.gt,r.gt)),e.c?(u.c=C(t,e.c,r.c),u.rd=B(t,e.rd,r.rd)):e.f&&(u.f=C(t,e.f,r.f),u.to=C(t,e.to,r.to)),u}}if("c"===e.t&&"g"===r.t||"c"===r.t&&"g"===e.t){var o="c"===e.t?e:r,a="g"===e.t?n({},e):n({},r),l=a.s.map((function(t){return{c:o.v,o:t.o}}));return a.s="c"===e.t?$t(t,l,a.s):$t(t,a.s,l),a}}return T(t,e,r)}function $t(t,n,e){if(n.length===e.length)return n.map((function(n,r){return Ut(t,n,e[r])}));for(var r=Math.max(n.length,e.length),i=[],u=0;u<r;u++){var o=Ut(t,n[Math.min(u,n.length-1)],e[Math.min(u,e.length-1)]);i.push(o)}return i}function Ut(t,n,e){return{o:L(t,n.o,e.o||0),c:z(t,n.c,e.c||{})}}function Qt(t){return t.replace(/-fill-([0-9]+)$/,(function(t,n){return"-fill-"+(+n+1)}))}var Ht={fill:Gt,"fill-opacity":Dt,stroke:Gt,"stroke-opacity":Dt,"stroke-width":Ct,"stroke-dashoffset":{f:ft,i:q},"stroke-dasharray":{f:function(t){var n=arguments.length>1&&void 0!==arguments[1]?arguments[1]:" ";return t&&t.length>0&&(t=t.map((function(t){return d(t,4)}))),ct(t,n)},i:function(t,n,e){var r,i,u,o=n.length,a=e.length;if(o!==a)if(0===o)n=V(o=a,0);else if(0===a)a=o,e=V(o,0);else{var l=(u=(r=o)*(i=a)/function(t,n){for(var e;n;)e=n,n=t%n,t=e;return t||1}(r,i))<0?-u:u;n=G(n,Math.floor(l/o)),e=G(e,Math.floor(l/a)),o=a=l}for(var s=[],f=0;f<o;f++)s.push(d(B(t,n[f],e[f])));return s}},opacity:Dt,transform:function(t,n,r,i){if(!(t=function(t,n){if(!t||"object"!==e(t))return null;var r=!1;for(var i in t)t.hasOwnProperty(i)&&(t[i]&&t[i].length?(t[i].forEach((function(t){t.e&&(t.e=n(t.e))})),r=!0):delete t[i]);return r?t:null}(t,i)))return null;var u=function(e,i,u){var o=arguments.length>3&&void 0!==arguments[3]?arguments[3]:null;return t[e]?r(i,t[e],u):n&&n[e]?n[e]:o};return n&&n.a&&t.o?function(n){var e=r(n,t.o,Nt);return Lt.recomposeSelf(e,u("r",n,q,0)+e.a,u("k",n,C),u("s",n,C),u("t",n,C)).toString()}:function(t){return Lt.recomposeSelf(u("o",t,Ft,null),u("r",t,q,0),u("k",t,C),u("s",t,C),u("t",t,C)).toString()}},r:Ct,"#size":gt,"#radius":yt,_:function(t,n){if(Array.isArray(t))for(var e=0;e<t.length;e++)this[t[e]]=n;else this[t]=n}},Jt=function(t){!function(t,n){if("function"!=typeof n&&null!==n)throw new TypeError("Super expression must either be null or a function");t.prototype=Object.create(n&&n.prototype,{constructor:{value:t,writable:!0,configurable:!0}}),n&&l(t,n)}(o,t);var n,e,i=(n=o,e=s(),function(){var t,r=a(n);if(e){var i=a(this).constructor;t=Reflect.construct(r,arguments,i)}else t=r.apply(this,arguments);return c(this,t)});function o(){return r(this,o),i.apply(this,arguments)}return u(o,null,[{key:"build",value:function(t){var n=h(a(o),"build",this).call(this,t,Ht);if(!n)return null;n.el,n.options,function(t,n,e){t.play()}(n.player)}}]),o}(st);return Jt.init(),Jt}));
(function(s,i,o,w,a,b){w[o]=w[o]||{};w[o][s]=w[o][s]||[];w[o][s].push(i);})('5c7f360c',{"root":"ea3hwcfO5Mr1","version":"2022-05-04","animations":[{"elements":{"ea3hwcfO5Mr3":{"transform":{"data":{"o":{"x":789,"y":585,"type":"corner"},"t":{"x":-789,"y":-585}},"keys":{"r":[{"t":0,"v":0},{"t":1000,"v":120},{"t":2000,"v":240},{"t":3000,"v":360}]}}}},"s":"MTDA1M2IyNTk5YmFjYTWk5OGFiYTBhNmE1NTkY3MTZhNjdSNjc2NzYzVNTk5YmEwYTk5Y1A5YMWFiYTBhNmE1NTk3MTVY4NjNUNTlhMGFiOWNBhOTk4YWJhMGE2YTVhWYTU5NzFZNjc2MzU5ORWRhMGEzYTM1OTcxNjTg2MzU5OThhM2FiOWNIhOWE1OThhYjljNTk3XMTlkOThhM2FhOWNRNEjNQNTlhYWE3OWM5YzIliNTk3MTY4YjQ/"}],"options":"MFDAxME04ODJmODA4MTJZlN2Y4MVgyZjQ3STJSmNzlMN2M2ZTcxUDJmBOGE/"},'__SVGATOR_PLAYER__',window)]]></script></svg>