<svg width="72" height="45" viewBox="0 0 72 45" fill="none" xmlns="http://www.w3.org/2000/svg">
<path d="M27.5565 0.133403C23.0039 0.480308 19.3738 1.17412 17.9298 1.98356C16.3655 2.86238 14.4602 4.87443 12.3944 7.83468L10.7699 10.1936L8.94485 10.448C7.48078 10.633 7.03955 10.633 6.57827 10.3786C6.13705 10.1011 5.49526 10.1011 3.18886 10.2861C0.240669 10.5174 0 10.6099 0 11.6275C0 12.09 0.120334 12.1132 1.84513 12.2057C3.06852 12.2519 3.71031 12.3676 3.77047 12.5526C3.81058 12.7145 4.01114 12.8532 4.23175 12.8532C4.69304 12.8532 4.69304 12.807 4.23175 14.0327C4.0312 14.5877 3.79053 15.2816 3.73036 15.5591L3.58997 16.0679L4.49248 15.4897C6.23733 14.3796 10.2485 13.8939 13.337 14.4721C13.9989 14.5877 14.9415 14.7496 15.4429 14.819C20.7577 15.5822 51.2423 15.5822 56.5571 14.819C57.0585 14.7496 58.0011 14.5877 58.663 14.4721C61.7515 13.8939 65.7627 14.3796 67.5075 15.4897L68.41 16.0679L68.2696 15.5591C68.2095 15.2816 67.9688 14.5877 67.7682 14.0327C67.307 12.807 67.307 12.8532 67.7682 12.8532C67.9889 12.8532 68.1894 12.7145 68.2295 12.5526C68.2897 12.3676 68.9315 12.2519 70.1549 12.2057C71.8797 12.1132 72 12.09 72 11.6275C72 10.6099 71.7593 10.5174 68.8111 10.2861C66.5047 10.1011 65.8629 10.1011 65.4217 10.3786C64.9604 10.633 64.5192 10.633 63.0552 10.448L61.2301 10.1936L59.6056 7.83468C57.6802 5.08257 55.795 3.02427 54.371 2.12232C52.1248 0.734704 47.4919 0.133403 37.7047 0.0177687C33.6735 -0.0284851 29.1008 0.0177687 27.5565 0.133403Z" fill="white"/>
<path d="M17.168 17.0623C18.8928 19.1206 18.9329 19.2131 18.4114 19.2825C18.0905 19.3287 17.8499 19.4212 17.8499 19.4675C17.8499 19.5369 18.0905 19.9763 18.4114 20.4157L18.9529 21.2714L17.9702 20.3926C16.5864 19.1668 14.5607 18.0567 12.495 17.3398C10.2688 16.5997 6.79917 16.5072 4.41254 17.1548C3.59025 17.3861 2.84819 17.548 2.76797 17.5248C2.7078 17.5017 2.56741 17.8255 2.48719 18.2418C2.24652 19.3056 2.38691 44.0746 2.62758 44.5834C2.80808 44.9765 3.24931 44.9996 8.22312 44.9996C14.2799 44.9996 14.0393 45.069 14.0393 43.2882V42.4557H36.0003H57.9613V43.2882C57.9613 45.069 57.7206 44.9996 63.7774 44.9996C68.7312 44.9996 69.1925 44.9765 69.373 44.5834C69.6136 44.0746 69.754 19.8375 69.5134 18.473C69.4331 17.9411 69.2927 17.5017 69.2326 17.5248C69.1524 17.548 68.4103 17.3861 67.588 17.1548C65.4421 16.5766 61.9524 16.5997 59.8666 17.2242C57.9212 17.8255 55.4142 19.1668 54.0504 20.3694L53.0476 21.2714L53.6092 20.4157C53.91 19.9763 54.1507 19.5369 54.1507 19.4675C54.1507 19.4212 53.91 19.3287 53.6092 19.2825C53.0677 19.2131 53.1078 19.1206 54.8326 17.0623C55.8153 15.9059 56.5373 14.9346 56.417 14.9346C56.2967 14.9346 55.3941 15.9291 54.4114 17.1317L52.6064 19.3287H51.4833C50.4404 19.3287 50.0593 19.0975 50.5206 18.7737C50.6209 18.6812 51.1022 18.0799 51.5836 17.4323L52.446 16.2066L51.6437 16.9466C51.2025 17.3398 50.5206 18.0336 50.1596 18.4962L49.4577 19.3287H46.6499C45.0855 19.3287 43.1 19.2593 42.1975 19.19L40.573 19.0281L40.3724 18.1955L40.1719 17.3629L40.1317 18.2186L40.1117 19.0975H36.0003H31.8889L31.8688 18.2186L31.8287 17.3629L31.6281 18.1955L31.4276 19.0281L29.8031 19.19C28.9006 19.2593 26.915 19.3287 25.3507 19.3287C22.583 19.3287 22.5228 19.3287 22.0415 18.7274C21.7808 18.4036 21.1189 17.6867 20.5574 17.1779L19.5546 16.2066L20.6175 17.6173C21.1791 18.4036 21.6604 19.0975 21.6604 19.19C21.6604 19.2593 21.139 19.3287 20.5173 19.3287H19.3942L17.5891 17.1317C16.6064 15.9291 15.7039 14.9346 15.5836 14.9346C15.4632 14.9346 16.1852 15.9059 17.168 17.0623ZM15.6036 24.9948C15.8443 25.573 16.0448 26.1049 16.0448 26.1512C16.0448 26.3824 12.4549 26.2668 12.3345 26.0355C12.2744 25.8968 11.7329 25.8043 11.1713 25.8043C10.5897 25.8043 9.44652 25.6886 8.58413 25.5267C7.32062 25.2955 7.01978 25.1567 6.93956 24.7867C6.79917 24.1623 6.95961 24.0235 7.2805 24.5092C7.42089 24.7173 7.90223 24.9717 8.36351 25.0411C9.14569 25.1567 9.1858 25.1336 9.08552 24.671C9.02535 24.3935 9.06546 24.1854 9.20585 24.1854C9.32619 24.1854 9.46658 24.4398 9.5468 24.7636C9.66713 25.2955 9.76741 25.3417 10.8504 25.3417C12.0137 25.3417 12.0137 25.3417 11.8331 24.7636C11.5323 23.8616 11.9936 24.0697 12.3145 24.9948L12.6153 25.8043H14.0393H15.4432L15.1423 24.9717C14.8014 24.0004 14.7813 23.9541 15.002 23.9541C15.0822 23.9541 15.363 24.4167 15.6036 24.9948ZM17.8298 26.128C19.1334 28.1401 19.2939 28.3251 20.1964 28.6026C20.8983 28.8108 24.7691 28.9033 34.3958 28.9727C47.2916 29.0652 51.6237 28.9264 52.5663 28.3482C52.7468 28.2095 53.4688 27.2381 54.1507 26.1512C54.8125 25.0873 55.4744 24.116 55.6148 24.0235C55.7551 23.931 55.5746 24.2779 55.2337 24.7636C54.3914 26.0355 54.0905 26.7062 54.2309 27.1225C54.3713 27.5388 55.8955 27.4925 60.9897 26.845C64.72 26.3824 65.3017 26.1974 65.6827 25.3417C65.8632 24.9486 66.0437 24.6479 66.0838 24.6479C66.2643 24.6479 65.422 26.4056 64.9005 27.1225C64.6198 27.4925 64.0582 27.9319 63.637 28.0707C63.2159 28.2095 60.4281 28.672 57.4599 29.0652L52.0448 29.8284L37.3039 29.8977C21.6203 29.9902 22.0014 30.0134 12.6554 28.7876C8.5039 28.2557 7.76184 28.0245 7.1 27.1225C6.57855 26.4056 5.73622 24.6479 5.91672 24.6479C5.95683 24.6479 6.13733 24.9486 6.31783 25.3417C6.51839 25.8043 6.85933 26.1049 7.38078 26.2668C8.22312 26.5443 15.383 27.4232 16.7669 27.4232C18.1306 27.4232 18.1507 26.7987 16.807 24.8098C16.4861 24.3473 16.2655 23.9541 16.3256 23.9541C16.3858 23.9541 17.0677 24.9254 17.8298 26.128ZM56.8783 24.8561C56.6978 25.2261 56.5574 25.5961 56.5574 25.6886C56.5574 25.758 57.1992 25.8043 57.9813 25.8043H59.3852L59.6861 24.9948C60.007 24.0697 60.4682 23.8616 60.1674 24.7636C59.9869 25.3417 59.9869 25.3417 61.1501 25.3417C62.2331 25.3417 62.3334 25.2955 62.4538 24.7636C62.534 24.4398 62.6744 24.1854 62.7947 24.1854C62.915 24.1854 62.9551 24.3935 62.8749 24.671C62.7345 25.1567 62.7746 25.1798 63.5969 25.018C64.0783 24.9254 64.5997 24.6942 64.72 24.486C65.0409 24.0235 65.2014 24.1623 65.061 24.7867C64.9808 25.1567 64.6799 25.2955 63.4164 25.5267C62.554 25.6886 61.4109 25.8043 60.8292 25.8043C60.2677 25.8043 59.7262 25.8968 59.666 26.0355C59.5457 26.2668 55.9557 26.3824 55.9557 26.1512C55.9557 25.943 56.5774 24.5785 56.8181 24.2316C57.159 23.7228 57.1992 24.116 56.8783 24.8561ZM5.21477 35.0782C5.35516 35.6332 5.59583 36.2808 5.77633 36.512C6.79917 37.8534 12.5552 38.1772 34.8972 38.1772C56.1362 38.1772 63.6772 37.8997 65.422 37.0671C65.8231 36.8821 66.2844 36.4658 66.4448 36.1651C66.7858 35.5407 67.1869 33.0661 67.1869 31.4472C67.207 30.6147 67.2471 30.4065 67.3875 30.6841C67.5078 30.9385 67.5078 31.7248 67.3875 32.8811C66.8861 37.3677 66.5652 37.6915 62.2331 38.0616C50.8014 39.0329 21.1992 39.0329 9.76741 38.0616C5.43538 37.6915 5.11449 37.3677 4.6131 32.9042C4.51282 31.9329 4.49276 30.9385 4.57298 30.7303C4.65321 30.4759 4.77354 31.0772 4.85376 32.1873C4.91393 33.228 5.09443 34.5231 5.21477 35.0782Z" fill="white"/>
</svg>
