<svg id="e9Lvi04bEUP1" xmlns="http://www.w3.org/2000/svg" xmlns:xlink="http://www.w3.org/1999/xlink" viewBox="0 0 1600 1600" shape-rendering="geometricPrecision" text-rendering="geometricPrecision"><path d="M1595.5,800c0,439.37-353.96,795.5-790.531,795.5-436.572,0-790.5315-356.13-790.5315-795.5C14.4375,360.631,368.397,4.5,804.969,4.5C1241.54,4.5,1595.5,360.631,1595.5,800Z" fill="#601554" stroke="#1c092b" stroke-width="9"/><g id="e9Lvi04bEUP3" transform="translate(.000001 0)"><path d="M1287.93,791c0,273.96-220.7,496-492.899,496-272.194,0-492.894-222.04-492.894-496c0-273.957,220.7-496,492.894-496c272.199,0,492.899,222.043,492.899,496Z" stroke="#ff1c1c" stroke-width="8"/><line x1="795.531" y1="4" x2="795.531" y2="1600" fill="none" stroke="#fffcfc"/><line x1="0" y1="799.5" x2="1590.06" y2="799.5" fill="none" stroke="#fffcfc"/><path d="M232.547,1369.37L1356.89,238" fill="none" stroke="#fffcfc"/><line x1="0" y1="-0.5" x2="1595.04" y2="-0.5" transform="matrix(.704901 0.709306-.704901 0.709306 232.546997 238)" fill="none" stroke="#fffcfc"/><g clip-path="url(#e9Lvi04bEUP17)"><g><path d="M1048.01,166.276c0,26.662-21.48,48.276-47.98,48.276-26.498,0-47.978-21.614-47.978-48.276s21.48-48.276,47.978-48.276c26.5,0,47.98,21.614,47.98,48.276Z" fill="#ff3f00"/><path d="M1119.97,142.138c0,9.521-7.68,17.242-17.14,17.242s-17.13-7.721-17.13-17.242s7.67-17.242,17.13-17.242s17.14,7.721,17.14,17.242Z" fill="#ff3f00"/><path d="M1126.82,308.248L1117.13,318l-82.24-82.759l9.69-9.752l82.24,82.759Z" fill="#ff3f00"/><path d="M1045.72,246.15l-42.46-5.342c-3.4-.427-6.594,1.728-7.499,5.052l-15.918,58.742c-1.645,6.059,2.279,12.221,8.434,13.252c5.192.872,10.226-2.242,11.793-7.297l12.62-40.645c1.02-3.279,4.28-5.314,7.65-4.779l52.55,8.351-27.17-27.334Z" fill="#ff3f00"/><path d="M1084.37,265.535l20.99-68.452c3.44-11.197-3.01-23.035-14.24-26.145-10.68-2.959-21.78,3.103-25.14,13.731l-14.95,47.31l33.34,33.556Z" fill="#ff3f00"/><path d="M1105.37,197.082l-.81,2.614l46.25-44.99-.01-19.466-46.65,46.583c2.24,4.58,2.83,9.987,1.22,15.259Z" fill="#ff3f00"/></g><clipPath id="e9Lvi04bEUP17"><rect width="198.758" height="200" rx="0" ry="0" transform="translate(952.049988 118)" fill="#fff"/></clipPath></g><g clip-path="url(#e9Lvi04bEUP27)"><g><path d="M491.926,270h59.627c2.746,0,4.969-2.237,4.969-5s-2.223-5-4.969-5h-59.627c-2.746,0-4.969,2.237-4.969,5s2.223,5,4.969,5Z" fill="#f00"/><path d="M491.926,205h59.627c2.746,0,4.969-2.237,4.969-5s-2.223-5-4.969-5h-59.627c-2.746,0-4.969,2.237-4.969,5s2.223,5,4.969,5Z" fill="#f00"/><path d="M491.926,140h59.627c2.746,0,4.969-2.237,4.969-5s-2.223-5-4.969-5h-59.627c-2.746,0-4.969,2.237-4.969,5s2.223,5,4.969,5Z" fill="#f00"/><path d="M491.926,172.5h59.627c2.746,0,4.969-2.237,4.969-5s-2.223-5-4.969-5h-59.627c-2.746,0-4.969,2.237-4.969,5s2.223,5,4.969,5Z" fill="#f00"/><path d="M491.926,237.5h59.627c2.746,0,4.969-2.237,4.969-5s-2.223-5-4.969-5h-59.627c-2.746,0-4.969,2.237-4.969,5s2.223,5,4.969,5Z" fill="#f00"/><path d="M599.778,278.819v0c-1.143.46-2.328.681-3.501.681-3.082,0-6.061-1.522-7.855-4.23l-.355.236.355-.236c-10.91-16.467-16.406-45.822-16.406-75.27s5.496-58.803,16.406-75.27c1.793-2.708,4.772-4.23,7.855-4.23c1.173,0,2.358.218,3.503.68l.001.001l6.761,2.713v0c22.95,9.195,42.617,17.078,56.562,28.251c13.9,11.138,22.111,25.546,22.111,47.855s-8.211,36.717-22.111,47.855c-13.945,11.173-33.613,19.056-56.564,28.251h-.001l-6.761,2.713ZM596.46,129.536l-.378-.152-.225.34c-5.019,7.575-8.763,18.271-11.253,30.489-2.493,12.225-3.737,26.009-3.737,39.787s1.244,27.562,3.737,39.787c2.49,12.218,6.234,22.914,11.253,30.489l.225.34.378-.152c2.307-.929,4.571-1.836,6.793-2.726c21.674-8.682,39.248-15.722,51.701-24.835c6.878-5.033,12.217-10.714,15.832-17.673s5.491-15.166,5.491-25.23-1.876-18.271-5.491-25.231c-3.615-6.958-8.954-12.639-15.832-17.673-12.453-9.113-30.027-16.152-51.701-24.835-2.222-.889-4.486-1.797-6.793-2.725Z" fill="#f00" stroke="#f00"/></g><clipPath id="e9Lvi04bEUP27"><rect width="198.758" height="200" rx="0" ry="0" transform="matrix(-1 0 0-1 685.715027 300)" fill="#fff"/></clipPath></g><path d="M89.7845,727.603c-4.4335-1.468-8.1808-6.754-9.7067-13.691l-.5051-2.296-.051-82.595c-.0455-73.568-.0197-82.833.2359-84.797.9467-7.277,4.4042-13.13,9.1547-15.498l1.2404-.619l88.0763-.078c80.138-.071,88.209-.037,89.558.38c4.562,1.411,8.336,6.645,9.892,13.72l.505,2.296.051,82.595c.056,91.021.133,84.753-1.082,88.93-1.588,5.459-4.531,9.486-8.309,11.369l-1.24.618-88.262.05c-77.823.043-88.4131-.002-89.5579-.381l.0004-.003ZM216.203,702.647l2.397-2.528.502-2.011c.47-1.887.509-2.404.632-8.362l.13-6.351.902-1.165c1.081-1.396,1.363-1.354,2.61.388l.879,1.228.215,6.012c.142,3.983.292,6.142.445,6.398.193.321,1.457.335,7.546.081l7.315-.304l1.384-.927c1.383-.926,3.248-2.682,3.658-3.444.12-.222,1.439-5.035,2.932-10.695l2.715-10.29.877-14.171.877-14.171-.669-12.024-.669-12.024-2.945-11.022c-1.701-6.366-3.207-11.582-3.565-12.348l-.619-1.326-3.202.135c-1.762.074-5.625.22-8.585.324l-5.383.189-.093,6.298c-.085,5.716-.129,6.391-.479,7.3l-.386,1.002-1.377-.095c-.758-.052-1.447-.197-1.532-.323-.251-.372-.473-2.289-.77-6.643-.471-6.893-.391-6.429-1.268-7.349-.745-.781-.961-.841-5.097-1.417l-4.319-.602-1.801-1.676-1.801-1.677-.997-3.564c-.923-3.304-3.052-11.506-3.674-14.157-.498-2.125-.707-2.516-1.714-3.204-.985-.673-1.057-.679-9.467-.823-8.472-.145-10.891-.385-11.676-1.157-.371-.366-.417-.646-.417-2.537v-2.124l1.038-1.304l1.038-1.304h8.34h8.34l.194-.788c.107-.433.367-1.882.578-3.22l.383-2.434-.635-3.149-.636-3.149h-29.268c-25.775,0-29.298.051-29.529.429-.144.236-.473,1.419-.732,2.629l-.47,2.2.526,3.203c.289,1.762.594,3.304.679,3.427.084.123,3.787.349,8.228.503l8.074.279l1.578.976l1.577.976.055,2.091c.034,1.295-.027,2.245-.162,2.494-.18.336-1.602.403-8.477.403h-8.261l-1.415,1.188c-.778.653-2.477,2.352-3.775,3.776l-2.36,2.588-1.427,4.131c-1.424,4.128-1.427,4.133-2.429,4.816-.551.377-2.965,1.323-5.363,2.104s-4.461,1.511-4.585,1.622c-1.141,1.036-2.331,2.847-3.172,4.825l-.973,2.291-.586,12.11c-.323,6.66-.636,12.232-.695,12.382-.128.318-2.527.326-3.95.014-.74-.163-1.127-.435-1.555-1.095l-.569-.878-.246-16.706c-.135-9.188-.25-16.738-.255-16.777-.055-.436-6.403,2.287-6.852,2.938-.195.285-.375,4.181-.789,17.124l-.537,16.755l1.155,4.53l1.155,4.53.099,19.181.099,19.181l1.206.915c.664.504,1.362.923,1.552.931.284.012.967-.72,2.41-2.584.085-.111.346-7.371.578-16.134.419-15.824.425-15.937.851-16.636.419-.689.487-.703,3.355-.703c1.609,0,2.966.098,3.014.218s.183,6.465.3,14.1c.176,11.418.28,14.491.585,17.317.361,3.349.403,3.517,1.659,6.727c1.588,4.054,2.806,5.855,4.398,6.498.587.238,4.911.909,9.609,1.492c10.125,1.258,9.662,1.062,10.875,4.598.536,1.561,2.033,4.487,5.425,10.601l4.685,8.446l1.199.668c.66.367,2.077,1.034,3.148,1.481l1.949.814l26.931.021l26.931.022l2.396-2.528Zm-85.844-48.311c-2.67-1.108-5.345-4.551-6.563-8.449-1.014-3.246-1.438-5.916-1.566-9.868-.258-7.99,1.224-14.456,4.192-18.281c2.057-2.651,4.095-3.679,7.351-3.71c2.455-.023,3.605.374,5.568,1.92c2.645,2.084,4.432,5.487,4.941,9.409.334,2.581.366,2.549-2.444,2.457l-2.43-.08-.325-1.479c-.758-3.459-2.223-4.991-4.962-5.191-1.545-.112-1.793-.054-2.842.673-1.973,1.365-3.13,4.09-3.626,8.539-.384,3.442-.359,6.506.076,9.127.474,2.863.931,4.18,2.042,5.894c1.208,1.862,2.314,2.453,4.257,2.271c2.603-.243,4.512-2.236,5.017-5.238.132-.784.271-1.588.309-1.784.05-.263.714-.358,2.493-.358c2.803,0,2.785-.02,2.416,2.529-.509,3.518-2.18,7.39-3.923,9.087-1.019.993-2.875,2.1-4.306,2.569-1.593.523-4.368.505-5.675-.037Zm73.283.151c-3.032-1.108-5.603-4.395-7.041-9.003-1.199-3.844-1.381-5.311-1.384-11.165-.003-5.749.22-7.448,1.491-11.341c2.166-6.632,6.502-9.922,11.679-8.86c3.772.775,6.757,3.77,8.089,8.116.58,1.89,1.011,4.568.844,5.24-.086.346-.538.406-2.552.34l-2.447-.08-.306-1.412c-.374-1.724-1.445-3.682-2.481-4.535-.656-.539-1.065-.635-2.721-.636-1.707-.001-2.06.086-2.845.705-2.534,1.996-3.803,6.942-3.603,14.037.164,5.784,1.497,9.516,4.018,11.243.667.458,1.11.538,2.413.437c3.019-.234,4.659-2.075,5.303-5.954l.214-1.288l2.386-.081c1.312-.044,2.461.036,2.554.179.299.462-.201,3.542-.963,5.932-1.291,4.046-3.767,6.789-7.193,7.967-1.416.487-4.325.572-5.455.159Zm-55.541-1.027c-.07-.109-.128-8.938-.128-19.619v-19.419h2.483c1.84,0,2.536.098,2.688.38.134.249.222,2.802.255,7.372l.049,6.991h4.734h4.733l.05-6.991c.032-4.571.12-7.123.254-7.372.296-.549,4.668-.541,4.965.009.152.283.196,5.632.161,19.539l-.047,19.15h-2.599-2.599l-.092-8.589-.093-8.588h-4.733-4.734l-.093,8.588-.092,8.589-2.517.079c-1.384.044-2.574-.01-2.645-.119Zm25.241-.005c-.069-.106-.126-8.778-.126-19.27c0-14.455.054-19.159.223-19.42.352-.543,17.658-.489,17.952.056.141.263.196,1.461.162,3.507l-.053,3.108-6.404.143-6.404.143v4.151v4.151l5.94.144l5.94.143v3.292v3.292l-5.94.143-5.94.144v4.723v4.724l6.775.143l6.775.143v3.293v3.292l-9.387.074c-5.163.041-9.444-.013-9.513-.119Zm47.891.005c-.071-.109-.129-8.938-.129-19.619v-19.419h2.469c1.673,0,2.541.11,2.692.343.162.25.222,2.43.222,8.016c0,6.132.049,7.673.243,7.673.134,0,2.327-3.606,4.873-8.013l4.629-8.013l2.837-.003c2.308-.002,2.856.074,2.94.412.066.268-1.569,3.231-4.6,8.333-2.587,4.354-4.73,8.091-4.762,8.303-.032.213,2.331,5.163,5.251,11.001s5.26,10.74,5.199,10.892c-.064.161-1.35.278-3.038.278-2.801,0-2.942-.028-3.298-.644-.204-.355-2.022-4.091-4.04-8.303s-3.73-7.658-3.804-7.658c-.075,0-.631.864-1.237,1.92l-1.1,1.921-.093,6.31-.092,6.311-2.517.079c-1.384.044-2.574-.011-2.645-.12Z" fill="#f00"/><g clip-path="url(#e9Lvi04bEUP33)"><g><path d="M1524.63,618.729l-18.66-12.108-72.06,25.78-13.48-8.03h-34.09v-4.474h14.63v-12.19h-41.39v12.19h14.64v4.474h-38.07l-25.1-14.546-19.12,20.082l40.66,52.977.37-.298v6.796h87.94l84.69-68.495l12.49,8.102l6.55-10.26Zm-216.74,12.025l5.35-5.608l19.72,11.443v26.833l-25.07-32.668Zm108.74,46.439h-71.55v-40.635h72.03l15.51,9.247l40.9-14.628-56.89,46.016Zm113.81-22.904c0,5.041-4.07,9.136-9.08,9.136-5.03,0-9.09-4.085-9.09-9.136c0-5.059,9.09-21.075,9.09-21.075s9.08,16.022,9.08,21.075Z" fill="#f00"/></g><clipPath id="e9Lvi04bEUP33"><rect width="238.509" height="240" rx="0" ry="0" transform="translate(1291.930054 528)" fill="#fff"/></clipPath></g><path d="M237.083,906.987c-.731-4.539-4.948-7.616-9.425-6.877-4.475.741-7.51,5.02-6.78,9.559l39.517,245.681h-127.248l39.517-245.681c.73-4.539-2.306-8.818-6.78-9.559-4.476-.74-8.695,2.338-9.424,6.877L115.387,1162.33c-.388,2.41.288,4.88,1.847,6.74c1.56,1.86,3.847,2.93,6.255,2.93h146.563c2.409,0,4.695-1.07,6.255-2.93c1.559-1.86,2.235-4.33,1.847-6.74L237.083,906.987Z" fill="#f00"/><path d="M195.457,1134.56c-4.534,0-8.209-3.73-8.209-8.33v-17.76c0-4.6,3.675-8.33,8.209-8.33s8.209,3.73,8.209,8.33v17.76c0,4.6-3.674,8.33-8.209,8.33Z" fill="#f00"/><path d="M195.457,1077.1c-4.534,0-8.209-3.73-8.209-8.33v-17.76c0-4.6,3.675-8.33,8.209-8.33s8.209,3.73,8.209,8.33v17.76c0,4.6-3.674,8.33-8.209,8.33Z" fill="#f00"/><path d="M195.457,1019.64c-4.534,0-8.209-3.72-8.209-8.32v-17.766c0-4.598,3.675-8.326,8.209-8.326s8.209,3.728,8.209,8.326v17.766c0,4.6-3.674,8.32-8.209,8.32Z" fill="#f00"/><path d="M195.457,962.189c-4.534,0-8.209-3.728-8.209-8.326v-17.765c0-4.598,3.675-8.326,8.209-8.326s8.209,3.728,8.209,8.326v17.764c0,4.599-3.674,8.327-8.209,8.327Z" fill="#f00"/><path d="M553.267,1276.05c-.148.26-.258,28.17-.258,62.05c0,58.08-.037,61.59-.629,61.91-2.219,1.17-5.62,4.68-7.321,7.47-7.025,11.68-7.136,31.41-.222,43.42c6.989,12.07,17.527,12.13,24.443,0c6.916-12.14,6.841-31.74-.184-43.42-1.665-2.79-5.103-6.3-7.286-7.47-.591-.32-.664-1.36-.664-9.8v-9.41h13.312h13.31v-6.82-6.81h-13.312-13.312v-10.38-10.38h13.312h13.312v-6.82-6.82h-13.312-13.312v-10.38-10.38l13.238-.13l13.202-.2.111-7l.111-6.95h-13.312-13.35l-.074-10.9-.111-10.84-3.735-.2c-2.034-.06-3.808,0-3.957.26Z" fill="#f00"/><path d="M472.95,1423.12c-.111.51-.147,3.69-.111,7.07l.111,6.1l3.07.45c5.509.78,8.617,3.25,15.9,12.6c8.172,10.51,12.832,13.75,20.966,14.34c5.585.39,9.024-.33,13.424-2.99c2.921-1.81,7.543-6.23,9.799-9.41l1.072-1.49-.74-2.53c-.407-1.43-1.036-4.29-1.368-6.43-.369-2.14-.702-3.96-.74-4.09-.037-.13-1.405,1.5-2.995,3.51-6.027,7.53-9.466,9.54-16.417,9.6-2.7.07-5.474-.32-6.657-.84-3.401-1.43-7.691-5.52-12.758-12.07-2.625-3.44-6.102-7.4-7.765-8.77-4.732-4.02-14.311-7.33-14.791-5.05Z" fill="#f00"/><path d="M635.139,1423.05c-5.99,1.36-10.761,5.19-18.046,14.47-5.991,7.66-9.244,10.52-13.534,11.88-7.803,2.46-15.235-.65-21.633-9.02-1.11-1.43-2.072-2.4-2.181-2.21-.111.19-.592,2.27-1.036,4.61-.48,2.33-1.147,5-1.479,5.9-.333.85-.48,1.82-.369,2.15.333,1.03,4.364,5.45,6.841,7.59c3.919,3.37,7.396,4.87,12.609,5.26c5.325.45,9.393-.39,13.275-2.73c3.772-2.27,6.434-4.93,11.758-11.81c7.026-9.09,11.612-12.46,16.825-12.53h2.109v-7.14-7.14l-1.367.07c-.778.07-2.479.33-3.772.65Z" fill="#f00"/><path d="M472.765,1477.76v6.69l2.588.45c6.065,1.1,9.355,3.57,16.16,12.46c5.362,6.95,10.058,11.29,14.348,13.37c2.441,1.11,3.993,1.37,8.875,1.37s6.434-.26,8.875-1.37c4.29-2.01,8.948-6.36,14.421-13.43c7.95-10.32,11.094-12.33,18.859-12.27c4.142.07,5.214.33,7.766,1.75c3.697,2.15,5.473,3.96,11.278,11.49c5.14,6.62,9.17,10.32,13.534,12.4c4.215,2.07,13.423,2.07,17.714.06c4.326-2.07,8.985-6.36,14.421-13.37c6.916-8.89,10.058-11.36,16.196-12.39l2.478-.46v-6.88-6.81l-3.254.39c-4.068.52-8.986,2.99-12.647,6.36-1.517,1.36-4.918,5.32-7.544,8.7-7.543,9.8-11.167,12.14-18.525,12.14-7.137,0-10.945-2.54-18.859-12.72-5.473-7.08-9.43-10.78-13.681-12.79-4.069-1.95-13.831-2.14-17.75-.32-4.955,2.27-9.17,6.29-16.271,15.51-5.991,7.79-10.206,10.32-17.009,10.32-7.137,0-11.056-2.53-17.899-11.49-4.955-6.42-8.061-9.73-11.315-12.07-2.884-2.01-8.099-3.83-10.947-3.83h-1.812v6.74Z" fill="#f00"/><g clip-path="url(#e9Lvi04bEUP49)"><g><rect width="198.758" height="280" rx="0" ry="0" transform="translate(1301.859985 900)" fill="#fffcfc"/><path d="M1525.47,900h-289.86v280h289.86v-280Z" fill="#601554"/><path d="M1328.84,1102.56v21.42v0c.01.37.56.62,1.51.82c1.39.29,3.4.37,5.83.43h.01c2.43-.06,4.45-.14,5.83-.43.96-.2,1.5-.45,1.52-.82h-.01v-21.42c0-.09-.07-.17-.17-.18-1.04-.07-2.02-.12-2.9-.16-2.19-.09-3.85-.11-4.27-.1h-.01c-.42-.01-2.07.01-4.26.1-.89.04-1.87.09-2.91.16-.09.01-.17.09-.17.18v0Zm91.36-4.01h2.81c.08,0,.15-.06.17-.14l1.08-3.86c.01-.06-.01-.13-.07-.18-.98-.77-1.6-1.85-1.6-3.24v-.06c0-.01.01-.02.01-.03l1.56-8.74c0-.01,0-.02,0-.03v-57.66c0-8.98-.75-18.43-2.84-27.16-4.8-20.084-16.03-34.406-38.71-34.719v0c-22.68.311-33.91,14.635-38.71,34.719-2.06,8.62-2.83,17.94-2.85,26.82c0,.07.05.14.12.16c2.07.75,3.52,2.04,3.52,3.9v6.06c0,.08.04.14.11.17.72.27,1.41.6,2.07.99c1.06.64,1.83,1.4,2.1,2.38.27,1,.01,2.11-1,3.42-.37.48-.55.82-.57,1.08-.02.21.1.45.33.76.67.88,1.08,1.68,1.15,2.52.08.91-.23,1.76-1.03,2.68-.52.6-.76,1.08-.78,1.49-.01.41.17.83.5,1.3.5.71.62,1.47.53,2.19-.08.59-.31,1.15-.61,1.61-.03.07-.03.14.01.2.16.23.27.47.3.74v.06c0,.01,0,.01,0,.02v9.34v0c0,.5.02.85.1,1.13.06.23.18.44.38.71l.47.63c0,0,0,0,0,.01.03.03.06.07.1.1.04.06.08.11.11.17c0,.01.01.01.01.02l1,1.33c.35.47.53.89.63,1.33.09.39.1.78.1,1.23l-.01,3.89c0,.07.05.14.12.16l.46.16c.94.32,1.55.8,1.94,1.42.37.61.49,1.3.49,2.08v5.52c0,.71-.22,1.36-.73,1.96-.38.45-.93.85-1.67,1.2-.07.03-.1.09-.1.16v14.18c0,.01,0,.02,0,.03c0,.02.01.04.01.07.06.58-.27,1.05-.93,1.39-.34.18-.83.34-1.43.46-.83.18-1.92.31-3.14.34-.1,0-.18.08-.18.18v18.79v0c-.02,1.49-1.13,2.29-3.08,2.69-1.53.32-3.66.41-6.23.47h-.01-.04v0c-2.57-.06-4.71-.15-6.23-.47-1.95-.4-3.07-1.19-3.09-2.69v0-18.79c0-.1-.08-.17-.18-.18-1.22-.03-2.3-.16-3.14-.34-.59-.12-1.08-.28-1.43-.46-.66-.34-.99-.81-.93-1.39.01-.03.01-.05.01-.07c0-.01.01-.02.01-.03v-14.18c0-.07-.04-.13-.11-.16-.74-.35-1.28-.75-1.67-1.2-.51-.6-.73-1.25-.73-1.96v-5.52c0-.78.13-1.47.5-2.08.38-.62.99-1.1,1.93-1.42l.46-.16c.07-.02.12-.09.12-.16l-.01-3.89c0-.45.01-.83.1-1.23.1-.44.29-.86.63-1.33l1.05-1.4c.01,0,.01-.01.01-.01.02-.04.05-.07.08-.11v0c.01-.01.01-.01.01-.01l.55-.73c.19-.26.31-.48.38-.71.07-.28.1-.62.09-1.13v0-9.34c0-.01,0-.01,0-.02l.01-.06c.01-.12.04-.24.08-.36.03-.06.02-.12-.02-.17-.34-.42-.63-.94-.79-1.5-.19-.67-.19-1.4.12-2.13s.49-1.27.48-1.72c-.01-.39-.18-.78-.55-1.26-.64-.83-.97-1.59-1.02-2.4s.19-1.6.71-2.47c.39-.65.53-1.15.48-1.61-.04-.48-.3-1-.68-1.64-.69-1.16-.77-2.15-.41-3.04.34-.84,1.05-1.5,1.99-2.07.81-.49,1.69-.88,2.59-1.18.08-.02.13-.09.13-.17v-5.87c0-1.7,1.21-2.92,2.99-3.69.07-.03.11-.09.11-.16.01-9.78.87-20.11,3.25-29.793c6.04-24.536,21.07-41.479,48.5-41.821l.01-.004h.1l.01.004c27.43.346,42.46,17.288,48.5,41.821c2.39,9.733,3.26,20.113,3.26,29.923v57.01c0,.01,0,.02,0,.03l1.89,9.38c0,.01,0,.02,0,.04v.06c0,1.38-.68,2.47-1.74,3.25-.06.05-.09.12-.07.19l1.07,3.85c.02.08.09.13.17.13h2.72c2.16,0,3.92,1.7,3.92,3.79v21.34c0,2.09-1.76,3.79-3.92,3.79h-18.27c-2.16,0-3.93-1.7-3.93-3.79v-21.34c0-2.09,1.77-3.79,3.93-3.79v0Zm5.25,0h2.67c.1,0,.18-.08.18-.18v-2.37c0-.09-.07-.17-.16-.18-.5-.05-.98-.14-1.44-.26-.15-.04-.29-.08-.43-.12-.05-.02-.09-.01-.14.01s-.08.06-.09.11l-.77,2.76c-.01.06,0,.11.03.16.04.04.09.07.15.07v0Zm5.03,0h2.83c.06,0,.11-.03.14-.07.04-.05.05-.1.03-.16l-.77-2.78c-.01-.05-.04-.09-.09-.11-.04-.03-.09-.03-.14-.01-.15.04-.31.09-.46.13-.5.13-1.02.22-1.56.28-.09.01-.16.08-.16.17v2.37c0,.1.08.18.18.18v0Zm7.98,1.92h-18.26c-1.06,0-1.93.84-1.93,1.87v21.34c0,1.02.87,1.86,1.93,1.86h18.26c1.06,0,1.93-.84,1.93-1.86v-21.34c0-1.03-.87-1.87-1.93-1.87Zm-6.96-6.78c1.54-.4,2.76-1.24,2.82-2.46c0-.02,0-.03,0-.04l-1.89-9.37c0-.01,0-.02,0-.03v-57.18c0-9.68-.85-19.91-3.21-29.481-5.82-23.654-20.08-40.008-46.56-40.347v.003h-.1v-.003c-26.48.339-40.74,16.693-46.57,40.347-2.28,9.291-3.15,19.211-3.19,28.641c0,.05.02.1.06.13.05.04.1.05.15.04c1.89-.36,3.94-.39,5.84-.09.05.01.1-.01.15-.04.04-.04.06-.08.06-.13.05-8.83.84-18.06,2.89-26.66c5.03-20.994,16.99-35.892,40.65-36.21h.02c23.66.318,35.63,15.216,40.65,36.21c2.13,8.9,2.9,18.49,2.9,27.59v57.8c0,.01-.01.02-.01.03l-1.56,8.74c0,.01,0,.02,0,.04.05,1.28,1.18,2.1,2.63,2.48c1.34.36,2.93.34,4.27-.01v0Zm-92.32,26c.79,0,1.43.62,1.43,1.38s-.64,1.37-1.43,1.37c-.78,0-1.42-.61-1.42-1.37s.64-1.38,1.42-1.38Zm0-5.22c.79,0,1.43.62,1.43,1.38s-.64,1.37-1.43,1.37c-.78,0-1.42-.61-1.42-1.37s.64-1.38,1.42-1.38Zm0-5.22c.79,0,1.43.62,1.43,1.38s-.64,1.37-1.43,1.37c-.78,0-1.42-.61-1.42-1.37s.64-1.38,1.42-1.38Zm0-5.22c.79,0,1.43.62,1.43,1.38s-.64,1.37-1.43,1.37c-.78,0-1.42-.61-1.42-1.37s.64-1.38,1.42-1.38Zm-5.99,15.66c.79,0,1.43.62,1.43,1.38s-.64,1.37-1.43,1.37c-.78,0-1.42-.61-1.42-1.37s.64-1.38,1.42-1.38v0Zm0-5.22c.79,0,1.43.62,1.43,1.38s-.64,1.37-1.43,1.37c-.78,0-1.42-.61-1.42-1.37s.64-1.38,1.42-1.38v0Zm0-5.22c.79,0,1.43.62,1.43,1.38s-.64,1.37-1.43,1.37c-.78,0-1.42-.61-1.42-1.37s.64-1.38,1.42-1.38v0Zm0-5.22c.79,0,1.43.62,1.43,1.38s-.64,1.37-1.43,1.37c-.78,0-1.42-.61-1.42-1.37s.64-1.38,1.42-1.38v0Zm14.03-34.98c-.63-.72-1.22-1.16-1.91-1.4-.75-.28-1.67-.36-2.86-.36h-6.26-6.25c-1.2,0-2.11.08-2.87.36-.71.26-1.33.72-1.98,1.5-.01,0-.01,0-.01,0c0,.01-.01.01-.01.02l-1.05,1.4c-.16.22-.25.41-.3.61-.05.24-.05.5-.05.82v3.09c0,.06.03.11.08.15.05.03.11.04.16.02l2.31-.78c.45-.16.93-.26,1.45-.33.5-.06,1.02-.09,1.56-.09h13.91c.54,0,1.06.03,1.56.09.52.07.99.17,1.45.33l2.31.78c.05.02.11.01.16-.02.05-.04.08-.09.08-.15v-3.09c0-.32,0-.58-.05-.82-.05-.2-.14-.39-.3-.61l-1.12-1.51c-.01,0-.01,0-.01-.01v0Zm-20.42-3.34c.9-.26,1.91-.34,3.14-.34l6.25-.01l6.26.01c1.23,0,2.23.08,3.13.33.05.02.11.01.16-.03.05-.03.07-.08.07-.14v-.19h-.01v-9.21c0-.03,0-.05-.01-.08-.26-.5-2.26-.91-4.86-1.19-1.46-.16-3.09-.24-4.74-.24s-3.29.08-4.75.24c-2.59.28-4.59.69-4.85,1.19-.01.03-.02.05-.02.08v9.21v0v.19c0,.06.02.11.07.15.05.03.1.04.16.03v0Zm15.89-32v-5.38c0-1.23-1.6-2.07-3.64-2.48-1.8-.36-3.92-.36-5.73,0-2.04.41-3.63,1.25-3.63,2.48v5.27c0,.06.02.11.07.14.04.03.09.05.15.04.16-.03.32-.06.48-.09c2.6-.41,8.47-.41,11.07,0c.34.06.67.12,1.01.19.05.01.1,0,.15-.03.04-.04.07-.09.07-.14v0Zm3.19,20.14c.12-.22.21-.47.24-.72.04-.29-.01-.6-.2-.88-.56-.8-.87-1.58-.84-2.44.04-.85.42-1.7,1.23-2.65.44-.5.61-.91.58-1.29-.03-.44-.32-.94-.77-1.55-.51-.67-.76-1.29-.71-2.01.04-.66.35-1.32.97-2.11.6-.78.78-1.35.66-1.78-.12-.44-.58-.84-1.23-1.23-1.38-.84-3-1.33-4.67-1.6-2.34-.37-8.09-.37-10.43,0-1.68.27-3.29.76-4.68,1.6-.59.36-1.02.73-1.19,1.13-.14.34-.07.79.28,1.37.52.86.86,1.61.94,2.44.08.86-.13,1.72-.74,2.73-.32.55-.47.99-.45,1.41.03.4.24.84.64,1.35.64.83.92,1.57.94,2.39.01.76-.23,1.53-.63,2.48-.13.29-.12.61-.03.9.06.24.17.46.3.65.05.08.15.1.23.06c1.2-.56,2.93-.94,4.91-1.15c1.55-.17,3.26-.26,4.96-.26s3.41.09,4.96.26c1.76.19,3.33.51,4.5.98.08.03.18,0,.23-.08v0Zm-1.12,22.47v8.59c0,.09.07.17.16.17c1.59.14,2.87.35,3.81.58.85.2,1.48.47,1.9.78.06.04.14.04.2.01.27-.16.46-.32.6-.48.19-.22.27-.47.27-.74v-5.51c0-.47-.05-.84-.21-1.11-.15-.24-.42-.43-.88-.59l-5.11-1.73c-.17-.06-.34-.1-.52-.14-.05-.01-.11,0-.15.03-.05.04-.07.08-.07.14v0Zm-1.32,8.46v-8.61c0-.1-.09-.18-.18-.18h-.11-13.92-.04c-.11,0-.19.08-.19.18v8.61c0,.05.02.09.06.13.04.03.08.05.14.04.9-.06,1.8-.1,2.63-.14c2.19-.1,3.9-.11,4.36-.1v0c.46-.01,2.17.01,4.36.1.85.04,1.76.08,2.69.14.06.01.1-.01.14-.04.04-.04.06-.08.06-.13v0Zm-15.76.12v-8.59c0-.06-.02-.11-.07-.14-.04-.04-.1-.05-.15-.04-.2.05-.4.1-.58.16l-5.12,1.73c-.45.16-.73.35-.87.59-.16.27-.22.64-.22,1.11v5.51c0,.27.08.52.27.74.14.16.34.32.6.48.07.03.15.03.21-.01.41-.31,1.05-.58,1.89-.78.96-.24,2.26-.44,3.87-.58.1-.01.17-.08.17-.18v0Zm21.52,4.52v-1.56c0-.08-.07-.15-.16-.17-.16-.03-.43-.08-.79-.17-.86-.21-2.07-.39-3.6-.52-1.52-.13-2.95-.22-4.19-.27-2.19-.09-3.85-.1-4.27-.1h-.01c-.42,0-2.08.01-4.26.1-1.24.06-2.68.14-4.2.27-1.53.13-2.73.31-3.59.52-.37.09-.63.14-.8.17-.09.02-.15.09-.15.17v1.56c0,.06.02.1.07.14.05.03.1.04.16.03.07-.02.15-.04.23-.06.96-.24,2.28-.44,3.9-.58c1.46-.12,2.95-.21,4.29-.26c2.19-.1,3.9-.11,4.35-.11h.01c.45,0,2.16.01,4.35.11c1.34.05,2.83.14,4.28.26c1.63.14,2.95.34,3.91.58.08.02.15.04.23.06.06.01.11,0,.16-.03.05-.04.07-.08.07-.14h.01Zm-.16,2.14c-.16-.03-.43-.07-.79-.16-.86-.21-2.07-.4-3.6-.53-1.52-.13-2.95-.21-4.19-.26-2.19-.1-3.85-.11-4.27-.11h-.01c-.42,0-2.08.01-4.26.11-1.24.05-2.68.13-4.2.26-1.53.13-2.73.32-3.59.53-.37.09-.63.13-.8.16-.09.02-.15.09-.15.18v9.3c0,.05.02.1.07.14.05.03.1.04.16.03.07-.02.15-.05.23-.06.96-.24,2.28-.44,3.9-.58c1.46-.13,2.95-.21,4.29-.27c2.19-.09,3.9-.1,4.35-.1h.01c.45,0,2.16.01,4.35.1c1.34.06,2.83.14,4.28.27c1.63.14,2.95.34,3.91.58.08.01.15.04.23.06.06.01.11,0,.16-.03.05-.04.07-.09.07-.14v-9.3c0-.09-.06-.16-.15-.18v0Zm-3.51,11.21v.15c0,.05.02.1.05.13.04.04.08.05.14.05.3-.01.59-.02.86-.04.1-.01.17-.08.17-.17.01-.09-.06-.17-.15-.19-.27-.03-.56-.07-.87-.11-.05,0-.1.01-.14.05-.04.03-.06.08-.06.13v0Zm-18.68.15v-.15c0-.05-.03-.1-.07-.13-.04-.04-.09-.05-.14-.05-.31.04-.59.08-.87.11-.09.02-.15.1-.15.19s.07.16.17.17c.28.02.56.03.87.04.05,0,.09-.01.13-.05.03-.03.05-.08.05-.13h.01Z" fill="#ff001b" stroke="#f00"/></g><clipPath id="e9Lvi04bEUP49"><rect width="198.758" height="280" rx="0" ry="0" transform="translate(1301.859985 900)" fill="#fff"/></clipPath></g><g clip-path="url(#e9Lvi04bEUP68)"><g><path d="M1035.53,1286.33c-8.52,0-16.67,1.38-24.34,4v-12.17c0-2.24,1.83-4.08,4.06-4.08h40.56c2.23,0,4.06,1.84,4.06,4.08v12.17c-7.67-2.62-15.83-4-24.34-4Z" fill="#f00"/><path d="M1015.25,1453.67v-14.28l.2-.66c6.41,1.76,13.14,2.7,20.08,2.7c6.93,0,13.67-.94,20.08-2.7l.2.66v26.53h-40.56v-12.25Z" fill="#fc0000"/><path d="M1035.53,1335.31l10.14,34.69-10.14,14.29-10.14-14.29l10.14-34.69Z" fill="#fc0000"/><path d="M1059.87,1290.33c-7.67-2.62-15.83-4-24.34-4-8.52,0-16.67,1.38-24.34,4-30.623,10.2-52.731,39.3-52.731,73.55c0,35.84,24.175,66,56.991,74.85c6.41,1.76,13.14,2.7,20.08,2.7c6.93,0,13.67-.94,20.08-2.7c32.81-8.85,56.99-39.01,56.99-74.85c0-34.25-22.11-63.35-52.73-73.55Z" fill="#f00"/><path d="M1094.34,1363.88c0,32.69-26.33,59.18-58.81,59.18s-58.818-26.49-58.818-59.18s26.338-59.19,58.818-59.19s58.81,26.5,58.81,59.19Z" fill="#f1f2f2"/><path d="M1025.39,1370l10.14,14.29l10.14-14.29-10.14-34.69-10.14,34.69Z" fill="#fc0000"/><path d="M1116.65,1363.88c0-17.48-5.41-34.15-15.66-48.21-9.47-12.98-22.24-22.7-37.07-28.23v-9.28c0-4.5-3.64-8.16-8.11-8.16h-40.56c-4.48,0-8.12,3.66-8.12,8.16v9.28c-14.832,5.54-27.602,15.26-37.06,28.23-10.25,14.06-15.667,30.73-15.667,48.21c0,35.74,23.192,67.29,56.787,77.86v24.18c0,2.25,1.82,4.08,4.06,4.08h40.56c2.24,0,4.06-1.83,4.06-4.08v-24.18c33.6-10.58,56.78-42.13,56.78-77.86Zm-60.84-85.72v6.69c-6.57-1.73-13.37-2.6-20.28-2.6s-13.72.87-20.28,2.6v-6.69h40.56Zm-36.51,183.68v-4.08h14.2v-8.17h-14.2v-5.74c5.33,1.1,10.77,1.66,16.23,1.66s10.9-.56,16.22-1.66v17.99h-32.45Zm35.24-27.04c-4.88,1.33-9.9,2.14-14.96,2.42v-38.65h-8.11v38.65c-5.06-.28-10.08-1.09-14.97-2.43-31.785-8.58-53.985-37.74-53.985-70.91c0-15.73,4.875-30.73,14.096-43.38c9.043-12.4,21.441-21.5,35.879-26.31c7.37-2.51,15.12-3.78,23.04-3.78s15.67,1.27,23.06,3.79c14.41,4.8,26.81,13.9,35.86,26.3c9.22,12.65,14.09,27.65,14.09,43.38c0,33.17-22.2,62.33-54,70.92Z" fill="#231f20"/><path d="M1035.53,1300.61c-21.15,0-40.759,10.6-52.46,28.36-6.813,10.32-10.414,22.39-10.414,34.91c0,.72,0,1.47.044,2.23.475,13.59,5.152,26.39,13.528,37.04.719.91,1.793,1.47,2.949,1.54.078,0,.155,0,.231,0c1.076,0,2.111-.43,2.874-1.2l9.858-9.96-5.746-5.76-6.505,6.57c-4.835-7.31-7.819-15.59-8.775-24.34h9.796v-8.16h-10.105c.351-9.73,3.212-19.09,8.326-27.26l7.349,5.95l5.08-6.36-7.616-6.17c9.476-11.12,22.946-17.99,37.526-19.07v12.09h8.11v-12.09c14.92,1.1,28.2,8.24,37.42,19l-7.71,6.24l5.08,6.36l7.46-6.03c5.02,7.97,8.05,17.31,8.42,27.34h-10.1v8.16h9.79c-.95,8.75-3.94,17.04-8.78,24.36l-6.55-6.56-5.72,5.79l9.9,9.92c.82.82,1.95,1.25,3.1,1.18s2.22-.63,2.94-1.54c8.37-10.65,13.05-23.45,13.53-37.04.04-.76.04-1.51.04-2.23c0-34.89-28.2-63.27-62.87-63.27Z" fill="#231f20"/><path d="M1053.78,1398.57h-8.11v8.16h8.11v-8.16Z" fill="#231f20"/><path d="M1065.95,1398.57h-8.11v8.16h8.11v-8.16Z" fill="#231f20"/><path d="M1057.84,1410.82h-12.17v8.16h12.17v-8.16Z" fill="#231f20"/><path d="M1013.22,1398.57h-8.11v8.16h8.11v-8.16Z" fill="#231f20"/><path d="M1025.39,1398.57h-8.11v8.16h8.11v-8.16Z" fill="#231f20"/><path d="M1025.39,1410.82h-12.17v8.16h12.17v-8.16Z" fill="#231f20"/><path d="M1049.56,1368.85l-10.14-34.7c-.51-1.73-2.09-2.93-3.89-2.93s-3.39,1.2-3.89,2.93l-10.14,34.7c-.36,1.2-.14,2.5.59,3.52l10.14,14.29c.76,1.07,1.99,1.71,3.3,1.71s2.54-.64,3.3-1.71l10.14-14.29c.72-1.02.94-2.32.59-3.52Zm-14.03,8.41l-5.69-8.01l5.69-19.48l5.69,19.48-5.69,8.01Z" fill="#231f20"/></g><clipPath id="e9Lvi04bEUP68"><rect width="198.758" height="200" rx="0" ry="0" transform="translate(936.148987 1270)" fill="#fff"/></clipPath></g></g><g transform="translate(0 0.000001)"><path d="M540.659,1043h-4.432l12.818-34.91h4.364L566.227,1043h-4.432l-10.431-29.39h-.273L540.659,1043Zm1.636-13.64h17.864v3.75h-17.864v-3.75Zm52.279-21.27h4.227v23.11c0,2.39-.562,4.52-1.687,6.4-1.114,1.86-2.688,3.33-4.722,4.41-2.034,1.07-4.42,1.6-7.159,1.6s-5.125-.53-7.159-1.6c-2.034-1.08-3.614-2.55-4.739-4.41-1.113-1.88-1.67-4.01-1.67-6.4v-23.11h4.227v22.77c0,1.71.375,3.23,1.125,4.55s1.818,2.36,3.205,3.12c1.397.75,3.068,1.13,5.011,1.13s3.614-.38,5.011-1.13c1.398-.76,2.466-1.8,3.205-3.12.75-1.32,1.125-2.84,1.125-4.55v-22.77Zm10.76,3.75v-3.75h26.182v3.75h-10.978v31.16h-4.227v-31.16h-10.977Zm60.707,13.71c0,3.68-.665,6.86-1.994,9.54-1.33,2.68-3.154,4.75-5.472,6.21-2.318,1.45-4.966,2.18-7.943,2.18s-5.625-.73-7.943-2.18c-2.318-1.46-4.142-3.53-5.472-6.21-1.329-2.68-1.994-5.86-1.994-9.54c0-3.69.665-6.87,1.994-9.55c1.33-2.68,3.154-4.75,5.472-6.2c2.318-1.46,4.966-2.19,7.943-2.19s5.625.73,7.943,2.19c2.318,1.45,4.142,3.52,5.472,6.2c1.329,2.68,1.994,5.86,1.994,9.55Zm-4.091,0c0-3.03-.505-5.58-1.517-7.66-1-2.08-2.358-3.65-4.074-4.72-1.704-1.07-3.613-1.6-5.727-1.6s-4.028.53-5.744,1.6c-1.705,1.07-3.063,2.64-4.074,4.72-1,2.08-1.5,4.63-1.5,7.66c0,3.02.5,5.57,1.5,7.65c1.011,2.08,2.369,3.65,4.074,4.72c1.716,1.07,3.63,1.6,5.744,1.6s4.023-.53,5.727-1.6c1.716-1.07,3.074-2.64,4.074-4.72c1.012-2.08,1.517-4.63,1.517-7.65Zm11.199-17.46h5.046l11.863,28.98h.409l11.864-28.98h5.045v34.91h-3.954v-26.52h-.341L692.172,1043h-3.818l-10.909-26.52h-.341v26.52h-3.955v-34.91Zm72.158,17.46c0,3.68-.665,6.86-1.995,9.54-1.329,2.68-3.153,4.75-5.471,6.21-2.318,1.45-4.966,2.18-7.943,2.18-2.978,0-5.625-.73-7.943-2.18-2.319-1.46-4.142-3.53-5.472-6.21s-1.994-5.86-1.994-9.54c0-3.69.664-6.87,1.994-9.55s3.153-4.75,5.472-6.2c2.318-1.46,4.965-2.19,7.943-2.19c2.977,0,5.625.73,7.943,2.19c2.318,1.45,4.142,3.52,5.471,6.2c1.33,2.68,1.995,5.86,1.995,9.55Zm-4.091,0c0-3.03-.506-5.58-1.517-7.66-1-2.08-2.358-3.65-4.074-4.72-1.705-1.07-3.614-1.6-5.727-1.6-2.114,0-4.029.53-5.745,1.6-1.704,1.07-3.062,2.64-4.073,4.72-1,2.08-1.5,4.63-1.5,7.66c0,3.02.5,5.57,1.5,7.65c1.011,2.08,2.369,3.65,4.073,4.72c1.716,1.07,3.631,1.6,5.745,1.6c2.113,0,4.022-.53,5.727-1.6c1.716-1.07,3.074-2.64,4.074-4.72c1.011-2.08,1.517-4.63,1.517-7.65Zm7.837-13.71v-3.75h26.181v3.75h-10.977v31.16h-4.227v-31.16h-10.977Zm36.933-3.75v34.91h-4.227v-34.91h4.227Zm9.907,0l10.364,29.39h.409l10.364-29.39h4.432L808.643,1043h-4.363l-12.818-34.91h4.431ZM826.899,1043v-34.91h21.068v3.75h-16.841v11.8h15.75v3.75h-15.75v11.86h17.114v3.75h-21.341Zm61.279-26.18c-.205-1.73-1.035-3.07-2.489-4.02-1.455-.96-3.239-1.44-5.352-1.44-1.546,0-2.898.25-4.057.75-1.148.5-2.046,1.19-2.693,2.07-.637.87-.955,1.87-.955,2.98c0,.93.222,1.73.665,2.4.454.66,1.034,1.21,1.739,1.66.704.43,1.443.79,2.215,1.07.773.27,1.483.49,2.131.66l3.546.96c.909.24,1.92.57,3.034.99c1.125.42,2.199.99,3.221,1.72c1.034.72,1.887,1.64,2.557,2.76.671,1.13,1.006,2.51,1.006,4.14c0,1.89-.495,3.59-1.483,5.12-.977,1.52-2.409,2.73-4.296,3.63-1.875.89-4.153,1.34-6.835,1.34-2.5,0-4.665-.4-6.494-1.21-1.818-.8-3.25-1.93-4.296-3.37-1.034-1.44-1.619-3.12-1.755-5.03h4.363c.114,1.32.557,2.41,1.33,3.27.784.85,1.773,1.49,2.966,1.91c1.204.41,2.5.62,3.886.62c1.614,0,3.063-.27,4.347-.79c1.284-.53,2.301-1.27,3.051-2.21.75-.96,1.125-2.07,1.125-3.35c0-1.15-.324-2.1-.972-2.83-.647-.72-1.5-1.31-2.557-1.77-1.056-.45-2.198-.85-3.426-1.19l-4.295-1.23c-2.727-.78-4.887-1.9-6.477-3.36-1.591-1.45-2.387-3.35-2.387-5.71c0-1.95.529-3.66,1.585-5.11c1.069-1.47,2.5-2.6,4.296-3.41c1.807-.82,3.824-1.23,6.051-1.23c2.25,0,4.25.41,6,1.21s3.136,1.89,4.159,3.28c1.034,1.38,1.58,2.96,1.636,4.72h-4.09ZM899.696,1043v-34.91h21.068v3.75h-16.841v11.8h15.75v3.75h-15.75v11.86h17.114v3.75h-21.341Zm56.369-34.91v34.91h-4.091l-19.022-27.41h-.341v27.41h-4.227v-34.91h4.09l19.091,27.48h.341v-27.48h4.159Zm27.55,8.73c-.204-1.73-1.034-3.07-2.489-4.02-1.454-.96-3.238-1.44-5.352-1.44-1.545,0-2.898.25-4.057.75-1.147.5-2.045,1.19-2.693,2.07-.636.87-.954,1.87-.954,2.98c0,.93.221,1.73.664,2.4.455.66,1.034,1.21,1.739,1.66.705.43,1.443.79,2.216,1.07.773.27,1.483.49,2.131.66l3.545.96c.909.24,1.921.57,3.034.99c1.125.42,2.199.99,3.222,1.72c1.034.72,1.886,1.64,2.557,2.76.67,1.13,1.005,2.51,1.005,4.14c0,1.89-.494,3.59-1.483,5.12-.977,1.52-2.409,2.73-4.295,3.63-1.875.89-4.154,1.34-6.835,1.34-2.5,0-4.665-.4-6.495-1.21-1.818-.8-3.25-1.93-4.295-3.37-1.034-1.44-1.619-3.12-1.756-5.03h4.364c.113,1.32.557,2.41,1.329,3.27.784.85,1.773,1.49,2.966,1.91c1.205.41,2.5.62,3.887.62c1.613,0,3.062-.27,4.346-.79c1.284-.53,2.301-1.27,3.051-2.21.75-.96,1.125-2.07,1.125-3.35c0-1.15-.324-2.1-.971-2.83-.648-.72-1.5-1.31-2.557-1.77-1.057-.45-2.199-.85-3.426-1.19l-4.296-1.23c-2.727-.78-4.886-1.9-6.477-3.36-1.591-1.45-2.386-3.35-2.386-5.71c0-1.95.528-3.66,1.585-5.11c1.068-1.47,2.5-2.6,4.295-3.41c1.807-.82,3.824-1.23,6.052-1.23c2.25,0,4.25.41,6,1.21s3.136,1.89,4.159,3.28c1.034,1.38,1.579,2.96,1.636,4.72h-4.091Zm40.975,8.73c0,3.68-.67,6.86-2,9.54s-3.15,4.75-5.47,6.21c-2.32,1.45-4.96,2.18-7.94,2.18s-5.63-.73-7.94-2.18c-2.322-1.46-4.146-3.53-5.476-6.21-1.329-2.68-1.994-5.86-1.994-9.54c0-3.69.665-6.87,1.994-9.55c1.33-2.68,3.154-4.75,5.476-6.2c2.31-1.46,4.96-2.19,7.94-2.19s5.62.73,7.94,2.19c2.32,1.45,4.14,3.52,5.47,6.2s2,5.86,2,9.55Zm-4.09,0c0-3.03-.51-5.58-1.52-7.66-1-2.08-2.36-3.65-4.07-4.72s-3.62-1.6-5.73-1.6-4.03.53-5.75,1.6c-1.7,1.07-3.06,2.64-4.069,4.72-1,2.08-1.5,4.63-1.5,7.66c0,3.02.5,5.57,1.5,7.65c1.009,2.08,2.369,3.65,4.069,4.72c1.72,1.07,3.64,1.6,5.75,1.6s4.02-.53,5.73-1.6s3.07-2.64,4.07-4.72c1.01-2.08,1.52-4.63,1.52-7.65Zm11.2,17.45v-34.91h11.79c2.73,0,4.97.47,6.72,1.4c1.75.92,3.04,2.19,3.88,3.8s1.27,3.45,1.27,5.51c0,2.05-.43,3.88-1.27,5.47s-2.13,2.84-3.87,3.75c-1.73.89-3.96,1.34-6.66,1.34h-9.55v-3.81h9.41c1.87,0,3.37-.28,4.5-.82c1.15-.55,1.98-1.32,2.49-2.32.52-1.01.79-2.22.79-3.61c0-1.4-.27-2.62-.79-3.67-.52-1.04-1.36-1.85-2.5-2.42-1.15-.58-2.67-.87-4.55-.87h-7.44v31.16h-4.22Zm16.43-15.68l8.59,15.68h-4.91l-8.45-15.68h4.77Zm33.36-10.5c-.2-1.73-1.03-3.07-2.49-4.02-1.45-.96-3.24-1.44-5.35-1.44-1.55,0-2.9.25-4.06.75-1.15.5-2.04,1.19-2.69,2.07-.64.87-.96,1.87-.96,2.98c0,.93.23,1.73.67,2.4.45.66,1.03,1.21,1.74,1.66.7.43,1.44.79,2.21,1.07.78.27,1.49.49,2.13.66l3.55.96c.91.24,1.92.57,3.03.99c1.13.42,2.2.99,3.23,1.72c1.03.72,1.88,1.64,2.55,2.76.67,1.13,1.01,2.51,1.01,4.14c0,1.89-.5,3.59-1.48,5.12-.98,1.52-2.41,2.73-4.3,3.63-1.88.89-4.15,1.34-6.84,1.34-2.5,0-4.66-.4-6.49-1.21-1.82-.8-3.25-1.93-4.3-3.37-1.03-1.44-1.61-3.12-1.75-5.03h4.36c.12,1.32.56,2.41,1.33,3.27.79.85,1.78,1.49,2.97,1.91c1.2.41,2.5.62,3.88.62c1.62,0,3.07-.27,4.35-.79c1.29-.53,2.3-1.27,3.05-2.21.75-.96,1.13-2.07,1.13-3.35c0-1.15-.33-2.1-.97-2.83-.65-.72-1.5-1.31-2.56-1.77-1.06-.45-2.2-.85-3.43-1.19l-4.29-1.23c-2.73-.78-4.89-1.9-6.48-3.36-1.59-1.45-2.39-3.35-2.39-5.71c0-1.95.53-3.66,1.59-5.11c1.07-1.47,2.5-2.6,4.29-3.41c1.81-.82,3.83-1.23,6.06-1.23c2.25,0,4.25.41,6,1.21s3.13,1.89,4.15,3.28c1.04,1.38,1.58,2.96,1.64,4.72h-4.09Z" fill="#fff"/><path d="M540.659,1043v3h2.119l.708-2-2.827-1Zm-4.432,0l-2.816-1.03-1.481,4.03h4.297v-3Zm12.818-34.91v-3h-2.094l-.722,1.97l2.816,1.03Zm4.364,0l2.816-1.03-.722-1.97h-2.094v3ZM566.227,1043v3h4.298l-1.482-4.03-2.816,1.03Zm-4.432,0l-2.827,1l.709,2h2.118v-3Zm-10.431-29.39l2.827-1-.709-2h-2.118v3Zm-.273,0v-3h-2.119l-.708,2l2.827,1Zm-8.796,15.75v-3h-3v3h3Zm17.864,0h3v-3h-3v3Zm0,3.75v3h3v-3h-3Zm-17.864,0h-3v3h3v-3Zm-1.636,6.89h-4.432v6h4.432v-6Zm-1.616,4.03l12.819-34.91-5.633-2.06-12.818,34.91l5.632,2.06Zm10.002-32.94h4.364v-6h-4.364v6Zm1.548-1.97l12.818,34.91l5.632-2.06-12.818-34.91-5.632,2.06ZM566.227,1040h-4.432v6h4.432v-6Zm-1.604,2l-10.432-29.39-5.655,2.01L558.968,1044l5.655-2Zm-13.259-31.39h-.273v6h.273v-6Zm-3.1,2L537.832,1042l5.654,2l10.432-29.38-5.654-2.01Zm-5.969,19.75h17.864v-6h-17.864v6Zm14.864-3v3.75h6v-3.75h-6Zm3,.75h-17.864v6h17.864v-6Zm-14.864,3v-3.75h-6v3.75h6Zm49.279-25.02v-3h-3v3h3Zm4.227,0h3v-3h-3v3Zm-1.687,29.51l-2.573-1.55-.003.01l2.576,1.54Zm-4.722,4.41l1.395,2.66.011-.01-1.406-2.65Zm-14.318,0l-1.407,2.65.012.01l1.395-2.66Zm-4.739-4.41l-2.579,1.53.005.01.006.01l2.568-1.55Zm-1.67-29.51v-3h-3v3h3Zm4.227,0h3v-3h-3v3Zm1.125,27.32l-2.613,1.48.006.01l2.607-1.49Zm3.205,3.12l-1.445,2.63.013.01.013.01l1.419-2.65Zm10.022,0l1.419,2.65.008-.01h.008l-1.435-2.64Zm3.205-3.12l-2.613-1.47-.004.01l2.617,1.46Zm1.125-24.32h4.227v-6h-4.227v6Zm1.227-3v23.11h6v-23.11h-6Zm0,23.11c0,1.9-.44,3.49-1.26,4.85l5.145,3.09c1.43-2.38,2.115-5.06,2.115-7.94h-6Zm-1.263,4.86c-.815,1.36-1.971,2.46-3.552,3.3l2.812,5.3c2.488-1.32,4.479-3.16,5.891-5.52l-5.151-3.08Zm-3.541,3.3c-1.528.8-3.418,1.25-5.764,1.25v6c3.132,0,6.014-.61,8.554-1.94l-2.79-5.31Zm-5.764,1.25c-2.346,0-4.236-.45-5.764-1.25l-2.79,5.31c2.54,1.33,5.422,1.94,8.554,1.94v-6Zm-5.753-1.25c-1.583-.84-2.749-1.94-3.576-3.31l-5.137,3.1c1.422,2.35,3.416,4.19,5.9,5.51l2.813-5.3Zm-3.565-3.3c-.813-1.36-1.25-2.96-1.25-4.86h-6c0,2.88.676,5.55,2.091,7.93l5.159-3.07Zm-1.25-4.86v-23.11h-6v23.11h6Zm-3-20.11h4.227v-6h-4.227v6Zm1.227-3v22.77h6v-22.77h-6Zm0,22.77c0,2.16.48,4.2,1.512,6.03l5.226-2.95c-.468-.83-.738-1.83-.738-3.08h-6Zm1.518,6.04c1.036,1.82,2.517,3.25,4.367,4.26l2.889-5.26c-.922-.5-1.578-1.15-2.041-1.97l-5.215,2.97Zm4.393,4.28c1.922,1.03,4.102,1.48,6.43,1.48v-6c-1.558,0-2.719-.3-3.593-.77l-2.837,5.29Zm6.43,1.48c2.328,0,4.508-.45,6.43-1.48l-2.837-5.29c-.874.47-2.035.77-3.593.77v6Zm6.446-1.49c1.867-1.02,3.357-2.45,4.387-4.29l-5.234-2.93c-.448.8-1.093,1.44-2.023,1.95l2.87,5.27Zm4.383-4.28c1.032-1.83,1.512-3.87,1.512-6.03h-6c0,1.25-.27,2.25-.738,3.08l5.226,2.95Zm1.512-6.03v-22.77h-6v22.77h6Zm7.76-19.02h-3v3h3v-3Zm0-3.75v-3h-3v3h3Zm26.182,0h3v-3h-3v3Zm0,3.75v3h3v-3h-3Zm-10.978,0v-3h-3v3h3Zm0,31.16v3h3v-3h-3Zm-4.227,0h-3v3h3v-3Zm0-31.16h3v-3h-3v3Zm-7.977,0v-3.75h-6v3.75h6Zm-3-.75h26.182v-6h-26.182v6Zm23.182-3v3.75h6v-3.75h-6Zm3,.75h-10.978v6h10.978v-6Zm-13.978,3v31.16h6v-31.16h-6Zm3,28.16h-4.227v6h4.227v-6Zm-1.227,3v-31.16h-6v31.16h6Zm-3-34.16h-10.977v6h10.977v-6Zm47.736,26.25l-2.688-1.33v0l2.688,1.33Zm-5.472,6.21l1.595,2.54v0l-1.595-2.54Zm-15.886,0l-1.595,2.54v0l1.595-2.54Zm-5.472-6.21l2.688-1.33v0l-2.688,1.33Zm21.358-25.29l1.595-2.55v0l-1.595,2.55Zm5.472,6.2l-2.688,1.33v0l2.688-1.33Zm-3.614,1.89l-2.703,1.3.005.01l2.698-1.31Zm-4.074-4.72l-1.593,2.54.008.01l1.585-2.55Zm-11.471,0l-1.586-2.55-.007.01l1.593,2.54Zm-4.074,4.72l-2.698-1.31-.006.01l2.704,1.3Zm0,15.31l-2.704,1.3.006.01l2.698-1.31Zm4.074,4.72l-1.593,2.54.007.01l1.586-2.55Zm11.471,0l-1.585-2.55-.008.01l1.593,2.54Zm4.074-4.72l-2.698-1.31-.005.01l2.703,1.3Zm2.608-7.65c0,3.32-.6,6.03-1.682,8.21l5.376,2.66c1.576-3.18,2.306-6.83,2.306-10.87h-6Zm-1.682,8.21c-1.107,2.23-2.573,3.86-4.378,4.99l3.189,5.09c2.83-1.78,5.013-4.29,6.565-7.42l-5.376-2.66Zm-4.378,4.99c-1.799,1.13-3.884,1.73-6.349,1.73v6c3.49,0,6.7-.86,9.538-2.64l-3.189-5.09Zm-6.349,1.73c-2.465,0-4.55-.6-6.349-1.73l-3.189,5.09c2.838,1.78,6.048,2.64,9.538,2.64v-6Zm-6.349-1.73c-1.805-1.13-3.27-2.76-4.378-4.99l-5.375,2.66c1.551,3.13,3.734,5.64,6.564,7.42l3.189-5.09Zm-4.378-4.99c-1.082-2.18-1.682-4.89-1.682-8.21h-6c0,4.04.73,7.69,2.307,10.87l5.375-2.66Zm-1.682-8.21c0-3.33.6-6.03,1.682-8.22l-5.375-2.66c-1.577,3.18-2.307,6.84-2.307,10.88h6Zm1.682-8.22c1.108-2.23,2.573-3.86,4.378-4.99l-3.189-5.09c-2.83,1.78-5.013,4.29-6.564,7.42l5.375,2.66Zm4.378-4.99c1.799-1.13,3.884-1.73,6.349-1.73v-6c-3.49,0-6.7.86-9.538,2.64l3.189,5.09Zm6.349-1.73c2.465,0,4.55.6,6.349,1.73l3.189-5.09c-2.838-1.78-6.048-2.64-9.538-2.64v6Zm6.349,1.73c1.805,1.13,3.271,2.76,4.378,4.99l5.376-2.66c-1.552-3.13-3.735-5.64-6.565-7.42l-3.189,5.09Zm4.378,4.99c1.082,2.19,1.682,4.89,1.682,8.22h6c0-4.04-.73-7.7-2.306-10.88l-5.376,2.66Zm3.591,8.22c0-3.35-.557-6.38-1.819-8.97l-5.396,2.62c.762,1.57,1.215,3.64,1.215,6.35h6Zm-1.813-8.96c-1.211-2.52-2.927-4.56-5.192-5.97l-3.171,5.1c1.167.72,2.167,1.83,2.956,3.47l5.407-2.6Zm-5.185-5.96c-2.206-1.38-4.673-2.06-7.32-2.06v6c1.58,0,2.932.39,4.134,1.14l3.186-5.08Zm-7.32-2.06c-2.647,0-5.116.68-7.33,2.05l3.171,5.1c1.218-.76,2.579-1.15,4.159-1.15v-6Zm-7.337,2.06c-2.249,1.41-3.959,3.44-5.179,5.95l5.396,2.62c.803-1.65,1.808-2.76,2.969-3.49l-3.186-5.08Zm-5.185,5.96c-1.246,2.59-1.796,5.62-1.796,8.96h6c0-2.71.449-4.79,1.204-6.36l-5.408-2.6Zm-1.796,8.96c0,3.33.55,6.36,1.796,8.95l5.408-2.6c-.755-1.57-1.204-3.65-1.204-6.35h-6Zm1.802,8.96c1.22,2.51,2.93,4.54,5.179,5.95l3.186-5.08c-1.161-.73-2.166-1.84-2.969-3.49l-5.396,2.62Zm5.186,5.96c2.214,1.38,4.683,2.05,7.33,2.05v-6c-1.58,0-2.941-.39-4.159-1.15l-3.171,5.1Zm7.33,2.05c2.647,0,5.114-.67,7.32-2.06l-3.186-5.08c-1.202.75-2.554,1.14-4.134,1.14v6Zm7.313-2.05c2.265-1.41,3.981-3.45,5.192-5.97l-5.407-2.6c-.789,1.64-1.789,2.75-2.956,3.47l3.171,5.1Zm5.186-5.96c1.262-2.59,1.819-5.62,1.819-8.96h-6c0,2.7-.453,4.77-1.215,6.34l5.396,2.62Zm10.018-26.42v-3h-3v3h3Zm5.046,0l2.776-1.14-.763-1.86h-2.013v3Zm11.863,28.98l-2.776,1.13.763,1.87h2.013v-3Zm.409,0v3h2.014l.763-1.87-2.777-1.13Zm11.864-28.98v-3h-2.013l-.763,1.86l2.776,1.14Zm5.045,0h3v-3h-3v3Zm0,34.91v3h3v-3h-3Zm-3.954,0h-3v3h3v-3Zm0-26.52h3v-3h-3v3Zm-.341,0v-3h-2.01l-.765,1.86l2.775,1.14ZM692.172,1043v3h2.01l.764-1.86-2.774-1.14Zm-3.818,0l-2.775,1.14.765,1.86h2.01v-3Zm-10.909-26.52l2.774-1.14-.764-1.86h-2.01v3Zm-.341,0v-3h-3v3h3Zm0,26.52v3h3v-3h-3Zm-3.955,0h-3v3h3v-3Zm0-31.91h5.046v-6h-5.046v6Zm2.269-1.86l11.864,28.97l5.553-2.27-11.864-28.98-5.553,2.28Zm14.64,30.84h.409v-6h-.409v6Zm3.186-1.87l11.863-28.97-5.552-2.28-11.864,28.98l5.553,2.27Zm9.087-27.11h5.045v-6h-5.045v6Zm2.045-3v34.91h6v-34.91h-6Zm3,31.91h-3.954v6h3.954v-6Zm-.954,3v-26.52h-6v26.52h6Zm-3-29.52h-.341v6h.341v-6Zm-3.116,1.86l-10.909,26.52l5.549,2.28l10.909-26.52-5.549-2.28ZM692.172,1040h-3.818v6h3.818v-6Zm-1.044,1.86l-10.909-26.52-5.549,2.28l10.909,26.52l5.549-2.28Zm-13.683-28.38h-.341v6h.341v-6Zm-3.341,3v26.52h6v-26.52h-6Zm3,23.52h-3.955v6h3.955v-6Zm-.955,3v-34.91h-6v34.91h6Zm67.163-7.91l-2.687-1.33v0l2.687,1.33Zm-5.471,6.21l1.594,2.54v0l-1.594-2.54Zm-15.886,0l-1.595,2.54v0l1.595-2.54Zm-5.472-6.21l2.688-1.33v0l-2.688,1.33Zm21.358-25.29l1.594-2.55v0l-1.594,2.55Zm5.471,6.2l-2.687,1.33v0l2.687-1.33Zm-3.613,1.89l-2.704,1.3.006.01l2.698-1.31Zm-4.074-4.72l-1.593,2.54.008.01l1.585-2.55Zm-11.472,0l-1.585-2.55-.008.01l1.593,2.54Zm-4.073,4.72l-2.698-1.31-.006.01l2.704,1.3Zm0,15.31l-2.704,1.3.006.01l2.698-1.31Zm4.073,4.72l-1.593,2.54.008.01l1.585-2.55Zm11.472,0l-1.585-2.55-.008.01l1.593,2.54Zm4.074-4.72l-2.698-1.31-.006.01l2.704,1.3Zm2.608-7.65c0,3.32-.6,6.03-1.682,8.21l5.375,2.66c1.577-3.18,2.307-6.83,2.307-10.87h-6Zm-1.682,8.21c-1.108,2.23-2.573,3.86-4.379,4.99l3.189,5.09c2.831-1.78,5.014-4.29,6.565-7.42l-5.375-2.66Zm-4.379,4.99c-1.798,1.13-3.884,1.73-6.348,1.73v6c3.49,0,6.7-.86,9.537-2.64l-3.189-5.09Zm-6.348,1.73c-2.465,0-4.55-.6-6.349-1.73l-3.189,5.09c2.838,1.78,6.048,2.64,9.538,2.64v-6Zm-6.349-1.73c-1.806-1.13-3.271-2.76-4.378-4.99l-5.376,2.66c1.552,3.13,3.734,5.64,6.565,7.42l3.189-5.09Zm-4.378-4.99c-1.083-2.18-1.682-4.89-1.682-8.21h-6c0,4.04.729,7.69,2.306,10.87l5.376-2.66Zm-1.682-8.21c0-3.33.599-6.03,1.682-8.22l-5.376-2.66c-1.577,3.18-2.306,6.84-2.306,10.88h6Zm1.682-8.22c1.107-2.23,2.572-3.86,4.378-4.99l-3.189-5.09c-2.831,1.78-5.013,4.29-6.565,7.42l5.376,2.66Zm4.378-4.99c1.799-1.13,3.884-1.73,6.349-1.73v-6c-3.49,0-6.7.86-9.538,2.64l3.189,5.09Zm6.349-1.73c2.464,0,4.55.6,6.348,1.73l3.189-5.09c-2.837-1.78-6.047-2.64-9.537-2.64v6Zm6.348,1.73c1.806,1.13,3.271,2.76,4.379,4.99l5.375-2.66c-1.551-3.13-3.734-5.64-6.565-7.42l-3.189,5.09Zm4.379,4.99c1.082,2.19,1.682,4.89,1.682,8.22h6c0-4.04-.73-7.7-2.307-10.88l-5.375,2.66Zm3.591,8.22c0-3.35-.558-6.38-1.819-8.97l-5.396,2.62c.761,1.57,1.215,3.64,1.215,6.35h6Zm-1.813-8.96c-1.211-2.52-2.927-4.56-5.193-5.97l-3.17,5.1c1.166.72,2.166,1.83,2.955,3.47l5.408-2.6Zm-5.185-5.96c-2.207-1.38-4.673-2.06-7.32-2.06v6c1.58,0,2.932.39,4.134,1.14l3.186-5.08Zm-7.32-2.06c-2.647,0-5.116.68-7.33,2.05l3.171,5.1c1.218-.76,2.579-1.15,4.159-1.15v-6Zm-7.338,2.06c-2.248,1.41-3.959,3.44-5.178,5.95l5.395,2.62c.804-1.65,1.809-2.76,2.969-3.49l-3.186-5.08Zm-5.184,5.96c-1.246,2.59-1.796,5.62-1.796,8.96h6c0-2.71.449-4.79,1.203-6.36l-5.407-2.6Zm-1.796,8.96c0,3.33.55,6.36,1.796,8.95l5.407-2.6c-.754-1.57-1.203-3.65-1.203-6.35h-6Zm1.802,8.96c1.219,2.51,2.93,4.54,5.178,5.95l3.186-5.08c-1.16-.73-2.165-1.84-2.969-3.49l-5.395,2.62Zm5.186,5.96c2.214,1.38,4.683,2.05,7.33,2.05v-6c-1.58,0-2.941-.39-4.159-1.15l-3.171,5.1Zm7.33,2.05c2.647,0,5.113-.67,7.32-2.06l-3.186-5.08c-1.202.75-2.554,1.14-4.134,1.14v6Zm7.312-2.05c2.266-1.41,3.982-3.45,5.193-5.97l-5.408-2.6c-.789,1.64-1.789,2.75-2.955,3.47l3.17,5.1Zm5.187-5.96c1.261-2.59,1.819-5.62,1.819-8.96h-6c0,2.7-.454,4.77-1.215,6.34l5.396,2.62Zm6.656-22.67h-3v3h3v-3Zm0-3.75v-3h-3v3h3Zm26.181,0h3v-3h-3v3Zm0,3.75v3h3v-3h-3Zm-10.977,0v-3h-3v3h3Zm0,31.16v3h3v-3h-3Zm-4.227,0h-3v3h3v-3Zm0-31.16h3v-3h-3v3Zm-7.977,0v-3.75h-6v3.75h6Zm-3-.75h26.181v-6h-26.181v6Zm23.181-3v3.75h6v-3.75h-6Zm3,.75h-10.977v6h10.977v-6Zm-13.977,3v31.16h6v-31.16h-6Zm3,28.16h-4.227v6h4.227v-6Zm-1.227,3v-31.16h-6v31.16h6Zm-3-34.16h-10.977v6h10.977v-6Zm25.956-.75h3v-3h-3v3Zm0,34.91v3h3v-3h-3Zm-4.227,0h-3v3h3v-3Zm0-34.91v-3h-3v3h3Zm1.227,0v34.91h6v-34.91h-6Zm3,31.91h-4.227v6h4.227v-6Zm-1.227,3v-34.91h-6v34.91h6Zm-3-31.91h4.227v-6h-4.227v6Zm14.134-3l2.83-1-.706-2h-2.124v3Zm10.364,29.39l-2.829,1l.706,2h2.123v-3Zm.409,0v3h2.123l.706-2-2.829-1Zm10.364-29.39v-3h-2.123l-.706,2l2.829,1Zm4.432,0l2.816,1.03l1.481-4.03h-4.297v3ZM808.643,1043v3h2.095l.722-1.97-2.817-1.03Zm-4.363,0l-2.816,1.03.722,1.97h2.094v-3Zm-12.818-34.91v-3h-4.298l1.481,4.03l2.817-1.03Zm1.602,1l10.364,29.39l5.658-2-10.363-29.39-5.659,2Zm13.193,31.39h.409v-6h-.409v6Zm3.238-2l10.364-29.39-5.658-2-10.364,29.39l5.658,2Zm7.535-27.39h4.432v-6h-4.432v6Zm1.615-4.03l-12.818,34.91l5.633,2.06l12.818-34.91-5.633-2.06ZM808.643,1040h-4.363v6h4.363v-6Zm-1.547,1.97l-12.818-34.91-5.633,2.06l12.819,34.91l5.632-2.06Zm-15.634-30.88h4.431v-6h-4.431v6ZM826.899,1043h-3v3h3v-3Zm0-34.91v-3h-3v3h3Zm21.068,0h3v-3h-3v3Zm0,3.75v3h3v-3h-3Zm-16.841,0v-3h-3v3h3Zm0,11.8h-3v3h3v-3Zm15.75,0h3v-3h-3v3Zm0,3.75v3h3v-3h-3Zm-15.75,0v-3h-3v3h3Zm0,11.86h-3v3h3v-3Zm17.114,0h3v-3h-3v3Zm0,3.75v3h3v-3h-3Zm-18.341,0v-34.91h-6v34.91h6Zm-3-31.91h21.068v-6h-21.068v6Zm18.068-3v3.75h6v-3.75h-6Zm3,.75h-16.841v6h16.841v-6Zm-19.841,3v11.8h6v-11.8h-6Zm3,14.8h15.75v-6h-15.75v6Zm12.75-3v3.75h6v-3.75h-6Zm3,.75h-15.75v6h15.75v-6Zm-18.75,3v11.86h6v-11.86h-6Zm3,14.86h17.114v-6h-17.114v6Zm14.114-3v3.75h6v-3.75h-6Zm3,.75h-21.341v6h21.341v-6Zm39.938-23.18l-2.98.35.314,2.65h2.666v-3Zm-2.489-4.02l-1.646,2.5v0l1.646-2.5Zm-9.409-.69l-1.188-2.75h-.01l1.198,2.75Zm-2.693,2.07l-2.412-1.79-.007.01-.008.01l2.427,1.77Zm-.29,5.38l-2.503,1.66.016.02.017.03l2.47-1.71Zm1.739,1.66l-1.598,2.54h.015l.015.01l1.568-2.55Zm2.215,1.07l-1.035,2.82h.019l.018.01.998-2.83Zm2.131.66l.78-2.89h-.008l-.008-.01-.764,2.9Zm3.546.96l-.78,2.9h.009.009l.762-2.9Zm3.034.99l-1.06,2.8.009.01l1.051-2.81Zm3.221,1.72l-1.738,2.44.015.02.016.01l1.707-2.47Zm2.557,2.76l2.577-1.54v0l-2.577,1.54Zm-.477,9.26l-2.516-1.64-.005.01-.004.01l2.525,1.62Zm-4.296,3.63l-1.289-2.71h-.006l1.295,2.71Zm-13.329.13l-1.217,2.75h.006l1.211-2.75Zm-4.296-3.37l-2.438,1.75h.004l.005.01l2.429-1.76Zm-1.755-5.03v-3h-3.222l.229,3.21l2.993-.21Zm4.363,0l2.989-.26-.236-2.74h-2.753v3Zm1.33,3.27l-2.236,2l.014.02.014.01l2.208-2.03Zm2.966,1.91l-.997,2.83.016.01h.016l.965-2.84Zm8.233-.17l1.131,2.78h.01l.011-.01-1.152-2.77Zm3.051-2.21l2.348,1.86h.005l.006-.01-2.359-1.85Zm.153-6.18l2.241-1.99v0l-2.241,1.99Zm-2.557-1.77l-1.185,2.76v0l1.185-2.76Zm-3.426-1.19l-.824,2.88.011.01h.01l.803-2.89Zm-4.295-1.23l-.829,2.89h.005l.824-2.89Zm-6.477-3.36l-2.025,2.22v0l2.025-2.22Zm-.802-10.82l-2.424-1.77-.003.01l2.427,1.76Zm4.296-3.41l1.23,2.74.007-.01-1.237-2.73Zm12.051-.02l-1.256,2.73h.007.008l1.241-2.73Zm4.159,3.28l-2.414,1.78h.005l.004.01l2.405-1.79Zm1.636,4.72v3h3.099l-.1-3.1-2.999.1Zm-1.111-.35c-.309-2.61-1.627-4.74-3.822-6.18l-3.292,5.01c.714.47,1.055,1.02,1.155,1.87l5.959-.7Zm-3.822-6.18c-2.04-1.34-4.427-1.93-6.998-1.93v6c1.655,0,2.837.37,3.706.94l3.292-5.01Zm-6.998-1.93c-1.865,0-3.637.31-5.245,1l2.376,5.51c.71-.31,1.643-.51,2.869-.51v-6Zm-5.255,1c-1.557.68-2.902,1.67-3.907,3.03l4.823,3.57c.29-.39.741-.77,1.48-1.1l-2.396-5.5Zm-3.922,3.05c-1.02,1.41-1.528,3.02-1.528,4.75h6c0-.5.129-.87.381-1.22l-4.853-3.53Zm-1.528,4.75c0,1.42.345,2.82,1.162,4.06l5.006-3.31c-.07-.11-.168-.31-.168-.75h-6Zm1.195,4.11c.695,1,1.576,1.83,2.611,2.49l3.195-5.08c-.374-.24-.652-.51-.866-.82l-4.94,3.41Zm2.641,2.5c.872.54,1.789.98,2.748,1.34l2.071-5.64c-.587-.21-1.147-.48-1.684-.81l-3.135,5.11Zm2.785,1.35c.834.29,1.623.54,2.366.74l1.527-5.81c-.554-.14-1.184-.34-1.896-.59l-1.997,5.66Zm2.349.73l3.546.96l1.559-5.8-3.545-.95-1.56,5.79Zm3.564.96c.786.21,1.696.5,2.736.89l2.119-5.61c-1.187-.45-2.299-.81-3.332-1.08l-1.523,5.8Zm2.745.9c.87.32,1.714.77,2.534,1.35l3.477-4.89c-1.226-.87-2.53-1.57-3.91-2.08l-2.101,5.62Zm2.565,1.38c.666.46,1.227,1.05,1.687,1.83l5.154-3.08c-.881-1.47-2.024-2.72-3.426-3.69l-3.415,4.94Zm1.687,1.83c.332.55.583,1.37.583,2.6h6c0-2.04-.42-3.98-1.429-5.68l-5.154,3.08Zm.583,2.6c0,1.33-.339,2.47-.999,3.48l5.032,3.27c1.317-2.03,1.967-4.3,1.967-6.75h-6Zm-1.008,3.5c-.631.98-1.599,1.84-3.06,2.54l2.578,5.42c2.313-1.1,4.208-2.66,5.532-4.72l-5.05-3.24Zm-3.066,2.54c-1.371.66-3.181,1.05-5.54,1.05v6c3.005,0,5.752-.5,8.131-1.64l-2.591-5.41Zm-5.54,1.05c-2.184,0-3.918-.35-5.284-.95l-2.421,5.49c2.294,1.01,4.889,1.46,7.705,1.46v-6Zm-5.277-.95c-1.392-.62-2.383-1.43-3.083-2.39l-4.859,3.52c1.391,1.92,3.264,3.36,5.508,4.36l2.434-5.49Zm-3.074-2.38c-.686-.96-1.102-2.09-1.202-3.49l-5.985.42c.173,2.42.928,4.64,2.31,6.57l4.877-3.5Zm-4.194-.28h4.363v-6h-4.363v6Zm1.374-2.74c.162,1.87.817,3.6,2.083,5.01l4.472-4c-.28-.31-.511-.76-.577-1.53l-5.978.52Zm2.111,5.04c1.146,1.25,2.564,2.14,4.177,2.71l1.994-5.66c-.774-.27-1.334-.65-1.755-1.11l-4.416,4.06Zm4.209,2.72c1.542.53,3.166.78,4.851.78v-6c-1.088,0-2.054-.16-2.922-.46l-1.929,5.68Zm4.851.78c1.939,0,3.781-.32,5.478-1.01l-2.262-5.56c-.871.36-1.927.57-3.216.57v6Zm5.499-1.02c1.68-.7,3.135-1.72,4.247-3.12l-4.696-3.73c-.389.49-.967.94-1.855,1.31l2.304,5.54Zm4.258-3.13c1.186-1.51,1.766-3.29,1.766-5.2h-6c0,.64-.171,1.09-.484,1.49l4.718,3.71Zm1.766-5.2c0-1.74-.504-3.44-1.731-4.82l-4.481,3.99c.068.08.212.26.212.83h6Zm-1.731-4.82c-.988-1.11-2.225-1.94-3.612-2.53l-2.371,5.51c.726.31,1.194.66,1.502,1.01l4.481-3.99Zm-3.612-2.53c-1.194-.52-2.465-.96-3.809-1.33l-1.606,5.78c1.111.31,2.124.66,3.044,1.06l2.371-5.51Zm-3.788-1.33l-4.295-1.22-1.648,5.77l4.295,1.22l1.648-5.77Zm-4.29-1.22c-2.418-.7-4.123-1.63-5.282-2.69l-4.049,4.43c2.023,1.85,4.636,3.15,7.673,4.03l1.658-5.77Zm-5.282-2.69c-.909-.83-1.411-1.9-1.411-3.5h-6c0,3.11,1.089,5.85,3.362,7.93l4.049-4.43Zm-1.411-3.5c0-1.38.361-2.45,1.012-3.35l-4.854-3.52c-1.462,2.01-2.158,4.34-2.158,6.87h6Zm1.01-3.34c.735-1.01,1.739-1.83,3.101-2.44l-2.46-5.48c-2.229,1.01-4.089,2.46-5.49,4.38l4.849,3.54Zm3.108-2.45c1.373-.62,2.961-.96,4.814-.96v-6c-2.601,0-5.048.48-7.289,1.5l2.475,5.46Zm4.814-.96c1.888,0,3.448.34,4.744.94l2.512-5.45c-2.204-1.02-4.644-1.49-7.256-1.49v6Zm4.759.94c1.339.61,2.301,1.4,2.986,2.33l4.828-3.56c-1.36-1.85-3.171-3.25-5.332-4.23l-2.482,5.46Zm2.995,2.34c.66.89,1.006,1.86,1.043,3.02l5.997-.19c-.076-2.36-.822-4.53-2.23-6.42l-4.81,3.59Zm4.041-.07h-4.09v6h4.09v-6Zm7.428,29.18h-3v3h3v-3Zm0-34.91v-3h-3v3h3Zm21.068,0h3v-3h-3v3Zm0,3.75v3h3v-3h-3Zm-16.841,0v-3h-3v3h3Zm0,11.8h-3v3h3v-3Zm15.75,0h3v-3h-3v3Zm0,3.75v3h3v-3h-3Zm-15.75,0v-3h-3v3h3Zm0,11.86h-3v3h3v-3Zm17.114,0h3v-3h-3v3Zm0,3.75v3h3v-3h-3Zm-18.341,0v-34.91h-6v34.91h6Zm-3-31.91h21.068v-6h-21.068v6Zm18.068-3v3.75h6v-3.75h-6Zm3,.75h-16.841v6h16.841v-6Zm-19.841,3v11.8h6v-11.8h-6Zm3,14.8h15.75v-6h-15.75v6Zm12.75-3v3.75h6v-3.75h-6Zm3,.75h-15.75v6h15.75v-6Zm-18.75,3v11.86h6v-11.86h-6Zm3,14.86h17.114v-6h-17.114v6Zm14.114-3v3.75h6v-3.75h-6Zm3,.75h-21.341v6h21.341v-6Zm35.028-31.91h3v-3h-3v3Zm0,34.91v3h3v-3h-3Zm-4.091,0l-2.464,1.71.895,1.29h1.569v-3Zm-19.022-27.41l2.464-1.71-.895-1.29h-1.569v3Zm-.341,0v-3h-3v3h3Zm0,27.41v3h3v-3h-3Zm-4.227,0h-3v3h3v-3Zm0-34.91v-3h-3v3h3Zm4.09,0l2.464-1.71-.895-1.29h-1.569v3Zm19.091,27.48l-2.463,1.71.895,1.29h1.568v-3Zm.341,0v3h3v-3h-3Zm0-27.48v-3h-3v3h3Zm1.159,0v34.91h6v-34.91h-6Zm3,31.91h-4.091v6h4.091v-6Zm-1.626,1.29l-19.023-27.41-4.929,3.42l19.023,27.41l4.929-3.42Zm-21.487-28.7h-.341v6h.341v-6Zm-3.341,3v27.41h6v-27.41h-6Zm3,24.41h-4.227v6h4.227v-6Zm-1.227,3v-34.91h-6v34.91h6Zm-3-31.91h4.09v-6h-4.09v6Zm1.627-1.29l19.091,27.48l4.927-3.42-19.091-27.48-4.927,3.42Zm21.554,28.77h.341v-6h-.341v6Zm3.341-3v-27.48h-6v27.48h6Zm-3-24.48h4.159v-6h-4.159v6Zm31.709,5.73l-2.979.35.313,2.65h2.666v-3Zm-2.489-4.02l-1.646,2.5v0l1.646-2.5Zm-9.409-.69l-1.188-2.75h-.01l1.198,2.75Zm-2.693,2.07l-2.411-1.79-.008.01-.007.01l2.426,1.77Zm-.29,5.38l-2.502,1.66.016.02.017.03l2.469-1.71Zm1.739,1.66l-1.597,2.54h.014l.015.01l1.568-2.55Zm2.216,1.07l-1.035,2.82h.018l.018.01.999-2.83Zm2.131.66l.78-2.89h-.009l-.008-.01-.763,2.9Zm3.545.96l-.78,2.9h.009.009l.762-2.9Zm3.034.99l-1.06,2.8.01.01l1.05-2.81Zm3.222,1.72l-1.739,2.44.016.02.015.01l1.708-2.47Zm2.557,2.76l2.577-1.54v0l-2.577,1.54Zm-.478,9.26l-2.516-1.64-.004.01-.004.01l2.524,1.62Zm-4.295,3.63l-1.289-2.71h-.007l1.296,2.71Zm-13.33.13l-1.217,2.75h.007l1.21-2.75Zm-4.295-3.37l-2.439,1.75h.005l.004.01l2.43-1.76Zm-1.756-5.03v-3h-3.222l.23,3.21l2.992-.21Zm4.364,0l2.989-.26-.237-2.74h-2.752v3Zm1.329,3.27l-2.235,2l.013.02.015.01l2.207-2.03Zm2.966,1.91l-.997,2.83.016.01h.016l.965-2.84Zm8.233-.17l1.131,2.78h.011l.01-.01-1.152-2.77Zm3.051-2.21l2.348,1.86h.006l.005-.01-2.359-1.85Zm.154-6.18l2.24-1.99v0l-2.24,1.99Zm-2.557-1.77l-1.185,2.76v0l1.185-2.76Zm-3.426-1.19l-.824,2.88.01.01h.011l.803-2.89Zm-4.296-1.23l-.829,2.89h.005l.824-2.89Zm-6.477-3.36l-2.024,2.22v0l2.024-2.22Zm-.801-10.82l-2.425-1.77-.002.01l2.427,1.76Zm4.295-3.41l1.23,2.74.008-.01-1.238-2.73Zm12.052-.02l-1.257,2.73h.008.007l1.242-2.73Zm4.159,3.28l-2.415,1.78h.005l.005.01l2.405-1.79Zm1.636,4.72v3h3.098l-.1-3.1-2.998.1Zm-1.112-.35c-.309-2.61-1.626-4.74-3.822-6.18l-3.292,5.01c.714.47,1.056,1.02,1.156,1.87l5.958-.7Zm-3.822-6.18c-2.039-1.34-4.426-1.93-6.998-1.93v6c1.656,0,2.837.37,3.706.94l3.292-5.01Zm-6.998-1.93c-1.865,0-3.636.31-5.245,1l2.377,5.51c.709-.31,1.642-.51,2.868-.51v-6Zm-5.255,1c-1.556.68-2.901,1.67-3.906,3.03l4.822,3.57c.291-.39.741-.77,1.48-1.1l-2.396-5.5Zm-3.921,3.05c-1.021,1.41-1.528,3.02-1.528,4.75h6c0-.5.128-.87.38-1.22l-4.852-3.53Zm-1.528,4.75c0,1.42.345,2.82,1.162,4.06l5.005-3.31c-.07-.11-.167-.31-.167-.75h-6Zm1.195,4.11c.694,1,1.576,1.83,2.611,2.49l3.194-5.08c-.374-.24-.652-.51-.866-.82l-4.939,3.41Zm2.64,2.5c.873.54,1.79.98,2.749,1.34l2.07-5.64c-.586-.21-1.147-.48-1.683-.81l-3.136,5.11Zm2.785,1.35c.834.29,1.624.54,2.366.74l1.527-5.81c-.553-.14-1.184-.34-1.896-.59l-1.997,5.66Zm2.35.73l3.545.96l1.56-5.8-3.545-.95-1.56,5.79Zm3.563.96c.786.21,1.696.5,2.737.89l2.119-5.61c-1.187-.45-2.3-.81-3.332-1.08l-1.524,5.8Zm2.746.9c.87.32,1.713.77,2.533,1.35l3.477-4.89c-1.225-.87-2.529-1.57-3.91-2.08l-2.1,5.62Zm2.564,1.38c.666.46,1.228,1.05,1.687,1.83l5.155-3.08c-.881-1.47-2.025-2.72-3.427-3.69l-3.415,4.94Zm1.687,1.83c.333.55.583,1.37.583,2.6h6c0-2.04-.42-3.98-1.428-5.68l-5.155,3.08Zm.583,2.6c0,1.33-.339,2.47-.999,3.48l5.032,3.27c1.318-2.03,1.967-4.3,1.967-6.75h-6Zm-1.007,3.5c-.631.98-1.6,1.84-3.06,2.54l2.578,5.42c2.312-1.1,4.207-2.66,5.531-4.72l-5.049-3.24Zm-3.067,2.54c-1.371.66-3.181,1.05-5.539,1.05v6c3.004,0,5.751-.5,8.13-1.64l-2.591-5.41Zm-5.539,1.05c-2.185,0-3.919-.35-5.284-.95l-2.421,5.49c2.293,1.01,4.889,1.46,7.705,1.46v-6Zm-5.278-.95c-1.392-.62-2.383-1.43-3.083-2.39l-4.859,3.52c1.391,1.92,3.264,3.36,5.508,4.36l2.434-5.49Zm-3.074-2.38c-.686-.96-1.101-2.09-1.201-3.49l-5.985.42c.172,2.42.927,4.64,2.309,6.57l4.877-3.5Zm-4.194-.28h4.364v-6h-4.364v6Zm1.375-2.74c.161,1.87.817,3.6,2.083,5.01l4.471-4c-.28-.31-.51-.76-.576-1.53l-5.978.52Zm2.111,5.04c1.146,1.25,2.564,2.14,4.176,2.71l1.994-5.66c-.774-.27-1.333-.65-1.755-1.11l-4.415,4.06Zm4.208,2.72c1.542.53,3.167.78,4.852.78v-6c-1.088,0-2.055-.16-2.922-.46l-1.93,5.68Zm4.852.78c1.938,0,3.78-.32,5.477-1.01l-2.262-5.56c-.871.36-1.927.57-3.215.57v6Zm5.498-1.02c1.68-.7,3.136-1.72,4.247-3.12l-4.696-3.73c-.388.49-.967.94-1.855,1.31l2.304,5.54Zm4.258-3.13c1.187-1.51,1.766-3.29,1.766-5.2h-6c0,.64-.17,1.09-.484,1.49l4.718,3.71Zm1.766-5.2c0-1.74-.504-3.44-1.731-4.82l-4.481,3.99c.069.08.212.26.212.83h6Zm-1.731-4.82c-.988-1.11-2.224-1.94-3.612-2.53l-2.37,5.51c.726.31,1.194.66,1.501,1.01l4.481-3.99Zm-3.612-2.53c-1.193-.52-2.464-.96-3.808-1.33l-1.606,5.78c1.11.31,2.123.66,3.044,1.06l2.37-5.51Zm-3.787-1.33l-4.296-1.22-1.648,5.77l4.296,1.22l1.648-5.77Zm-4.291-1.22c-2.417-.7-4.123-1.63-5.282-2.69l-4.048,4.43c2.023,1.85,4.635,3.15,7.672,4.03l1.658-5.77Zm-5.282-2.69c-.908-.83-1.41-1.9-1.41-3.5h-6c0,3.11,1.089,5.85,3.362,7.93l4.048-4.43Zm-1.41-3.5c0-1.38.36-2.45,1.012-3.35l-4.854-3.52c-1.462,2.01-2.158,4.34-2.158,6.87h6Zm1.01-3.34c.735-1.01,1.739-1.83,3.1-2.44l-2.459-5.48c-2.23,1.01-4.089,2.46-5.491,4.38l4.85,3.54Zm3.108-2.45c1.373-.62,2.96-.96,4.814-.96v-6c-2.602,0-5.048.48-7.289,1.5l2.475,5.46Zm4.814-.96c1.888,0,3.448.34,4.743.94l2.513-5.45c-2.205-1.02-4.645-1.49-7.256-1.49v6Zm4.758.94c1.34.61,2.301,1.4,2.986,2.33l4.829-3.56c-1.36-1.85-3.172-3.25-5.332-4.23l-2.483,5.46Zm2.996,2.34c.66.89,1.005,1.86,1.043,3.02l5.996-.19c-.076-2.36-.822-4.53-2.23-6.42l-4.809,3.59Zm4.041-.07h-4.091v6h4.091v-6Zm34.884,21.27l-2.68-1.33v0l2.68,1.33Zm-5.47,6.21l1.6,2.54v0l-1.6-2.54Zm-15.88,0l-1.599,2.54v0l1.599-2.54Zm-5.476-6.21l2.688-1.33v0l-2.688,1.33Zm21.356-25.29l1.6-2.55v0l-1.6,2.55Zm5.47,6.2l-2.68,1.33v0l2.68-1.33Zm-3.61,1.89l-2.7,1.3v.01l2.7-1.31Zm-4.07-4.72l-1.6,2.54.01.01l1.59-2.55Zm-11.48,0l-1.58-2.55-.01.01l1.59,2.54Zm-4.069,4.72l-2.698-1.31-.006.01l2.704,1.3Zm0,15.31l-2.704,1.3.006.01l2.698-1.31Zm4.069,4.72l-1.59,2.54.01.01l1.58-2.55Zm11.48,0l-1.59-2.55-.01.01l1.6,2.54Zm4.07-4.72l-2.7-1.31v.01l2.7,1.3Zm2.61-7.65c0,3.32-.6,6.03-1.68,8.21l5.37,2.66c1.58-3.18,2.31-6.83,2.31-10.87h-6Zm-1.68,8.21c-1.11,2.23-2.58,3.86-4.38,4.99l3.19,5.09c2.83-1.78,5.01-4.29,6.56-7.42l-5.37-2.66Zm-4.38,4.99c-1.8,1.13-3.89,1.73-6.35,1.73v6c3.49,0,6.7-.86,9.54-2.64l-3.19-5.09Zm-6.35,1.73c-2.47,0-4.55-.6-6.35-1.73l-3.189,5.09c2.839,1.78,6.049,2.64,9.539,2.64v-6Zm-6.35-1.73c-1.81-1.13-3.271-2.76-4.378-4.99l-5.376,2.66c1.552,3.13,3.735,5.64,6.565,7.42l3.189-5.09Zm-4.378-4.99c-1.082-2.18-1.682-4.89-1.682-8.21h-6c0,4.04.73,7.69,2.306,10.87l5.376-2.66Zm-1.682-8.21c0-3.33.6-6.03,1.682-8.22l-5.376-2.66c-1.576,3.18-2.306,6.84-2.306,10.88h6Zm1.682-8.22c1.107-2.23,2.568-3.86,4.378-4.99l-3.189-5.09c-2.83,1.78-5.013,4.29-6.565,7.42l5.376,2.66Zm4.378-4.99c1.8-1.13,3.88-1.73,6.35-1.73v-6c-3.49,0-6.7.86-9.539,2.64l3.189,5.09Zm6.35-1.73c2.46,0,4.55.6,6.35,1.73l3.19-5.09c-2.84-1.78-6.05-2.64-9.54-2.64v6Zm6.35,1.73c1.8,1.13,3.27,2.76,4.38,4.99l5.37-2.66c-1.55-3.13-3.73-5.64-6.56-7.42l-3.19,5.09Zm4.38,4.99c1.08,2.19,1.68,4.89,1.68,8.22h6c0-4.04-.73-7.7-2.31-10.88l-5.37,2.66Zm3.59,8.22c0-3.35-.56-6.38-1.82-8.97l-5.4,2.62c.76,1.57,1.22,3.64,1.22,6.35h6Zm-1.82-8.96c-1.21-2.52-2.92-4.56-5.19-5.97l-3.17,5.1c1.17.72,2.17,1.83,2.96,3.47l5.4-2.6Zm-5.18-5.96c-2.21-1.38-4.67-2.06-7.32-2.06v6c1.58,0,2.93.39,4.13,1.14l3.19-5.08Zm-7.32-2.06c-2.65,0-5.12.68-7.33,2.05l3.17,5.1c1.22-.76,2.58-1.15,4.16-1.15v-6Zm-7.34,2.06c-2.247,1.41-3.957,3.44-5.177,5.95l5.397,2.62c.8-1.65,1.81-2.76,2.97-3.49l-3.19-5.08Zm-5.183,5.96c-1.246,2.59-1.796,5.62-1.796,8.96h5.999c0-2.71.45-4.79,1.2-6.36l-5.403-2.6Zm-1.796,8.96c0,3.33.55,6.36,1.796,8.95l5.403-2.6c-.75-1.57-1.2-3.65-1.2-6.35h-5.999Zm1.802,8.96c1.22,2.51,2.93,4.54,5.177,5.95l3.19-5.08c-1.16-.73-2.17-1.84-2.97-3.49l-5.397,2.62Zm5.187,5.96c2.21,1.38,4.68,2.05,7.33,2.05v-6c-1.58,0-2.94-.39-4.16-1.15l-3.17,5.1Zm7.33,2.05c2.65,0,5.11-.67,7.32-2.06l-3.19-5.08c-1.2.75-2.55,1.14-4.13,1.14v6Zm7.31-2.05c2.27-1.41,3.98-3.45,5.19-5.97l-5.4-2.6c-.79,1.64-1.79,2.75-2.96,3.47l3.17,5.1Zm5.19-5.96c1.26-2.59,1.82-5.62,1.82-8.96h-6c0,2.7-.46,4.77-1.22,6.34l5.4,2.62Zm10.02,8.49h-3v3h3v-3Zm0-34.91v-3h-3v3h3Zm18.51,1.4l-1.41,2.65v0h.01l1.4-2.65Zm3.88,3.8l-2.66,1.39v0l2.66-1.39Zm0,10.98l-2.65-1.4v0l2.65,1.4Zm-3.87,3.75l1.38,2.66h.01v0l-1.39-2.66Zm-16.21,1.34h-3v3h3v-3Zm0-3.81v-3h-3v3h3Zm13.91-.82l-1.28-2.71h-.01l1.29,2.71Zm2.49-2.32l-2.66-1.38-.01.01l2.67,1.37Zm-2.5-9.7l-1.36,2.68h.01l.02.01l1.33-2.69Zm-11.99-.87v-3h-3v3h3Zm0,31.16v3h3v-3h-3Zm12.21-15.68l2.63-1.44-.85-1.56h-1.78v3Zm8.59,15.68v3h5.06l-2.43-4.44-2.63,1.44Zm-4.91,0l-2.64,1.42.85,1.58h1.79v-3Zm-8.45-15.68v-3h-5.03l2.38,4.42l2.65-1.42ZM1034.7,1043v-34.91h-6v34.91h6Zm-3-31.91h11.79v-6h-11.79v6Zm11.79,0c2.41,0,4.12.42,5.31,1.05l2.82-5.3c-2.32-1.23-5.08-1.75-8.13-1.75v6Zm5.32,1.05c1.26.67,2.09,1.51,2.62,2.54l5.32-2.78c-1.14-2.2-2.9-3.89-5.15-5.07l-2.79,5.31Zm2.62,2.54c.59,1.13.93,2.48.93,4.12h6c0-2.48-.51-4.8-1.61-6.9l-5.32,2.78Zm.93,4.12c0,1.63-.34,2.96-.92,4.07l5.31,2.8c1.1-2.08,1.61-4.4,1.61-6.87h-6Zm-.92,4.07c-.53,1-1.35,1.83-2.61,2.49l2.78,5.32c2.23-1.17,3.99-2.83,5.14-5.01l-5.31-2.8Zm-2.59,2.48c-1.18.61-2.89,1.01-5.29,1.01v6c3.01,0,5.75-.49,8.04-1.68l-2.75-5.33Zm-5.29,1.01h-9.55v6h9.55v-6Zm-6.55,3v-3.81h-6v3.81h6Zm-3-.81h9.41v-6h-9.41v6Zm9.41,0c2.12,0,4.11-.31,5.8-1.12l-2.59-5.41c-.59.28-1.6.53-3.21.53v6Zm5.79-1.11c1.66-.79,3.02-2,3.87-3.67l-5.34-2.73c-.17.34-.47.68-1.1.98l2.57,5.42Zm3.87-3.65c.78-1.53,1.12-3.23,1.12-4.99h-6c0,1.02-.2,1.73-.45,2.23l5.33,2.76Zm1.12-4.99c0-1.78-.34-3.48-1.1-5.01l-5.37,2.68c.28.56.47,1.3.47,2.33h6Zm-1.1-5.01c-.85-1.69-2.19-2.94-3.86-3.77l-2.66,5.38c.62.31.95.67,1.15,1.07l5.37-2.68Zm-3.84-3.76c-1.72-.86-3.75-1.19-5.9-1.19v6c1.61,0,2.62.26,3.19.55l2.71-5.36Zm-5.9-1.19h-7.44v6h7.44v-6Zm-10.44,3v31.16h6v-31.16h-6Zm3,28.16h-4.22v6h4.22v-6Zm9.58-11.24l8.59,15.68l5.26-2.88-8.59-15.68-5.26,2.88Zm11.22,11.24h-4.91v6h4.91v-6Zm-2.27,1.58l-8.45-15.69-5.29,2.85l8.46,15.68l5.28-2.84Zm-11.09-11.26h4.77v-6h-4.77v6Zm38.13-13.5l-2.98.35.31,2.65h2.67v-3Zm-2.49-4.02l-1.64,2.5v0l1.64-2.5Zm-9.41-.69l-1.19-2.75h-.01l1.2,2.75Zm-2.69,2.07l-2.41-1.79-.01.01-.01.01l2.43,1.77Zm-.29,5.38l-2.5,1.66.01.02.02.03l2.47-1.71Zm1.74,1.66l-1.6,2.54h.02l.01.01l1.57-2.55Zm2.21,1.07l-1.03,2.82h.02l.02.01.99-2.83Zm2.13.66l.78-2.89v0l-.01-.01-.77,2.9Zm3.55.96l-.78,2.9h.01.01l.76-2.9Zm3.03.99l-1.06,2.8.01.01l1.05-2.81Zm3.23,1.72l-1.74,2.44.01.02.02.01l1.71-2.47Zm2.55,2.76l2.58-1.54v0l-2.58,1.54Zm-.47,9.26l-2.52-1.64-.01.01v.01l2.53,1.62Zm-4.3,3.63l-1.29-2.71h-.01l1.3,2.71Zm-13.33.13l-1.22,2.75h.01l1.21-2.75Zm-4.3-3.37l-2.43,1.75v0l.01.01l2.42-1.76Zm-1.75-5.03v-3h-3.22l.23,3.21l2.99-.21Zm4.36,0l2.99-.26-.23-2.74h-2.76v3Zm1.33,3.27l-2.23,2l.01.02.01.01l2.21-2.03Zm2.97,1.91l-1,2.83.02.01h.01l.97-2.84Zm8.23-.17l1.13,2.78h.01l.01-.01-1.15-2.77Zm3.05-2.21l2.35,1.86h.01v-.01l-2.36-1.85Zm.16-6.18l2.24-1.99v0l-2.24,1.99Zm-2.56-1.77l-1.19,2.76v0l1.19-2.76Zm-3.43-1.19l-.82,2.88.01.01h.01l.8-2.89Zm-4.29-1.23l-.83,2.89v0l.83-2.89Zm-6.48-3.36l-2.02,2.22v0l2.02-2.22Zm-.8-10.82l-2.43-1.77v.01l2.43,1.76Zm4.29-3.41l1.23,2.74.01-.01-1.24-2.73Zm12.06-.02l-1.26,2.73h.01v0l1.25-2.73Zm4.15,3.28l-2.41,1.78h.01v.01l2.4-1.79Zm1.64,4.72v3h3.1l-.1-3.1-3,.1Zm-1.11-.35c-.31-2.61-1.63-4.74-3.82-6.18l-3.29,5.01c.71.47,1.05,1.02,1.15,1.87l5.96-.7Zm-3.82-6.18c-2.04-1.34-4.43-1.93-7-1.93v6c1.65,0,2.84.37,3.71.94l3.29-5.01Zm-7-1.93c-1.87,0-3.64.31-5.25,1l2.38,5.51c.71-.31,1.64-.51,2.87-.51v-6Zm-5.26,1c-1.55.68-2.9,1.67-3.9,3.03l4.82,3.57c.29-.39.74-.77,1.48-1.1l-2.4-5.5Zm-3.92,3.05c-1.02,1.41-1.53,3.02-1.53,4.75h6c0-.5.13-.87.39-1.22l-4.86-3.53Zm-1.53,4.75c0,1.42.35,2.82,1.17,4.06l5-3.31c-.07-.11-.17-.31-.17-.75h-6Zm1.2,4.11c.69,1,1.58,1.83,2.61,2.49l3.2-5.08c-.38-.24-.66-.51-.87-.82l-4.94,3.41Zm2.64,2.5c.87.54,1.79.98,2.75,1.34l2.07-5.64c-.59-.21-1.15-.48-1.68-.81l-3.14,5.11Zm2.79,1.35c.83.29,1.62.54,2.36.74l1.53-5.81c-.56-.14-1.19-.34-1.9-.59l-1.99,5.66Zm2.34.73l3.55.96l1.56-5.8-3.55-.95-1.56,5.79Zm3.57.96c.78.21,1.69.5,2.73.89l2.12-5.61c-1.18-.45-2.3-.81-3.33-1.08l-1.52,5.8Zm2.74.9c.87.32,1.72.77,2.54,1.35l3.47-4.89c-1.22-.87-2.53-1.57-3.91-2.08l-2.1,5.62Zm2.57,1.38c.66.46,1.23,1.05,1.69,1.83l5.15-3.08c-.88-1.47-2.02-2.72-3.43-3.69l-3.41,4.94Zm1.69,1.83c.33.55.58,1.37.58,2.6h6c0-2.04-.42-3.98-1.43-5.68l-5.15,3.08Zm.58,2.6c0,1.33-.34,2.47-1,3.48l5.03,3.27c1.32-2.03,1.97-4.3,1.97-6.75h-6Zm-1.01,3.5c-.63.98-1.6,1.84-3.06,2.54l2.58,5.42c2.31-1.1,4.21-2.66,5.53-4.72l-5.05-3.24Zm-3.07,2.54c-1.37.66-3.18,1.05-5.54,1.05v6c3.01,0,5.76-.5,8.14-1.64l-2.6-5.41Zm-5.54,1.05c-2.18,0-3.91-.35-5.28-.95l-2.42,5.49c2.29,1.01,4.89,1.46,7.7,1.46v-6Zm-5.27-.95c-1.39-.62-2.39-1.43-3.09-2.39l-4.85,3.52c1.39,1.92,3.26,3.36,5.5,4.36l2.44-5.49Zm-3.08-2.38c-.68-.96-1.1-2.09-1.2-3.49l-5.98.42c.17,2.42.92,4.64,2.31,6.57l4.87-3.5Zm-4.19-.28h4.36v-6h-4.36v6Zm1.37-2.74c.17,1.87.82,3.6,2.09,5.01l4.47-4c-.28-.31-.51-.76-.58-1.53l-5.98.52Zm2.11,5.04c1.15,1.25,2.57,2.14,4.18,2.71l2-5.66c-.78-.27-1.34-.65-1.76-1.11l-4.42,4.06Zm4.21,2.72c1.55.53,3.17.78,4.85.78v-6c-1.08,0-2.05-.16-2.92-.46l-1.93,5.68Zm4.85.78c1.94,0,3.79-.32,5.48-1.01l-2.26-5.56c-.87.36-1.93.57-3.22.57v6Zm5.5-1.02c1.68-.7,3.14-1.72,4.25-3.12l-4.7-3.73c-.38.49-.96.94-1.85,1.31l2.3,5.54Zm4.26-3.13c1.19-1.51,1.77-3.29,1.77-5.2h-6c0,.64-.17,1.09-.49,1.49l4.72,3.71Zm1.77-5.2c0-1.74-.51-3.44-1.73-4.82l-4.48,3.99c.06.08.21.26.21.83h6Zm-1.73-4.82c-.99-1.11-2.23-1.94-3.62-2.53l-2.37,5.51c.73.31,1.2.66,1.51,1.01l4.48-3.99Zm-3.62-2.53c-1.19-.52-2.46-.96-3.8-1.33l-1.61,5.78c1.11.31,2.12.66,3.04,1.06l2.37-5.51Zm-3.78-1.33l-4.3-1.22-1.65,5.77l4.3,1.22l1.65-5.77Zm-4.29-1.22c-2.42-.7-4.13-1.63-5.29-2.69l-4.04,4.43c2.02,1.85,4.63,3.15,7.67,4.03l1.66-5.77Zm-5.29-2.69c-.9-.83-1.41-1.9-1.41-3.5h-6c0,3.11,1.09,5.85,3.37,7.93l4.04-4.43Zm-1.41-3.5c0-1.38.36-2.45,1.02-3.35l-4.86-3.52c-1.46,2.01-2.16,4.34-2.16,6.87h6Zm1.01-3.34c.74-1.01,1.74-1.83,3.1-2.44l-2.46-5.48c-2.22,1.01-4.08,2.46-5.49,4.38l4.85,3.54Zm3.11-2.45c1.37-.62,2.96-.96,4.82-.96v-6c-2.61,0-5.05.48-7.29,1.5l2.47,5.46Zm4.82-.96c1.88,0,3.44.34,4.74.94l2.51-5.45c-2.2-1.02-4.64-1.49-7.25-1.49v6Zm4.75.94c1.34.61,2.31,1.4,2.99,2.33l4.83-3.56c-1.36-1.85-3.17-3.25-5.33-4.23l-2.49,5.46Zm3,2.34c.66.89,1.01,1.86,1.04,3.02l6-.19c-.08-2.36-.82-4.53-2.23-6.42l-4.81,3.59Zm4.04-.07h-4.09v6h4.09v-6Z" fill="#fff"/><path d="M754.2,661c-30.267,2-54.4,6-64,10.667-10.4,5.066-23.067,16.666-36.8,33.733L642.6,719l-12.133,1.467c-9.734,1.066-12.667,1.066-15.734-.4-2.933-1.6-7.2-1.6-22.533-.534-19.6,1.334-21.2,1.867-21.2,7.734c0,2.666.8,2.8,12.267,3.333c8.133.267,12.4.933,12.8,2c.266.933,1.6,1.733,3.066,1.733c3.067,0,3.067-.266,0,6.8-1.333,3.2-2.933,7.2-3.333,8.8l-.933,2.934l6-3.334c11.6-6.4,38.266-9.2,58.8-5.866c4.4.666,10.666,1.6,14,2c35.333,4.4,238,4.4,273.333,0c3.333-.4,9.6-1.334,14-2c20.533-3.334,47.2-.534,58.8,5.866l6,3.334-.93-2.934c-.4-1.6-2-5.6-3.34-8.8-3.06-7.066-3.06-6.8,0-6.8c1.47,0,2.8-.8,3.07-1.733.4-1.067,4.67-1.733,12.8-2c11.47-.533,12.27-.667,12.27-3.333c0-5.867-1.6-6.4-21.2-7.734-15.34-1.066-19.6-1.066-22.54.534-3.06,1.466-5.997,1.466-15.73.4L978.067,719l-10.8-13.6c-12.8-15.867-25.334-27.733-34.8-32.933-14.934-8-45.734-11.467-110.8-12.134-26.8-.266-57.2,0-67.467.667Z" fill="#f00"/><path d="M685.133,758.6c11.467,11.867,11.734,12.4,8.267,12.8-2.133.267-3.733.8-3.733,1.067c0,.4,1.6,2.933,3.733,5.466l3.6,4.934-6.533-5.067c-9.2-7.067-22.667-13.467-36.4-17.6-14.8-4.267-37.867-4.8-53.734-1.067-5.466,1.334-10.4,2.267-10.933,2.134-.4-.134-1.333,1.733-1.867,4.133-1.6,6.133-.666,148.933.934,151.867c1.2,2.266,4.133,2.4,37.2,2.4c40.266,0,38.666.4,38.666-9.867v-4.8h146h146v4.8c0,10.267-1.6,9.867,38.667,9.867c32.93,0,36-.134,37.2-2.4c1.6-2.934,2.53-142.667.93-150.534-.53-3.066-1.46-5.6-1.86-5.466-.54.133-5.47-.8-10.94-2.134-14.26-3.333-37.463-3.2-51.33.4-12.933,3.467-29.6,11.2-38.667,18.134l-6.666,5.2l3.733-4.934c2-2.533,3.6-5.066,3.6-5.466c0-.267-1.6-.8-3.6-1.067-3.6-.4-3.333-.933,8.133-12.8c6.534-6.667,11.334-12.267,10.534-12.267s-6.8,5.734-13.334,12.667l-12,12.667h-7.466c-6.934,0-9.467-1.334-6.4-3.2.666-.534,3.866-4,7.066-7.734l5.734-7.066-5.334,4.266c-2.933,2.267-7.466,6.267-9.866,8.934l-4.667,4.8h-18.667c-10.4,0-23.6-.4-29.6-.8l-10.8-.934-1.333-4.8-1.333-4.8-.267,4.934-.133,5.066h-27.334-27.333l-.133-5.066-.267-4.934-1.333,4.8-1.334,4.8-10.8.934c-6,.4-19.2.8-29.6.8-18.4,0-18.8,0-22-3.467-1.733-1.867-6.133-6-9.866-8.933l-6.667-5.6l7.067,8.133c3.733,4.533,6.933,8.533,6.933,9.067c0,.4-3.467.8-7.6.8h-7.467l-12-12.667c-6.533-6.933-12.533-12.667-13.333-12.667s4,5.6,10.533,12.267Zm-10.4,45.733c1.6,3.334,2.934,6.4,2.934,6.667c0,1.333-23.867.667-24.667-.667-.4-.8-4-1.333-7.733-1.333-3.867,0-11.467-.667-17.2-1.6-8.4-1.333-10.4-2.133-10.934-4.267-.933-3.6.134-4.4,2.267-1.6.933,1.2,4.133,2.667,7.2,3.067c5.2.667,5.467.533,4.8-2.133-.4-1.6-.133-2.8.8-2.8.8,0,1.733,1.466,2.267,3.333.8,3.067,1.466,3.333,8.666,3.333c7.734,0,7.734,0,6.534-3.333-2-5.2,1.066-4,3.2,1.333l2,4.667h9.466h9.334l-2-4.8c-2.267-5.6-2.4-5.867-.934-5.867.534,0,2.4,2.667,4,6Zm14.8,6.534c8.667,11.6,9.734,12.666,15.734,14.266c4.666,1.2,30.4,1.734,94.4,2.134c85.733.533,114.533-.267,120.8-3.6c1.2-.8,6-6.4,10.533-12.667c4.4-6.133,8.8-11.733,9.733-12.267.934-.533-.266,1.467-2.533,4.267-5.6,7.333-7.6,11.2-6.667,13.6.934,2.4,11.067,2.133,44.934-1.6c24.803-2.667,28.663-3.733,31.203-8.667c1.2-2.266,2.4-4,2.66-4c1.2,0-4.4,10.134-7.86,14.267-1.87,2.133-5.603,4.667-8.403,5.467s-21.334,3.466-41.067,5.733l-36,4.4-98,.4c-104.267.533-101.733.667-163.867-6.4-27.6-3.067-32.533-4.4-36.933-9.6-3.467-4.133-9.067-14.267-7.867-14.267.267,0,1.467,1.734,2.667,4c1.333,2.667,3.6,4.4,7.067,5.334c5.6,1.6,53.2,6.666,62.4,6.666c9.066,0,9.2-3.6.266-15.066-2.133-2.667-3.6-4.934-3.2-4.934s4.934,5.6,10,12.534Zm259.6-7.334c-1.2,2.134-2.133,4.267-2.133,4.8c0,.4,4.267.667,9.467.667h9.333l2-4.667C969.933,799,973,797.8,971,803c-1.2,3.333-1.2,3.333,6.533,3.333c7.2,0,7.867-.266,8.667-3.333.533-1.867,1.467-3.333,2.267-3.333s1.066,1.2.533,2.8c-.933,2.8-.667,2.933,4.8,2c3.2-.534,6.67-1.867,7.47-3.067c2.13-2.667,3.2-1.867,2.26,1.733-.53,2.134-2.53,2.934-10.93,4.267-5.733.933-13.333,1.6-17.2,1.6-3.733,0-7.333.533-7.733,1.333-.8,1.334-24.667,2-24.667.667c0-1.2,4.133-9.067,5.733-11.067c2.267-2.933,2.534-.666.4,3.6ZM605.667,862.467c.933,3.2,2.533,6.933,3.733,8.266c6.8,7.734,45.067,9.6,193.6,9.6c141.2,0,191.333-1.6,202.93-6.4c2.67-1.066,5.74-3.466,6.8-5.2c2.27-3.6,4.94-17.866,4.94-27.2.13-4.8.4-6,1.33-4.4.8,1.467.8,6,0,12.667-3.33,25.867-5.47,27.733-34.267,29.867-76,5.6-272.8,5.6-348.8,0-28.8-2.134-30.933-4-34.266-29.734-.667-5.6-.8-11.333-.267-12.533.533-1.467,1.333,2,1.867,8.4.4,6,1.6,13.467,2.4,16.667Z" fill="#f00"/></g></svg>