<svg id="edV4zc7eNWr1" xmlns="http://www.w3.org/2000/svg" xmlns:xlink="http://www.w3.org/1999/xlink" viewBox="0 0 610 610" shape-rendering="geometricPrecision" text-rendering="geometricPrecision"><path d="M605,305c0,165.696-134.325,300-300,300s-300-134.304-300-300C5,139.305,139.325,5,305,5s300,134.305,300,300Z" fill="#6495ed" stroke="#fff" stroke-width="9"/><path d="M489.672,303c0,102.735-82.762,186-184.837,186C202.763,489,120,405.735,120,303c0-102.734,82.763-186,184.835-186c102.075,0,184.837,83.266,184.837,186Z" fill="#6495ed" stroke="#fff" stroke-width="8"/><path d="M305,6v598.5" fill="none" stroke="#fffcfc"/><path d="M9,306h596.273" fill="none" stroke="#fffcfc"/><path d="M95,517.264L516.629,93" fill="none" stroke="#fffcfc"/><path d="M96,98L518.949,520.949" fill="none" stroke="#fffcfc"/><g id="edV4zc7eNWr8"><path d="M404.76,69.4483c0,8.5319-4.647,15.4483-10.38,15.4483s-10.38-6.9164-10.38-15.4483s4.647-15.4483,10.38-15.4483s10.38,6.9165,10.38,15.4483Z" fill="#fff"/><g transform="translate(0 0.000001)"><path d="M420.328,61.7242c0,3.0467-1.662,5.5174-3.708,5.5174-2.047,0-3.706-2.4707-3.706-5.5174c0-3.0468,1.659-5.5175,3.706-5.5175c2.046,0,3.708,2.4707,3.708,5.5175Z" fill="#fff"/><path d="M421.81,114.879L419.714,118L401.921,91.5171l2.097-3.1206L421.81,114.879v0Z" fill="#fff"/><path d="M404.264,95.008l-9.185-1.7094c-.736-.1367-1.427.5529-1.623,1.6166l-3.444,18.7978c-.355,1.939.493,3.91,1.825,4.24c1.123.279,2.212-.717,2.551-2.335l2.731-13.006c.22-1.049.926-1.701,1.655-1.529l11.369,2.672-5.879-8.747v0Z" fill="#fff"/><path d="M412.626,101.211l4.541-21.9044c.744-3.5831-.651-7.3712-3.081-8.3664-2.31-.9469-4.712.9929-5.438,4.3939l-3.235,15.1392l7.213,10.7377v0Z" fill="#fff"/><path d="M417.169,79.3062l-.175.8365L427,65.7459l-.002-6.2291-10.093,14.9066c.485,1.4656.613,3.1958.264,4.8828Z" fill="#fff"/><path d="M200.128,110.257h13.534c.623,0,1.128-.557,1.128-1.246c0-.688-.505-1.246-1.128-1.246h-13.534c-.623,0-1.128.558-1.128,1.246c0,.689.505,1.246,1.128,1.246Z" fill="#fff"/><path d="M200.128,94.0586h13.534c.623,0,1.128-.5575,1.128-1.2461s-.505-1.2461-1.128-1.2461h-13.534c-.623,0-1.128.5575-1.128,1.2461s.505,1.2461,1.128,1.2461Z" fill="#fff"/><path d="M200.128,77.8597h13.534c.623,0,1.128-.5575,1.128-1.2461s-.505-1.2461-1.128-1.2461h-13.534c-.623,0-1.128.5575-1.128,1.2461s.505,1.2461,1.128,1.2461Z" fill="#fff"/><path d="M200.128,85.9591h13.534c.623,0,1.128-.5575,1.128-1.2461c0-.6885-.505-1.246-1.128-1.246h-13.534c-.623,0-1.128.5575-1.128,1.246c0,.6886.505,1.2461,1.128,1.2461Z" fill="#fff"/><path d="M200.128,102.158h13.534c.623,0,1.128-.557,1.128-1.246s-.505-1.2461-1.128-1.2461h-13.534c-.623,0-1.128.5571-1.128,1.2461s.505,1.246,1.128,1.246Z" fill="#fff"/><path d="M224.608,112.455c-.26.115-.529.17-.795.17-.699,0-1.376-.379-1.783-1.054l-.08.059.08-.059c-2.476-4.104-3.724-11.42-3.724-18.7585c0-7.3388,1.248-14.6545,3.724-18.7583.407-.6749,1.083-1.0542,1.783-1.0542.266,0,.535.0543.795.1695v.0002l1.535.6761c5.209,2.2916,9.673,4.2561,12.838,7.0406C242.136,83.6621,244,87.2528,244,92.8125s-1.864,9.1505-5.019,11.9265c-3.165,2.784-7.629,4.749-12.838,7.04h-.001l-1.534.676v0Zm-.753-37.2031l-.086-.0379-.051.0847c-1.139,1.8878-1.989,4.5534-2.554,7.5983-.566,3.0467-.849,6.4818-.849,9.9155s.283,6.8688.849,9.9155c.565,3.045,1.415,5.71,2.554,7.598l.051.085.086-.038c.523-.231,1.037-.457,1.542-.679c4.919-2.164,8.908-3.918,11.734-6.189c1.562-1.255,2.773-2.671,3.594-4.4048.82-1.7343,1.246-3.7796,1.246-6.2877s-.426-4.5534-1.246-6.2879c-.821-1.734-2.032-3.1498-3.594-4.4044-2.826-2.2711-6.815-4.0253-11.734-6.1892-.505-.2215-1.019-.4478-1.542-.6791Z" fill="#fff" stroke="#edcf64"/><path d="M60.8622,247.932c-.8031-.249-1.4818-1.148-1.7582-2.327l-.0915-.39-.0092-14.041c-.0082-12.507-.0036-14.082.0427-14.416.1715-1.237.7978-2.232,1.6582-2.635l.2247-.105l15.9528-.013c14.515-.012,15.9768-.006,16.2212.065.8263.239,1.5098,1.129,1.7917,2.332l.0914.39.0093,14.041c.0101,15.474.0241,14.408-.196,15.118-.2876.928-.8207,1.613-1.505,1.933l-.2246.105-15.9864.009c-14.0957.007-16.0139-.001-16.2212-.065l.0001-.001v0Zm22.8975-4.242l.4342-.43.0909-.342c.0851-.32.0922-.408.1145-1.421l.0235-1.08.1634-.198c.1958-.237.2469-.23.4727.066l.1593.209.0389,1.022c.0257.677.0529,1.044.0806,1.087.0349.055.2639.057,1.3668.014l1.3249-.051.2507-.158c.2505-.157.5883-.456.6625-.585.0218-.038.2607-.856.5311-1.819l.4917-1.749.1589-2.409.1588-2.409-.1211-2.044-.1212-2.044-.5334-1.874c-.3081-1.082-.5809-1.969-.6457-2.099l-.1122-.226-.5799.023c-.3192.013-1.0188.038-1.555.056l-.975.032-.0168,1.07c-.0154.972-.0234,1.087-.0868,1.241l-.0699.171-.2494-.017c-.1373-.008-.2621-.033-.2775-.054-.0454-.064-.0857-.39-.1394-1.13-.0854-1.172-.0709-1.093-.2297-1.249-.135-.133-.1741-.143-.9232-.241l-.7823-.102-.3262-.285-.3262-.285-.1806-.606c-.1672-.562-.5528-1.956-.6654-2.407-.0902-.361-.1281-.428-.3105-.545-.1784-.114-.1914-.115-1.7147-.139-1.5345-.025-1.9726-.066-2.1148-.197-.0672-.062-.0755-.11-.0755-.431v-.362l.188-.221.188-.222h1.5106h1.5105l.0352-.134c.0194-.073.0665-.32.1047-.547l.0693-.414-.115-.535-.1152-.536h-5.3011c-4.6685,0-5.3066.009-5.3485.073-.0261.04-.0857.241-.1326.447l-.0851.374.0953.545c.0523.299.1076.561.123.582.0152.021.6859.06,1.4903.086l1.4624.047.2858.166.2856.166.01.356c.0061.22-.0049.381-.0294.424-.0326.057-.2901.068-1.5354.068h-1.4962l-.2563.202c-.141.111-.4487.4-.6838.642l-.4274.44-.2585.702c-.2579.702-.2585.703-.44.819-.0998.064-.537.225-.9713.358-.4344.132-.808.256-.8305.275-.2067.176-.4222.484-.5745.821l-.1763.389-.1061,2.059c-.0585,1.132-.1152,2.079-.1259,2.105-.0232.054-.4577.055-.7154.002-.1341-.028-.2041-.074-.2817-.186l-.103-.149-.0446-2.84c-.0244-1.562-.0453-2.846-.0462-2.853-.0099-.074-1.1597.389-1.241.5-.0354.048-.068.711-.143,2.911l-.0972,2.848.2092.77.2092.771.0179,3.26.0179,3.261.2185.156c.1203.085.2467.157.2811.158.0514.002.1751-.122.4365-.439.0154-.019.0627-1.253.1047-2.743.0759-2.69.077-2.709.1541-2.828.0759-.117.0882-.12.6077-.12.2914,0,.5372.017.5459.037.0087.021.0332,1.099.0544,2.397.0318,1.941.0507,2.464.1059,2.944.0654.569.073.598.3005,1.144.2876.689.5082.995.7966,1.104.1063.041.8895.155,1.7404.254c1.8339.214,1.75.181,1.9698.782.097.265.3682.762.9826,1.802l.8485,1.436.2172.113c.1195.063.3762.176.5702.252l.353.138l4.8779.004l4.8779.004.4339-.43v0Zm-15.5485-8.213c-.4836-.188-.9681-.774-1.1887-1.436-.1837-.552-.2605-1.006-.2836-1.678-.0468-1.358.2217-2.457.7592-3.108.3726-.45.7417-.625,1.3315-.63.4446-.004.6529.063,1.0085.326.4791.354.8027.933.8949,1.6.0605.438.0663.433-.4426.417l-.4402-.013-.0588-.252c-.1373-.588-.4027-.848-.8988-.882-.2798-.019-.3247-.009-.5147.114-.3574.232-.567.696-.6568,1.452-.0696.585-.065,1.106.0138,1.552.0858.486.1686.71.3698,1.001.2188.317.4191.417.7711.387.4714-.042.8172-.381.9087-.891.0239-.133.0491-.27.0559-.303.0091-.045.1294-.061.4516-.061.5077,0,.5044-.003.4376.43-.0922.598-.3949,1.256-.7106,1.545-.1845.168-.5207.357-.7799.436-.2885.089-.7911.086-1.0279-.006v0Zm13.2734.026c-.5492-.189-1.0148-.747-1.2753-1.531-.2172-.653-.2501-.903-.2507-1.898-.0005-.977.0399-1.266.2701-1.928.3923-1.127,1.1777-1.686,2.1154-1.506.6832.132,1.2238.641,1.4651,1.38.105.321.1831.776.1528.891-.0155.058-.0974.069-.4622.057l-.4432-.013-.0554-.24c-.0678-.293-.2617-.626-.4494-.771-.1188-.092-.1929-.108-.4928-.108-.3092-.001-.3732.014-.5153.12-.459.339-.6889,1.18-.6526,2.386.0297.983.2711,1.618.7277,1.911.1208.078.2011.092.4371.074.5468-.039.8438-.352.9605-1.012l.0388-.219.4321-.014c.2377-.007.4458.007.4626.031.0542.078-.0364.602-.1744,1.008-.2338.688-.6823,1.154-1.3028,1.355-.2565.083-.7834.097-.9881.027v0Zm-10.0599-.175c-.0126-.018-.0231-1.519-.0231-3.335v-3.301h.4497c.3333,0,.4593.016.4869.064.0242.043.0402.477.0461,1.254l.0089,1.188h.8575.8572l.0091-1.188c.0058-.777.0217-1.211.046-1.254.0536-.093.8455-.092.8993.002.0275.048.0355.957.0291,3.321l-.0085,3.256h-.4707-.4708l-.0166-1.46-.0169-1.46h-.8572-.8575l-.0168,1.46-.0167,1.46-.4559.013c-.2507.008-.4662-.001-.4791-.02v0Zm4.5718-.001c-.0125-.018-.0228-1.492-.0228-3.276c0-2.457.0098-3.257.0404-3.301.0638-.092,3.1983-.083,3.2516.01.0255.044.0355.248.0293.596l-.0096.528-1.1599.024-1.16.025v.705.706l1.0759.025l1.0759.024v.56.559l-1.0759.024-1.0759.025v.803.803l1.2272.024l1.2271.025v.559.56l-1.7002.013c-.9352.007-1.7106-.003-1.7231-.021v0Zm8.6743.001c-.0129-.018-.0234-1.519-.0234-3.335v-3.301h.4472c.303,0,.4603.018.4876.058.0294.043.0402.413.0402,1.363c0,1.042.0089,1.304.044,1.304.0243,0,.4215-.613.8827-1.362l.8384-1.362.5138-.001c.4181,0,.5173.013.5325.07.012.046-.2841.55-.8331,1.417-.4686.74-.8568,1.375-.8625,1.411-.0058.037.4222.878.951,1.871.5289.992.9528,1.825.9417,1.851-.0116.028-.2445.047-.5502.047-.5074,0-.5329-.004-.5974-.109-.0369-.06-.3662-.695-.7317-1.412-.3656-.716-.6756-1.301-.689-1.301-.0136,0-.1143.146-.2241.326l-.1992.327-.0169,1.072-.0166,1.073-.4559.014c-.2507.007-.4663-.002-.4791-.021v0Z" fill="#fff"/><path d="M547.563,230.541L542.947,226l-17.826,9.668-3.334-3.012h-8.433v-1.677h3.619v-4.572h-10.238v4.572h3.621v1.677h-9.417l-6.209-5.454-4.73,7.53l10.058,19.867.092-.112v2.548h21.753l20.95-25.685l3.09,3.038l1.62-3.847v0Zm-53.615,4.509l1.323-2.103l4.879,4.291v10.062l-6.202-12.25Zm26.899,17.415h-17.699v-15.239h17.818l3.836,3.468l10.118-5.485-14.073,17.256v0ZM549,243.876c0,1.89-1.007,3.426-2.246,3.426-1.244,0-2.249-1.532-2.249-3.426c0-1.898,2.249-7.904,2.249-7.904s2.246,6.009,2.246,7.904Z" fill="#fff"/><path d="M70.1783,331.31c-.1211-.851-.8197-1.428-1.5614-1.289-.7413.139-1.2441.941-1.1232,1.792l6.5465,46.065h-21.0803l6.5465-46.065c.121-.851-.382-1.653-1.1231-1.792-.7416-.139-1.4405.438-1.5613,1.289l-6.8042,47.877c-.0643.452.0477.915.3059,1.264.2585.348.6374.549,1.0363.549h24.28c.3991,0,.7778-.201,1.0363-.549.2582-.349.3702-.812.3059-1.264L70.1783,331.31Z" fill="#fff"/><path d="M63.2824,373.98c-.7511,0-1.3599-.699-1.3599-1.562v-3.33c0-.862.6088-1.562,1.3599-1.562s1.3599.7,1.3599,1.562v3.33c0,.863-.6086,1.562-1.3599,1.562Z" fill="#fff"/><path d="M63.2824,363.206c-.7511,0-1.3599-.699-1.3599-1.562v-3.33c0-.862.6088-1.562,1.3599-1.562s1.3599.7,1.3599,1.562v3.33c0,.863-.6086,1.562-1.3599,1.562Z" fill="#fff"/><path d="M63.2824,352.432c-.7511,0-1.3599-.697-1.3599-1.56v-3.331c0-.862.6088-1.561,1.3599-1.561s1.3599.699,1.3599,1.561v3.331c0,.863-.6086,1.56-1.3599,1.56Z" fill="#fff"/><path d="M63.2824,341.66c-.7511,0-1.3599-.699-1.3599-1.561v-3.331c0-.862.6088-1.561,1.3599-1.561s1.3599.699,1.3599,1.561v3.331c0,.862-.6086,1.561-1.3599,1.561Z" fill="#fff"/><g><path d="M200.223,480.073c-.035.067-.062,7.267-.062,16.007c0,14.983-.009,15.888-.15,15.971-.53.301-1.342,1.207-1.748,1.927-1.678,3.013-1.704,8.102-.053,11.201c1.669,3.113,4.185,3.129,5.837,0c1.651-3.132,1.633-8.188-.044-11.201-.398-.72-1.219-1.626-1.74-1.927-.141-.083-.159-.351-.159-2.529v-2.427h3.179h3.178v-1.759-1.757h-3.179-3.178v-2.678-2.678h3.178h3.179v-1.759-1.759h-3.179-3.178v-2.678-2.678l3.161-.033l3.152-.052.027-1.806.026-1.793h-3.178-3.188l-.018-2.812-.026-2.796-.892-.051c-.486-.016-.91,0-.945.067Z" fill="#fff"/><path d="M181.044,518.012c-.026.132-.035.952-.026,1.824l.026,1.574.733.116c1.316.201,2.058.838,3.797,3.25c1.951,2.711,3.064,3.547,5.006,3.7c1.334.1,2.155-.086,3.206-.772.697-.467,1.801-1.607,2.34-2.427l.256-.385-.177-.652c-.097-.369-.247-1.107-.327-1.659-.088-.552-.167-1.022-.176-1.055-.009-.034-.336.387-.716.905-1.439,1.943-2.26,2.461-3.92,2.477-.644.018-1.307-.083-1.589-.217-.812-.369-1.837-1.424-3.047-3.114-.627-.887-1.457-1.909-1.854-2.262-1.13-1.037-3.417-1.891-3.532-1.303v0Z" fill="#fff"/><path d="M219.773,517.994c-1.43.351-2.57,1.339-4.309,3.733-1.431,1.976-2.208,2.714-3.232,3.065-1.863.634-3.638-.168-5.166-2.327-.265-.369-.494-.619-.521-.57-.026.049-.141.585-.247,1.189-.115.601-.274,1.29-.353,1.522-.08.219-.115.469-.088.555.079.265,1.042,1.406,1.633,1.958.936.869,1.766,1.256,3.011,1.357c1.272.116,2.243-.101,3.17-.705.901-.585,1.536-1.272,2.808-3.046c1.678-2.345,2.773-3.215,4.017-3.233h.504v-1.842-1.842l-.326.018c-.186.019-.592.086-.901.168Z" fill="#fff"/><path d="M181,532.108v1.726l.618.116c1.448.283,2.234.921,3.859,3.214c1.28,1.793,2.402,2.912,3.426,3.449.583.286.953.353,2.119.353s1.536-.067,2.119-.353c1.025-.519,2.137-1.641,3.444-3.465c1.898-2.662,2.649-3.18,4.503-3.165.989.018,1.245.085,1.855.452.882.554,1.307,1.021,2.693,2.964c1.227,1.707,2.189,2.662,3.231,3.199c1.007.534,3.206.534,4.23.015c1.033-.534,2.146-1.641,3.444-3.449c1.651-2.293,2.402-2.931,3.867-3.196l.592-.119v-1.775-1.757l-.777.101c-.971.134-2.146.771-3.02,1.641-.362.351-1.174,1.372-1.801,2.244-1.802,2.528-2.667,3.132-4.424,3.132-1.704,0-2.613-.655-4.503-3.282-1.307-1.826-2.252-2.78-3.267-3.299-.972-.503-3.303-.552-4.239-.083-1.183.586-2.189,1.623-3.885,4.002-1.43,2.009-2.437,2.662-4.061,2.662-1.705,0-2.64-.653-4.274-2.964-1.184-1.656-1.925-2.51-2.702-3.114-.689-.518-1.934-.988-2.614-.988h-.433v1.739v0Z" fill="#fff"/></g><path d="M549.069,381.731L517.632,363.58l-30.153,52.225l31.437,18.151l30.153-52.225Z" fill="#fffcfc"/><path d="M553,384.001l-45.847-26.47-30.152,52.224l45.846,26.471L553,384.001Z" fill="#6495ed"/><path d="M500.086,403.825l-2.307,3.996c-.038.069.022.166.151.29.188.181.498.38.875.613l.002.001c.391.211.719.38.968.452.174.05.286.053.329-.014l-.001-.001l2.306-3.995c.01-.017.007-.038-.007-.049-.157-.108-.307-.207-.442-.295-.336-.217-.597-.372-.664-.409h-.002c-.065-.041-.328-.188-.684-.371-.146-.074-.306-.154-.478-.236-.015-.006-.037.002-.046.018Zm14.882,7.596l.444.256c.013.007.03.003.042-.01l.587-.622c.008-.01.012-.025.008-.04-.072-.233-.054-.491.096-.75l.006-.011c.001-.002.004-.003.005-.005l1.188-1.488c.001-.002.002-.003.003-.005l6.209-10.755c.968-1.675,1.867-3.506,2.476-5.325c1.404-4.184,1.17-7.881-2.384-10.011-3.62-2.013-6.939-.367-9.861,2.941-1.254,1.419-2.38,3.087-3.339,4.742-.008.013-.007.031.002.041.246.329.337.702.136,1.049l-.652,1.13c-.009.015-.009.03-.001.042.085.116.158.24.221.373.098.217.138.429.076.636-.065.211-.226.394-.527.547-.11.055-.175.102-.206.149-.026.037-.033.093-.03.172.011.225-.01.412-.09.575-.085.177-.225.307-.451.406-.147.064-.237.132-.284.206-.046.076-.062.171-.061.289.003.178-.06.33-.152.456-.076.103-.173.187-.27.245-.012.01-.019.023-.02.038.001.058-.008.113-.032.166l-.006.011c-.001.002-.001.002-.002.004l-1.006,1.742c-.054.093-.089.16-.106.22-.015.048-.019.098-.016.167l.006.16c0,0,0,0-.001.002.001.008.002.018.005.028c0,.015.001.028-.001.041-.001.002.001.003-.001.005l.015.339c.005.12-.012.215-.043.306-.028.081-.068.155-.117.239l-.42.724c-.008.013-.007.031.001.041l.056.072c.114.145.159.291.154.442-.007.148-.063.287-.147.433l-.594,1.029c-.076.133-.181.234-.327.299-.108.049-.238.074-.393.071-.014,0-.025.008-.033.021l-1.527,2.645c-.001.002-.002.004-.003.006-.002.003-.003.008-.006.014-.053.113-.156.171-.297.174-.073.002-.168-.012-.276-.045-.15-.042-.337-.117-.533-.223-.016-.009-.037-.002-.048.017l-2.023,3.505c-.164.276-.426.323-.777.22-.277-.08-.623-.258-1.036-.481l-.002-.001-.006-.004c-.4-.246-.729-.458-.935-.656-.265-.253-.357-.503-.199-.784l2.024-3.505c.01-.019.005-.039-.009-.05-.19-.117-.347-.24-.46-.35-.081-.076-.141-.151-.177-.217-.068-.123-.069-.241.003-.344.004-.004.007-.008.009-.012.001-.002.003-.003.004-.005l1.527-2.644c.008-.013.008-.028,0-.04-.079-.133-.121-.257-.135-.377-.016-.158.02-.299.096-.432l.594-1.029c.084-.146.179-.263.304-.343.126-.081.275-.114.458-.088l.09.012c.013.003.028-.006.036-.019l.417-.726c.049-.084.091-.154.149-.221.063-.073.138-.134.242-.19l.317-.166c.002.001.003-.001.003-.001.007-.005.015-.008.024-.013.003-.001.003-.001.003-.001l.166-.086c.058-.031.1-.061.136-.097.041-.046.083-.107.136-.203l1.006-1.742c.001-.002.001-.002.002-.004l.008-.01c.015-.021.032-.041.052-.06.011-.008.016-.02.015-.033-.009-.11.001-.233.036-.352.042-.143.121-.279.249-.387.127-.107.214-.192.261-.277.04-.073.055-.161.048-.285-.011-.213.018-.385.098-.541.079-.155.202-.281.378-.395.132-.086.208-.167.249-.257.046-.093.06-.214.069-.368.016-.279.11-.471.263-.604.144-.126.327-.184.537-.205.181-.017.362-.01.537.017.015.003.03-.005.039-.02l.632-1.095c.183-.317.506-.434.87-.415.015.001.028-.007.035-.02c1.055-1.823,2.303-3.671,3.722-5.26c3.598-4.025,7.8-5.812,12.175-3.371h.002l.016.009.001.002c4.301,2.569,4.854,7.102,3.168,12.229-.671,2.034-1.651,4.049-2.707,5.879l-6.14,10.633c-.001.002-.002.004-.003.006l-.711,1.922c-.001.002-.002.004-.004.007l-.007.012c-.148.257-.373.398-.625.447-.015.004-.027.014-.031.029l-.246.816c-.005.017,0,.032.013.04l.43.248c.342.197.437.675.212,1.065l-2.298,3.98c-.225.39-.686.546-1.028.349l-2.89-1.668c-.341-.198-.438-.676-.213-1.066l2.298-3.98c.225-.39.688-.546,1.03-.348Zm.83.479l.422.244c.016.009.037.001.048-.017l.255-.442c.01-.017.008-.038-.006-.049-.073-.055-.139-.115-.199-.18-.02-.021-.038-.041-.055-.061-.006-.009-.014-.01-.024-.011s-.019.004-.026.012l-.419.445c-.008.01-.012.02-.012.032.002.011.006.021.016.027Zm.796.459l.447.259c.01.005.021.004.03-.001.012-.005.019-.014.022-.027l.177-.588c.004-.011.004-.021-.002-.029-.003-.009-.011-.014-.021-.015-.028-.006-.059-.011-.087-.018-.093-.021-.185-.052-.277-.09-.015-.006-.034,0-.043.017l-.256.442c-.01.019-.006.041.01.05Zm1.055,1.087l-2.888-1.667c-.168-.097-.396-.02-.507.172l-2.298,3.98c-.11.191-.063.427.105.524l2.888,1.667c.168.097.396.02.506-.17l2.298-3.981c.111-.192.064-.428-.104-.525Zm-.371-1.9c.287.066.57.021.711-.201.002-.004.003-.006.005-.008l.71-1.92c.001-.002.002-.004.003-.006l6.157-10.665c1.043-1.805,2.01-3.791,2.668-5.792c1.626-4.943,1.132-9.296-3.02-11.777v.001l-.016-.01v0c-4.224-2.355-8.241-.607-11.71,3.273-1.361,1.524-2.567,3.295-3.589,5.05-.006.01-.008.021-.005.03.004.012.011.018.02.021.337.106.665.287.933.517.007.006.017.007.028.006.011-.004.018-.01.024-.019.958-1.642,2.077-3.292,3.328-4.709c3.056-3.456,6.552-5.142,10.329-3.041l.003.002c3.708,2.22,3.997,6.092,2.53,10.466-.622,1.854-1.533,3.713-2.513,5.411l-6.224,10.78c-.001.002-.004.003-.005.005l-1.188,1.488c-.001.002-.002.003-.004.007-.13.243-.04.5.149.703.173.189.427.331.676.388Zm-17.402-3.581c.125.072.16.246.078.388-.082.141-.249.197-.374.125-.123-.072-.159-.244-.077-.386.082-.141.25-.199.373-.127Zm.563-.974c.125.072.159.246.077.388s-.249.197-.374.125c-.123-.071-.158-.244-.077-.385.082-.142.25-.199.374-.128Zm.562-.974c.125.073.159.247.077.388-.082.142-.248.197-.373.125-.124-.071-.159-.243-.077-.385.081-.142.249-.199.373-.128Zm.562-.973c.125.072.159.246.077.388-.081.142-.248.197-.373.125-.124-.072-.159-.244-.077-.385.082-.142.25-.199.373-.128Zm-2.634,2.374c.125.072.159.246.078.388-.082.141-.249.197-.374.125-.123-.072-.159-.244-.077-.386.082-.141.25-.199.373-.127Zm.562-.974c.125.072.16.246.078.388s-.249.197-.374.125c-.123-.071-.159-.244-.077-.385.082-.142.25-.199.373-.128Zm.562-.974c.125.073.16.247.078.388-.082.142-.249.197-.374.125-.123-.071-.159-.243-.077-.385s.25-.199.373-.128Zm.562-.973c.125.072.16.246.078.388s-.249.197-.374.125c-.123-.072-.159-.244-.077-.386.082-.141.25-.198.373-.127Zm5.986-5.243c-.022-.192-.068-.328-.151-.436-.088-.121-.225-.22-.413-.328l-.991-.572-.988-.571c-.19-.109-.342-.177-.493-.195-.14-.016-.288.013-.475.099-.001-.001-.001-.001-.001-.001-.001.002-.003.001-.004.003l-.317.165c-.049.027-.083.054-.113.087-.034.04-.062.089-.096.148l-.333.577c-.006.011-.007.023-.003.035.004.01.013.017.023.018l.449.066c.089.011.175.036.265.071.086.034.171.076.257.125l2.2,1.27c.085.05.164.103.237.16.074.06.138.122.193.194l.282.356c.006.008.016.012.027.011.013-.003.023-.009.029-.021l.333-.576c.034-.06.062-.108.08-.157.014-.042.02-.086.019-.142l-.015-.384c-.002-.001-.002-.001-.001-.002Zm-2.87-2.488c.171.034.339.111.534.223l.989.569.989.574c.195.112.344.218.46.347.006.008.016.012.028.009.012-.001.02-.008.027-.02l.02-.035-.002-.001.992-1.718c.003-.005.006-.009.007-.016.013-.117-.259-.376-.64-.665-.214-.164-.463-.327-.724-.478s-.529-.286-.777-.389c-.44-.184-.801-.291-.896-.221-.004.005-.008.007-.011.013l-.992,1.718-.021.035c-.006.011-.008.023-.005.035.005.01.012.016.022.02Zm5.96-4.518l.579-1.003c.133-.229-.03-.532-.309-.795-.246-.232-.581-.425-.906-.523-.367-.11-.709-.099-.841.131l-.568.983c-.006.011-.008.022-.004.032.003.009.009.018.02.021.028.009.057.018.085.027.456.161,1.384.697,1.751,1.011.048.043.093.084.14.128.006.006.015.009.027.008.01-.004.02-.01.026-.02Zm-1.665,4.048c.043-.03.084-.068.116-.112.037-.051.063-.113.063-.183-.002-.2.033-.374.13-.531.098-.155.249-.279.48-.382.123-.053.194-.114.231-.188.042-.085.05-.205.045-.359-.009-.172.018-.31.104-.44.077-.12.197-.214.38-.305.179-.091.269-.181.297-.272.028-.093-.002-.209-.063-.342-.127-.282-.331-.522-.566-.724-.33-.283-1.24-.808-1.65-.953-.294-.103-.602-.159-.912-.129-.132.013-.24.043-.31.102-.059.051-.096.141-.103.281-.011.208-.038.379-.114.541-.08.168-.206.309-.411.442-.11.073-.181.142-.223.222-.039.077-.053.178-.045.31.012.213-.023.377-.108.532-.081.142-.201.264-.367.405-.052.042-.085.102-.102.165-.016.05-.022.101-.022.148-.001.02.013.033.03.033.25.005.564.092.9.233.264.11.544.25.813.405s.529.328.756.501c.258.197.472.4.606.594.01.013.029.017.045.006Zm-2.597,4.089l-.925,1.602c-.009.017-.007.038.007.046.237.172.417.328.541.457.112.115.183.222.216.319.005.012.018.02.031.02.06-.006.107-.018.146-.035.054-.024.094-.063.123-.113l.593-1.028c.051-.088.083-.161.086-.226.002-.059-.02-.119-.075-.191l-.622-.789c-.021-.027-.043-.05-.067-.074-.007-.006-.018-.01-.027-.008-.013.003-.02.009-.027.02Zm-1.119,1.457l.927-1.606c.011-.018.005-.041-.009-.05l-.018-.01-2.201-1.271-.007-.003c-.017-.011-.038-.003-.049.016l-.927,1.606c-.006.009-.007.018-.005.029.003.01.008.017.018.021.149.071.296.145.431.214.357.181.629.335.7.379.074.04.343.2.679.417.13.085.27.176.411.272.008.007.017.007.026.005.011-.004.018-.009.024-.019Zm-2.506-1.416l.925-1.603c.007-.011.009-.022.004-.032-.002-.011-.01-.019-.019-.021-.037-.009-.074-.018-.109-.023l-.996-.145c-.089-.012-.154-.002-.202.03-.054.036-.103.1-.154.187l-.593,1.028c-.029.05-.044.104-.037.163.005.042.019.09.043.144.008.012.02.019.034.017.099-.02.229-.012.383.027.178.043.405.125.675.246.017.007.035,0,.046-.018Zm2.917,2.808l.168-.291c.009-.015.005-.035-.007-.046-.022-.021-.059-.055-.107-.104-.113-.118-.285-.262-.513-.426-.226-.163-.443-.311-.634-.433-.336-.217-.598-.37-.664-.409l-.002-.001c-.066-.038-.33-.188-.684-.37-.203-.102-.439-.219-.694-.333-.256-.116-.465-.192-.624-.231-.068-.017-.114-.031-.144-.041-.017-.005-.034.003-.042.018l-.168.291c-.007.011-.008.02-.004.032.004.01.011.017.022.02.013.003.028.007.042.01.178.043.408.126.68.248.244.111.489.23.706.343.357.182.629.336.7.377l.002.001c.071.041.34.199.676.418.206.131.432.284.649.439.243.175.43.333.556.465.01.011.019.022.03.033.008.007.017.01.028.009.013-.003.02-.009.026-.02l.002.001Zm-.256.384c-.022-.02-.06-.052-.107-.102-.114-.117-.285-.263-.513-.427-.226-.163-.444-.309-.634-.431-.336-.219-.598-.373-.664-.411l-.002-.001c-.066-.038-.33-.188-.685-.368-.202-.104-.438-.221-.693-.335-.256-.116-.466-.19-.624-.229-.069-.017-.114-.034-.144-.044-.017-.004-.034.004-.043.02l-1.002,1.735c-.005.009-.007.02-.004.032.005.011.012.017.022.021.014.002.029.004.043.009.178.043.408.127.679.248.245.11.49.231.708.342.356.183.628.337.699.378l.001.001c.072.041.341.199.678.416.205.134.432.285.648.441.242.175.43.333.555.466.012.009.02.021.03.032.009.007.018.01.029.009.012-.003.021-.01.026-.02l1.002-1.734c.009-.017.007-.036-.005-.048Zm-1.762,1.771l-.016.028c-.006.009-.008.02-.006.028.002.012.007.017.016.023.049.025.096.05.141.071.017.007.035,0,.045-.017.011-.015.009-.037-.003-.049-.04-.03-.081-.064-.126-.1-.008-.004-.017-.007-.028-.003-.009.002-.018.009-.023.019Zm-2.971-1.678l.016-.028c.006-.01.006-.022.003-.031-.002-.011-.009-.017-.016-.022-.054-.021-.102-.039-.15-.059-.016-.004-.034.005-.044.022s-.006.036.008.047c.043.029.086.057.134.087.008.005.015.006.026.003.008-.003.016-.011.022-.02l.001.001Z" fill="#fff" stroke="#fff"/><path d="M374.001,504.327c-2.101,0-4.11.366-6.001,1.06v-3.225c0-.593.451-1.081,1.001-1.081h10c.549,0,1.001.488,1.001,1.081v3.225c-1.891-.694-3.903-1.06-6.001-1.06Z" fill="#6495ed"/><path d="M369.001,548.673v-3.785l.049-.175c1.581.467,3.24.716,4.951.716c1.708,0,3.37-.249,4.95-.716l.05.175v7.031h-10v-3.246Z" fill="#6495ed"/><path d="M374.001,517.307l2.5,9.193-2.5,3.787-2.5-3.787l2.5-9.193Z" fill="#6495ed"/><path d="M380.002,505.387c-1.891-.694-3.903-1.06-6.001-1.06-2.101,0-4.11.366-6.001,1.06-7.55,2.703-13,10.415-13,19.491c0,9.498,5.96,17.49,14.05,19.835c1.581.467,3.24.716,4.951.716c1.708,0,3.37-.249,4.95-.716c8.089-2.345,14.051-10.337,14.051-19.835c0-9.076-5.451-16.788-13-19.491Z" fill="#6495ed"/><path d="M388.5,524.878c0,8.663-6.492,15.683-14.499,15.683-8.008,0-14.501-7.02-14.501-15.683s6.493-15.685,14.501-15.685c8.007,0,14.499,7.022,14.499,15.685Z" fill="#f1f2f2"/><path d="M371.501,526.5l2.5,3.787l2.5-3.787-2.5-9.193-2.5,9.193Z" fill="#6495ed"/><path d="M394,524.878c0-4.632-1.334-9.05-3.861-12.775-2.335-3.44-5.483-6.016-9.139-7.481v-2.46c0-1.192-.897-2.162-1.999-2.162h-10c-1.104,0-2.002.97-2.002,2.162v2.46c-3.656,1.468-6.805,4.044-9.136,7.481-2.528,3.725-3.863,8.143-3.863,12.775c0,9.471,5.718,17.832,14,20.633v6.408c0,.596.449,1.081,1.001,1.081h10c.552,0,1.001-.485,1.001-1.081v-6.408C388.285,542.707,394,534.347,394,524.878Zm-14.999-22.716v1.773c-1.62-.458-3.297-.689-5-.689-1.704,0-3.383.231-5,.689v-1.773h10ZM370,550.838v-1.082h3.5v-2.165h-3.5v-1.521c1.314.292,2.655.44,4.001.44s2.687-.148,3.999-.44v4.768h-8Zm8.688-7.166c-1.204.352-2.441.567-3.689.641v-10.242h-1.999v10.242c-1.248-.074-2.485-.289-3.691-.644C361.473,541.396,356,533.668,356,524.878c0-4.168,1.202-8.143,3.475-11.496c2.23-3.286,5.286-5.697,8.846-6.972c1.817-.665,3.727-1.001,5.68-1.001c1.952,0,3.863.336,5.685,1.004c3.553,1.272,6.61,3.683,8.841,6.969c2.273,3.353,3.474,7.328,3.474,11.496c0,8.79-5.474,16.518-13.313,18.794v0Z" fill="#231f20"/><path d="M374.001,508.112c-5.214,0-10.049,2.809-12.933,7.515-1.68,2.735-2.568,5.933-2.568,9.251c0,.191,0,.39.011.591.117,3.602,1.27,6.994,3.335,9.816.177.241.442.389.727.408.019,0,.038,0,.057,0c.265,0,.52-.114.709-.318l2.43-2.64-1.417-1.526-1.603,1.741c-1.192-1.937-1.928-4.131-2.164-6.45h2.415v-2.162h-2.491c.087-2.579.792-5.059,2.053-7.224l1.812,1.576l1.252-1.685-1.878-1.635c2.337-2.947,5.657-4.767,9.252-5.054v3.204h1.999v-3.204c3.679.292,6.953,2.184,9.226,5.035l-1.901,1.654l1.252,1.685l1.84-1.597c1.237,2.112,1.984,4.587,2.075,7.245h-2.49v2.162h2.414c-.234,2.319-.971,4.516-2.165,6.455l-1.614-1.738-1.411,1.534l2.441,2.629c.202.217.481.331.764.313.284-.019.548-.167.725-.408c2.064-2.822,3.217-6.214,3.336-9.816.01-.201.01-.4.01-.591c0-9.246-6.953-16.766-15.5-16.766v0Z" fill="#231f20"/><path d="M378.5,534.071h-1.999v2.162h1.999v-2.162Z" fill="#231f20"/><path d="M381.501,534.071h-2v2.162h2v-2.162Z" fill="#231f20"/><path d="M379.501,537.317h-3v2.163h3v-2.163Z" fill="#231f20"/><path d="M368.501,534.071h-2v2.162h2v-2.162Z" fill="#231f20"/><path d="M371.501,534.071h-1.999v2.162h1.999v-2.162Z" fill="#231f20"/><path d="M371.501,537.317h-3v2.163h3v-2.163Z" fill="#231f20"/><path d="M377.46,526.195L374.96,517c-.126-.459-.515-.777-.959-.777s-.836.318-.959.777l-2.5,9.195c-.089.318-.035.663.145.933l2.5,3.787c.188.283.491.453.814.453s.626-.17.813-.453l2.5-3.787c.178-.27.232-.615.146-.933v0Zm-3.459,2.229l-1.403-2.123l1.403-5.162l1.403,5.162-1.403,2.123Z" fill="#231f20"/></g></g><g><path d="M202.273,379.396v1.125h.795l.266-.75-1.061-.375Zm-1.662,0l-1.056-.386-.555,1.511h1.611v-1.125Zm4.807-13.091v-1.125h-.785l-.271.739l1.056.386Zm1.637,0l1.056-.386-.271-.739h-.785v1.125Zm4.806,13.091v1.125h1.612l-.556-1.511-1.056.386Zm-1.662,0l-1.06.375.266.75h.794v-1.125Zm-3.911-11.021l1.06-.375-.266-.75h-.794v1.125Zm-.103,0v-1.125h-.794l-.266.75l1.06.375Zm-3.298,5.906v-1.125h-1.125v1.125h1.125Zm6.699,0h1.125v-1.125h-1.125v1.125Zm0,1.407v1.124h1.125v-1.124h-1.125Zm-6.699,0h-1.125v1.124h1.125v-1.124Zm-.614,2.583h-1.662v2.25h1.662v-2.25Zm-.606,1.512l4.808-13.092-2.113-.772-4.807,13.091l2.112.773Zm3.751-12.353h1.637v-2.25h-1.637v2.25Zm.581-.739l4.806,13.092l2.112-.773-4.806-13.091-2.112.772Zm5.862,11.58h-1.662v2.25h1.662v-2.25Zm-.601.75L207.348,368l-2.121.754l3.912,11.017l2.121-.75Zm-4.972-11.771h-.103v2.25h.103v-2.25Zm-1.163.75l-3.912,11.021l2.121.75l3.912-11.017-2.121-.754Zm-2.238,7.406h6.699v-2.25h-6.699v2.25Zm5.574-1.125v1.407h2.25v-1.407h-2.25Zm1.125.281h-6.699v2.25h6.699v-2.25Zm-5.574,1.126v-1.407h-2.25v1.407h2.25Zm18.479-9.383v-1.125h-1.125v1.125h1.125Zm1.586,0h1.125v-1.125h-1.125v1.125Zm-.633,11.066l-.965-.581-.001.004.966.577Zm-1.771,1.654l.523.998.004-.004-.527-.994Zm-5.369,0l-.528.994.005.004.523-.998Zm-1.777-1.654l-.967.574.002.004.002.004.963-.582Zm-.626-11.066v-1.125h-1.125v1.125h1.125Zm1.585,0h1.125v-1.125h-1.125v1.125Zm.422,10.245l-.98.555.002.004.978-.559Zm1.201,1.17l-.541.986.004.004.005.004.532-.994Zm3.759,0l.532.994.003-.004h.003l-.538-.99Zm1.202-1.17l-.98-.551-.002.003.982.548Zm.421-9.12h1.586v-2.25h-1.586v2.25Zm.461-1.125v8.666h2.25v-8.666h-2.25Zm0,8.666c0,.713-.165,1.309-.473,1.819l1.929,1.159c.537-.893.794-1.898.794-2.978h-2.25Zm-.474,1.823c-.306.51-.739.922-1.332,1.237l1.054,1.988c.933-.495,1.68-1.185,2.21-2.07l-1.932-1.155Zm-1.328,1.237c-.573.3-1.282.469-2.161.469v2.25c1.174,0,2.255-.229,3.207-.727l-1.046-1.992Zm-2.161.469c-.88,0-1.589-.169-2.162-.469l-1.046,1.992c.952.498,2.033.727,3.208.727v-2.25Zm-2.158-.469c-.593-.315-1.031-.727-1.341-1.241l-1.926,1.163c.533.881,1.281,1.571,2.212,2.066l1.055-1.988Zm-1.337-1.237c-.305-.51-.468-1.11-.468-1.823h-2.25c0,1.08.253,2.082.784,2.974l1.934-1.151Zm-.468-1.823v-8.666h-2.25v8.666h2.25Zm-1.125-7.541h1.585v-2.25h-1.585v2.25Zm.46-1.125v8.539h2.25v-8.539h-2.25Zm0,8.539c0,.81.18,1.575.567,2.261l1.96-1.106c-.176-.312-.277-.687-.277-1.155h-2.25Zm.569,2.265c.388.682.944,1.219,1.638,1.597l1.083-1.972c-.346-.188-.592-.431-.765-.739l-1.956,1.114Zm1.647,1.605c.721.386,1.539.555,2.412.555v-2.25c-.585,0-1.02-.113-1.348-.289l-1.064,1.984Zm2.412.555c.873,0,1.69-.169,2.411-.555l-1.064-1.984c-.328.176-.763.289-1.347.289v2.25Zm2.417-.559c.7-.382,1.259-.919,1.645-1.609l-1.963-1.099c-.168.3-.41.541-.758.732l1.076,1.976Zm1.644-1.605c.387-.686.566-1.451.566-2.261h-2.25c0,.468-.101.843-.276,1.155l1.96,1.106Zm.566-2.261v-8.539h-2.25v8.539h2.25Zm2.91-7.133h-1.125v1.125h1.125v-1.125Zm0-1.406v-1.125h-1.125v1.125h1.125Zm9.819,0h1.125v-1.125h-1.125v1.125Zm0,1.406v1.125h1.125v-1.125h-1.125Zm-4.117,0v-1.125h-1.125v1.125h1.125Zm0,11.685v1.125h1.125v-1.125h-1.125Zm-1.585,0h-1.125v1.125h1.125v-1.125Zm0-11.685h1.125v-1.125h-1.125v1.125Zm-2.992,0v-1.406h-2.25v1.406h2.25Zm-1.125-.281h9.819v-2.25h-9.819v2.25Zm8.694-1.125v1.406h2.25v-1.406h-2.25Zm1.125.281h-4.117v2.25h4.117v-2.25Zm-5.242,1.125v11.685h2.25v-11.685h-2.25Zm1.125,10.56h-1.585v2.25h1.585v-2.25Zm-.46,1.125v-11.685h-2.25v11.685h2.25Zm-1.125-12.81h-4.117v2.25h4.117v-2.25Zm17.901,9.844l-1.008-.499l1.008.499Zm-2.052,2.329l.598.952-.598-.952Zm-5.957,0l-.598.952.598-.952Zm-2.052-2.329l1.008-.499-1.008.499Zm8.009-9.484l.598-.956-.598.956Zm2.052,2.325l-1.008.499l1.008-.499Zm-1.355.709l-1.014.488.002.003l1.012-.491Zm-1.528-1.77l-.598.953.003.003.595-.956Zm-4.302,0l-.594-.956-.003.004.597.952Zm-1.527,1.77l-1.012-.491-.003.004l1.015.487Zm0,5.741l-1.015.488.003.004l1.012-.492Zm1.527,1.77l-.597.953.003.003.594-.956Zm4.302,0l-.595-.956-.003.004.598.952Zm1.528-1.77l-1.012-.491-.002.004l1.014.487Zm.978-2.868c0,1.245-.225,2.261-.631,3.078l2.016.998c.591-1.193.865-2.561.865-4.076h-2.25Zm-.631,3.078c-.415.837-.965,1.448-1.642,1.872l1.196,1.908c1.061-.667,1.88-1.608,2.462-2.782l-2.016-.998Zm-1.642,1.872c-.674.423-1.456.648-2.381.648v2.25c1.309,0,2.513-.322,3.577-.99l-1.196-1.908Zm-2.381.648c-.924,0-1.706-.225-2.381-.648l-1.195,1.908c1.064.668,2.268.99,3.576.99v-2.25Zm-2.381-.648c-.676-.424-1.226-1.035-1.641-1.872l-2.016.998c.582,1.174,1.4,2.115,2.462,2.782l1.195-1.908Zm-1.641-1.872c-.406-.817-.631-1.833-.631-3.078h-2.25c0,1.515.274,2.883.865,4.076l2.016-.998Zm-.631-3.078c0-1.249.225-2.262.631-3.083l-2.016-.998c-.591,1.193-.865,2.566-.865,4.081h2.25Zm.631-3.083c.415-.836.965-1.447,1.641-1.871l-1.195-1.909c-1.062.668-1.88,1.609-2.462,2.782l2.016.998Zm1.641-1.871c.675-.424,1.457-.649,2.381-.649v-2.25c-1.308,0-2.512.323-3.576.99l1.195,1.909Zm2.381-.649c.925,0,1.707.225,2.381.649l1.196-1.909c-1.064-.667-2.268-.99-3.577-.99v2.25Zm2.381.649c.677.424,1.227,1.035,1.642,1.871l2.016-.998c-.582-1.173-1.401-2.114-2.462-2.782l-1.196,1.909Zm1.642,1.871c.406.821.631,1.834.631,3.083h2.25c0-1.515-.274-2.888-.865-4.081l-2.016.998Zm1.347,3.083c0-1.257-.209-2.393-.683-3.364l-2.023.982c.286.589.456,1.365.456,2.382h2.25Zm-.68-3.36c-.454-.945-1.098-1.71-1.947-2.239l-1.19,1.912c.438.27.813.687,1.109,1.302l2.028-.975Zm-1.945-2.235c-.827-.518-1.752-.773-2.745-.773v2.25c.593,0,1.1.146,1.55.428l1.195-1.905Zm-2.745-.773c-.992,0-1.918.255-2.748.769l1.189,1.912c.456-.285.967-.431,1.559-.431v-2.25Zm-2.751.773c-.844.528-1.485,1.29-1.942,2.231l2.023.982c.301-.618.678-1.035,1.114-1.308l-1.195-1.905Zm-1.945,2.235c-.467.971-.673,2.107-.673,3.36h2.25c0-1.017.168-1.797.452-2.385l-2.029-.975Zm-.673,3.36c0,1.248.206,2.385.673,3.356l2.029-.975c-.284-.589-.452-1.369-.452-2.381h-2.25Zm.676,3.36c.457.941,1.098,1.702,1.942,2.231l1.195-1.905c-.436-.274-.813-.69-1.114-1.309l-2.023.983Zm1.945,2.234c.83.518,1.756.769,2.748.769v-2.25c-.592,0-1.103-.146-1.559-.431l-1.189,1.912Zm2.748.769c.993,0,1.918-.251,2.745-.772l-1.195-1.905c-.45.281-.957.427-1.55.427v2.25Zm2.743-.769c.849-.528,1.493-1.293,1.947-2.238l-2.028-.975c-.296.615-.671,1.031-1.109,1.301l1.19,1.912Zm1.944-2.234c.474-.972.683-2.108.683-3.36h-2.25c0,1.012-.17,1.788-.456,2.377l2.023.983Zm3.757-9.908v-1.125h-1.125v1.125h1.125Zm1.892,0l1.041-.427-.286-.698h-.755v1.125Zm4.449,10.867l-1.041.424.286.701h.755v-1.125Zm.153,0v1.125h.756l.286-.701-1.042-.424Zm4.449-10.867v-1.125h-.754l-.287.698l1.041.427Zm1.892,0h1.125v-1.125h-1.125v1.125Zm0,13.091v1.125h1.125v-1.125h-1.125Zm-1.482,0h-1.125v1.125h1.125v-1.125Zm0-9.945h1.125v-1.125h-1.125v1.125Zm-.128,0v-1.125h-.754l-.287.698l1.041.427Zm-4.091,9.945v1.125h.754l.286-.697-1.04-.428Zm-1.432,0l-1.041.428.287.697h.754v-1.125Zm-4.091-9.945l1.04-.427-.286-.698h-.754v1.125Zm-.128,0v-1.125h-1.125v1.125h1.125Zm0,9.945v1.125h1.125v-1.125h-1.125Zm-1.483,0h-1.125v1.125h1.125v-1.125Zm0-11.966h1.892v-2.25h-1.892v2.25Zm.851-.698l4.449,10.864l2.082-.851-4.449-10.867-2.082.854Zm5.49,11.565h.153v-2.25h-.153v2.25Zm1.195-.701l4.448-10.864-2.082-.854-4.449,10.867l2.083.851ZM262.9,367.43h1.892v-2.25h-1.892v2.25Zm.767-1.125v13.091h2.25v-13.091h-2.25Zm1.125,11.966h-1.482v2.25h1.482v-2.25Zm-.357,1.125v-9.945h-2.25v9.945h2.25Zm-1.125-11.07h-.128v2.25h.128v-2.25Zm-1.169.698l-4.091,9.945l2.081.855l4.091-9.945-2.081-.855Zm-3.05,9.247h-1.432v2.25h1.432v-2.25Zm-.392.698l-4.091-9.945-2.081.855l4.091,9.945l2.081-.855Zm-5.131-10.643h-.128v2.25h.128v-2.25Zm-1.253,1.125v9.945h2.25v-9.945h-2.25Zm1.125,8.82h-1.483v2.25h1.483v-2.25Zm-.358,1.125v-13.091h-2.25v13.091h2.25Zm25.186-2.966l-1.007-.499l1.007.499Zm-2.051,2.329l.597.952-.597-.952Zm-5.958,0l-.598.952.598-.952Zm-2.052-2.329l1.008-.499-1.008.499Zm8.01-9.484l.597-.956-.597.956Zm2.051,2.325l-1.007.499l1.007-.499Zm-1.355.709l-1.014.488.003.003l1.011-.491Zm-1.527-1.77l-.598.953.003.003.595-.956Zm-4.302,0l-.595-.956-.003.004.598.952Zm-1.528,1.77l-1.011-.491-.003.004l1.014.487Zm0,5.741l-1.014.488.003.004l1.011-.492Zm1.528,1.77l-.598.953.003.003.595-.956Zm4.302,0l-.595-.956-.003.004.598.952Zm1.527-1.77l-1.011-.491-.003.004l1.014.487Zm.978-2.868c0,1.245-.225,2.261-.63,3.078l2.015.998c.592-1.193.865-2.561.865-4.076h-2.25Zm-.63,3.078c-.416.837-.965,1.448-1.643,1.872l1.196,1.908c1.062-.667,1.881-1.608,2.462-2.782l-2.015-.998Zm-1.643,1.872c-.674.423-1.456.648-2.38.648v2.25c1.309,0,2.513-.322,3.576-.99l-1.196-1.908Zm-2.38.648c-.924,0-1.706-.225-2.381-.648l-1.196,1.908c1.064.668,2.268.99,3.577.99v-2.25Zm-2.381-.648c-.677-.424-1.226-1.035-1.642-1.872l-2.016.998c.582,1.174,1.401,2.115,2.462,2.782l1.196-1.908Zm-1.642-1.872c-.406-.817-.63-1.833-.63-3.078h-2.25c0,1.515.273,2.883.864,4.076l2.016-.998Zm-.63-3.078c0-1.249.224-2.262.63-3.083l-2.016-.998c-.591,1.193-.864,2.566-.864,4.081h2.25Zm.63-3.083c.416-.836.965-1.447,1.642-1.871l-1.196-1.909c-1.061.668-1.88,1.609-2.462,2.782l2.016.998Zm1.642-1.871c.675-.424,1.457-.649,2.381-.649v-2.25c-1.309,0-2.513.323-3.577.99l1.196,1.909Zm2.381-.649c.924,0,1.706.225,2.38.649l1.196-1.909c-1.063-.667-2.267-.99-3.576-.99v2.25Zm2.38.649c.678.424,1.227,1.035,1.643,1.871l2.015-.998c-.581-1.173-1.4-2.114-2.462-2.782l-1.196,1.909Zm1.643,1.871c.405.821.63,1.834.63,3.083h2.25c0-1.515-.273-2.888-.865-4.081l-2.015.998Zm1.346,3.083c0-1.257-.209-2.393-.682-3.364l-2.023.982c.285.589.455,1.365.455,2.382h2.25Zm-.68-3.36c-.454-.945-1.097-1.71-1.947-2.239l-1.189,1.912c.437.27.813.687,1.108,1.302l2.028-.975Zm-1.944-2.235c-.828-.518-1.752-.773-2.745-.773v2.25c.593,0,1.099.146,1.55.428l1.195-1.905Zm-2.745-.773c-.993,0-1.918.255-2.749.769l1.189,1.912c.457-.285.968-.431,1.56-.431v-2.25Zm-2.752.773c-.843.528-1.484,1.29-1.941,2.231l2.023.982c.301-.618.678-1.035,1.113-1.308l-1.195-1.905Zm-1.944,2.235c-.467.971-.673,2.107-.673,3.36h2.25c0-1.017.168-1.797.451-2.385l-2.028-.975Zm-.673,3.36c0,1.248.206,2.385.673,3.356l2.028-.975c-.283-.589-.451-1.369-.451-2.381h-2.25Zm.676,3.36c.457.941,1.098,1.702,1.941,2.231l1.195-1.905c-.435-.274-.812-.69-1.113-1.309l-2.023.983Zm1.944,2.234c.831.518,1.756.769,2.749.769v-2.25c-.592,0-1.103-.146-1.56-.431l-1.189,1.912Zm2.749.769c.993,0,1.917-.251,2.745-.772l-1.195-1.905c-.451.281-.957.427-1.55.427v2.25Zm2.742-.769c.85-.528,1.493-1.293,1.947-2.238l-2.028-.975c-.295.615-.671,1.031-1.108,1.301l1.189,1.912Zm1.945-2.234c.473-.972.682-2.108.682-3.36h-2.25c0,1.012-.17,1.788-.455,2.377l2.023.983Zm2.496-8.502h-1.125v1.125h1.125v-1.125Zm0-1.406v-1.125h-1.125v1.125h1.125Zm9.818,0h1.125v-1.125h-1.125v1.125Zm0,1.406v1.125h1.125v-1.125h-1.125Zm-4.116,0v-1.125h-1.125v1.125h1.125Zm0,11.685v1.125h1.125v-1.125h-1.125Zm-1.585,0h-1.125v1.125h1.125v-1.125Zm0-11.685h1.125v-1.125h-1.125v1.125Zm-2.992,0v-1.406h-2.25v1.406h2.25Zm-1.125-.281h9.818v-2.25h-9.818v2.25Zm8.693-1.125v1.406h2.25v-1.406h-2.25Zm1.125.281h-4.116v2.25h4.116v-2.25Zm-5.241,1.125v11.685h2.25v-11.685h-2.25Zm1.125,10.56h-1.585v2.25h1.585v-2.25Zm-.46,1.125v-11.685h-2.25v11.685h2.25Zm-1.125-12.81h-4.117v2.25h4.117v-2.25Zm9.733-.281h1.125v-1.125h-1.125v1.125Zm0,13.091v1.125h1.125v-1.125h-1.125Zm-1.585,0h-1.125v1.125h1.125v-1.125Zm0-13.091v-1.125h-1.125v1.125h1.125Zm.46,0v13.091h2.25v-13.091h-2.25Zm1.125,11.966h-1.585v2.25h1.585v-2.25Zm-.46,1.125v-13.091h-2.25v13.091h2.25Zm-1.125-11.966h1.585v-2.25h-1.585v2.25Zm5.3-1.125l1.061-.375-.264-.75h-.797v1.125Zm3.887,11.021l-1.061.375.264.75h.797v-1.125Zm.153,0v1.125h.796l.265-.75-1.061-.375Zm3.887-11.021v-1.125h-.797l-.264.75l1.061.375Zm1.661,0l1.057.386.555-1.511h-1.612v1.125Zm-4.807,13.091v1.125h.786l.271-.738-1.057-.387Zm-1.636,0l-1.056.387.271.738h.785v-1.125Zm-4.807-13.091v-1.125h-1.611l.555,1.511l1.056-.386Zm.601.375l3.887,11.021l2.122-.75-3.887-11.021-2.122.75Zm4.948,11.771h.153v-2.25h-.153v2.25Zm1.214-.75l3.886-11.021-2.121-.75-3.887,11.021l2.122.75Zm2.826-10.271h1.661v-2.25h-1.661v2.25Zm.605-1.511l-4.807,13.091l2.113.773l4.807-13.092-2.113-.772Zm-3.751,12.352h-1.636v2.25h1.636v-2.25Zm-.58.739l-4.806-13.091-2.113.772l4.807,13.092l2.112-.773Zm-5.863-11.58h1.662v-2.25h-1.662v2.25Zm13.289,11.966h-1.125v1.125h1.125v-1.125Zm0-13.091v-1.125h-1.125v1.125h1.125Zm7.901,0h1.125v-1.125h-1.125v1.125Zm0,1.406v1.125h1.125v-1.125h-1.125Zm-6.316,0v-1.125h-1.125v1.125h1.125Zm0,4.425h-1.125v1.125h1.125v-1.125Zm5.907,0h1.125v-1.125h-1.125v1.125Zm0,1.407v1.125h1.125v-1.125h-1.125Zm-5.907,0v-1.125h-1.125v1.125h1.125Zm0,4.447h-1.125v1.125h1.125v-1.125Zm6.418,0h1.125v-1.125h-1.125v1.125Zm0,1.406v1.125h1.125v-1.125h-1.125Zm-6.878,0v-13.091h-2.25v13.091h2.25Zm-1.125-11.966h7.901v-2.25h-7.901v2.25Zm6.776-1.125v1.406h2.25v-1.406h-2.25Zm1.125.281h-6.316v2.25h6.316v-2.25Zm-7.441,1.125v4.425h2.25v-4.425h-2.25Zm1.125,5.55h5.907v-2.25h-5.907v2.25Zm4.782-1.125v1.407h2.25v-1.407h-2.25Zm1.125.282h-5.907v2.25h5.907v-2.25Zm-7.032,1.125v4.447h2.25v-4.447h-2.25Zm1.125,5.572h6.418v-2.25h-6.418v2.25Zm5.293-1.125v1.406h2.25v-1.406h-2.25Zm1.125.281h-8.003v2.25h8.003v-2.25Zm14.977-8.692l-1.118.131.118.994h1v-1.125Zm-.933-1.508l-.618.938.618-.938Zm-3.529-.259l-.445-1.031h-.004l.449,1.031Zm-1.01.777l-.904-.671-.003.003-.003.004.91.664Zm-.108,2.017l-.939.623.006.007.006.012.927-.642Zm.652.623l-.6.952h.006l.006.004.588-.956Zm.83.401l-.388,1.058h.007l.007.003.374-1.061Zm.8.248l.292-1.084h-.003l-.003-.004-.286,1.088Zm1.329.359l-.292,1.088h.003.004l.285-1.088Zm1.138.372l-.397,1.05.003.003.394-1.053Zm1.208.645l-.652.915.006.007.006.004.64-.926Zm.959,1.035l.966-.578-.966.578Zm-.179,3.472l-.944-.615-.001.004-.002.004.947.607Zm-1.611,1.362l-.484-1.017h-.002l.486,1.017Zm-4.998.048l-.457,1.032h.002l.455-1.032Zm-1.612-1.263l-.914.656h.002l.002.004.91-.66Zm-.658-1.887v-1.125h-1.208l.086,1.204l1.122-.079Zm1.637,0l1.12-.097-.088-1.028h-1.032v1.125Zm.498,1.227l-.838.75.005.007.005.004.828-.761Zm1.112.716l-.373,1.061.006.004h.006l.361-1.065Zm3.088-.064l.424,1.043h.004l.004-.004-.432-1.039Zm1.144-.829l.88.698h.002l.003-.004-.885-.694Zm.057-2.317l.841-.746-.841.746Zm-.959-.664l-.444,1.035.444-1.035Zm-1.284-.446l-.309,1.08.004.004h.004l.301-1.084Zm-1.611-.461l-.311,1.083h.002l.309-1.083Zm-2.429-1.26l-.759.832.759-.832Zm-.301-4.058l-.908-.664-.002.004.91.66Zm1.612-1.279l.461,1.028.002-.004-.463-1.024Zm4.519-.007l-.471,1.024h.002.003l.466-1.024Zm1.559,1.23l-.905.667h.002l.001.004.902-.671Zm.614,1.77v1.125h1.162l-.038-1.163-1.124.038Zm-.417-.132c-.116-.978-.61-1.777-1.433-2.317l-1.235,1.879c.268.176.396.382.433.701l2.235-.263Zm-1.433-2.317c-.765-.503-1.66-.724-2.624-.724v2.25c.62,0,1.064.139,1.389.353l1.235-1.879Zm-2.624-.724c-.7,0-1.364.117-1.967.375l.891,2.067c.266-.117.616-.192,1.076-.192v-2.25Zm-1.971.375c-.584.255-1.088.627-1.465,1.137l1.808,1.338c.109-.146.278-.289.556-.412l-.899-2.063Zm-1.471,1.144c-.382.529-.573,1.132-.573,1.781h2.25c0-.187.049-.326.143-.457l-1.82-1.324Zm-.573,1.781c0,.533.13,1.058.436,1.523l1.877-1.242c-.026-.041-.063-.116-.063-.281h-2.25Zm.448,1.542c.261.375.591.686.979.933l1.199-1.905c-.141-.09-.245-.191-.325-.307l-1.853,1.279Zm.991.937c.327.203.671.367,1.03.503l.777-2.116c-.22-.078-.43-.18-.632-.303l-1.175,1.916Zm1.044.506c.313.109.609.203.887.278l.573-2.179c-.208-.052-.444-.127-.711-.221l-.749,2.122Zm.881.274l1.33.36.584-2.175-1.329-.356-.585,2.171Zm1.337.36c.294.079.635.187,1.026.334l.794-2.104c-.445-.169-.862-.304-1.249-.405l-.571,2.175Zm1.029.337c.326.12.643.289.95.507l1.304-1.834c-.46-.326-.949-.589-1.466-.78l-.788,2.107Zm.962.518c.25.172.46.394.632.686l1.933-1.155c-.33-.551-.759-1.02-1.285-1.383l-1.28,1.852Zm.632.686c.125.207.219.514.219.975h2.25c0-.765-.157-1.492-.536-2.13l-1.933,1.155Zm.219.975c0,.499-.127.927-.375,1.305l1.887,1.227c.494-.762.738-1.613.738-2.532h-2.25Zm-.378,1.313c-.237.367-.6.69-1.148.952l.967,2.033c.868-.413,1.578-.998,2.075-1.77l-1.894-1.215Zm-1.15.952c-.514.248-1.193.394-2.077.394v2.25c1.127,0,2.157-.188,3.049-.615l-.972-2.029Zm-2.077.394c-.819,0-1.469-.131-1.982-.356l-.908,2.059c.861.378,1.834.547,2.89.547v-2.25Zm-1.979-.356c-.522-.233-.894-.536-1.156-.896l-1.822,1.32c.521.72,1.224,1.26,2.065,1.635l.913-2.059Zm-1.153-.893c-.257-.36-.413-.783-.451-1.308l-2.244.157c.065.907.348,1.74.866,2.464l1.829-1.313Zm-1.573-.105h1.637v-2.25h-1.637v2.25Zm.516-1.027c.06.701.306,1.35.781,1.879l1.677-1.5c-.105-.117-.192-.285-.217-.574l-2.241.195Zm.791,1.89c.43.469.962.802,1.567,1.016l.747-2.123c-.29-.101-.5-.243-.658-.416l-1.656,1.523Zm1.579,1.02c.578.199,1.187.292,1.819.292v-2.25c-.408,0-.77-.06-1.096-.172l-.723,2.13Zm1.819.292c.727,0,1.418-.12,2.054-.378l-.848-2.086c-.327.135-.723.214-1.206.214v2.25Zm2.062-.382c.63-.263,1.175-.645,1.592-1.17l-1.76-1.399c-.146.184-.363.353-.696.491l.864,2.078Zm1.597-1.174c.444-.566.662-1.234.662-1.95h-2.25c0,.24-.064.409-.182.559l1.77,1.391Zm.662-1.95c0-.653-.189-1.29-.649-1.807l-1.681,1.496c.026.03.08.097.08.311h2.25Zm-.649-1.807c-.371-.417-.835-.728-1.355-.949l-.889,2.066c.272.116.448.248.563.379l1.681-1.496Zm-1.355-.949c-.447-.195-.924-.36-1.428-.499l-.602,2.168c.416.116.796.247,1.141.397l.889-2.066Zm-1.42-.499l-1.611-.457-.618,2.163l1.611.458.618-2.164Zm-1.609-.457c-.907-.263-1.546-.612-1.981-1.009l-1.518,1.661c.759.694,1.738,1.181,2.877,1.511l.622-2.163Zm-1.981-1.009c-.341-.312-.529-.713-.529-1.313h-2.25c0,1.166.409,2.194,1.261,2.974l1.518-1.661Zm-.529-1.313c0-.517.135-.918.38-1.256l-1.821-1.32c-.548.754-.809,1.627-.809,2.576h2.25Zm.379-1.252c.276-.379.652-.686,1.163-.915l-.923-2.055c-.836.378-1.533.922-2.058,1.642l1.818,1.328Zm1.165-.919c.515-.232,1.111-.36,1.806-.36v-2.25c-.976,0-1.893.18-2.734.562l.928,2.048Zm1.806-.36c.708,0,1.293.128,1.779.353l.942-2.044c-.827-.383-1.742-.559-2.721-.559v2.25Zm1.784.353c.502.228.863.525,1.12.873l1.811-1.335c-.51-.693-1.19-1.218-2-1.586l-.931,2.048Zm1.123.877c.248.334.378.697.392,1.132l2.248-.071c-.028-.885-.308-1.698-.836-2.407l-1.804,1.346Zm1.516-.026h-1.534v2.25h1.534v-2.25Zm2.785,10.942h-1.125v1.125h1.125v-1.125Zm0-13.091v-1.125h-1.125v1.125h1.125Zm7.901,0h1.125v-1.125h-1.125v1.125Zm0,1.406v1.125h1.125v-1.125h-1.125Zm-6.316,0v-1.125h-1.125v1.125h1.125Zm0,4.425h-1.125v1.125h1.125v-1.125Zm5.907,0h1.125v-1.125h-1.125v1.125Zm0,1.407v1.125h1.125v-1.125h-1.125Zm-5.907,0v-1.125h-1.125v1.125h1.125Zm0,4.447h-1.125v1.125h1.125v-1.125Zm6.418,0h1.125v-1.125h-1.125v1.125Zm0,1.406v1.125h1.125v-1.125h-1.125Zm-6.878,0v-13.091h-2.25v13.091h2.25Zm-1.125-11.966h7.901v-2.25h-7.901v2.25Zm6.776-1.125v1.406h2.25v-1.406h-2.25Zm1.125.281h-6.316v2.25h6.316v-2.25Zm-7.441,1.125v4.425h2.25v-4.425h-2.25Zm1.125,5.55h5.907v-2.25h-5.907v2.25Zm4.782-1.125v1.407h2.25v-1.407h-2.25Zm1.125.282h-5.907v2.25h5.907v-2.25Zm-7.032,1.125v4.447h2.25v-4.447h-2.25Zm1.125,5.572h6.418v-2.25h-6.418v2.25Zm5.293-1.125v1.406h2.25v-1.406h-2.25Zm1.125.281h-8.003v2.25h8.003v-2.25Zm13.136-11.966h1.125v-1.125h-1.125v1.125Zm0,13.091v1.125h1.125v-1.125h-1.125Zm-1.534,0l-.925.641.336.484h.589v-1.125Zm-7.134-10.278l.924-.642-.335-.483h-.589v1.125Zm-.128,0v-1.125h-1.125v1.125h1.125Zm0,10.278v1.125h1.125v-1.125h-1.125Zm-1.585,0h-1.125v1.125h1.125v-1.125Zm0-13.091v-1.125h-1.125v1.125h1.125Zm1.534,0l.924-.641-.336-.484h-.588v1.125Zm7.159,10.305l-.924.641.336.484h.588v-1.125Zm.128,0v1.125h1.125v-1.125h-1.125Zm0-10.305v-1.125h-1.125v1.125h1.125Zm.435,0v13.091h2.25v-13.091h-2.25Zm1.125,11.966h-1.534v2.25h1.534v-2.25Zm-.61.484l-7.134-10.279-1.848,1.283l7.133,10.278l1.849-1.282Zm-8.058-10.762h-.128v2.25h.128v-2.25Zm-1.253,1.125v10.278h2.25v-10.278h-2.25Zm1.125,9.153h-1.585v2.25h1.585v-2.25Zm-.46,1.125v-13.091h-2.25v13.091h2.25ZM347.67,367.43h1.534v-2.25h-1.534v2.25Zm.61-.484l7.159,10.305l1.848-1.282-7.159-10.305-1.848,1.282Zm8.083,10.789h.128v-2.25h-.128v2.25Zm1.253-1.125v-10.305h-2.25v10.305h2.25Zm-1.125-9.18h1.56v-2.25h-1.56v2.25Zm11.891,2.149l-1.117.131.117.994h1v-1.125Zm-.934-1.508l-.617.938.617-.938Zm-3.528-.259l-.445-1.031h-.004l.449,1.031Zm-1.01.777l-.904-.671-.003.003-.002.004.909.664Zm-.108,2.017l-.939.623.006.007.007.012.926-.642Zm.652.623l-.599.952h.005l.006.004.588-.956Zm.831.401l-.389,1.058h.007l.007.003.375-1.061Zm.799.248l.292-1.084h-.003l-.003-.004-.286,1.088Zm1.329.359l-.292,1.088h.003.003l.286-1.088Zm1.138.372l-.398,1.05.004.003.394-1.053Zm1.208.645l-.652.915.006.007.006.004.64-.926Zm.959,1.035l.966-.578-.966.578Zm-.179,3.472l-.944-.615-.001.004-.002.004.947.607Zm-1.611,1.362l-.483-1.017h-.003l.486,1.017Zm-4.999.048l-.456,1.032h.003l.453-1.032Zm-1.61-1.263l-.915.656h.002l.002.004.911-.66Zm-.659-1.887v-1.125h-1.208l.086,1.204l1.122-.079Zm1.637,0l1.121-.097-.089-1.028h-1.032v1.125Zm.498,1.227l-.838.75.005.007.005.004.828-.761Zm1.112.716l-.374,1.061.007.004h.006l.361-1.065Zm3.088-.064l.424,1.043h.004l.004-.004-.432-1.039Zm1.144-.829l.88.698h.003l.001-.004-.884-.694Zm.058-2.317l.84-.746-.84.746Zm-.959-.664l-.445,1.035.445-1.035Zm-1.285-.446l-.309,1.08.004.004h.004l.301-1.084Zm-1.611-.461l-.311,1.083h.002l.309-1.083Zm-2.429-1.26l-.759.832.759-.832Zm-.3-4.058l-.91-.664v.004l.91.66Zm1.61-1.279l.462,1.028.003-.004-.465-1.024Zm4.52-.007l-.472,1.024h.004.002l.466-1.024Zm1.56,1.23l-.906.667h.002l.002.004.902-.671Zm.613,1.77v1.125h1.162l-.038-1.163-1.124.038Zm-.417-.132c-.116-.978-.61-1.777-1.433-2.317l-1.235,1.879c.268.176.396.382.434.701l2.234-.263Zm-1.433-2.317c-.765-.503-1.66-.724-2.625-.724v2.25c.621,0,1.064.139,1.39.353l1.235-1.879Zm-2.625-.724c-.699,0-1.363.117-1.966.375l.891,2.067c.266-.117.616-.192,1.075-.192v-2.25Zm-1.97.375c-.584.255-1.088.627-1.465,1.137l1.808,1.338c.11-.146.278-.289.555-.412l-.898-2.063Zm-1.47,1.144c-.383.529-.573,1.132-.573,1.781h2.25c0-.187.048-.326.142-.457l-1.819-1.324Zm-.573,1.781c0,.533.129,1.058.435,1.523l1.877-1.242c-.026-.041-.062-.116-.062-.281h-2.25Zm.448,1.542c.26.375.591.686.979.933l1.198-1.905c-.141-.09-.245-.191-.325-.307l-1.852,1.279Zm.99.937c.327.203.671.367,1.03.503l.777-2.116c-.22-.078-.43-.18-.631-.303l-1.176,1.916Zm1.044.506c.313.109.609.203.887.278l.573-2.179c-.207-.052-.444-.127-.711-.221l-.749,2.122Zm.881.274l1.33.36.585-2.175-1.33-.356-.585,2.171Zm1.336.36c.295.079.636.187,1.027.334l.794-2.104c-.445-.169-.862-.304-1.249-.405l-.572,2.175Zm1.03.337c.326.12.643.289.95.507l1.304-1.834c-.459-.326-.949-.589-1.466-.78l-.788,2.107Zm.962.518c.249.172.46.394.632.686l1.933-1.155c-.33-.551-.759-1.02-1.285-1.383l-1.28,1.852Zm.632.686c.125.207.219.514.219.975h2.25c0-.765-.158-1.492-.536-2.13l-1.933,1.155Zm.219.975c0,.499-.127.927-.375,1.305l1.887,1.227c.495-.762.738-1.613.738-2.532h-2.25Zm-.378,1.313c-.236.367-.6.69-1.147.952l.966,2.033c.867-.413,1.578-.998,2.075-1.77l-1.894-1.215Zm-1.15.952c-.514.248-1.193.394-2.077.394v2.25c1.127,0,2.157-.188,3.049-.615l-.972-2.029Zm-2.077.394c-.819,0-1.47-.131-1.981-.356l-.908,2.059c.859.378,1.833.547,2.889.547v-2.25Zm-1.979-.356c-.522-.233-.894-.536-1.156-.896l-1.822,1.32c.521.72,1.223,1.26,2.065,1.635l.913-2.059Zm-1.153-.893c-.257-.36-.413-.783-.45-1.308l-2.245.157c.065.907.348,1.74.866,2.464l1.829-1.313Zm-1.573-.105h1.637v-2.25h-1.637v2.25Zm.516-1.027c.06.701.306,1.35.781,1.879l1.677-1.5c-.105-.117-.192-.285-.216-.574l-2.242.195Zm.791,1.89c.43.469.962.802,1.566,1.016l.748-2.123c-.29-.101-.5-.243-.658-.416l-1.656,1.523Zm1.579,1.02c.578.199,1.187.292,1.819.292v-2.25c-.408,0-.771-.06-1.096-.172l-.723,2.13Zm1.819.292c.727,0,1.418-.12,2.054-.378l-.848-2.086c-.327.135-.723.214-1.206.214v2.25Zm2.062-.382c.63-.263,1.176-.645,1.592-1.17l-1.761-1.399c-.145.184-.362.353-.695.491l.864,2.078Zm1.596-1.174c.446-.566.663-1.234.663-1.95h-2.25c0,.24-.064.409-.182.559l1.769,1.391Zm.663-1.95c0-.653-.189-1.29-.649-1.807l-1.681,1.496c.026.03.08.097.08.311h2.25Zm-.649-1.807c-.371-.417-.834-.728-1.355-.949l-.889,2.066c.273.116.448.248.563.379l1.681-1.496Zm-1.355-.949c-.447-.195-.924-.36-1.428-.499l-.602,2.168c.416.116.796.247,1.141.397l.889-2.066Zm-1.42-.499l-1.611-.457-.618,2.163l1.611.458.618-2.164Zm-1.609-.457c-.906-.263-1.546-.612-1.981-1.009l-1.518,1.661c.759.694,1.738,1.181,2.877,1.511l.622-2.163Zm-1.981-1.009c-.34-.312-.529-.713-.529-1.313h-2.25c0,1.166.409,2.194,1.261,2.974l1.518-1.661Zm-.529-1.313c0-.517.135-.918.38-1.256l-1.82-1.32c-.549.754-.81,1.627-.81,2.576h2.25Zm.379-1.252c.276-.379.652-.686,1.163-.915l-.922-2.055c-.837.378-1.534.922-2.06,1.642l1.819,1.328Zm1.166-.919c.514-.232,1.11-.36,1.805-.36v-2.25c-.976,0-1.893.18-2.733.562l.928,2.048Zm1.805-.36c.708,0,1.293.128,1.778.353l.943-2.044c-.827-.383-1.742-.559-2.721-.559v2.25Zm1.784.353c.503.228.863.525,1.12.873l1.811-1.335c-.51-.693-1.19-1.218-2-1.586l-.931,2.048Zm1.124.877c.247.334.377.697.391,1.132l2.248-.071c-.028-.885-.308-1.698-.836-2.407l-1.803,1.346Zm1.515-.026h-1.534v2.25h1.534v-2.25Zm13.082,7.976l-1.006-.499l1.006.499Zm-2.052,2.329l.6.952-.6-.952Zm-5.955,0l-.599.952.599-.952Zm-2.053-2.329l1.008-.499-1.008.499Zm8.008-9.484l.6-.956-.6.956Zm2.052,2.325l-1.006.499l1.006-.499Zm-1.354.709l-1.013.488v.003l1.013-.491Zm-1.527-1.77l-.599.953.003.003.596-.956Zm-4.305,0l-.592-.956-.004.004.596.952Zm-1.525,1.77l-1.012-.491-.002.004l1.014.487Zm0,5.741l-1.014.488.002.004l1.012-.492Zm1.525,1.77l-.596.953.004.003.592-.956Zm4.305,0l-.596-.956-.003.004.599.952Zm1.527-1.77l-1.013-.491v.004l1.013.487Zm.979-2.868c0,1.245-.226,2.261-.631,3.078l2.014.998c.593-1.193.866-2.561.866-4.076h-2.249Zm-.631,3.078c-.416.837-.967,1.448-1.642,1.872l1.196,1.908c1.061-.667,1.879-1.608,2.46-2.782l-2.014-.998Zm-1.642,1.872c-.675.423-1.459.648-2.381.648v2.25c1.308,0,2.512-.322,3.577-.99l-1.196-1.908Zm-2.381.648c-.927,0-1.706-.225-2.381-.648l-1.196,1.908c1.064.668,2.268.99,3.577.99v-2.25Zm-2.381-.648c-.679-.424-1.227-1.035-1.642-1.872l-2.016.998c.582,1.174,1.4,2.115,2.462,2.782l1.196-1.908Zm-1.642-1.872c-.406-.817-.631-1.833-.631-3.078h-2.25c0,1.515.274,2.883.865,4.076l2.016-.998Zm-.631-3.078c0-1.249.225-2.262.631-3.083l-2.016-.998c-.591,1.193-.865,2.566-.865,4.081h2.25Zm.631-3.083c.415-.836.963-1.447,1.642-1.871l-1.196-1.909c-1.062.668-1.88,1.609-2.462,2.782l2.016.998Zm1.642-1.871c.675-.424,1.454-.649,2.381-.649v-2.25c-1.309,0-2.513.323-3.577.99l1.196,1.909Zm2.381-.649c.922,0,1.706.225,2.381.649l1.196-1.909c-1.065-.667-2.269-.99-3.577-.99v2.25Zm2.381.649c.675.424,1.226,1.035,1.642,1.871l2.014-.998c-.581-1.173-1.399-2.114-2.46-2.782l-1.196,1.909Zm1.642,1.871c.405.821.631,1.834.631,3.083h2.249c0-1.515-.273-2.888-.866-4.081l-2.014.998Zm1.347,3.083c0-1.257-.21-2.393-.683-3.364l-2.025.982c.285.589.458,1.365.458,2.382h2.25Zm-.683-3.36c-.454-.945-1.095-1.71-1.946-2.239l-1.189,1.912c.439.27.814.687,1.11,1.302l2.025-.975Zm-1.942-2.235c-.829-.518-1.752-.773-2.745-.773v2.25c.592,0,1.099.146,1.549.428l1.196-1.905Zm-2.745-.773c-.994,0-1.92.255-2.749.769l1.189,1.912c.457-.285.967-.431,1.56-.431v-2.25Zm-2.753.773c-.842.528-1.484,1.29-1.941,2.231l2.024.982c.3-.618.679-1.035,1.114-1.308l-1.197-1.905Zm-1.943,2.235c-.468.971-.674,2.107-.674,3.36h2.25c0-1.017.169-1.797.45-2.385l-2.026-.975Zm-.674,3.36c0,1.248.206,2.385.674,3.356l2.026-.975c-.281-.589-.45-1.369-.45-2.381h-2.25Zm.676,3.36c.457.941,1.099,1.702,1.941,2.231l1.197-1.905c-.435-.274-.814-.69-1.114-1.309l-2.024.983Zm1.945,2.234c.829.518,1.755.769,2.749.769v-2.25c-.593,0-1.103-.146-1.56-.431l-1.189,1.912Zm2.749.769c.993,0,1.916-.251,2.745-.772l-1.196-1.905c-.45.281-.957.427-1.549.427v2.25Zm2.741-.769c.851-.528,1.492-1.293,1.946-2.238l-2.025-.975c-.296.615-.671,1.031-1.11,1.301l1.189,1.912Zm1.946-2.234c.473-.972.683-2.108.683-3.36h-2.25c0,1.012-.173,1.788-.458,2.377l2.025.983Zm3.758,3.183h-1.125v1.125h1.125v-1.125Zm0-13.091v-1.125h-1.125v1.125h1.125Zm6.941.525l-.529.994h.004l.525-.994Zm1.455,1.425l-.997.521.997-.521Zm0,4.118l-.994-.525.994.525Zm-1.451,1.406l.517.997h.004l-.521-.997Zm-6.079.502h-1.125v1.125h1.125v-1.125Zm0-1.428v-1.125h-1.125v1.125h1.125Zm5.216-.308l-.48-1.016h-.003l.483,1.016Zm.934-.87l-.998-.517-.003.003l1.001.514Zm-.937-3.637l-.51,1.005h.003l.008.003.499-1.008Zm-4.497-.327v-1.125h-1.125v1.125h1.125Zm0,11.685v1.125h1.125v-1.125h-1.125Zm4.579-5.88l.986-.54-.318-.585h-.668v1.125Zm3.221,5.88v1.125h1.898l-.911-1.665-.987.54Zm-1.841,0l-.99.533.319.592h.671v-1.125Zm-3.169-5.88v-1.125h-1.886l.892,1.658.994-.533Zm-3.247,5.88v-13.091h-2.25v13.091h2.25Zm-1.125-11.966h4.421v-2.25h-4.421v2.25Zm4.421,0c.904,0,1.545.158,1.991.394l1.058-1.988c-.87-.461-1.905-.656-3.049-.656v2.25Zm1.995.394c.473.251.784.566.983.952l1.994-1.042c-.427-.825-1.087-1.459-1.931-1.901l-1.046,1.991Zm.983.952c.221.424.348.93.348,1.545h2.25c0-.93-.191-1.8-.604-2.587l-1.994,1.042Zm.348,1.545c0,.612-.127,1.11-.345,1.527l1.991,1.05c.413-.78.604-1.65.604-2.577h-2.25Zm-.345,1.527c-.199.375-.506.686-.979.933l1.043,1.995c.836-.438,1.496-1.061,1.927-1.878l-1.991-1.05Zm-.971.929c-.443.229-1.084.379-1.984.379v2.25c1.129,0,2.156-.183,3.015-.63l-1.031-1.999Zm-1.984.379h-3.581v2.25h3.581v-2.25Zm-2.456,1.125v-1.428h-2.25v1.428h2.25Zm-1.125-.303h3.529v-2.25h-3.529v2.25Zm3.529,0c.795,0,1.541-.117,2.175-.42l-.971-2.029c-.222.105-.6.199-1.204.199v2.25Zm2.171-.417c.622-.296,1.132-.75,1.451-1.376l-2.002-1.024c-.064.128-.176.255-.413.368l.964,2.032Zm1.451-1.369c.293-.573.42-1.211.42-1.871h-2.25c0,.383-.075.649-.169.837l1.999,1.034Zm.42-1.871c0-.667-.127-1.305-.412-1.879l-2.014,1.005c.105.21.176.488.176.874h2.25Zm-.412-1.879c-.319-.633-.822-1.102-1.448-1.413l-.997,2.017c.232.117.356.251.431.401l2.014-1.005Zm-1.44-1.409c-.645-.323-1.407-.447-2.213-.447v2.25c.604,0,.983.098,1.197.207l1.016-2.01Zm-2.213-.447h-2.79v2.25h2.79v-2.25Zm-3.915,1.125v11.685h2.25v-11.685h-2.25Zm1.125,10.56h-1.582v2.25h1.582v-2.25Zm3.593-4.215l3.221,5.88l1.973-1.08-3.222-5.88-1.972,1.08Zm4.207,4.215h-1.841v2.25h1.841v-2.25Zm-.851.593l-3.169-5.884-1.984,1.069l3.173,5.88l1.98-1.065Zm-4.159-4.223h1.789v-2.25h-1.789v2.25Zm14.299-5.062l-1.118.131.117.994h1.001v-1.125Zm-.934-1.508l-.615.938.615-.938Zm-3.529-.259l-.446-1.031h-.003l.449,1.031Zm-1.008.777l-.904-.671-.004.003-.004.004.912.664Zm-.109,2.017l-.937.623.003.007.008.012.926-.642Zm.653.623l-.601.952h.008l.004.004.589-.956Zm.828.401l-.386,1.058h.008l.007.003.371-1.061Zm.799.248l.292-1.084-.003-.004-.289,1.088Zm1.331.359l-.292,1.088h.003.004l.285-1.088Zm1.137.372l-.398,1.05.004.003.394-1.053Zm1.211.645l-.653.915.004.007.008.004.641-.926Zm.956,1.035l.968-.578-.968.578Zm-.176,3.472l-.945-.615-.004.004v.004l.949.607Zm-1.613,1.362l-.484-1.017h-.003l.487,1.017Zm-4.999.048l-.457,1.032h.004l.453-1.032Zm-1.612-1.263l-.911.656.003.004.908-.66Zm-.656-1.887v-1.125h-1.208l.087,1.204l1.121-.079Zm1.635,0l1.121-.097-.086-1.028h-1.035v1.125Zm.498,1.227l-.836.75.004.007.004.004.828-.761Zm1.114.716l-.375,1.061.008.004h.003l.364-1.065Zm3.087-.064l.423,1.043h.004l.004-.004-.431-1.039Zm1.143-.829l.881.698h.004v-.004l-.885-.694Zm.06-2.317l.84-.746-.84.746Zm-.96-.664l-.446,1.035.446-1.035Zm-1.286-.446l-.308,1.08.004.004h.004l.3-1.084Zm-1.609-.461l-.311,1.083.311-1.083Zm-2.43-1.26l-.757.832.757-.832Zm-.3-4.058l-.911-.664v.004l.911.66Zm1.609-1.279l.461,1.028.004-.004-.465-1.024Zm4.523-.007l-.473,1.024h.004l.469-1.024Zm1.556,1.23l-.904.667h.004v.004l.9-.671Zm.615,1.77v1.125h1.162l-.037-1.163-1.125.038Zm-.417-.132c-.116-.978-.611-1.777-1.432-2.317l-1.234,1.879c.266.176.394.382.431.701l2.235-.263Zm-1.432-2.317c-.765-.503-1.661-.724-2.625-.724v2.25c.619,0,1.065.139,1.391.353l1.234-1.879Zm-2.625-.724c-.701,0-1.365.117-1.969.375l.893,2.067c.266-.117.615-.192,1.076-.192v-2.25Zm-1.972.375c-.582.255-1.088.627-1.463,1.137l1.808,1.338c.108-.146.277-.289.555-.412l-.9-2.063Zm-1.471,1.144c-.382.529-.573,1.132-.573,1.781h2.25c0-.187.048-.326.146-.457l-1.823-1.324Zm-.573,1.781c0,.533.131,1.058.439,1.523l1.875-1.242c-.027-.041-.064-.116-.064-.281h-2.25Zm.45,1.542c.259.375.592.686.978.933l1.2-1.905c-.142-.09-.247-.191-.326-.307l-1.852,1.279Zm.99.937c.326.203.671.367,1.031.503l.776-2.116c-.221-.078-.431-.18-.63-.303l-1.177,1.916Zm1.046.506c.311.109.608.203.885.278l.574-2.179c-.21-.052-.446-.127-.713-.221l-.746,2.122Zm.878.274l1.331.36.585-2.175-1.332-.356-.584,2.171Zm1.338.36c.293.079.634.187,1.024.334l.795-2.104c-.443-.169-.862-.304-1.249-.405l-.57,2.175Zm1.028.337c.326.12.645.289.952.507l1.301-1.834c-.457-.326-.948-.589-1.466-.78l-.787,2.107Zm.964.518c.247.172.461.394.633.686l1.932-1.155c-.33-.551-.758-1.02-1.287-1.383l-1.278,1.852Zm.633.686c.124.207.218.514.218.975h2.25c0-.765-.158-1.492-.536-2.13l-1.932,1.155Zm.218.975c0,.499-.128.927-.375,1.305l1.886,1.227c.495-.762.739-1.613.739-2.532h-2.25Zm-.379,1.313c-.236.367-.6.69-1.148.952l.968,2.033c.866-.413,1.579-.998,2.074-1.77l-1.894-1.215Zm-1.151.952c-.514.248-1.193.394-2.078.394v2.25c1.129,0,2.16-.188,3.053-.615l-.975-2.029Zm-2.078.394c-.817,0-1.466-.131-1.98-.356l-.907,2.059c.859.378,1.833.547,2.887.547v-2.25Zm-1.976-.356c-.521-.233-.896-.536-1.159-.896l-1.819,1.32c.522.72,1.223,1.26,2.063,1.635l.915-2.059Zm-1.155-.893c-.255-.36-.412-.783-.45-1.308l-2.242.157c.063.907.344,1.74.866,2.464l1.826-1.313Zm-1.571-.105h1.635v-2.25h-1.635v2.25Zm.514-1.027c.063.701.307,1.35.783,1.879l1.676-1.5c-.105-.117-.191-.285-.217-.574l-2.242.195Zm.791,1.89c.431.469.964.802,1.567,1.016l.75-2.123c-.292-.101-.502-.243-.66-.416l-1.657,1.523Zm1.578,1.02c.582.199,1.189.292,1.819.292v-2.25c-.405,0-.768-.06-1.095-.172l-.724,2.13Zm1.819.292c.728,0,1.422-.12,2.055-.378l-.847-2.086c-.326.135-.724.214-1.208.214v2.25Zm2.063-.382c.63-.263,1.177-.645,1.593-1.17l-1.762-1.399c-.142.184-.36.353-.694.491l.863,2.078Zm1.597-1.174c.446-.566.664-1.234.664-1.95h-2.25c0,.24-.064.409-.184.559l1.77,1.391Zm.664-1.95c0-.653-.191-1.29-.649-1.807l-1.68,1.496c.023.03.079.097.079.311h2.25Zm-.649-1.807c-.371-.417-.836-.728-1.357-.949l-.889,2.066c.274.116.45.248.566.379l1.68-1.496Zm-1.357-.949c-.446-.195-.923-.36-1.425-.499l-.604,2.168c.416.116.795.247,1.14.397l.889-2.066Zm-1.418-.499l-1.612-.457-.619,2.163l1.612.458.619-2.164Zm-1.608-.457c-.908-.263-1.549-.612-1.984-1.009l-1.515,1.661c.757.694,1.736,1.181,2.876,1.511l.623-2.163Zm-1.984-1.009c-.338-.312-.529-.713-.529-1.313h-2.25c0,1.166.409,2.194,1.264,2.974l1.515-1.661Zm-.529-1.313c0-.517.135-.918.383-1.256l-1.823-1.32c-.547.754-.81,1.627-.81,2.576h2.25Zm.379-1.252c.277-.379.652-.686,1.162-.915l-.922-2.055c-.833.378-1.53.922-2.059,1.642l1.819,1.328Zm1.166-.919c.514-.232,1.11-.36,1.808-.36v-2.25c-.979,0-1.894.18-2.734.562l.926,2.048Zm1.808-.36c.705,0,1.29.128,1.777.353l.941-2.044c-.825-.383-1.74-.559-2.718-.559v2.25Zm1.781.353c.502.228.866.525,1.121.873l1.811-1.335c-.51-.693-1.188-1.218-1.998-1.586l-.934,2.048Zm1.125.877c.247.334.378.697.39,1.132l2.25-.071c-.03-.885-.308-1.698-.836-2.407l-1.804,1.346Zm1.515-.026h-1.534v2.25h1.534v-2.25Z" fill="#fff"/><path d="M283.7,248.288c-11.35.75-20.4,2.25-24,4-3.9,1.9-8.65,6.25-13.8,12.65l-4.05,5.1-4.55.55c-3.65.4-4.75.4-5.9-.15-1.1-.6-2.7-.6-8.45-.2-7.35.5-7.95.7-7.95,2.9c0,1,.3,1.05,4.6,1.25c3.05.1,4.65.35,4.8.75.1.35.6.65,1.15.65c1.15,0,1.15-.1,0,2.55-.5,1.2-1.1,2.7-1.25,3.3l-.35,1.1l2.25-1.25c4.35-2.4,14.35-3.45,22.05-2.2c1.65.25,4,.6,5.25.75c13.25,1.65,89.25,1.65,102.5,0c1.25-.15,3.6-.5,5.25-.75c7.7-1.25,17.7-.2,22.05,2.2l2.25,1.25-.349-1.1c-.15-.6-.75-2.1-1.252-3.3-1.148-2.65-1.148-2.55,0-2.55.551,0,1.05-.3,1.151-.65.15-.4,1.751-.65,4.8-.75c4.301-.2,4.601-.25,4.601-1.25c0-2.2-.6-2.4-7.95-2.9-5.752-.4-7.35-.4-8.452.2-1.148.55-2.249.55-5.899.15l-4.55-.55-4.05-5.1c-4.8-5.95-9.5-10.4-13.05-12.35-5.6-3-17.15-4.3-41.55-4.55-10.05-.1-21.45,0-25.3.25Z" fill="#fff"/><path d="M257.8,284.888c4.3,4.45,4.4,4.65,3.1,4.8-.8.1-1.4.3-1.4.4c0,.15.6,1.1,1.4,2.05l1.35,1.85-2.45-1.9c-3.45-2.65-8.5-5.05-13.65-6.6-5.55-1.6-14.2-1.8-20.15-.4-2.05.5-3.9.85-4.1.8-.15-.05-.5.65-.7,1.55-.6,2.3-.25,55.85.35,56.95.45.85,1.55.9,13.95.9c15.1,0,14.5.15,14.5-3.7v-1.8h54.75h54.75v1.8c0,3.85-.6,3.7,14.5,3.7c12.349,0,13.5-.05,13.95-.9.6-1.1.949-53.5.349-56.45-.199-1.15-.548-2.1-.698-2.05-.202.05-2.051-.3-4.102-.8-5.348-1.25-14.049-1.2-19.249.15-4.85,1.3-11.1,4.2-14.5,6.8l-2.5,1.95l1.4-1.85c.75-.95,1.35-1.9,1.35-2.05c0-.1-.6-.3-1.35-.4-1.35-.15-1.25-.35,3.05-4.8c2.45-2.5,4.25-4.6,3.95-4.6s-2.55,2.15-5,4.75l-4.5,4.75h-2.8c-2.6,0-3.55-.5-2.4-1.2.25-.2,1.45-1.5,2.65-2.9l2.15-2.65-2,1.6c-1.1.85-2.8,2.35-3.7,3.35l-1.75,1.8h-7c-3.9,0-8.85-.15-11.1-.3l-4.05-.35-.5-1.8-.5-1.8-.1,1.85-.05,1.9h-10.25-10.25l-.05-1.9-.1-1.85-.5,1.8-.5,1.8-4.05.35c-2.25.15-7.2.3-11.1.3-6.9,0-7.05,0-8.25-1.3-.65-.7-2.3-2.25-3.7-3.35l-2.5-2.1l2.65,3.05c1.4,1.7,2.6,3.2,2.6,3.4c0,.15-1.3.3-2.85.3h-2.8l-4.5-4.75c-2.45-2.6-4.7-4.75-5-4.75s1.5,2.1,3.95,4.6Zm-3.9,17.15c.6,1.25,1.1,2.4,1.1,2.5c0,.5-8.95.25-9.25-.25-.15-.3-1.5-.5-2.9-.5-1.45,0-4.3-.25-6.45-.6-3.15-.5-3.9-.8-4.1-1.6-.35-1.35.05-1.65.85-.6.35.45,1.55,1,2.7,1.15c1.95.25,2.05.2,1.8-.8-.15-.6-.05-1.05.3-1.05.3,0,.65.55.85,1.25.3,1.15.55,1.25,3.25,1.25c2.9,0,2.9,0,2.45-1.25-.75-1.95.4-1.5,1.2.5l.75,1.75h3.55h3.5l-.75-1.8c-.85-2.1-.9-2.2-.35-2.2.2,0,.9,1,1.5,2.25Zm5.55,2.45c3.25,4.35,3.65,4.75,5.9,5.35c1.75.45,11.4.65,35.4.8c32.15.2,42.95-.1,45.3-1.35.45-.3,2.25-2.4,3.95-4.75c1.65-2.3,3.3-4.4,3.65-4.6s-.1.55-.95,1.6c-2.1,2.75-2.85,4.2-2.5,5.1s4.15.8,16.85-.6c9.301-1,10.749-1.4,11.701-3.25.45-.85.9-1.5.998-1.5.45,0-1.65,3.8-2.948,5.35-.701.8-2.101,1.75-3.151,2.05s-8,1.3-15.4,2.15l-13.5,1.65-36.75.15c-39.1.2-38.15.25-61.45-2.4-10.35-1.15-12.2-1.65-13.85-3.6-1.3-1.55-3.4-5.35-2.95-5.35.1,0,.55.65,1,1.5.5,1,1.35,1.65,2.65,2c2.1.6,19.95,2.5,23.4,2.5c3.4,0,3.45-1.35.1-5.65-.8-1-1.35-1.85-1.2-1.85s1.85,2.1,3.75,4.7Zm97.35-2.75c-.45.8-.8,1.6-.8,1.8c0,.15,1.6.25,3.55.25h3.5l.75-1.75c.8-2,1.95-2.45,1.2-.5-.45,1.25-.45,1.25,2.45,1.25c2.7,0,2.95-.1,3.25-1.25.2-.7.55-1.25.85-1.25s.4.45.2,1.05c-.35,1.05-.25,1.1,1.8.75c1.2-.2,2.501-.7,2.801-1.15.799-1,1.2-.7.848.65-.199.8-.949,1.1-4.099,1.6-2.15.35-5,.6-6.45.6-1.4,0-2.75.2-2.9.5-.3.5-9.25.75-9.25.25c0-.45,1.55-3.4,2.15-4.15.85-1.1.95-.25.15,1.35ZM228,323.838c.35,1.2.95,2.6,1.4,3.1c2.55,2.9,16.9,3.6,72.6,3.6c52.95,0,71.75-.6,76.099-2.4c1.001-.4,2.152-1.3,2.55-1.95.851-1.35,1.852-6.7,1.852-10.2.049-1.8.15-2.25.499-1.65.3.55.3,2.25,0,4.75-1.249,9.7-2.051,10.4-12.85,11.2-28.5,2.1-102.3,2.1-130.8,0-10.8-.8-11.6-1.5-12.85-11.15-.25-2.1-.3-4.25-.1-4.7.2-.55.5.75.7,3.15.15,2.25.6,5.05.9,6.25Z" fill="#fff"/></g>
</svg>
