<svg width="2128" height="683" viewBox="0 0 2128 683" fill="none" xmlns="http://www.w3.org/2000/svg">
<path d="M297.721 180.768C289.338 170.208 289.555 155.838 290.318 148.652C292.059 154.966 298.047 160.083 300.443 160.954C297.939 148.216 304.47 138.635 304.47 138.635C308.499 146.946 312.309 154.748 316.446 155.728C318.515 150.72 318.189 144.95 318.623 134.716C319.059 124.483 321.237 114.684 321.237 114.684C323.523 120.563 326.354 125.68 327.443 126.878C326.463 119.256 330.926 110.874 337.241 101.947C343.554 93.019 345.95 86.923 346.167 81.8056C346.386 76.6883 344.862 74.667 344.862 74.667C356.837 78.6483 364.131 87.3577 365.439 113.487C370.01 110.983 372.297 104.015 372.297 104.015C374.583 111.527 375.998 113.051 377.741 118.495C379.483 123.938 380.027 128.402 379.374 131.45C382.205 128.294 384.274 125.571 385.579 125.135C385.035 128.728 385.579 134.063 386.123 137.003C386.667 139.942 386.995 147.455 386.123 149.959C390.478 147.672 394.289 143.318 395.595 138.635C400.713 143.644 401.474 152.354 398.535 160.846C404.522 158.232 408.006 151.7 408.006 151.7C410.727 164.111 408.006 175.543 400.713 182.511L297.721 180.768Z" fill="#1C1C1B"/>
<path d="M344.573 164.932C348.865 145.158 345.041 135.831 345.133 126.316C345.226 116.803 349.424 111.859 352.222 109.807C349.612 121.186 351.756 131.447 353.061 139.655C354.368 147.863 353.621 160.082 344.573 164.932ZM391.957 169.783C394.661 163.814 393.449 158.776 395.408 149.822C393.169 153.646 389.158 156.164 382.909 159.43C382.909 159.43 383.562 157.098 383.097 153.646C382.63 150.195 381.882 147.583 381.417 142.454C380.018 143.946 380.11 147.023 378.433 151.127C373.489 145.438 374.702 139.282 374.794 134.991C374.888 130.7 374.888 123.238 369.852 116.988C369.198 120.16 367.146 123.426 363.322 126.783C362.762 110.647 358.657 98.987 352.222 90.1256C351.942 96.0016 344.666 103.371 337.765 112.699C330.862 122.026 329.93 130.887 333.008 140.214C331.982 138.442 329.836 136.67 324.706 130.42C325.732 133.032 324.986 139.468 323.306 142.826C321.629 146.184 317.71 154.579 319.204 164.372C315.565 159.336 313.326 162.88 307.544 150.66C304.465 154.299 302.413 160.828 303.906 167.731C301.853 167.451 300.268 166.518 299.336 162.787C296.164 168.85 298.962 175.379 302.133 179.016C302.133 179.016 305.945 178.9 311.526 178.75C311.374 176.862 310.768 171.172 311.554 166.564C311.554 166.564 313.7 169.783 314.726 171.648C315.518 173.09 317.142 176.915 317.841 178.584C322.322 178.472 327.301 178.356 332.15 178.262C330.902 174.25 327.784 161.884 327.784 153.087C329.578 160.339 337.061 173.275 340.184 178.127C344.754 178.066 348.808 178.043 351.662 178.084C353.006 178.103 354.216 178.126 355.352 178.15C354.374 172.312 355.641 164.047 357.82 160.362C360.244 156.258 363.042 151.687 364.908 141.24C368.078 153.739 363.788 163.067 361.549 169.596C360.205 173.519 359.368 176.491 358.912 178.244C363.216 178.387 365.922 178.599 368.596 178.93C371.336 172.451 375.928 167.51 383.282 167.171C383.282 173.45 377.776 177.68 373.886 179.687C380.653 180.699 395.036 180.975 395.036 180.975C395.036 180.975 401.284 174.819 401.284 165.119C398.673 167.543 396.993 168.196 391.957 169.783Z" fill="#FF1411"/>
<path d="M463.957 404.099C463.957 370.28 414.936 306.52 379.998 265.059C398.572 254.562 416.062 241.486 416.062 227.642C416.062 205.235 402.853 204.9 397 194.367C397 193.531 400.846 191.356 403.522 188.18C404.925 186.515 405.037 183.564 404.945 183.202C404.856 182.839 400.712 182.511 400.712 182.511C365.632 179.851 288.901 180.728 288.901 180.728C289.026 182.832 293.141 185.819 294.726 187.872C295.973 189.484 297.009 191.163 297.009 192.192C297.009 194.534 280.957 200.554 280.957 220.451C280.957 236.527 293.98 250.835 312.498 262.868C268.06 313.224 223.082 367.868 223.082 401.738C223.082 437.467 250.238 469.179 285.652 480.971C287.4 484.615 290.186 489.439 291.79 491.044H285.678V503.535H273.32L277.041 512.439H262.025L266.676 522.936H412.584L418.828 512.306H399.029L403.813 504.332H391.985V479.774C419.345 469.155 463.957 443.839 463.957 404.099Z" fill="#1C1C1B"/>
<path d="M316.478 190.652C336.692 186.904 360.887 187.132 376.89 189.73V193.92C349.994 191.489 325.276 192.997 317.399 195.093L316.478 190.652Z" fill="white"/>
<path d="M306.139 253.197C305.765 253.197 305.387 253.066 305.083 252.798C304.418 252.215 304.353 251.202 304.937 250.537C318.586 234.993 339.25 211.361 340.233 209.971C341.311 208.401 344.226 207.983 346.482 207.911C347.847 207.871 352.389 207.882 353.967 209.891C355.129 211.369 375.99 234.893 386.857 247.126C387.445 247.787 387.386 248.801 386.723 249.389C386.061 249.975 385.047 249.915 384.461 249.254C383.175 247.807 352.958 213.794 351.446 211.871C350.435 210.855 343.975 210.83 342.819 211.854C341.639 213.586 310.851 248.659 307.343 252.651C307.027 253.013 306.585 253.197 306.139 253.197Z" fill="white"/>
<path d="M306.564 486.233C287.334 486.233 247.134 473.32 224.752 449.973C213.996 438.754 208.815 426.649 209.348 414C211.771 356.693 274.495 289.258 298.107 263.872C301.16 260.59 303.572 257.997 305.107 256.229C318.871 240.376 338.24 218.642 340.098 216.669C341.256 215.439 343.662 214.644 346.226 214.644C349.044 214.644 351.58 215.564 353.367 217.233C357.618 221.211 357.855 225.912 354.035 230.47C350.352 234.864 312.956 280.24 312.579 280.697C312.168 281.188 271.771 329.387 257.002 349.695C241.211 371.406 231.783 395.458 231.783 414.033C231.783 433.698 264.162 483.049 306.594 484.632L306.564 486.233Z" fill="#E0E0DE"/>
<path d="M346.227 213.842C343.409 213.842 340.837 214.715 339.515 216.119C337.651 218.1 318.263 239.855 304.503 255.703C302.976 257.462 300.568 260.05 297.52 263.327C273.852 288.772 210.983 356.364 208.549 413.964C208.004 426.843 213.261 439.144 224.173 450.527C246.708 474.034 287.195 487.034 306.564 487.034L306.624 483.83C281.876 482.907 262.935 465.628 253.845 455.41C239.888 439.718 232.585 422.716 232.585 414.032C232.585 395.62 241.955 371.746 257.651 350.164C272.403 329.879 312.783 281.702 313.189 281.218C313.575 280.748 350.971 235.375 354.648 230.984C358.723 226.122 358.456 220.896 353.915 216.648C351.979 214.839 349.249 213.842 346.227 213.842ZM346.225 215.444C348.513 215.444 350.996 216.114 352.819 217.819C356.544 221.305 357.145 225.51 353.421 229.957C349.696 234.402 311.961 280.187 311.961 280.187C311.961 280.187 271.311 328.656 256.355 349.223C241.397 369.786 230.981 394.447 230.981 414.032C230.981 433.619 263.565 483.83 306.564 485.431C278.788 485.431 208.281 458.279 210.149 414.032C212.871 349.635 292.253 272.257 305.712 256.755C319.171 241.253 338.759 219.26 340.681 217.218C341.664 216.175 343.839 215.444 346.225 215.444Z" fill="#1C1C1B"/>
<path d="M350.595 225.593C350.595 228.33 348.376 230.549 345.638 230.549C342.9 230.549 340.682 228.33 340.682 225.593C340.682 222.856 342.9 220.636 345.638 220.636C348.376 220.636 350.595 222.856 350.595 225.593Z" fill="white"/>
<path d="M345.638 221.704C343.495 221.704 341.75 223.45 341.75 225.594C341.75 227.736 343.495 229.482 345.638 229.482C347.782 229.482 349.526 227.736 349.526 225.594C349.526 223.45 347.782 221.704 345.638 221.704ZM345.638 231.618C342.315 231.618 339.613 228.915 339.613 225.594C339.613 222.271 342.315 219.567 345.638 219.567C348.959 219.567 351.663 222.271 351.663 225.594C351.663 228.915 348.959 231.618 345.638 231.618Z" fill="#1C1C1B"/>
<path d="M372.964 484.659C377.656 483.392 382.242 482.078 386.597 480.752C411.958 471.464 454.852 445.267 454.852 405.947C453.314 374.442 430.704 346.592 417.194 329.955C414.849 327.066 412.824 324.571 411.241 322.462C410.742 321.791 361.472 255.584 347.946 242.25L347.365 241.676L362.256 227.158L362.812 227.8C363.494 228.592 431.29 306.988 439.573 317.386C448.597 328.714 475.821 377.676 475.821 404.579C475.821 420.52 470.768 433.227 459.918 444.568C445.813 459.315 421.996 471.647 387.105 482.272C382.148 484.086 377.381 485.451 373.322 486.219L372.964 484.659Z" fill="#E0E0DE"/>
<path d="M362.305 225.99L361.087 227.178L347.39 240.532L346.221 241.673L347.385 242.82C360.865 256.112 410.101 322.269 410.597 322.936C412.191 325.064 414.222 327.565 416.574 330.461C430.014 347.016 452.507 374.72 454.051 405.986C454.019 444.828 411.499 470.772 386.338 479.993C382.001 481.314 377.431 482.622 372.755 483.884L373.47 487.006C377.565 486.232 382.367 484.858 387.357 483.034C422.369 472.37 446.294 459.968 460.497 445.122C471.499 433.621 476.622 420.738 476.622 404.58C476.622 377.493 449.266 328.268 440.199 316.886C431.906 306.477 364.102 228.068 363.418 227.277L362.305 225.99ZM386.847 481.513C381.774 483.372 377.111 484.686 373.171 485.432C377.943 484.144 382.502 482.836 386.847 481.513ZM362.206 228.325C362.206 228.325 430.578 307.38 438.946 317.885C447.314 328.39 475.019 377.465 475.019 404.58C475.019 430.221 462.593 458.452 386.847 481.513C414.95 471.226 455.653 444.34 455.653 405.946C453.83 368.58 422.453 336.074 411.883 321.98C411.883 321.98 362.233 255.212 348.509 241.68L362.206 228.325Z" fill="#1C1C1B"/>
<path d="M441.6 401.865C440.96 401.482 440.335 401.277 439.614 401.065C435.584 399.893 431.879 398.05 428.003 396.494C425.9 395.649 423.794 394.813 421.683 393.981C420.63 393.565 419.574 393.151 418.519 392.739C418.059 392.559 415.999 391.418 415.595 391.601C414.928 391.901 414.562 392.411 414.319 393.331C414.168 393.907 414.271 394.657 414.248 395.262C414.204 396.486 414.16 397.711 414.115 398.935C414.119 399.045 414.132 399.155 414.132 399.265C414.132 402.478 414.526 405.042 415.81 407.763C416.023 408.087 416.24 408.413 416.446 408.735C416.53 408.87 416.54 409.001 416.511 409.115C416.546 409.175 416.572 409.234 416.607 409.295C416.955 409.893 416.03 410.429 415.684 409.835C415.343 409.245 415.046 408.671 414.771 408.103C413.687 406.429 412.575 404.759 411.596 403.029C410.551 401.181 410.316 399.401 409.971 397.331C409.183 392.603 405.839 389.743 401.768 387.801C396.735 385.685 391.431 384.757 386.052 385.063C385.998 385.627 385.906 386.199 385.836 386.778C385.195 391.999 385.003 397.346 387.268 402.226C387.47 402.659 387.142 403.101 386.666 403.01C383.632 402.441 382.518 397.753 382.206 395.221C381.598 390.294 383.595 384.117 380.556 379.791C376.836 377.949 373.142 375.891 369.22 374.713C369.104 374.829 368.942 374.893 368.735 374.833C366.368 374.129 363.976 373.546 361.552 373.079C360.878 372.95 361.164 371.922 361.836 372.05C361.815 371.726 362.084 371.363 362.503 371.45C363.038 371.571 363.574 371.693 364.111 371.814C364.186 371.666 364.33 371.559 364.556 371.582C366.414 371.771 368.204 372.154 369.926 372.715C372.2 373.458 374.336 374.523 376.335 375.909C380.114 378.011 384.283 379.294 388.382 380.683C390.992 381.567 393.602 382.455 396.214 383.337C398.715 384.182 401.491 385.267 404.022 384.546C404.19 384.402 404.368 384.265 404.543 384.135C405.011 383.411 405.51 382.711 406.048 382.046C406.628 381.143 407.219 380.243 407.971 379.47C409.883 377.503 412.578 376.335 415.104 375.39C418.411 374.153 421.88 373.434 425.348 372.817C426.976 372.526 429.578 371.511 430.638 373.203C430.738 373.323 430.83 373.455 430.906 373.615C431.016 373.849 430.995 374.226 430.714 374.346C427.302 375.814 423.718 376.307 420.096 376.999C416.668 377.654 411.874 378.747 409.63 381.815C409.494 382.498 409.616 383.21 409.968 383.879C410.118 383.963 410.183 384.097 410.188 384.242C410.371 384.514 410.59 384.778 410.85 385.025C412.679 386.775 415.264 387.563 417.634 388.263C417.852 388.327 417.962 388.486 417.992 388.661C424.434 389.226 430.915 389.303 437.4 388.854C437.999 388.813 438.13 389.799 437.542 389.903C436.008 390.174 434.208 390.286 432.867 391.133C431.643 391.906 430.36 392.766 429.168 393.618C429.087 393.675 428.999 393.749 428.996 393.849C428.992 393.974 429.123 394.055 429.236 394.109C433.564 396.139 438.195 396.875 441.587 400.585C441.606 400.605 441.61 400.625 441.624 400.645C441.795 400.746 441.968 400.839 442.139 400.943C442.73 401.295 442.191 402.219 441.6 401.865ZM297.079 373.887C292.422 373.79 288.138 374.233 284.02 375.157C283.992 375.163 283.968 375.17 283.939 375.174C283.07 375.371 282.204 375.581 281.348 375.821C279.994 376.199 278.479 377.441 277.35 378.261C275.887 379.326 274.198 380.685 273.196 382.221C272.122 383.867 271.916 386.315 271.151 388.151C270.531 389.641 270.703 391.051 270.571 392.646C270.343 395.397 269.268 398.073 267.53 400.218C266.826 401.086 264.232 402.647 263.087 401.741C262.258 401.083 262.72 399.27 263.038 398.461C263.279 397.846 263.722 397.337 264.144 396.829C265.64 395.03 266.304 392.669 267.15 390.487C267.714 389.03 267.716 385.942 266.45 384.823C265.328 383.831 264.079 384.411 262.932 384.933C261.184 385.726 259.436 386.507 257.747 387.421C256.614 388.033 255.492 388.837 254.306 389.335C253.427 389.703 252.552 389.929 251.678 390.358C248.62 391.861 245.586 393.13 242.22 393.711C241.779 393.787 241.338 393.863 240.896 393.941C241.508 392.731 243 392.335 244.126 391.579C245.638 390.563 247.439 390.001 249.088 389.23C250.362 388.637 252.847 388.023 253.638 386.749C254.234 385.789 253.312 384.607 252.412 384.259C251.776 384.014 249.244 384.345 249.198 383.47C249.182 383.174 249.515 382.977 249.81 382.951C250.31 382.911 251.047 382.659 251.518 382.737C255.13 383.337 258.18 383.335 261.211 382.703C264.179 380.998 267.154 379.294 270.216 377.746C273.343 376.166 276.436 374.926 279.568 373.989C278.858 374.201 277.379 372.806 276.907 372.351C275.48 370.979 274.234 369.545 272.556 368.445C270.567 367.138 268.639 366.851 266.412 366.345C265.222 366.075 264.071 365.603 262.87 365.338C262.238 365.199 259.955 364.421 259.406 364.739C260.995 363.814 263.052 363.294 264.835 363.499C268.308 363.897 271.491 364.895 274.395 366.889C277.5 369.018 280.018 371.831 283.688 372.957C287.97 372.049 292.371 371.653 297.079 371.75C298.454 371.779 298.455 373.915 297.079 373.887ZM447.686 395.542C446.2 388.113 443.89 384.975 432.662 362.191C421.435 339.407 378.344 284.429 372.731 274.027C367.118 263.626 356.551 265.442 347.304 279.806C343.343 263.295 327.163 266.927 322.706 274.193C318.412 279.971 285.723 323.558 274.166 333.959C262.608 344.359 251.356 359.625 235.862 399.503C240.651 398.513 243.952 398.513 247.915 401.65C251.878 404.786 260.958 414.858 281.595 416.013C302.232 417.17 321.219 411.887 325.016 410.07C328.814 408.254 342.6 411.557 342.6 411.557C342.6 411.557 350.442 416.013 378.179 417.335C405.915 418.655 419.29 415.849 426.223 412.217C433.158 408.585 442.899 405.778 449.338 404.621C449.338 404.621 449.172 402.971 447.686 395.542Z" fill="#00951D"/>
<path d="M344.819 434.676C344.819 434.676 292.822 435.086 285.247 434.676C277.672 434.266 258.43 430.172 249.627 422.393C240.824 414.613 238.572 410.11 237.344 406.426C236.116 402.741 240.006 399.874 244.304 403.969C248.603 408.062 260.272 416.01 276.444 417.666C292.618 419.322 321.686 417.704 338.882 418.412C356.078 419.117 389.755 421.778 401.782 421.778C413.807 421.778 432.847 415.842 439.806 411.542C446.767 407.245 450.247 412.381 448.199 418.412C446.152 424.44 427.319 435.04 405.414 434.858C383.511 434.676 344.819 434.676 344.819 434.676Z" fill="#FFF600"/>
<path d="M402.753 440.168H283.023C282.138 440.168 281.421 439.451 281.421 438.565C281.421 437.681 282.138 436.964 283.023 436.964H402.753C403.638 436.964 404.355 437.681 404.355 438.565C404.355 439.451 403.638 440.168 402.753 440.168Z" fill="#FFF600"/>
<path d="M389.034 466.501C387.468 466.621 387.77 468.487 386.386 469.871C385.002 471.255 378.2 472.88 378.2 474.567C378.2 476.251 385.002 477.876 386.386 479.26C387.77 480.644 387.468 482.511 389.034 482.631C390.598 482.752 392.524 478.419 392.524 474.567C392.524 470.713 390.598 466.38 389.034 466.501ZM369.775 502.732H389.876V491.779C389.876 489.251 380.487 477.147 369.775 477.147H352.803C352.803 480.223 356.292 484.075 360.506 485.037C364.719 486.001 369.052 490.333 369.655 494.187C370.256 498.037 369.775 502.732 369.775 502.732ZM306.823 478.537C306.823 479.501 307.304 480.464 310.434 480.344C313.563 480.223 328.488 484.797 334.146 489.612C339.803 494.425 341.688 495.029 348.508 502.732H362.914C364.358 501.047 364.238 495.631 363.515 494.788C358.459 492.38 347.266 481.668 344.738 477.576C343.294 476.612 309.832 477.576 308.507 477.576C307.183 477.576 306.823 478.537 306.823 478.537ZM316.332 500.807C323.794 500.807 328.97 500.807 335.951 495.029C333.784 494.065 326.322 489.973 319.582 486.844C312.84 483.713 308.387 484.315 303.814 481.908C299.239 479.501 299.84 469.871 304.295 468.187C308.748 466.501 330.054 456.872 332.22 454.945C334.387 453.02 338.238 444.956 317.896 444.956C297.555 444.956 292.138 460.243 292.138 475.168C292.138 490.696 308.868 500.807 316.332 500.807ZM292.98 454.945H293.943C293.943 454.945 293.823 453.26 294.304 451.816C294.786 450.372 300.082 445.316 302.851 444.473V443.149H296.591C295.267 444.593 294.786 448.447 290.332 449.048C289.782 452.617 290.934 454.224 292.98 454.945ZM291.416 501.648V493.464H292.379C294.063 495.991 302.248 500.565 305.258 500.807V501.648H291.416ZM378.922 471.557H393.006L389.876 476.733H285.758L378.922 471.557ZM370.135 480.705H410.219L406.246 485.399H275.046L370.135 480.705ZM406.124 436.409C407.45 436.409 440.911 437.373 442.355 436.409C444.883 432.317 456.076 421.605 461.132 419.197C461.855 418.355 461.975 412.937 460.531 411.253H446.126C439.306 418.956 437.42 419.559 431.763 424.373C426.106 429.188 411.18 433.763 408.051 433.641C404.922 433.521 404.44 434.484 404.44 435.447C404.44 435.447 404.8 436.409 406.124 436.409ZM467.392 411.253H389.876V457.353C389.876 459.881 380.487 471.984 369.775 471.984H352.803C352.803 468.909 356.292 465.057 360.506 464.093C364.719 463.132 369.052 458.799 369.655 454.945C370.256 451.093 369.775 446.4 369.775 446.4" fill="#FFF600"/>
<path d="M386.706 304.459C384.946 304.605 381.499 304.511 379.811 305.108C379.334 305.277 379.518 301.021 379.518 301.021L383.552 297.471H386.706C386.706 297.471 386.779 303.579 386.706 304.459ZM380.736 318.296C378.546 326.553 372.67 329.151 370.716 329.543C369.898 329.708 374.164 323.845 375.558 318.296C376.951 312.747 375.924 307.544 377.684 307.248C379.444 306.953 382.93 310.039 380.736 318.296ZM520.183 243.393C479.723 273.432 441.178 276.5 428.147 277.735C428.147 277.735 430.799 265.395 430.616 260.179C417.311 272.66 403.047 281.301 400.167 281.849C397.286 282.399 394.955 281.849 393.992 281.988C393.031 282.125 392.551 280.211 392.072 278.009C391.596 275.808 390.154 273.483 387.262 273.76C387.114 272.117 385.215 269.231 382.198 267.675C382.198 267.675 382.472 269.643 382.198 271.917C382.198 271.917 380.003 271.837 379.866 271.152C379.73 270.465 379.73 267.996 378.119 266.113C378.119 266.113 378.906 267.411 376.163 271.015C371.636 271.563 369.168 272.797 368.07 273.209C366.972 273.62 366.048 272.459 364.788 273.091C363.528 273.721 363.131 274.992 362.172 275.541C361.212 276.089 360.115 276.227 357.783 276.525C358.468 277.648 358.332 281.164 357.783 281.149C357.234 281.133 354.354 281.849 354.354 281.849C354.354 281.849 355.039 284.181 355.039 287.264C352.159 287.327 350.788 289.12 345.9 292.548C345.9 292.548 348.51 293.647 349.142 295.429C346.81 297.349 343.107 300.916 336.659 299.956C342.42 290.08 343.107 281.987 339.079 277.2C335.052 272.413 329.527 273.895 313.206 271.425C296.883 268.957 272.331 256.2 265.198 246.599C262.18 267.173 269.999 269.78 269.724 273.895C235.983 271.015 230.632 264.019 214.586 256.955C198.538 249.891 182.215 245.501 164.932 243.719C161.366 252.908 160.206 261.443 171.516 270.191C168.938 282.321 174.272 282.899 177.834 282.364C176.408 287.172 179.97 292.424 183.976 291C183.352 301.327 190.831 306.133 196.974 304.443C199.022 319.844 212.51 320.54 220.032 320.569C221.011 327.767 229.379 333.643 236.502 333.02C239.35 339.34 246.383 345.487 251.724 342.54C250.746 347.34 256.799 352.873 261.696 351.715C262.764 357.235 271.222 360.707 275.94 358.213C276.384 362.043 282.439 368.185 288.338 366.225C288.718 368.007 290.362 369.787 292.766 368.987C292.766 368.987 292.41 370.765 292.499 372.725C292.588 374.684 293.388 376.376 292.588 377.8C290.718 380.204 276.919 395.337 274.96 399.209C273.002 403.083 274.382 407.356 276.83 408.648C279.279 409.937 281.014 407.445 283.403 407.084C285.318 411.689 288.619 412.965 290.7 413.113C292.78 413.263 293.003 411.661 292.919 410.801C292.836 409.941 293.866 408.451 295.099 409.668C296.334 410.884 300.175 412.84 302.788 412.523C303.992 412.52 305.238 412.492 306.326 411.979C308.099 411.14 309.047 409.231 310.066 407.552C310.467 406.892 311.04 406.173 311.812 406.212C313.059 406.276 313.628 408.255 314.872 408.145C315.262 408.111 315.596 407.864 315.904 407.623C316.626 407.061 317.355 406.472 317.818 405.684C318.006 405.364 318.151 405.009 318.42 404.755C318.962 404.241 319.862 404.295 320.504 404.675C321.147 405.055 321.591 405.687 322.016 406.301C322.435 406.905 322.862 407.529 323.027 408.245C323.178 408.895 323.095 409.597 322.799 410.196C322.107 411.591 320.444 412.199 318.903 412.421C317.363 412.644 315.742 412.621 314.339 413.296C313.558 413.672 312.888 414.245 312.123 414.653C310.543 415.497 308.592 415.625 307.215 416.771C306.914 417.023 306.634 417.345 306.595 417.736C306.539 418.289 306.966 418.76 307.362 419.149C308.127 419.903 308.842 420.273 309.878 420.509C312.222 421.045 314.671 420.604 317.07 420.756C319.47 420.907 322.122 421.929 322.959 424.183C323.131 424.647 323.231 425.165 323.588 425.507C323.854 425.76 324.22 425.872 324.579 425.943C326.194 426.263 327.916 425.945 329.526 425.724C331.018 425.519 332.288 425.643 333.782 425.991C334.168 426.081 334.56 426.185 334.899 426.393C335.796 426.947 336.127 428.139 335.964 429.18C335.795 430.26 335.158 431.077 334.734 432.04C336.518 432.827 339.003 432.204 340.256 430.801C340.838 430.152 341.346 429.433 341.764 428.669C342.066 428.121 342.228 427.337 342.567 426.847C342.662 426.709 342.758 426.572 342.886 426.467C343.14 426.257 343.487 426.203 343.815 426.176C345.458 426.041 346.835 426.371 348.16 427.235C348.926 427.733 349.106 428.825 348.83 429.697C348.486 430.779 345.956 433.077 348.684 432.435C349.392 432.269 350.083 432.032 350.743 431.727C352.788 430.784 354.116 428.981 355.247 427.097C355.554 426.587 355.818 425.772 356.232 425.355C356.655 424.929 357.08 425.004 357.71 424.945C359.526 424.775 361.366 424.855 363.162 425.184C363.583 425.263 364.008 425.355 364.394 425.541C365.067 425.865 365.574 426.443 366.064 427.008C366.35 427.339 366.65 427.696 366.704 428.131C366.89 429.568 366.092 431.003 366.203 432.417C366.29 433.52 366.756 433.451 367.622 433.105C369.307 432.435 370.779 431.193 371.738 429.655C372.97 427.68 373.119 425.328 372.87 423.073C372.798 422.429 377.103 422.799 377.45 422.844C378.02 422.921 378.698 422.679 379.234 422.944C379.423 423.039 379.572 423.201 379.692 423.377C380.384 424.409 380.11 425.792 380.262 426.959C380.431 428.245 380.082 429.405 379.71 430.657C379.571 431.125 379.432 431.593 379.292 432.06C381.07 431.611 382.724 430.688 384.039 429.412C385.302 428.185 386.955 426.269 387.131 424.469C387.348 422.241 387.455 420.025 386.623 417.896C384.97 413.663 380.503 411.12 376.048 410.223C371.594 409.327 366.994 409.741 362.452 409.581C361.926 409.563 361.358 409.521 360.956 409.181C360.652 408.925 360.495 408.54 360.348 408.169L358.052 402.365C360.574 402.771 363.038 403.544 365.342 404.653C365.184 403.271 364.503 401.957 363.463 401.035C366.224 401.104 368.956 402.008 371.215 403.597C371.694 403.101 371.431 402.285 371.134 401.664C370.028 399.352 368.818 397.092 367.507 394.889C365.516 391.549 363.168 388.539 360.888 385.429C365.178 383.043 372.89 376.587 375.476 367.713C375.476 367.713 376.848 367.576 377.946 367.988C379.043 368.4 379.866 370.457 381.463 372.103C383.062 373.749 388.919 375.943 389.056 371.437C391.524 373.516 398.108 375.532 399.068 370.32C402.772 371.828 407.71 372.515 407.436 368.537C414.294 371.143 420.878 367.164 419.368 363.049C424.307 364.148 429.656 364.284 430.468 358.043C441.019 359.891 442.824 356.741 443.372 352.625C445.292 353.587 451.876 352.625 451.19 346.865C463.26 345.767 463.399 340.281 463.123 336.44C466.827 337.264 471.079 332.6 470.942 325.193C476.566 326.291 479.447 323.136 479.172 317.512C483.562 316.14 486.716 312.437 487.264 305.853C490.967 305.579 495.494 301.052 495.494 293.097C501.667 292.548 503.45 286.651 503.86 276.637C521.692 276.637 520.183 252.584 520.183 243.393Z" fill="#1C1C1B"/>
<path d="M327.749 401.336C326.448 401.248 325.799 402.985 324.82 403.58C324.284 403.904 323.639 403.991 323.069 404.253C322.5 404.517 321.972 405.084 322.097 405.697C322.187 406.131 322.565 406.431 322.893 406.728C324.231 407.931 325.051 409.591 325.839 411.207C326.251 412.055 326.641 413.141 326.035 413.864C325.725 414.232 325.232 414.384 324.76 414.48C321.777 415.089 318.64 414.155 315.661 414.776C314.86 414.943 314.037 415.252 313.533 415.897C313.029 416.543 312.985 417.596 313.621 418.112C314.249 418.62 315.164 418.411 315.953 418.245C318.34 417.747 320.86 417.905 323.165 418.7C324.257 419.077 325.404 419.705 325.759 420.807C325.917 421.3 325.916 421.881 326.281 422.252C326.451 422.423 326.679 422.524 326.907 422.603C328.656 423.213 330.584 422.832 332.427 423.039C333.595 423.171 334.735 423.544 335.753 424.129C336.577 424.601 337.595 425.221 338.384 424.693C338.891 424.353 339.033 423.667 339 423.057C338.937 421.955 338.421 420.883 337.596 420.147C336.719 419.364 335.561 418.984 334.441 418.627C333.227 418.237 332.015 417.849 330.801 417.46C330.033 417.215 329.155 416.857 328.947 416.079C328.704 415.169 329.639 414.289 330.579 414.223C331.517 414.157 332.397 414.644 333.204 415.131C335.201 416.336 337.155 417.647 338.817 419.285C339.917 420.369 340.885 421.592 342.055 422.603C343.224 423.613 344.66 424.421 346.205 424.453C346.801 424.465 347.416 424.355 347.912 424.023C348.82 423.413 349.132 422.141 348.819 421.092C348.508 420.043 347.681 419.209 346.741 418.647C345.803 418.085 344.747 417.756 343.708 417.408C339.989 416.156 336.253 414.491 333.659 411.548C331.857 409.505 330.711 406.953 329.984 404.328C329.676 403.219 329.189 401.432 327.749 401.336ZM344.748 393.117C347.951 396.651 350.841 400.468 353.375 404.508C354.284 405.957 355.149 407.437 356.197 408.789C356.507 409.187 356.837 409.579 357.259 409.852C357.816 410.215 358.488 410.345 359.141 410.469C360.455 410.716 361.783 410.965 363.116 410.884C363.977 410.832 364.829 410.643 365.693 410.604C370.624 410.385 374.669 414.995 379.601 415.219C380.388 415.255 381.473 415.44 381.464 416.228C381.46 416.487 381.316 416.721 381.176 416.939C380.811 417.501 380.408 418.081 379.805 418.372C379.311 418.612 378.744 418.628 378.195 418.639C376.411 418.675 374.544 418.693 372.944 417.901C371.528 417.201 370.432 415.919 368.94 415.403C368.021 415.085 367.027 415.087 366.053 415.092C364.769 415.099 363.487 415.107 362.203 415.113C362.504 415.112 363.959 416.445 364.364 416.657C365.219 417.101 366.103 417.473 366.929 417.969C367.601 418.372 368.307 418.511 368.721 419.16C369.235 419.968 369.435 421.233 369.261 422.16C369.22 422.376 369.155 422.593 369.02 422.767C368.211 423.804 365.224 423.057 364.057 423.207C362.436 423.417 360.535 423.244 359.064 422.424C358.584 422.159 358.423 421.724 357.993 421.423C357.505 421.081 356.752 421.053 356.187 420.94C355.056 420.712 354.125 420.205 353.193 419.592C352.151 418.905 350.963 419.107 349.916 418.533C349.115 418.093 348.748 417.075 348.899 416.173C349.049 415.272 349.635 414.492 350.337 413.909C350.828 413.501 351.407 413.144 351.677 412.567C352.124 411.613 351.561 410.519 351.015 409.62C348.489 405.477 345.643 401.064 341.105 399.355C340.352 399.071 339.416 398.684 339.384 397.879C339.364 397.361 339.759 396.929 340.127 396.563C341.193 395.499 342.261 394.436 343.329 393.372C343.517 393.185 343.632 392.852 343.869 392.737C344.108 392.621 344.571 392.92 344.748 393.117Z" fill="#FF1411"/>
<path d="M334.896 302.448C338.467 302.843 341.772 302.448 341.772 302.448C341.772 302.448 345.475 312.551 347.964 318.269C350.455 323.989 356.691 331.829 357.4 332.66C358.111 333.489 355.62 334.136 354.145 333.767C352.668 333.397 345.285 328.076 341.552 321.881C337.817 315.687 335.137 308.451 334.773 305.54C334.313 301.851 334.896 302.448 334.896 302.448Z" fill="#FF1411"/>
<path d="M391.396 294.813C393.229 295.947 394.356 296.002 396.164 294.925C399.091 293.182 398.073 293.858 396.535 292.39C394.993 290.921 394.333 290.697 391.693 289.695C389.997 289.239 389.031 289.59 388.907 290.03C388.539 291.298 389.563 293.678 391.396 294.813ZM390.3 284.802C390.743 284.562 391.687 284.377 392.129 284.334C394.108 284.138 395.573 283.893 396.868 285.002C398.408 286.322 399.615 288.763 399.688 290.597C399.54 291.477 396.984 290.458 394.639 289.211C392.291 287.965 392.207 287.149 391.18 286.563C390.152 285.977 389.624 285.17 390.3 284.802Z" fill="#FF1411"/>
<path d="M308.83 344.986C307.817 345.547 306.835 346.393 306.65 347.535C306.515 348.366 306.837 349.223 307.361 349.882C307.886 350.541 308.595 351.026 309.322 351.45C309.657 351.643 309.999 351.829 310.371 351.933C311.777 352.327 313.259 351.483 314.219 350.385C314.861 349.651 315.513 348.927 316.081 348.135C316.414 347.674 316.714 347.193 316.966 346.681C317.221 346.165 317.21 345.642 317.407 345.107C317.537 344.753 317.761 344.395 317.671 344.03C317.602 343.743 317.346 343.533 317.069 343.435C316.791 343.337 316.49 343.333 316.195 343.33C313.614 343.307 311.121 343.718 308.83 344.986ZM301.369 345.359C301.985 345.602 302.667 345.615 303.326 345.549C304.429 345.438 305.51 345.113 306.49 344.595C307.441 344.093 308.293 343.415 309.258 342.943C310.247 342.457 311.338 342.195 312.318 341.689C312.798 341.441 313.311 340.99 313.186 340.463C313.101 340.102 312.745 339.882 312.413 339.715C309.753 338.386 305.913 337.654 303.279 339.437C301.673 340.525 298.174 344.097 301.369 345.359ZM297.406 333.323C295.87 333.299 294.318 333.238 292.791 333.433C291.785 333.561 289.425 333.699 288.979 334.719C288.745 335.257 288.793 335.869 288.845 336.451C288.942 337.546 289.075 338.726 289.817 339.537C290.489 340.27 291.53 340.542 292.523 340.61C296.625 340.887 300.845 339.97 303.605 336.683C303.883 336.353 304.157 335.939 304.051 335.521C303.969 335.186 303.666 334.957 303.373 334.774C301.586 333.669 299.473 333.354 297.406 333.323ZM279.566 329.643C279.633 330.153 279.746 330.675 280.053 331.087C281.901 333.567 286.971 332.473 289.477 332.047C290.477 331.878 291.481 331.686 292.433 331.331C293.649 330.878 294.763 330.158 295.678 329.238C296.469 328.442 297.141 327.306 296.781 326.243C292.631 324.437 287.863 324.938 283.419 325.801C281.462 326.181 279.274 327.435 279.566 329.643ZM272.65 318.793C271.445 320.275 272.261 322.913 273.566 324.038C275.045 325.313 277.221 325.422 279.131 325.015C281.042 324.609 282.837 323.763 284.742 323.337C286.527 322.938 288.499 322.866 289.926 321.719C290.154 321.537 290.379 321.287 290.354 320.995C290.329 320.717 290.085 320.515 289.861 320.349C287.787 318.797 285.587 317.193 283.019 316.863C281.597 316.681 280.158 316.905 278.742 317.129C277.043 317.398 273.869 317.291 272.65 318.793ZM270.906 307.245C269.466 307.371 267.535 307.342 266.383 308.381C265.257 309.398 265.234 311.289 265.663 312.641C266.706 315.935 271.462 315.958 274.247 315.871C275.394 315.835 276.535 315.709 277.677 315.581C280.219 315.298 282.974 314.635 285.509 314.993C285.883 315.046 286.297 315.087 286.611 314.879C286.802 314.754 286.931 314.549 287.002 314.333C287.35 313.27 286.421 312.251 285.577 311.519C283.362 309.599 280.994 307.629 278.118 307.066C275.765 306.605 273.267 307.039 270.906 307.245ZM259.339 299.667C257.511 299.855 255.854 299.873 254.058 299.93C253.954 299.933 253.839 299.945 253.77 300.019C253.71 300.083 253.698 300.175 253.691 300.262C253.622 301.374 254.303 302.426 255.195 303.094C256.805 304.301 259.145 305.211 261.09 305.663C265.635 306.723 270.338 304.569 274.994 304.879C275.585 304.919 276.185 304.997 276.761 304.867C277.338 304.737 277.901 304.339 278.023 303.761C278.222 302.827 277.261 302.085 276.399 301.671C272.922 300.001 269.015 299.385 265.158 299.354C263.214 299.339 261.273 299.469 259.339 299.667ZM241.501 289.863C242.483 293.431 247.545 296.325 250.841 297.057C254.789 297.931 258.883 296.983 262.925 296.861C264.723 296.806 266.527 296.917 268.306 297.19C269.245 297.334 270.191 297.525 271.135 297.43C272.079 297.337 273.047 296.903 273.521 296.082C274.177 294.946 273.663 293.423 272.697 292.535C271.73 291.649 270.425 291.25 269.163 290.893C265.793 289.941 262.381 289.103 258.906 288.667C255.287 288.214 251.63 288.199 247.983 288.183C246.769 288.179 242.833 287.378 241.719 288.561C241.441 288.857 241.339 289.275 241.501 289.863ZM294.75 359.725C294.213 360.851 292.033 365.745 294.882 365.162C295.386 365.058 295.837 364.783 296.254 364.483C297.837 363.347 299.081 361.809 300.495 360.469C303.461 357.662 306.841 357.569 310.659 356.918C311.011 356.858 311.386 356.771 311.631 356.51C311.977 356.137 311.93 355.519 311.649 355.097C311.366 354.674 310.906 354.406 310.449 354.185C306.778 352.405 302.174 352.727 298.786 354.998C297.042 356.167 295.651 357.833 294.75 359.725ZM281.698 355.457C280.147 356.695 281.107 359.937 281.45 361.653C281.655 362.678 282.067 363.853 283.07 364.151C283.59 364.306 284.155 364.174 284.658 363.963C286.557 363.173 287.825 361.402 289.202 359.871C291.673 357.126 294.781 354.961 298.211 353.593C299.134 353.225 300.089 352.909 300.927 352.373C301.765 351.838 302.491 351.037 302.677 350.061C299.629 348.925 296.197 348.85 293.105 349.855C291.607 350.342 290.199 351.067 288.801 351.789C286.589 352.929 283.638 353.906 281.698 355.457ZM268.026 354.098C269.777 355.807 274.046 355.239 276.141 354.689C277.818 354.247 279.353 353.398 280.869 352.555C284.059 350.782 287.251 349.01 290.443 347.235C291.141 346.847 291.93 346.315 291.938 345.518C291.943 344.911 291.453 344.39 290.887 344.17C290.323 343.95 289.697 343.967 289.091 343.999C285.069 344.201 281.066 344.793 277.157 345.763C274.769 346.357 272.365 347.117 270.381 348.573C268.926 349.639 266.179 352.294 268.026 354.098ZM258.217 348.642C261.153 350.279 265.735 348.381 268.409 347.081C271.307 345.671 274.033 343.881 277.069 342.798C279.478 341.941 282.023 341.55 284.523 341.005C284.963 340.909 285.443 340.782 285.707 340.415C286.025 339.971 285.89 339.322 285.542 338.901C285.193 338.479 284.682 338.234 284.185 338.006C281.229 336.641 278.165 335.379 274.93 335.013C269.662 334.415 264.359 336.257 259.854 339.049C259.069 339.535 258.293 340.059 257.674 340.745C255.895 342.718 255.579 347.173 258.217 348.642ZM242.722 337.875C243.381 339.754 244.849 339.719 246.607 339.059C247.741 338.634 248.775 337.989 249.879 337.495C251.771 336.65 253.831 336.266 255.785 335.577C258.449 334.637 260.931 333.122 263.715 332.643C266.133 332.227 268.605 332.623 271.055 332.711C271.838 332.739 272.782 332.646 273.139 331.95C273.469 331.313 273.099 330.545 272.685 329.959C268.365 323.87 260.457 324.742 254.055 326.179C251.825 326.681 249.425 327.467 247.303 328.351C245.497 329.105 243.683 330.17 242.785 331.911C241.855 333.713 242.069 336.013 242.722 337.875ZM227.382 324.209C228.81 326.805 231.762 328.713 234.685 328.99C237.313 329.238 239.914 328.326 242.301 327.195C244.687 326.066 246.982 324.697 249.51 323.934C254.027 322.571 258.867 323.253 263.573 323.621C264.193 323.67 264.918 323.67 265.311 323.187C265.926 322.43 265.167 321.345 264.418 320.719C257.346 314.815 247.454 313.237 238.309 314.37C235.514 314.715 232.666 315.325 230.329 316.895C228.182 318.337 225.95 321.606 227.382 324.209ZM222.866 302.254C218.225 302.103 213.401 301.55 208.767 301.819C205.554 302.005 204.171 305.905 204.83 308.734C205.399 311.175 207.422 313.094 209.731 314.065C212.042 315.037 214.615 315.181 217.119 315.078C222.334 314.866 227.506 313.627 232.251 311.457C233.001 311.114 233.745 310.746 234.541 310.535C235.405 310.305 236.306 310.266 237.199 310.229C242.891 309.989 248.835 309.795 254.009 312.182C254.741 312.519 255.581 312.911 256.311 312.571C255.707 308.491 252.579 304.895 248.622 303.733C247.178 303.307 245.663 303.187 244.163 303.087C239.85 302.801 235.527 302.662 231.207 302.522C228.426 302.433 225.646 302.343 222.866 302.254ZM217.665 289.357C219.559 290.398 221.415 291.566 223.49 292.177C225.839 292.869 228.333 292.809 230.779 292.923C232.929 293.025 235.073 293.265 237.191 293.645C238.977 293.963 240.782 294.395 242.322 295.354C243.861 296.314 245.111 297.889 245.274 299.695C245.29 299.87 245.29 300.063 245.175 300.197C245.025 300.374 244.75 300.359 244.519 300.327C243.081 300.131 241.655 299.85 240.223 299.607C235.163 298.747 230.022 298.367 224.889 298.47C220.517 298.558 216.143 298.997 211.777 298.762C209.233 298.625 206.683 298.259 204.15 298.523C201.553 298.795 199.015 299.729 196.406 299.601C194.746 299.601 193.034 298.969 191.527 298.351C191.105 298.178 190.674 298.001 190.317 297.715C189.866 297.355 189.561 296.85 189.266 296.357C188.327 294.787 187.455 292.635 187.303 290.799C187.186 289.381 187.39 287.97 187.487 286.557C187.549 285.654 187.325 284.354 187.894 283.571C188.989 282.066 192.318 282.65 193.871 282.715C199.207 282.941 204.507 283.965 209.547 285.734C212.346 286.715 215.065 287.926 217.665 289.357Z" fill="#FFF600"/>
<path d="M376.401 362.392C376.036 363.017 375.758 363.767 375.977 364.459C376.197 365.152 376.861 365.609 377.53 365.897C378.2 366.187 378.924 366.367 379.525 366.777C380.654 367.548 381.137 368.961 382.04 369.988C382.256 370.233 382.498 370.46 382.788 370.611C383.662 371.065 384.814 370.697 385.426 369.925C386.04 369.153 386.169 368.083 385.973 367.117C385.776 366.151 385.289 365.272 384.762 364.44C383.837 362.976 382.488 360.559 380.876 359.756C379.101 358.873 377.206 361.023 376.401 362.392ZM385.461 358.887C384.874 358.94 384.22 359.093 383.924 359.6C383.574 360.195 383.897 360.957 384.322 361.499C385.553 363.06 387.645 363.967 388.349 365.827C388.657 366.644 388.661 367.579 389.118 368.323C389.781 369.4 391.166 369.749 392.422 369.896C393.112 369.976 393.862 370.013 394.446 369.637C395.041 369.255 395.326 368.511 395.325 367.804C395.324 367.096 395.077 366.415 394.805 365.761C393.982 363.789 392.808 361.095 391.033 359.787C389.672 358.781 387.045 358.743 385.461 358.887ZM393.926 361.232C394.462 361.764 395.15 362.125 395.672 362.671C396.99 364.051 397.056 366.384 398.577 367.539C399.376 368.145 400.453 368.296 401.444 368.139C402.422 367.983 403.43 367.464 403.785 366.539C404.645 364.289 401.853 359.583 399.641 358.728C398.113 358.139 391.456 358.783 393.926 361.232ZM403.728 357.704C403.458 357.972 403.2 358.272 403.098 358.64C402.892 359.404 403.442 360.18 404.096 360.627C404.75 361.073 405.528 361.325 406.145 361.82C407.392 362.82 407.757 364.6 408.916 365.703C410.089 366.819 412.04 367.007 413.404 366.135C414.768 365.26 415.416 363.412 414.894 361.879C414.593 360.985 413.96 360.251 413.342 359.537C412.549 358.623 411.749 357.7 410.778 356.976C408.31 355.132 405.857 355.596 403.728 357.704ZM411.806 353.256C411.353 353.715 410.868 354.259 410.913 354.901C410.965 355.629 411.664 356.113 412.29 356.487C413.342 357.113 414.394 357.74 415.446 358.367C416.1 358.755 416.756 359.145 417.444 359.468C418.309 359.871 419.22 360.164 420.128 360.456C421.085 360.761 422.132 361.068 423.069 360.709C424.437 360.187 424.95 358.38 424.481 356.993C424.012 355.605 422.833 354.584 421.62 353.761C420.04 352.693 418.106 351.559 416.242 351.072C414.428 350.599 412.986 352.06 411.806 353.256ZM396.082 343.719C395.672 344.031 395.253 344.453 395.285 344.968C395.32 345.543 395.893 345.92 396.42 346.152C398.612 347.123 401.18 347.324 403.062 348.808C404.097 349.625 404.837 350.772 405.885 351.575C406.932 352.376 408.537 352.744 409.517 351.861C410.026 351.404 410.254 350.7 410.304 350.017C410.433 348.264 409.514 346.551 408.202 345.381C406.889 344.211 405.224 343.516 403.542 342.999C402.376 342.639 400.874 342.048 399.644 342.091C398.429 342.132 397.017 343.008 396.082 343.719ZM402.321 340.833C402.252 340.895 402.177 340.96 402.148 341.048C402.058 341.301 402.357 341.509 402.604 341.615C405.462 342.817 408.33 344.027 411.328 344.821C412.442 345.117 413.624 345.356 414.738 345.063C415.853 344.768 416.868 343.791 416.83 342.639C416.79 341.315 415.5 340.416 414.314 339.828C412.502 338.932 410.089 337.649 408.065 337.371C405.856 337.067 403.822 339.541 402.321 340.833ZM420.326 349.753C420.472 350.111 420.833 350.324 421.174 350.507C425.469 352.809 430.126 354.433 434.922 355.301C436.188 355.529 437.706 355.62 438.538 354.639C438.953 354.145 439.094 353.483 439.208 352.848C439.376 351.913 439.478 350.828 438.836 350.128C438.192 349.421 437.105 349.431 436.152 349.371C432.953 349.172 429.096 347.763 426.409 346.017C425.052 345.136 422.174 342.299 421.308 345.455C421.05 346.385 421.42 347.092 420.937 348.009C420.638 348.579 420.093 349.051 420.326 349.753ZM434.057 333.416C433.738 333.727 433.398 334.123 433.486 334.559C433.602 335.131 434.324 335.296 434.901 335.387C438.713 335.981 442.017 338.399 445.777 339.264C447.556 339.673 449.432 339.735 451.109 340.456C452.206 340.929 453.25 341.688 454.444 341.675C456.028 341.657 457.233 340.315 458.225 339.083C458.492 338.752 458.766 338.403 458.849 337.987C458.91 337.672 458.856 337.344 458.753 337.04C458.322 335.781 457.108 334.929 455.838 334.536C454.568 334.143 453.217 334.123 451.893 334.004C449.457 333.788 447.052 333.225 444.772 332.339C442.966 331.637 440.57 329.937 438.57 330.097C436.869 330.233 435.192 332.312 434.057 333.416ZM424.073 340.397C423.606 340.656 423.093 341.103 423.237 341.615C423.338 341.972 423.716 342.163 424.056 342.309C427.096 343.635 430.152 344.964 433.373 345.752C434.706 346.077 436.062 346.308 437.389 346.661C439.641 347.26 441.849 348.215 444.178 348.205C444.817 348.203 445.473 348.123 446.034 347.817C446.596 347.513 447.048 346.952 447.082 346.313C447.109 345.829 446.9 345.364 446.832 344.884C446.765 344.42 446.83 343.932 446.67 343.491C446.344 342.587 445.262 342.255 444.321 342.057C443.066 341.792 441.808 341.549 440.542 341.331C439.566 341.161 438.585 341.005 437.63 340.735C436.818 340.505 436.036 340.197 435.252 339.888C434.036 339.407 432.818 338.927 431.6 338.447C430.676 338.083 429.333 337.225 428.317 337.288C427.49 337.34 427.121 337.988 426.624 338.559C425.889 339.401 425.04 339.86 424.073 340.397ZM412.016 335.625C411.93 335.753 411.857 335.901 411.873 336.055C411.9 336.293 412.136 336.452 412.365 336.528C413.59 336.929 414.944 335.877 416.17 336.28C417.176 336.609 417.63 337.744 418.37 338.501C419.657 339.82 422.044 339.82 423.332 338.501C423.694 338.131 423.97 337.681 424.336 337.313C425.074 336.569 426.244 336.02 426.29 334.973C426.321 334.297 425.816 333.696 425.221 333.371C424.628 333.045 423.946 332.928 423.296 332.741C421.75 332.297 420.352 331.451 418.853 330.865C417.489 330.335 415.228 329.6 414.466 331.311C414.113 332.105 414.26 332.995 413.777 333.753C413.314 334.481 412.488 334.899 412.016 335.625ZM421.714 330.572C423.354 331.064 425.14 331.003 426.725 331.645C427.685 332.036 428.593 332.688 429.628 332.673C430.333 332.665 430.997 332.341 431.592 331.959C432.473 331.392 433.324 330.547 433.328 329.499C433.334 328.115 431.925 327.197 430.653 326.651C428.762 325.837 424.613 323.839 422.538 324.955C421.494 325.516 421.428 326.977 420.78 327.868C419.888 329.096 420.101 330.088 421.714 330.572ZM429.402 318.935C428.602 318.828 427.538 318.216 426.789 318.305C425.498 318.459 424.114 321.659 425.152 322.593C425.42 322.836 425.786 322.921 426.134 323.02C427.904 323.516 429.501 324.491 431.237 325.095C432.973 325.699 435.018 325.888 436.55 324.875C436.897 324.645 437.206 324.363 437.57 324.163C438.132 323.853 438.798 323.753 439.324 323.388C440.366 322.663 440.413 320.892 439.412 320.112C438.866 319.688 438.145 319.569 437.454 319.54C435.988 319.54 434.505 319.465 433.025 319.337C431.812 319.233 430.598 319.095 429.402 318.935ZM428.268 312.92C428.096 313.567 427.478 313.971 427.01 314.449C426.542 314.928 426.216 315.745 426.676 316.231C426.916 316.484 427.286 316.551 427.632 316.6C432.35 317.287 437.121 317.619 441.889 317.593C442.88 317.588 443.897 317.561 444.813 317.184C446.154 316.631 447.085 315.409 447.948 314.241C448.612 313.343 449.314 312.269 449.024 311.189C448.966 310.977 448.866 310.769 448.694 310.633C448.44 310.431 448.086 310.427 447.762 310.431C443.87 310.481 439.978 310.532 436.085 310.584C434.176 310.608 432.266 310.627 430.357 310.659C429.856 310.667 428.966 310.533 428.557 310.929C428.038 311.432 428.43 312.305 428.268 312.92ZM458.493 322.956C456.668 322.929 454.84 322.876 453.013 322.876C450.818 322.845 447.229 322.071 445.32 323.411C444.386 324.065 444.284 325.12 443.113 325.556C442.101 325.931 440.672 325.837 440.037 326.879C439.856 327.175 439.79 327.576 439.986 327.863C440.174 328.137 440.534 328.227 440.861 328.287C444.976 329.048 449.209 328.673 453.376 329.053C454.096 329.119 454.818 329.208 455.497 329.449C457.193 330.049 458.66 331.577 460.448 331.38C462.256 331.18 464.017 330.525 464.626 328.652C465.09 327.225 464.916 324.24 463.448 323.403C463.088 323.197 462.67 323.071 462.226 322.996C461.009 322.791 459.578 322.972 458.493 322.956ZM446.566 320.603C446.93 320.875 447.421 320.889 447.874 320.888C455.132 320.885 462.394 320.144 469.633 320.664C470.518 320.727 471.489 320.787 472.209 320.265C472.557 320.013 472.805 319.651 473.045 319.295L473.706 318.32C474.084 317.763 474.469 317.187 474.604 316.528C474.74 315.868 474.561 315.097 474.002 314.723C473.625 314.468 473.145 314.433 472.69 314.408C468.14 314.156 463.58 314.049 459.022 314.088C456.721 314.108 454.412 314.132 452.113 314.257C450.098 314.368 450.637 315.373 449.758 316.836C448.902 318.26 447.14 318.976 446.566 320.603ZM472.652 303.455C470.96 303.341 469.269 303.615 467.596 303.887C466.12 304.127 464.644 304.367 463.168 304.607C462.33 304.743 461.454 304.895 460.788 305.42C460.34 305.775 460.028 306.268 459.724 306.753C459.01 307.893 458.305 309.039 457.606 310.189C457.522 310.329 457.434 310.481 457.452 310.643C457.493 311.041 458.044 311.103 458.441 311.053C462.508 310.559 466.62 310.432 470.708 310.679C473.065 310.82 475.47 311.081 477.76 310.5C480.048 309.917 482.245 308.264 482.678 305.944C483.048 303.968 480.309 304.46 479.174 304.441C476.965 304.407 474.85 303.601 472.652 303.455ZM452.818 302.949C449.265 302.996 445.713 303.041 442.16 303.088C440.057 303.115 438.013 302.435 436.228 303.548C434.89 304.383 433.91 305.769 433.568 307.308C440.054 307.167 446.542 307.129 453.032 307.199C453.517 307.204 454.18 307.156 454.55 306.791C455.117 306.232 455.449 304.805 455.258 304.053C455.018 303.116 453.784 302.937 452.818 302.949ZM438.373 300.311C438.832 302.415 448.866 300.524 450.469 300.587C451.985 300.648 453.514 300.797 455.009 300.536C456.502 300.276 457.996 299.529 458.752 298.215C459.506 296.899 459.262 294.972 457.972 294.176C457.27 293.745 456.409 293.696 455.588 293.671C452.149 293.567 448.702 293.683 445.276 294.016C444.564 294.085 443.83 294.169 443.202 294.512C442.712 294.777 442.316 295.181 441.933 295.587C440.6 297.005 439.3 298.596 438.373 300.311ZM463.858 297.3C462.933 299.199 462.374 301.301 465.066 301.32C467.706 301.337 470.376 300.947 473.029 300.947C475.512 300.944 477.994 301 480.476 301.116C482.276 301.2 484.105 301.313 485.86 300.895C487.612 300.476 489.314 299.433 490.056 297.789C490.466 296.881 490.466 295.631 489.64 295.073C489.21 294.784 488.664 294.753 488.148 294.733C481.206 294.468 474.254 294.571 467.324 295.039C465.857 295.139 464.505 295.968 463.858 297.3ZM465.186 288.764C464.88 291.175 468.552 291.541 470.153 291.531C472.66 291.515 475.166 291.499 477.673 291.481C482.564 291.449 487.488 291.415 492.29 290.488C492.804 290.389 493.325 290.276 493.77 290.003C494.226 289.723 494.569 289.295 494.901 288.875C495.514 288.101 496.128 287.327 496.741 286.553C497.478 285.623 498.232 284.66 498.553 283.517C498.874 282.375 498.654 280.996 497.714 280.272C496.794 279.564 495.509 279.668 494.36 279.825C488.309 280.648 482.326 281.987 476.502 283.82C474.792 284.36 473.096 284.94 471.398 285.521C469.808 286.067 465.457 286.645 465.186 288.764ZM443.75 287.691C443.084 287.119 442.029 286.569 442.261 285.723C442.361 285.36 442.69 285.111 443.017 284.923C443.969 284.376 445.053 284.115 446.124 283.872C450.714 282.835 455.358 282.031 460.03 281.468C461.162 281.331 462.652 281.424 462.986 282.516C463.089 282.847 463.046 283.203 462.981 283.543C462.545 285.747 460.997 287.7 458.952 288.628C457.838 289.132 456.618 289.34 455.414 289.544L449.617 290.523C448.518 290.708 446.373 291.432 445.358 290.716C444.4 290.04 444.701 288.504 443.75 287.691Z" fill="#FFF600"/>
<path d="M437.69 290.745C437.53 294.553 437.475 298.632 432.463 298.178C430.738 298.021 429.007 297.74 427.285 297.672C425.593 297.605 422.695 298.305 421.141 297.685C423.446 298.606 425.753 299.526 428.058 300.446C428.853 300.764 429.763 301.22 429.891 302.066C429.998 302.765 429.473 303.437 428.83 303.734C428.189 304.03 427.455 304.04 426.749 304.041C424.586 304.049 422.227 304.329 420.11 303.87C418.063 303.428 416.327 303.346 414.203 303.702C413.474 303.825 411.591 304.336 412.242 305.369C412.638 305.998 415.542 305.697 416.229 305.772C418.379 306.005 420.573 306.186 422.677 306.705C423.163 306.824 423.653 306.961 424.082 307.218C425.643 308.158 427.123 310.424 425.131 311.764C424.369 312.274 423.421 312.406 422.506 312.49C419.965 312.726 417.401 312.712 414.862 312.446C414.898 313.781 416.726 314.042 418.053 314.197C419.659 314.384 421.206 315.042 422.453 316.068C423.07 316.574 423.658 317.392 423.309 318.109C423.039 318.661 422.353 318.844 421.746 318.941C417.239 319.67 412.533 319.12 408.317 317.369C408.041 317.254 407.722 317.134 407.453 317.265C406.787 317.585 407.417 318.584 408.066 318.936C409.839 319.89 411.779 320.496 413.574 321.408C415.37 322.318 417.079 323.624 417.867 325.476C416.423 327.25 413.767 327.436 411.519 327.008C409.273 326.58 407.067 325.685 404.783 325.83C405.014 328.109 408.762 328.522 409.227 330.766C409.543 332.284 407.979 333.665 406.434 333.768C404.886 333.869 403.433 333.096 402.078 332.341C400.723 331.588 399.275 330.805 397.727 330.89C397.602 332.298 398.505 333.557 399.162 334.809C399.818 336.061 400.19 337.761 399.194 338.765C397.946 340.022 395.833 339.101 394.349 338.134C392.487 336.92 390.625 335.706 388.763 334.492C389.134 336.194 390.686 337.324 391.985 338.486C393.282 339.648 394.503 341.358 393.933 343.005C392.177 342.321 390.422 341.637 388.666 340.953C392.714 344.328 396.441 348.085 399.778 352.161C400.085 352.534 400.405 352.97 400.343 353.448C400.269 354.03 399.626 354.4 399.041 354.382C398.454 354.364 397.921 354.06 397.417 353.76C392.783 350.997 388.43 347.77 384.441 344.14C383.886 343.634 383.294 343.1 382.555 342.97C381.817 342.84 380.921 343.329 380.925 344.08C380.93 344.996 382.115 345.576 382.547 346.293C383.167 347.325 383.033 347.89 384.179 348.702C386.065 350.038 388.378 350.642 390.137 352.186C390.351 352.956 389.349 353.54 388.553 353.465C387.757 353.39 386.983 352.985 386.194 353.116C384.861 353.34 384.262 354.885 383.238 355.769C382.129 356.726 380.37 356.836 379.15 356.022C377.783 355.11 377.273 353.38 376.861 351.79C376.147 349.05 375.435 346.309 374.722 343.568C373.407 347.762 374.829 352.258 375.113 356.644C375.839 367.83 368.922 376.496 359.939 382.21C353.833 386.093 347.403 389.464 340.738 392.276C338.214 393.341 335.994 394.938 333.437 395.864C332.739 394.817 333.611 393.384 334.201 392.489C336.089 389.609 338.238 386.856 340.241 384.048C340.77 383.305 341.315 382.521 341.426 381.616C341.639 379.857 339.991 379.04 338.535 379.665C337.377 380.164 336.491 381.265 335.627 382.144C334.063 383.737 332.885 385.666 331.823 387.616C330.507 390.033 329.325 392.554 327.621 394.732C326.439 396.241 325.974 398.513 323.567 398.033C322.925 397.905 322.342 397.577 321.773 397.254C321.039 396.837 320.305 396.421 319.571 396.005C318.297 395.281 316.821 394.536 315.431 394.998C316.221 398.082 315.775 401.226 315.501 404.346C312.742 403.398 312.994 399.15 310.765 397.268C310.483 397.029 310.106 396.826 309.757 396.946C309.353 397.086 309.205 397.569 309.102 397.985C308.239 401.492 306.711 404.833 304.622 407.778C304.118 408.49 303.539 409.21 302.725 409.517C301.647 409.924 300.374 409.47 299.603 408.614C298.831 407.761 298.505 406.581 298.459 405.432C298.305 401.596 300.898 398.277 302.401 394.744C303.766 391.536 304.743 387.462 308.061 386.388C307.982 387.778 308.169 389.184 308.607 390.505L317.555 378.724C315.154 380 312.649 381.082 310.074 381.956C309.871 380.381 309.67 378.805 309.469 377.229C304.307 382.482 300.741 388.496 297.974 395.278C296.795 398.169 296.169 401.472 294.725 404.221C293.893 405.804 290.414 409.613 289.359 406.278C288.694 404.173 288.029 401.949 288.493 399.789C288.726 398.698 289.238 397.689 289.762 396.704C291.545 393.346 293.597 390.134 295.863 387.085C296.975 385.589 298.143 384.137 299.35 382.717C300.421 381.457 301.186 380 302.262 378.712C304.403 376.148 306.686 373.702 309.098 371.39C310.303 370.236 311.542 369.113 312.81 368.028C313.942 367.057 315.214 365.672 316.547 364.998C311.526 367.536 305.697 370.12 300.493 367.986C300.514 363.93 304.629 361.026 308.603 360.217C312.577 359.405 316.743 359.938 320.697 359.032C324.271 358.213 329.642 355.13 327.965 350.738C325.606 352.829 323.026 354.262 319.89 354.833C319.318 354.938 318.693 355.004 318.181 354.726C317.099 354.141 317.253 352.504 317.87 351.44C320.198 347.433 325.957 347.025 330.023 345.84C330.982 345.561 332.045 345.164 332.77 344.525C332.815 344.48 332.853 344.44 332.894 344.398C332.991 344.304 333.086 344.208 333.167 344.102C333.175 344.093 333.183 344.084 333.19 344.074C333.346 343.866 333.45 343.628 333.529 343.376C333.526 342.8 332.611 342.514 332.07 341.344C331.27 339.608 329.801 341.61 328.398 343.329C326.995 345.049 323.523 344.749 322.455 343.613C321.387 342.478 320.987 340.209 322.79 339.073C324.593 337.938 326.729 336.336 327.063 335.601C327.397 334.866 325.927 333.465 323.991 336.269C322.055 339.073 316.446 341.41 314.71 338.38C312.974 335.349 316.514 332.464 318.65 331.541C320.786 330.62 321.721 331.128 322.389 329.926C323.057 328.724 321.053 328.257 320.253 328.258C319.451 328.26 318.983 328.924 317.691 329.858C316.399 330.794 312.841 333.865 309.502 334.225C306.163 334.585 304.294 332.864 304.075 331.929C303.855 330.994 304.429 329.192 305.963 328.258C307.499 327.326 312.507 327.256 315.045 326.386C317.581 325.52 317.382 324.25 317.382 323.316C317.382 322.381 316.579 322.114 314.443 322.914C312.306 323.717 309.635 325.653 306.298 326.588C302.959 327.522 299.287 326.454 299.154 324.717C299.019 322.982 299.621 320.778 302.677 320.044C305.731 319.309 311.171 318.842 312.574 317.446C313.975 316.052 312.641 315.104 311.639 314.902C310.637 314.702 308.834 316.773 303.226 317.908C297.618 319.042 292.142 318.441 292.075 316.796C292.009 315.15 292.777 312.065 297.25 311.798C301.723 311.53 307.366 310.562 309.235 307.758C310.103 306.122 308.834 304.888 308.113 304.954C307.39 305.021 304.562 308.058 300.087 309.694C295.614 311.33 286.667 311.632 287.078 308.46C287.487 305.288 292.109 305.956 296.415 305.689C300.722 305.421 307.099 301.248 307.633 300.214C308.167 299.178 307.566 298.645 306.698 298.978C305.83 299.312 301.09 301.182 297.217 302.25C293.345 303.318 286.581 304.717 284.997 304.49C283.413 304.264 280.503 303.552 280.569 301.484C280.633 299.414 282.122 298.209 284.157 297.928C286.191 297.645 293.597 297.248 299.449 296.537C305.299 295.826 308.079 295.244 308.113 294.112C308.145 292.981 305.998 293.066 303.413 293.258C300.826 293.449 282.335 295.174 279.539 293.737C276.743 292.3 277.355 289.042 278.791 287.914C280.229 286.785 281.761 286.456 287.509 286.552C293.257 286.648 296.131 286.36 296.035 284.157C295.939 281.954 294.943 283.016 288.803 282.468C285.034 282.614 280.814 282.825 279.669 283.225C277.943 283.829 277.375 287.453 270.629 287.453C263.882 287.453 258.274 284.174 248.094 284.174C237.914 284.174 239.813 284.52 234.463 289.352C233.601 290.041 229.633 291.249 226.182 289.609C222.731 287.97 217.469 282.708 201.682 280.12C185.894 277.532 187.274 281.069 181.839 277.79C176.405 274.513 176.405 271.061 183.047 269.681C189.69 268.301 206.426 273.994 218.246 278.222C230.063 282.449 235.067 281.932 237.829 281.932C238.922 281.736 239.554 278.998 236.621 278.998C232.307 278.998 222.386 276.756 208.929 271.752C195.47 266.748 197.195 265.713 188.569 265.626C179.941 265.541 175.973 265.885 172.177 262.521C168.382 259.157 170.538 250.874 171.487 248.632C191.587 254.498 207.117 262.693 225.406 269.336C243.694 275.98 255.406 282.006 280.305 278.648C277.857 276.41 270.771 264.132 270.629 260.29C272.621 260.29 293.161 272.528 315.691 275.661C323.282 276.798 330.255 275.517 334.241 279.217C338.225 282.917 335.663 285.336 333.245 293.162C330.826 300.99 329.829 315.078 339.079 325.894C326.555 321.768 321.575 314.937 321.575 304.121C321.575 293.305 323.71 292.878 321.433 288.894C320.906 287.625 317.542 284.692 314.522 283.225C311.615 281.814 312.221 281.716 308.535 282.041C308.611 282.472 308.662 282.912 308.69 283.349C310.783 287.706 313.745 291.648 317.367 294.85C317.831 295.26 318.327 295.689 318.517 296.278C318.675 296.773 318.593 297.308 318.517 297.822C317.721 303.169 317.738 308.636 318.566 313.977C318.93 316.324 319.457 319.246 321.085 321.094C322.59 322.802 325.026 323.98 327.065 324.95C329.25 325.99 331.45 327.036 333.786 327.664C337.475 328.656 341.466 328.596 344.929 330.208C348.158 331.71 350.655 334.55 353.975 335.836C356.275 336.725 358.733 336.774 361.201 336.476L353.362 346.178L339.979 341.745L347.799 353.046L339.979 363.454L353.743 360.294L361.166 370.721V357.75L374.822 353.889L363.807 349.74L363.118 336.185C364.365 335.954 365.605 335.67 366.818 335.378C372.966 333.893 379.115 332.409 385.265 330.924C386.661 330.586 387.603 331.225 389.014 330.722C390.346 330.249 391.614 329.524 392.754 328.694C395.123 326.968 397.035 324.597 398.143 321.876C399.006 319.756 399.398 317.478 400.063 315.288C400.833 312.753 401.966 310.345 403.095 307.948C404.015 305.993 404.942 304.028 406.162 302.245C410.738 295.565 418.791 292.268 426.551 289.962C429.269 289.154 432.397 288.405 435.219 288.156C435.887 288.097 436.634 288.106 437.131 288.556C437.711 289.077 437.722 289.966 437.69 290.745ZM283.634 392.22C283.079 393.088 282.529 393.958 281.985 394.833C280.307 397.522 278.425 400.149 278.738 403.496C278.766 403.785 278.814 404.086 278.979 404.329C279.167 404.604 279.483 404.765 279.802 404.861C281.087 405.248 282.509 404.698 283.505 403.796C284.499 402.894 285.153 401.685 285.783 400.5C290.011 392.562 294.266 384.404 300.853 378.28C301.595 377.589 302.374 376.917 302.935 376.072C303.497 375.226 303.821 374.162 303.545 373.186C302.797 370.538 300.775 372.054 299.49 373.13C294.773 377.078 290.715 381.909 287.153 386.966C285.939 388.689 284.773 390.445 283.634 392.22ZM350.694 391.417C352.094 391.164 353.385 390.345 354.207 389.185C354.637 388.578 355.045 387.814 355.778 387.7C356.325 387.614 356.863 387.952 357.197 388.393C357.53 388.833 357.707 389.369 357.922 389.878C359.277 393.1 362.201 395.414 363.807 398.517C363.803 398.509 361.714 398.654 361.451 398.604C360.785 398.474 360.213 398.278 359.515 398.212C357.57 398.024 355.662 397.628 353.817 396.98C352.085 396.372 349.135 395.42 348.07 393.805C346.939 392.09 349.639 391.606 350.694 391.417ZM334.133 398.098C332.386 398.384 332.961 403.792 332.99 405.181C333.01 406.188 333.065 407.206 333.345 408.172C334.451 411.996 338.855 414.518 342.733 414.225C343.386 414.177 344.041 414.053 344.643 413.793C346.217 413.114 347.329 411.358 347.033 409.672C346.861 408.685 346.266 407.833 345.687 407.017L344.406 405.209C343.946 404.56 343.178 403.829 342.482 404.212C342.162 404.385 341.998 404.745 341.855 405.081C341.581 405.724 341.307 406.366 341.033 407.009C340.743 407.689 340.361 408.45 339.643 408.625C338.63 408.872 337.813 407.789 337.434 406.82C336.919 405.5 336.63 404.096 336.582 402.681C336.557 401.921 336.599 401.153 336.467 400.404C336.279 399.329 335.433 397.884 334.133 398.098ZM363.019 287.264C361.965 285.621 368.586 278.889 373.017 278.422C377.446 277.957 380.991 280.12 381.842 282.361C381.842 283.436 379.974 282.924 379.195 282.81C374.13 282.81 366.371 285.621 363.019 287.264ZM370.685 319.462C374.998 310.368 373.949 308.385 374.822 301.321C375.693 294.256 379.662 295.561 384.442 294.59C382.459 287.264 387.262 285.621 388.406 282.737C388.406 282.737 387.939 280.172 388.406 277.84C388.406 277.84 388.289 276.79 387.823 276.441C387.357 276.09 384.675 276.441 382.693 275.974C380.711 275.508 379.662 272.593 377.446 272.593C366.254 274.458 360.191 279.122 359.142 281.418C358.094 283.716 358.21 285.418 357.399 287.914C356.59 290.41 353.547 288.682 353.43 290.314C353.314 291.946 352.265 295.678 350.049 297.956C347.833 300.233 346.901 301.021 346.901 301.021C346.901 301.021 346.202 302.556 346.901 304.072C347.601 305.588 350.982 312.35 352.613 316.796C354.246 321.242 361.125 330.77 362.174 332.302C362.174 332.302 366.371 328.556 370.685 319.462ZM405.63 297.956C398.105 306.374 397.267 318.564 391.387 324.325C385.51 330.085 378.341 331.804 375.186 331.117C373.991 331.117 373.843 330.072 376.565 328.649C379.286 327.228 386.086 318.512 383.774 307.248C386.037 307.416 392.785 309.94 392.567 297.956C392.771 296.618 401.026 298.63 402.13 297.47C403.235 296.312 401.058 285.426 401.494 284.337C401.929 283.249 410.419 282.052 415.537 278.46C420.653 274.868 423.265 272.037 423.918 271.384C424.571 270.73 425.551 275.565 422.719 281.149C422.502 281.834 427.293 281.616 445.363 277.697C463.434 273.778 488.035 266.05 500.771 259.41C513.507 252.769 514.597 251.681 515.685 250.918C516.774 250.157 517.645 250.918 516.882 254.51C516.119 258.104 515.009 269.86 498.691 275.193C482.374 280.528 466.677 279.113 459.177 279.221C451.677 279.33 413.794 288.822 405.63 297.956Z" fill="#FFF600"/>
<path d="M507.182 458.204H466.468C457.866 506.984 424.46 527.512 381.372 545.399C381.372 545.399 389.908 558.204 390.314 559.22C390.314 559.22 372.834 571.822 339.426 571.822H338.224C304.814 571.822 287.336 559.22 287.336 559.22C287.741 558.204 296.278 545.399 296.278 545.399C253.189 527.512 219.784 506.984 211.182 458.204H170.466C178.19 508.814 202.14 545.806 255.049 571.212L248.921 580.562C278.789 597.338 313.796 608 338.224 608H339.426C363.853 608 398.861 597.338 428.728 580.562L422.6 571.212C475.509 545.806 499.46 508.814 507.182 458.204Z" fill="#1C1C1B"/>
<path d="M284.282 557.115L286.944 552.077L278.362 553.085C278.362 553.085 281.636 556.107 284.282 557.115ZM177.216 463.597H206.83C212.684 485.683 222.89 520.545 286.944 546.924L268.731 549.759L257.688 566.824C213.019 548.755 183.239 509.292 177.216 463.597Z" fill="#FFF600"/>
<path d="M399.286 553.085L390.705 552.077L393.368 557.114C396.012 556.107 399.286 553.085 399.286 553.085ZM419.96 566.825L408.918 549.759L390.705 546.925C454.758 520.546 464.965 485.682 470.82 463.598H500.432C494.409 509.291 464.63 548.755 419.96 566.825Z" fill="#FFF600"/>
<path d="M405.585 557.115C374.69 574.636 358.111 576.371 339.426 577.172H338.223C319.538 576.371 302.959 574.636 272.063 557.115L256.446 579.409C288.719 597.137 318.583 602.679 338.223 602.679H339.426C359.066 602.679 388.93 597.137 421.205 579.409L405.585 557.115Z" fill="#FFF600"/>
<path d="M201.019 479.973L193.694 482.753L198.512 473.366L197.76 471.386L183.61 476.754L184.947 480.278L192.472 477.423L187.355 487.149L188.032 488.933L202.356 483.498L201.019 479.973Z" fill="black"/>
<path d="M222.795 510.449L216.746 515.427L218.305 504.992L216.958 503.357L205.271 512.975L207.667 515.885L213.882 510.771L212.149 521.621L213.362 523.095L225.191 513.36L222.795 510.449Z" fill="black"/>
<path d="M205.563 492.764L200.312 492.499L203.6 488.242L202.137 484.87L195.763 492.679L190.103 495.134L191.315 497.926L196.975 495.47L207.024 496.13L205.563 492.764Z" fill="black"/>
<path d="M226.471 520.546C226.967 521.292 227.055 521.743 226.981 522.771L226.979 522.803C226.981 522.771 230.219 521.091 230.219 521.091C230.089 520.236 229.7 519.306 229.009 518.268C228.252 517.128 227.256 516.419 226.049 516.16C224.825 515.896 223.645 516.134 222.544 516.866C221.963 517.252 221.487 517.707 221.128 518.215C220.768 518.728 220.524 519.286 220.403 519.872C220.285 520.448 220.284 521.356 220.4 522.65C220.532 524.112 220.309 524.026 220.185 524.366C220.013 524.832 219.759 525.174 219.403 525.41C219.093 525.616 218.372 526.095 217.365 524.582C216.88 523.851 216.772 523.691 216.845 522.532L213.616 524.924C213.801 525.647 214.099 526.342 214.532 526.994C215.433 528.348 216.536 529.206 217.807 529.543C219.112 529.89 220.36 529.675 221.516 528.907C222.144 528.49 222.655 528.003 223.037 527.458C223.421 526.91 223.683 526.306 223.813 525.662C223.944 525.026 223.952 524.168 223.839 523.038C223.656 521.235 223.991 520.48 224.553 520.107C224.893 519.88 225.225 519.799 225.564 519.862C225.909 519.923 226.207 520.148 226.471 520.546Z" fill="black"/>
<path d="M228.63 535.37L226.838 533.786L230.17 531.824L228.63 535.37ZM235.982 528.508L232.97 525.647L218.429 534.262L221.349 536.844L224.136 535.266L227.509 538.25L226.318 541.242L229.22 543.81L235.982 528.508Z" fill="black"/>
<path d="M205.124 505.749L203.97 503.654L207.766 502.929L205.124 505.749ZM214.356 501.761L212.482 498.054L195.89 501.273L197.77 504.687L200.926 504.138L203.097 508.083L200.97 510.501L202.838 513.895L214.356 501.761Z" fill="black"/>
<path d="M243.368 538.832C242.902 539.421 242.416 539.699 241.878 539.684C241.297 539.664 240.562 539.32 239.698 538.661C239.569 538.563 239.412 538.429 239.23 538.265L241.641 535.212C241.74 535.277 241.838 535.349 241.936 535.423C244.509 537.387 243.65 538.475 243.368 538.832ZM247.12 536.847C246.676 535.551 245.528 534.209 243.606 532.744C243.372 532.565 242.541 531.976 241.113 530.977L240.777 530.745L231.249 542.816L233.988 544.908L237.284 540.733C237.506 540.929 237.7 541.089 237.862 541.213C242.036 544.4 244.744 542.749 246.278 540.804C247.296 539.516 247.578 538.184 247.12 536.847Z" fill="black"/>
<path d="M255.025 543.056C254.259 542.439 253.497 542.005 252.741 541.717L250.103 544.628C250.103 544.628 253.826 545.629 253.697 547.933C253.63 549.135 253.114 550.34 252.165 551.52C251.215 552.696 250.203 553.432 249.159 553.704C247.333 554.276 245.342 551.757 245.365 550.647L242.626 553.341C243.041 554.332 243.771 555.255 244.815 556.096C246.463 557.424 248.239 557.885 250.098 557.468C251.926 557.055 253.651 555.857 255.221 553.908C256.69 552.085 257.429 550.128 257.421 548.087C257.411 546.023 256.605 544.329 255.025 543.056Z" fill="black"/>
<path d="M378.378 575.882L380.256 583.487L371.516 577.576L369.46 578.086L373.091 592.779L376.751 591.874L374.82 584.06L383.859 590.307L385.712 589.851L382.036 574.976L378.378 575.882Z" fill="black"/>
<path d="M344.383 581.861L344.497 589.913L337.316 581.962L335.197 581.993L335.42 597.547L339.191 597.494L339.072 589.222L346.468 597.579L348.377 597.553L348.152 581.807L344.383 581.861Z" fill="black"/>
<path d="M317.13 582.914C317.992 583.162 318.35 583.449 318.961 584.278L318.98 584.305C318.961 584.278 320.337 580.901 320.337 580.901C319.686 580.333 318.786 579.878 317.588 579.535C316.272 579.158 315.053 579.263 313.965 579.847C312.862 580.441 312.118 581.386 311.754 582.658C311.562 583.33 311.494 583.983 311.55 584.603C311.608 585.226 311.784 585.809 312.073 586.334C312.356 586.849 312.944 587.542 313.87 588.451C314.918 589.479 314.693 589.558 314.818 589.897C314.99 590.363 315.018 590.789 314.9 591.199C314.797 591.555 314.56 592.389 312.812 591.889C311.968 591.649 311.782 591.597 311.086 590.665L310.178 594.581C310.788 595.01 311.464 595.346 312.217 595.562C313.78 596.01 315.176 595.947 316.364 595.382C317.582 594.799 318.393 593.827 318.774 592.494C318.982 591.769 319.056 591.066 318.994 590.403C318.933 589.738 318.74 589.109 318.421 588.533C318.109 587.963 317.56 587.305 316.741 586.518C315.432 585.263 315.2 584.473 315.385 583.825C315.497 583.43 315.697 583.154 315.996 582.982C316.298 582.805 316.67 582.782 317.13 582.914Z" fill="black"/>
<path d="M328.588 591.327L326.2 591.183L327.616 587.586L328.588 591.327ZM330.149 581.392L326.014 580.996L319.869 596.742L323.761 596.976L324.982 594.015L329.478 594.287L330.385 597.378L334.253 597.612L330.149 581.392Z" fill="black"/>
<path d="M303.93 576.863C303.165 576.247 302.402 575.813 301.646 575.525L299.009 578.437C299.009 578.437 302.732 579.437 302.602 581.742C302.536 582.943 302.021 584.149 301.07 585.327C300.121 586.505 299.11 587.241 298.065 587.511C296.238 588.083 294.248 585.566 294.27 584.455L291.532 587.15C291.946 588.141 292.677 589.062 293.721 589.905C295.369 591.233 297.146 591.694 299.004 591.277C300.833 590.862 302.557 589.665 304.126 587.717C305.596 585.893 306.334 583.937 306.326 581.895C306.317 579.831 305.512 578.138 303.93 576.863Z" fill="black"/>
<path d="M287.992 571.28L283.78 578.291L283.888 569.703L282.477 569.161L277.408 575.525L278.373 567.585L275.468 566.469L272.182 582.953L273.942 583.631L280.358 576.773L280.297 586.04L282.653 586.945L290.896 572.396L287.992 571.28Z" fill="black"/>
<path d="M358.716 584.738L358.005 581.512L349.6 581.64L349.775 597.448L358.815 597.324L359.52 593.444L353.664 593.525L353.624 590.573L357.433 590.513L357.399 587.389L353.588 587.448L353.56 584.821L358.716 584.738Z" fill="black"/>
<path d="M392.018 583.475C389.554 583.475 387.557 581.478 387.557 579.014C387.557 576.551 389.554 574.554 392.018 574.554C394.482 574.554 396.48 576.551 396.48 579.014C396.48 581.478 394.482 583.475 392.018 583.475ZM392.018 571.011C387.6 571.011 384.016 574.595 384.016 579.014C384.016 583.435 387.6 587.017 392.018 587.017C396.438 587.017 400.021 583.435 400.021 579.014C400.021 574.595 396.438 571.011 392.018 571.011Z" fill="black"/>
<path d="M438.087 543.871L436.059 545.138L435.124 541.387L438.087 543.871ZM433.595 534.872L429.998 536.95L434.128 553.338L437.435 551.272L436.712 548.151L440.531 545.764L443.062 547.755L446.348 545.702L433.595 534.872Z" fill="black"/>
<path d="M455.797 515.552L459.942 522.154L452.453 518.676L451.304 519.75L454.473 526.878L447.96 522.874L445.592 525.084L458.501 534.568L459.936 533.228L456.977 524.678L465.086 528.379L467.006 526.586L458.162 513.343L455.797 515.552Z" fill="black"/>
<path d="M425.167 552.236C425.513 552.039 425.771 551.895 425.937 551.805C427.156 551.153 427.831 551.084 428.184 551.145C428.66 551.224 429.055 551.56 429.388 552.173C429.759 552.853 429.835 553.412 429.617 553.877C429.384 554.38 428.793 554.889 427.859 555.391C427.652 555.5 427.397 555.624 427.088 555.763L425.167 552.236ZM424.553 549.371C424.301 549.505 424.053 549.632 423.811 549.749L422.525 547.388C422.872 547.18 423.181 547.004 423.448 546.861C424.919 546.073 425.429 546.561 425.709 547.076C426.039 547.679 426.205 548.485 424.553 549.371ZM428.775 548.337C429.241 547.297 429.219 546.297 428.707 545.357C428.068 544.185 427.136 543.496 425.936 543.313C424.783 543.136 423.479 543.431 422.061 544.191C421.359 544.567 420.144 545.269 418.452 546.281L418.103 546.491L425.472 560.015L429.799 557.697C431.283 556.903 432.313 555.871 432.864 554.627C433.432 553.345 433.365 552.047 432.668 550.765C431.775 549.127 430.468 548.312 428.775 548.337Z" fill="black"/>
<path d="M447.921 535.991C447.927 537.044 447.474 537.906 446.537 538.622C446.279 538.818 446.027 538.999 445.782 539.163L440.035 532.107C440.269 531.899 440.461 531.738 440.615 531.619C442.743 529.992 444.581 530.276 446.399 532.508C447.402 533.74 447.914 534.911 447.921 535.991ZM444.235 527.406C442.359 527.191 440.509 527.768 438.738 529.123C438.315 529.447 437.303 530.266 435.703 531.579L435.387 531.839L445.042 543.694L447.949 541.472C452.165 538.25 452.555 534.47 449.11 530.239C447.753 528.574 446.114 527.62 444.235 527.406Z" fill="black"/>
<path d="M484.944 473.475L488.801 473.211L488.217 475.531L484.944 473.475ZM492.5 482.829L493.444 479.07L490.771 477.274L491.867 472.905L495.06 472.634L496.009 468.853L479.143 469.961L478.275 474.023L492.5 482.829Z" fill="black"/>
<path d="M487.533 495.682L480.645 491.27L489.226 491.625L489.807 490.23L483.591 484.981L491.502 486.173L492.701 483.301L476.317 479.544L475.59 481.285L482.261 487.894L472.999 487.566L472.026 489.896L486.334 498.552L487.533 495.682Z" fill="black"/>
<path d="M467.375 506.096L464.382 504.7L459.372 511.452L472.032 520.922L477.428 513.668L474.776 510.75L471.282 515.45L468.912 513.686L471.18 510.624L468.68 508.754L466.41 511.815L464.306 510.242L467.375 506.096Z" fill="black"/>
<path d="M469.766 495.44L476.486 499.467L466.367 501.113L465.348 502.813L478.334 510.591L480.146 507.565L473.24 503.428L483.803 501.819L484.722 500.287L471.578 492.413L469.766 495.44Z" fill="black"/>
<path d="M644.273 272V178.909H655.545V225.091H656.636L698.455 178.909H713.182L674.091 220.909L713.182 272H699.545L667.182 228.727L655.545 241.818V272H644.273ZM801.591 178.909V272H790.682L739.955 198.909H739.045V272H727.773V178.909H738.682L789.591 252.182H790.5V178.909H801.591ZM885.239 178.909H896.511V240.545C896.511 246.909 895.011 252.591 892.011 257.591C889.042 262.561 884.845 266.485 879.42 269.364C873.996 272.212 867.633 273.636 860.33 273.636C853.027 273.636 846.663 272.212 841.239 269.364C835.814 266.485 831.602 262.561 828.602 257.591C825.633 252.591 824.148 246.909 824.148 240.545V178.909H835.42V239.636C835.42 244.182 836.42 248.227 838.42 251.773C840.42 255.288 843.269 258.061 846.966 260.091C850.693 262.091 855.148 263.091 860.33 263.091C865.511 263.091 869.966 262.091 873.693 260.091C877.42 258.061 880.269 255.288 882.239 251.773C884.239 248.227 885.239 244.182 885.239 239.636V178.909ZM969.932 202.182C969.386 197.576 967.174 194 963.295 191.455C959.417 188.909 954.659 187.636 949.023 187.636C944.902 187.636 941.295 188.303 938.205 189.636C935.144 190.97 932.75 192.803 931.023 195.136C929.326 197.47 928.477 200.121 928.477 203.091C928.477 205.576 929.068 207.712 930.25 209.5C931.462 211.258 933.008 212.727 934.886 213.909C936.765 215.061 938.735 216.015 940.795 216.773C942.856 217.5 944.75 218.091 946.477 218.545L955.932 221.091C958.356 221.727 961.053 222.606 964.023 223.727C967.023 224.848 969.886 226.379 972.614 228.318C975.371 230.227 977.644 232.682 979.432 235.682C981.22 238.682 982.114 242.364 982.114 246.727C982.114 251.758 980.795 256.303 978.159 260.364C975.553 264.424 971.735 267.652 966.705 270.045C961.705 272.439 955.629 273.636 948.477 273.636C941.811 273.636 936.038 272.561 931.159 270.409C926.311 268.258 922.492 265.258 919.705 261.409C916.947 257.561 915.386 253.091 915.023 248H926.659C926.962 251.515 928.144 254.424 930.205 256.727C932.295 259 934.932 260.697 938.114 261.818C941.326 262.909 944.78 263.455 948.477 263.455C952.78 263.455 956.644 262.758 960.068 261.364C963.492 259.939 966.205 257.97 968.205 255.455C970.205 252.909 971.205 249.939 971.205 246.545C971.205 243.455 970.341 240.939 968.614 239C966.886 237.061 964.614 235.485 961.795 234.273C958.977 233.061 955.932 232 952.659 231.091L941.205 227.818C933.932 225.727 928.174 222.742 923.932 218.864C919.689 214.985 917.568 209.909 917.568 203.636C917.568 198.424 918.977 193.879 921.795 190C924.644 186.091 928.462 183.061 933.25 180.909C938.068 178.727 943.447 177.636 949.386 177.636C955.386 177.636 960.72 178.712 965.386 180.864C970.053 182.985 973.75 185.894 976.477 189.591C979.235 193.288 980.689 197.485 980.841 202.182H969.932ZM995.557 188.909V178.909H1065.38V188.909H1036.1V272H1024.83V188.909H995.557Z" fill="white"/>
<path d="M638.452 468V412.727H648.464V438.124H649.139L670.703 412.727H682.929L661.554 437.53L683.118 468H671.081L654.591 444.304L648.464 451.537V468H638.452ZM701.517 468L685.918 412.727H696.686L706.645 453.345H707.158L717.792 412.727H727.588L738.249 453.372H738.735L748.694 412.727H759.462L743.863 468H733.985L722.919 429.217H722.488L711.395 468H701.517ZM768.308 468H757.62L777.079 412.727H789.44L808.925 468H798.238L783.475 424.062H783.043L768.308 468ZM768.658 446.328H797.806V454.371H768.658V446.328ZM816.206 412.727H828.458L844.868 452.778H845.515L861.924 412.727H874.177V468H864.569V430.027H864.056L848.781 467.838H841.602L826.326 429.946H825.814V468H816.206V412.727ZM885.081 468V412.727H921.029V421.121H895.093V436.126H919.167V444.52H895.093V459.607H921.245V468H885.081ZM995.518 412.727V468H986.612L960.568 430.351H960.109V468H950.096V412.727H959.056L985.074 450.403H985.559V412.727H995.518ZM1006.43 468V412.727H1016.44V438.124H1017.12L1038.68 412.727H1050.91L1029.53 437.53L1051.09 468H1039.06L1022.57 444.304L1016.44 451.537V468H1006.43ZM1057.86 468V412.727H1078.59C1082.84 412.727 1086.4 413.465 1089.28 414.94C1092.17 416.416 1094.36 418.485 1095.83 421.148C1097.33 423.793 1098.07 426.878 1098.07 430.405C1098.07 433.949 1097.32 437.026 1095.81 439.635C1094.31 442.226 1092.11 444.232 1089.2 445.653C1086.28 447.057 1082.7 447.759 1078.45 447.759H1063.69V439.446H1077.1C1079.59 439.446 1081.62 439.104 1083.2 438.42C1084.79 437.719 1085.96 436.702 1086.71 435.371C1087.49 434.021 1087.87 432.366 1087.87 430.405C1087.87 428.444 1087.49 426.77 1086.71 425.385C1085.94 423.982 1084.76 422.92 1083.18 422.2C1081.59 421.463 1079.55 421.094 1077.05 421.094H1067.87V468H1057.86ZM1086.42 442.955L1100.1 468H1088.93L1075.49 442.955H1086.42ZM1142.13 412.727H1152.15V448.838C1152.15 452.796 1151.21 456.278 1149.34 459.283C1147.49 462.287 1144.88 464.635 1141.51 466.327C1138.15 468 1134.22 468.837 1129.72 468.837C1125.2 468.837 1121.26 468 1117.9 466.327C1114.53 464.635 1111.92 462.287 1110.07 459.283C1108.22 456.278 1107.29 452.796 1107.29 448.838V412.727H1117.3V448.001C1117.3 450.304 1117.81 452.356 1118.82 454.155C1119.84 455.954 1121.28 457.366 1123.13 458.392C1124.99 459.4 1127.18 459.903 1129.72 459.903C1132.26 459.903 1134.45 459.4 1136.3 458.392C1138.18 457.366 1139.61 455.954 1140.62 454.155C1141.63 452.356 1142.13 450.304 1142.13 448.001V412.727ZM1163.03 412.727H1175.28L1191.69 452.778H1192.34L1208.75 412.727H1221V468H1211.39V430.027H1210.88L1195.61 467.838H1188.43L1173.15 429.946H1172.64V468H1163.03V412.727ZM1239 468H1228.32L1247.77 412.727H1260.13L1279.62 468H1268.93L1254.17 424.062H1253.74L1239 468ZM1239.35 446.328H1268.5V454.371H1239.35V446.328ZM1286.9 468V412.727H1296.91V436.126H1322.53V412.727H1332.57V468H1322.53V444.52H1296.91V468H1286.9ZM1397.15 412.727H1407.16V448.838C1407.16 452.796 1406.23 456.278 1404.36 459.283C1402.5 462.287 1399.89 464.635 1396.53 466.327C1393.16 468 1389.23 468.837 1384.73 468.837C1380.22 468.837 1376.28 468 1372.91 466.327C1369.55 464.635 1366.94 462.287 1365.09 459.283C1363.23 456.278 1362.31 452.796 1362.31 448.838V412.727H1372.32V448.001C1372.32 450.304 1372.82 452.356 1373.83 454.155C1374.86 455.954 1376.3 457.366 1378.15 458.392C1380 459.4 1382.2 459.903 1384.73 459.903C1387.27 459.903 1389.47 459.4 1391.32 458.392C1393.19 457.366 1394.63 455.954 1395.64 454.155C1396.65 452.356 1397.15 450.304 1397.15 448.001V412.727ZM1463.47 412.727V468H1454.56L1428.52 430.351H1428.06V468H1418.05V412.727H1427.01L1453.02 450.403H1453.51V412.727H1463.47ZM1484.39 412.727V468H1474.38V412.727H1484.39ZM1502.63 412.727L1517.01 456.233H1517.58L1531.94 412.727H1542.95L1523.46 468H1511.1L1491.64 412.727H1502.63ZM1550.23 468V412.727H1570.96C1575.2 412.727 1578.77 413.465 1581.64 414.94C1584.54 416.416 1586.73 418.485 1588.2 421.148C1589.7 423.793 1590.44 426.878 1590.44 430.405C1590.44 433.949 1589.69 437.026 1588.18 439.635C1586.68 442.226 1584.48 444.232 1581.56 445.653C1578.65 447.057 1575.07 447.759 1570.82 447.759H1556.06V439.446H1569.47C1571.95 439.446 1573.99 439.104 1575.57 438.42C1577.15 437.719 1578.32 436.702 1579.08 435.371C1579.85 434.021 1580.24 432.366 1580.24 430.405C1580.24 428.444 1579.85 426.77 1579.08 425.385C1578.31 423.982 1577.13 422.92 1575.54 422.2C1573.96 421.463 1571.92 421.094 1569.42 421.094H1560.24V468H1550.23ZM1578.78 442.955L1592.47 468H1581.29L1567.85 442.955H1578.78ZM1629.7 427.922C1629.45 425.565 1628.38 423.73 1626.51 422.416C1624.66 421.103 1622.25 420.446 1619.28 420.446C1617.19 420.446 1615.4 420.761 1613.91 421.391C1612.42 422.02 1611.27 422.875 1610.48 423.955C1609.69 425.034 1609.28 426.267 1609.27 427.652C1609.27 428.804 1609.53 429.802 1610.05 430.648C1610.59 431.493 1611.32 432.213 1612.24 432.807C1613.15 433.383 1614.17 433.868 1615.29 434.264C1616.4 434.66 1617.53 434.993 1618.66 435.263L1623.84 436.558C1625.93 437.044 1627.93 437.701 1629.86 438.528C1631.8 439.356 1633.54 440.4 1635.07 441.659C1636.62 442.919 1637.84 444.439 1638.74 446.22C1639.64 448.001 1640.09 450.089 1640.09 452.482C1640.09 455.72 1639.26 458.572 1637.6 461.037C1635.95 463.484 1633.56 465.4 1630.43 466.786C1627.31 468.153 1623.54 468.837 1619.12 468.837C1614.82 468.837 1611.08 468.171 1607.92 466.839C1604.77 465.508 1602.3 463.565 1600.52 461.01C1598.76 458.455 1597.81 455.342 1597.66 451.672H1607.51C1607.66 453.597 1608.25 455.198 1609.29 456.476C1610.34 457.753 1611.7 458.707 1613.37 459.337C1615.06 459.966 1616.95 460.281 1619.04 460.281C1621.21 460.281 1623.12 459.957 1624.76 459.31C1626.41 458.644 1627.71 457.726 1628.64 456.557C1629.58 455.369 1630.06 453.984 1630.07 452.401C1630.06 450.961 1629.63 449.774 1628.81 448.838C1627.98 447.884 1626.82 447.093 1625.32 446.463C1623.85 445.815 1622.12 445.24 1620.14 444.736L1613.85 443.116C1609.3 441.947 1605.7 440.175 1603.06 437.8C1600.43 435.407 1599.12 432.231 1599.12 428.273C1599.12 425.016 1600 422.164 1601.76 419.717C1603.55 417.27 1605.97 415.372 1609.02 414.023C1612.08 412.655 1615.55 411.972 1619.41 411.972C1623.34 411.972 1626.77 412.655 1629.72 414.023C1632.69 415.372 1635.02 417.252 1636.71 419.663C1638.41 422.056 1639.28 424.809 1639.33 427.922H1629.7ZM1659.03 412.727V468H1649.01V412.727H1659.03ZM1667.44 421.121V412.727H1711.54V421.121H1694.46V468H1684.52V421.121H1667.44ZM1716.26 412.727H1727.57L1741.09 437.179H1741.63L1755.15 412.727H1766.46L1746.36 447.381V468H1736.37V447.381L1716.26 412.727ZM687.841 532.364C687.841 538.319 686.725 543.42 684.494 547.666C682.281 551.894 679.259 555.133 675.426 557.382C671.612 559.631 667.285 560.756 662.445 560.756C657.605 560.756 653.268 559.631 649.436 557.382C645.622 555.115 642.599 551.867 640.368 547.639C638.155 543.393 637.048 538.301 637.048 532.364C637.048 526.408 638.155 521.316 640.368 517.088C642.599 512.842 645.622 509.594 649.436 507.345C653.268 505.096 657.605 503.972 662.445 503.972C667.285 503.972 671.612 505.096 675.426 507.345C679.259 509.594 682.281 512.842 684.494 517.088C686.725 521.316 687.841 526.408 687.841 532.364ZM677.774 532.364C677.774 528.171 677.117 524.636 675.804 521.757C674.509 518.86 672.709 516.674 670.406 515.199C668.103 513.705 665.449 512.959 662.445 512.959C659.44 512.959 656.786 513.705 654.483 515.199C652.18 516.674 650.372 518.86 649.058 521.757C647.763 524.636 647.115 528.171 647.115 532.364C647.115 536.556 647.763 540.1 649.058 542.997C650.372 545.876 652.18 548.062 654.483 549.555C656.786 551.031 659.44 551.768 662.445 551.768C665.449 551.768 668.103 551.031 670.406 549.555C672.709 548.062 674.509 545.876 675.804 542.997C677.117 540.1 677.774 536.556 677.774 532.364ZM697.307 560V504.727H732.716V513.121H707.32V528.126H730.287V536.52H707.32V560H697.307ZM790.728 519.922C790.476 517.565 789.415 515.73 787.544 514.416C785.69 513.103 783.279 512.446 780.311 512.446C778.224 512.446 776.433 512.761 774.94 513.391C773.447 514.02 772.304 514.875 771.512 515.955C770.721 517.034 770.316 518.267 770.298 519.652C770.298 520.804 770.559 521.802 771.081 522.648C771.62 523.493 772.349 524.213 773.267 524.807C774.184 525.383 775.201 525.868 776.316 526.264C777.432 526.66 778.556 526.993 779.69 527.263L784.872 528.558C786.959 529.044 788.965 529.701 790.89 530.528C792.833 531.356 794.57 532.4 796.099 533.659C797.646 534.919 798.87 536.439 799.77 538.22C800.669 540.001 801.119 542.089 801.119 544.482C801.119 547.72 800.291 550.572 798.636 553.037C796.981 555.484 794.588 557.4 791.457 558.786C788.344 560.153 784.575 560.837 780.149 560.837C775.849 560.837 772.115 560.171 768.949 558.839C765.8 557.508 763.335 555.565 761.554 553.01C759.79 550.455 758.837 547.342 758.693 543.672H768.544C768.688 545.597 769.281 547.198 770.325 548.476C771.368 549.753 772.727 550.707 774.4 551.337C776.092 551.966 777.981 552.281 780.068 552.281C782.245 552.281 784.152 551.957 785.789 551.31C787.445 550.644 788.74 549.726 789.676 548.557C790.611 547.369 791.088 545.984 791.106 544.401C791.088 542.961 790.665 541.774 789.838 540.838C789.01 539.884 787.85 539.093 786.356 538.463C784.881 537.815 783.154 537.24 781.174 536.736L774.886 535.116C770.334 533.947 766.735 532.175 764.091 529.8C761.464 527.407 760.15 524.231 760.15 520.273C760.15 517.016 761.032 514.164 762.795 511.717C764.576 509.27 766.996 507.372 770.055 506.023C773.114 504.655 776.577 503.972 780.446 503.972C784.368 503.972 787.805 504.655 790.755 506.023C793.724 507.372 796.054 509.252 797.745 511.663C799.437 514.056 800.309 516.809 800.363 519.922H790.728ZM857.357 523.376H847.263C846.975 521.721 846.444 520.255 845.67 518.977C844.897 517.682 843.934 516.584 842.783 515.685C841.631 514.785 840.318 514.11 838.842 513.661C837.385 513.193 835.811 512.959 834.119 512.959C831.115 512.959 828.452 513.714 826.131 515.226C823.81 516.719 821.992 518.914 820.679 521.811C819.366 524.69 818.709 528.207 818.709 532.364C818.709 536.592 819.366 540.154 820.679 543.051C822.01 545.93 823.828 548.107 826.131 549.582C828.452 551.04 831.106 551.768 834.092 551.768C835.748 551.768 837.295 551.553 838.734 551.121C840.192 550.671 841.496 550.014 842.648 549.151C843.817 548.287 844.798 547.225 845.589 545.966C846.399 544.706 846.957 543.267 847.263 541.648L857.357 541.702C856.979 544.329 856.16 546.794 854.901 549.097C853.659 551.4 852.031 553.433 850.016 555.196C848 556.941 845.643 558.309 842.945 559.298C840.246 560.27 837.25 560.756 833.957 560.756C829.099 560.756 824.763 559.631 820.949 557.382C817.134 555.133 814.13 551.885 811.935 547.639C809.74 543.393 808.642 538.301 808.642 532.364C808.642 526.408 809.749 521.316 811.962 517.088C814.175 512.842 817.188 509.594 821.003 507.345C824.817 505.096 829.135 503.972 833.957 503.972C837.034 503.972 839.895 504.403 842.54 505.267C845.185 506.131 847.542 507.399 849.611 509.072C851.68 510.728 853.38 512.761 854.712 515.172C856.061 517.565 856.943 520.3 857.357 523.376ZM876.539 504.727V560H866.526V504.727H876.539ZM887.381 560V504.727H923.33V513.121H897.394V528.126H921.468V536.52H897.394V551.607H923.546V560H887.381ZM978.967 504.727V560H970.061L944.017 522.351H943.558V560H933.545V504.727H942.506L968.523 542.403H969.009V504.727H978.967ZM1037.19 523.376H1027.09C1026.81 521.721 1026.28 520.255 1025.5 518.977C1024.73 517.682 1023.77 516.584 1022.61 515.685C1021.46 514.785 1020.15 514.11 1018.67 513.661C1017.22 513.193 1015.64 512.959 1013.95 512.959C1010.95 512.959 1008.28 513.714 1005.96 515.226C1003.64 516.719 1001.82 518.914 1000.51 521.811C999.198 524.69 998.541 528.207 998.541 532.364C998.541 536.592 999.198 540.154 1000.51 543.051C1001.84 545.93 1003.66 548.107 1005.96 549.582C1008.28 551.04 1010.94 551.768 1013.92 551.768C1015.58 551.768 1017.13 551.553 1018.57 551.121C1020.02 550.671 1021.33 550.014 1022.48 549.151C1023.65 548.287 1024.63 547.225 1025.42 545.966C1026.23 544.706 1026.79 543.267 1027.09 541.648L1037.19 541.702C1036.81 544.329 1035.99 546.794 1034.73 549.097C1033.49 551.4 1031.86 553.433 1029.85 555.196C1027.83 556.941 1025.48 558.309 1022.78 559.298C1020.08 560.27 1017.08 560.756 1013.79 560.756C1008.93 560.756 1004.6 559.631 1000.78 557.382C996.967 555.133 993.962 551.885 991.767 547.639C989.572 543.393 988.474 538.301 988.474 532.364C988.474 526.408 989.581 521.316 991.794 517.088C994.007 512.842 997.02 509.594 1000.83 507.345C1004.65 505.096 1008.97 503.972 1013.79 503.972C1016.87 503.972 1019.73 504.403 1022.37 505.267C1025.02 506.131 1027.37 507.399 1029.44 509.072C1031.51 510.728 1033.21 512.761 1034.54 515.172C1035.89 517.565 1036.77 520.3 1037.19 523.376ZM1046.36 560V504.727H1082.31V513.121H1056.37V528.126H1080.44V536.52H1056.37V551.607H1082.52V560H1046.36ZM1118.47 560H1107.78L1127.24 504.727H1139.6L1159.09 560H1148.4L1133.64 516.062H1133.21L1118.47 560ZM1118.82 538.328H1147.97V546.371H1118.82V538.328ZM1211.79 504.727V560H1202.89L1176.84 522.351H1176.38V560H1166.37V504.727H1175.33L1201.35 542.403H1201.83V504.727H1211.79ZM1241.43 560H1222.7V504.727H1241.81C1247.3 504.727 1252.01 505.834 1255.95 508.047C1259.91 510.242 1262.95 513.4 1265.07 517.52C1267.2 521.64 1268.26 526.57 1268.26 532.31C1268.26 538.067 1267.19 543.015 1265.05 547.153C1262.92 551.292 1259.86 554.467 1255.84 556.68C1251.85 558.893 1247.05 560 1241.43 560ZM1232.71 551.337H1240.95C1244.8 551.337 1248.01 550.635 1250.58 549.232C1253.15 547.81 1255.09 545.696 1256.38 542.889C1257.68 540.064 1258.33 536.538 1258.33 532.31C1258.33 528.081 1257.68 524.573 1256.38 521.784C1255.09 518.977 1253.17 516.881 1250.63 515.496C1248.12 514.092 1244.99 513.391 1241.24 513.391H1232.71V551.337ZM1294.19 513.121V504.727H1338.29V513.121H1321.21V560H1311.28V513.121H1294.19ZM1346.8 560V504.727H1382.74V513.121H1356.81V528.126H1380.88V536.52H1356.81V551.607H1382.96V560H1346.8ZM1440.27 523.376H1430.18C1429.89 521.721 1429.36 520.255 1428.58 518.977C1427.81 517.682 1426.85 516.584 1425.7 515.685C1424.55 514.785 1423.23 514.11 1421.76 513.661C1420.3 513.193 1418.72 512.959 1417.03 512.959C1414.03 512.959 1411.37 513.714 1409.04 515.226C1406.72 516.719 1404.91 518.914 1403.59 521.811C1402.28 524.69 1401.62 528.207 1401.62 532.364C1401.62 536.592 1402.28 540.154 1403.59 543.051C1404.92 545.93 1406.74 548.107 1409.04 549.582C1411.37 551.04 1414.02 551.768 1417.01 551.768C1418.66 551.768 1420.21 551.553 1421.65 551.121C1423.11 550.671 1424.41 550.014 1425.56 549.151C1426.73 548.287 1427.71 547.225 1428.5 545.966C1429.31 544.706 1429.87 543.267 1430.18 541.648L1440.27 541.702C1439.89 544.329 1439.07 546.794 1437.81 549.097C1436.57 551.4 1434.94 553.433 1432.93 555.196C1430.91 556.941 1428.56 558.309 1425.86 559.298C1423.16 560.27 1420.16 560.756 1416.87 560.756C1412.01 560.756 1407.68 559.631 1403.86 557.382C1400.05 555.133 1397.04 551.885 1394.85 547.639C1392.65 543.393 1391.56 538.301 1391.56 532.364C1391.56 526.408 1392.66 521.316 1394.88 517.088C1397.09 512.842 1400.1 509.594 1403.92 507.345C1407.73 505.096 1412.05 503.972 1416.87 503.972C1419.95 503.972 1422.81 504.403 1425.45 505.267C1428.1 506.131 1430.46 507.399 1432.52 509.072C1434.59 510.728 1436.29 512.761 1437.63 515.172C1438.98 517.565 1439.86 520.3 1440.27 523.376ZM1449.44 560V504.727H1459.45V528.126H1485.06V504.727H1495.1V560H1485.06V536.52H1459.45V560H1449.44ZM1551.42 504.727V560H1542.51L1516.47 522.351H1516.01V560H1505.99V504.727H1514.95L1540.97 542.403H1541.46V504.727H1551.42ZM1611.72 532.364C1611.72 538.319 1610.6 543.42 1608.37 547.666C1606.16 551.894 1603.13 555.133 1599.3 557.382C1595.49 559.631 1591.16 560.756 1586.32 560.756C1581.48 560.756 1577.14 559.631 1573.31 557.382C1569.5 555.115 1566.47 551.867 1564.24 547.639C1562.03 543.393 1560.92 538.301 1560.92 532.364C1560.92 526.408 1562.03 521.316 1564.24 517.088C1566.47 512.842 1569.5 509.594 1573.31 507.345C1577.14 505.096 1581.48 503.972 1586.32 503.972C1591.16 503.972 1595.49 505.096 1599.3 507.345C1603.13 509.594 1606.16 512.842 1608.37 517.088C1610.6 521.316 1611.72 526.408 1611.72 532.364ZM1601.65 532.364C1601.65 528.171 1600.99 524.636 1599.68 521.757C1598.38 518.86 1596.58 516.674 1594.28 515.199C1591.98 513.705 1589.32 512.959 1586.32 512.959C1583.31 512.959 1580.66 513.705 1578.36 515.199C1576.05 516.674 1574.25 518.86 1572.93 521.757C1571.64 524.636 1570.99 528.171 1570.99 532.364C1570.99 536.556 1571.64 540.1 1572.93 542.997C1574.25 545.876 1576.05 548.062 1578.36 549.555C1580.66 551.031 1583.31 551.768 1586.32 551.768C1589.32 551.768 1591.98 551.031 1594.28 549.555C1596.58 548.062 1598.38 545.876 1599.68 542.997C1600.99 540.1 1601.65 536.556 1601.65 532.364ZM1621.18 560V504.727H1631.19V551.607H1655.54V560H1621.18ZM1711.47 532.364C1711.47 538.319 1710.35 543.42 1708.12 547.666C1705.91 551.894 1702.88 555.133 1699.05 557.382C1695.24 559.631 1690.91 560.756 1686.07 560.756C1681.23 560.756 1676.89 559.631 1673.06 557.382C1669.25 555.115 1666.22 551.867 1663.99 547.639C1661.78 543.393 1660.67 538.301 1660.67 532.364C1660.67 526.408 1661.78 521.316 1663.99 517.088C1666.22 512.842 1669.25 509.594 1673.06 507.345C1676.89 505.096 1681.23 503.972 1686.07 503.972C1690.91 503.972 1695.24 505.096 1699.05 507.345C1702.88 509.594 1705.91 512.842 1708.12 517.088C1710.35 521.316 1711.47 526.408 1711.47 532.364ZM1701.4 532.364C1701.4 528.171 1700.74 524.636 1699.43 521.757C1698.13 518.86 1696.33 516.674 1694.03 515.199C1691.73 513.705 1689.07 512.959 1686.07 512.959C1683.06 512.959 1680.41 513.705 1678.11 515.199C1675.8 516.674 1674 518.86 1672.68 521.757C1671.39 524.636 1670.74 528.171 1670.74 532.364C1670.74 536.556 1671.39 540.1 1672.68 542.997C1674 545.876 1675.8 548.062 1678.11 549.555C1680.41 551.031 1683.06 551.768 1686.07 551.768C1689.07 551.768 1691.73 551.031 1694.03 549.555C1696.33 548.062 1698.13 545.876 1699.43 542.997C1700.74 540.1 1701.4 536.556 1701.4 532.364ZM1757.96 522.378C1757.51 520.92 1756.89 519.616 1756.1 518.464C1755.32 517.295 1754.39 516.296 1753.29 515.469C1752.21 514.641 1750.97 514.02 1749.57 513.607C1748.16 513.175 1746.63 512.959 1744.98 512.959C1742.01 512.959 1739.37 513.705 1737.04 515.199C1734.72 516.692 1732.9 518.887 1731.57 521.784C1730.25 524.663 1729.6 528.171 1729.6 532.31C1729.6 536.484 1730.25 540.019 1731.57 542.916C1732.88 545.813 1734.71 548.017 1737.04 549.528C1739.38 551.022 1742.1 551.768 1745.19 551.768C1748 551.768 1750.43 551.229 1752.48 550.149C1754.55 549.07 1756.14 547.54 1757.26 545.561C1758.37 543.564 1758.93 541.225 1758.93 538.544L1761.2 538.895H1746.19V531.068H1768.62V537.707C1768.62 542.439 1767.61 546.533 1765.6 549.987C1763.58 553.442 1760.81 556.105 1757.29 557.976C1753.76 559.829 1749.71 560.756 1745.14 560.756C1740.05 560.756 1735.58 559.613 1731.73 557.328C1727.9 555.025 1724.9 551.759 1722.74 547.531C1720.6 543.285 1719.53 538.247 1719.53 532.418C1719.53 527.955 1720.16 523.97 1721.42 520.462C1722.7 516.953 1724.48 513.975 1726.76 511.528C1729.05 509.063 1731.73 507.192 1734.8 505.915C1737.88 504.619 1741.23 503.972 1744.84 503.972C1747.9 503.972 1750.75 504.421 1753.4 505.321C1756.04 506.203 1758.39 507.462 1760.44 509.099C1762.51 510.737 1764.21 512.68 1765.54 514.929C1766.88 517.178 1767.75 519.661 1768.16 522.378H1757.96ZM1772.45 504.727H1783.75L1797.28 529.179H1797.82L1811.34 504.727H1822.65L1802.54 539.381V560H1792.55V539.381L1772.45 504.727Z" fill="#FFF7F7"/>
</svg>
